<svg id="Layer_1" enable-background="new 0 0 512.002 512.002" height="512" viewBox="0 0 512.002 512.002" width="512" xmlns="http://www.w3.org/2000/svg"><g><g clip-rule="evenodd" fill-rule="evenodd"><path d="m446.831 225.67c-6.882 2.784-14.971 4.331-24.256 4.331h-333.147c-9.103 0-17.055-1.487-23.848-4.167l-2.497 2.055c-44.776 44.777-.607 77.402 26.24 77.402s28.712-25.287 55.56-25.287c8.247 0 14.137 2.386 19.118 5.693 11.233 7.457 17.842 19.595 36.442 19.595 26.847 0 28.712-25.287 55.56-25.287 26.847 0 28.712 25.287 55.56 25.287 18.053 0 24.81-11.435 35.463-18.926 5.189-3.649 11.302-6.362 20.096-6.362 26.847 0 28.712 25.287 55.56 25.287 26.847 0 71.016-32.625 26.24-77.402z" fill="#e8d0c1"/><path d="m256.001 280.002c-26.847 0-28.712 25.287-55.56 25.287-18.602 0-25.21-12.14-36.445-19.596 3.652 59.145-8.625 117.374-8.625 176.309 0 22 18 40 40 40h120c22 0 40-18 40-40 0-58.21-11.42-117.802-8.345-175.64-10.655 7.491-17.411 18.928-35.466 18.928-26.846-.001-28.712-25.288-55.559-25.288z" fill="#f4e9e2"/><path d="m326.733 230h63.078l.001-.01c7.237-7.85 11.359-18.208 11.359-29.081 0-23.696-19.209-42.905-42.905-42.905s-42.905 19.209-42.905 42.905c0 11.227 4.314 21.445 11.372 29.091z" fill="#60c"/><path d="m133.382 123.741c28.044 0 50.777-22.734 50.777-50.777 0-18.035-9.405-33.871-23.576-42.879l-.005-.007c-29.174 12.904-55.27 31.592-76.567 54.783l.003.009c5.359 22.298 25.426 38.871 49.368 38.871z" fill="#60c"/><path d="m184.159 72.963c0 28.044-22.734 50.777-50.777 50.777-23.942 0-44.009-16.573-49.367-38.871l-.003-.009c-17.627 19.195-31.967 41.475-42.044 66.113-12.911 31.567-4.79 63.65 23.612 74.859 6.792 2.681 14.745 4.168 23.848 4.168h237.305c-7.058-7.646-11.372-17.864-11.372-29.091 0-23.696 19.209-42.905 42.905-42.905s42.905 19.209 42.905 42.905c0 10.874-4.122 21.231-11.359 29.081l-.001.01h32.764c9.285 0 17.374-1.547 24.256-4.331 28.071-11.354 36.054-43.281 23.204-74.696-34.474-84.286-118.835-140.973-214.034-140.973-33.75 0-66.137 7.125-95.423 20.078l.005.007c14.171 9.007 23.576 24.843 23.576 42.878z" fill="#ffbecb"/><g fill="#fff"><ellipse cx="288.207" cy="92.999" rx="21.5" ry="21.5" transform="matrix(.973 -.23 .23 .973 -13.657 68.704)"/><path d="m213.707 187.499c11.842 0 21.5-9.658 21.5-21.5s-9.658-21.5-21.5-21.5-21.5 9.658-21.5 21.5 9.658 21.5 21.5 21.5z"/><path d="m326.733 230h63.078l.001-.01c7.237-7.85 11.359-18.208 11.359-29.081 0-23.696-19.209-42.905-42.905-42.905s-42.905 19.209-42.905 42.905c0 11.227 4.314 21.445 11.372 29.091z"/><path d="m133.382 123.741c28.044 0 50.777-22.734 50.777-50.777 0-18.035-9.405-33.871-23.576-42.879l-.005-.007c-29.174 12.904-55.27 31.592-76.567 54.783l.003.009c5.359 22.298 25.426 38.871 49.368 38.871z"/></g></g><path d="m475.981 214.574c12.013-17.892 13.25-43.083 3.31-67.386-17.751-43.401-48.174-80.279-87.978-106.646-40.04-26.522-86.83-40.542-135.312-40.542s-95.271 14.02-135.311 40.542c-39.805 26.367-70.227 63.245-87.979 106.646v.001c-9.94 24.303-8.703 49.494 3.31 67.385 3.599 5.36 8.062 9.916 13.239 13.644-19.642 23.773-16.247 43.347-12.081 53.405 8.729 21.074 33.367 33.667 52.144 33.667 17.199 0 26.73-8.395 34.389-15.139 6.689-5.892 11.522-10.148 21.171-10.148 3.732 0 6.74.643 9.418 1.765 1.387 30.882-1.466 62.248-4.235 92.636-2.308 25.314-4.693 51.491-4.693 77.599 0 27.57 22.43 50 50 50h120c27.57 0 50-22.43 50-50 0-26.078-2.273-52.648-4.472-78.344-2.587-30.233-5.251-61.438-4.121-91.483 2.908-1.377 6.175-2.174 10.342-2.174 9.647 0 14.48 4.257 21.17 10.147 7.658 6.745 17.19 15.14 34.39 15.14 18.776 0 43.413-12.593 52.143-33.667 4.166-10.058 7.562-29.632-12.081-53.405 5.175-3.727 9.638-8.283 13.237-13.643zm-424.758-59.814c33.484-81.864 113.863-134.76 204.778-134.76s171.295 52.896 204.777 134.76c7.413 18.124 6.889 36.316-1.402 48.666-7.28 10.843-20.005 16.574-36.801 16.574h-333.147c-16.796 0-29.522-5.731-36.803-16.575-8.291-12.349-8.815-30.541-1.402-48.665zm264.149 337.242h-10.192c-1.134-17.205-1.686-36.814-1.435-41.968.269-5.517-3.985-10.206-9.502-10.475-5.545-.261-10.205 3.985-10.475 9.502-.296 6.068.287 25.889 1.37 42.94h-89.768c-16.542 0-30-13.458-30-30 0-25.198 2.344-50.914 4.61-75.783 2.355-25.833 4.761-52.357 4.675-79.084 6.352 4.456 14.376 8.154 25.785 8.154.689 0 1.347-.035 2.012-.062-.509 16.727-1.715 35.017-2.416 39.925-.781 5.468 3.018 10.533 8.484 11.314.48.068.956.102 1.428.102 4.896 0 9.174-3.599 9.887-8.586.956-6.688 2.411-30.433 2.77-48.526 4.829-2.811 8.727-6.227 12.224-9.306 6.689-5.892 11.522-10.148 21.171-10.148 9.647 0 14.48 4.257 21.17 10.147 7.658 6.745 17.19 15.14 34.39 15.14 10.915 0 18.736-3.384 24.955-7.578.045 25.969 2.274 52.149 4.457 77.652 2.162 25.276 4.398 51.414 4.398 76.639.002 16.543-13.456 30.001-29.998 30.001zm140.973-218.033c-5.283 12.753-21.672 21.32-33.665 21.32-9.648 0-14.481-4.257-21.171-10.148-7.658-6.744-17.189-15.139-34.389-15.139s-26.73 8.395-34.39 15.14c-6.689 5.891-11.522 10.147-21.17 10.147s-14.481-4.257-21.171-10.148c-7.658-6.744-17.189-15.139-34.389-15.139s-26.731 8.395-34.39 15.14c-6.689 5.891-11.522 10.147-21.17 10.147s-14.481-4.257-21.171-10.148c-7.658-6.744-17.189-15.139-34.389-15.139s-26.731 8.395-34.39 15.14c-6.689 5.891-11.522 10.147-21.17 10.147-11.993 0-28.383-8.567-33.666-21.32-5.51-13.304 3.188-27.01 12.377-36.817 6.581 1.868 13.745 2.848 21.397 2.848h333.146c7.652 0 14.816-.98 21.394-2.848 9.189 9.807 17.888 23.513 12.377 36.817z" fill="#d1a19e"/></g></svg>