<svg id="Layer_1" enable-background="new 0 0 511.978 511.978" height="512" viewBox="0 0 511.978 511.978" width="512" xmlns="http://www.w3.org/2000/svg"><g><path clip-rule="evenodd" d="m51.009 302.809c0 111.103 91.773 201.17 204.98 201.17s204.98-90.067 204.98-201.17c0-78.454-21.229-131.159-31.876-148.767s-29.361-10.861-31.205 2.578c-1.845 13.439-24.469 11.298-27.214-8.463-11.574-83.298-86.869-129.005-99.928-135.638-12.605-6.403-27.098-.326-27.098 13.857 0 55.284-30.618 90.126-50.662 95.606-13.712 3.749-22.91-8.856-18.015-21.5 19.098-49.337-123.962 2.875-123.962 202.327z" fill="#fff7bf" fill-rule="evenodd"/></g><g><path clip-rule="evenodd" d="m255.989 203.979c-28.204 0-120 101.712-120 179.972 0 64.801 54.227 120.276 120 120.027 65.773.249 120-55.227 120-120.027 0-78.26-91.796-179.972-120-179.972z" fill="#ffda8f" fill-rule="evenodd"/></g><g><path clip-rule="evenodd" d="m255.989 376.978c-11.752 0-50 42.38-50 74.988 0 27 22.595 50.115 50 50.011 27.405.104 50-23.011 50-50.011 0-32.608-38.248-74.988-50-74.988z" fill="#ff9171" fill-rule="evenodd"/></g><path d="m437.912 149.086c-6.992-11.563-18.409-17.288-29.794-14.933-10.423 2.152-18.409 10.669-19.906 21.211-.528.078-1.595.024-2.852-.639-1.424-.752-3.917-2.757-4.608-7.735-5.198-37.408-22.759-71.822-52.195-102.287-21.036-21.771-43.376-36.075-53.259-41.095-9.745-4.951-21.066-4.798-29.542.403-7.707 4.729-12.126 12.89-12.126 22.389 0 51.826-28.724 82.099-43.375 86.104-2.388.652-4.198.315-5.386-1-1.188-1.316-1.994-3.919-.694-7.275 5.508-14.229.431-22.071-3.085-25.479-7.167-6.947-19.143-7.373-33.722-1.2-24.312 10.293-50.042 35.826-68.829 68.301-24.754 42.791-37.839 97.22-37.839 157.401 0 39.438 11.129 77.915 32.184 111.272 18.862 29.881 45.411 54.665 76.777 71.673 31.102 16.865 66.345 25.779 101.92 25.781h3.888.967 3.992.009c34.856 0 69.471-8.575 100.098-24.798 30.897-16.366 57.295-40.3 76.339-69.212 22.508-34.171 34.406-73.839 34.406-114.717-.001-78.134-20.975-133.669-33.368-154.165zm-181.961 342.891c-.137.001-.269.001-.406.001-28.594 0-55.813-11.434-76.677-32.219-20.895-20.816-32.878-49.177-32.878-77.81 0-31.941 17.283-73.246 47.416-113.323 27.426-36.476 54.413-56.648 62.583-56.648s35.158 20.173 62.584 56.648c30.134 40.077 47.417 81.382 47.417 113.323 0 28.633-11.983 56.993-32.878 77.809-20.866 20.787-48.082 32.22-76.753 32.22-.136 0-.272 0-.408-.001zm164.22-85.01c-17.527 26.609-41.214 47.858-68.636 62.456 21.964-24.054 34.454-55.591 34.454-87.473 0-36.187-18.746-81.872-51.431-125.343-24.188-32.169-57.863-64.629-78.569-64.629s-54.381 32.46-78.569 64.629c-32.685 43.471-51.431 89.156-51.431 125.343 0 31.91 12.513 63.475 34.514 87.537-28.499-15.155-52.944-37.496-70.707-65.639-19.035-30.157-29.097-64.943-29.097-100.597 0-51.701 9.68-97.299 28.771-135.526 19.359-38.764 42.224-57.65 54.13-65.458 11.581-7.595 19.148-9.045 22.377-9.045.213 0 .407.007.583.018-.091.771-.352 1.994-1.039 3.769-3.828 9.89-2.105 20.578 4.498 27.895 6.285 6.965 15.822 9.543 25.508 6.894 13.477-3.684 27.962-16.218 38.748-33.527 8.829-14.171 19.354-38.142 19.354-71.869 0-2.526.846-4.273 2.586-5.342 2.552-1.566 6.486-1.417 10.024.381.827.42 82.849 42.996 94.703 128.303 2.34 16.844 15.272 25.65 26.846 25.649h.019c10.507-.008 18.815-7.077 20.203-17.19.352-2.562 2.34-4.087 4.155-4.462 2.929-.606 6.078 1.471 8.633 5.694 11.321 18.725 30.481 70.085 30.481 143.818 0 36.955-10.757 72.819-31.108 103.714z" fill="#ffcd69"/></svg>