<svg id="Layer_1" enable-background="new 0 0 512 512" height="512" viewBox="0 0 512 512" width="512" xmlns="http://www.w3.org/2000/svg"><g><g><ellipse clip-rule="evenodd" cx="236.026" cy="76.878" fill="#b8ecbb" fill-rule="evenodd" rx="39.967" ry="69.237" transform="matrix(.966 -.259 .259 .966 -11.855 63.708)"/><path clip-rule="evenodd" d="m256 151.158c-20.225-11.038-43.275-16.914-67.745-16.914-80.174 0-145.167 62.968-145.167 164.522s92.845 203.234 145.167 203.234c34.993 0 38.519-15.856 67.745-15.856s32.752 15.856 67.745 15.856c52.322 0 145.167-101.681 145.167-203.234s-64.993-164.522-145.167-164.522c-24.47 0-47.52 5.876-67.745 16.914z" fill="#ffbecb" fill-rule="evenodd"/><g><path d="m183.505 225.622c-5.522 0-10.004-4.478-10.004-10s4.475-10 9.997-10h.007c5.522 0 10 4.478 10 10s-4.477 10-10 10z" fill="#ff9c9b"/></g><g><path d="m129.499 295.622c-5.522 0-10.004-4.478-10.004-10s4.474-10 9.996-10h.008c5.522 0 10 4.478 10 10s-4.478 10-10 10z" fill="#ff9c9b"/></g><g><path d="m225.499 303.622c-5.522 0-10.004-4.478-10.004-10s4.474-10 9.996-10h.008c5.522 0 10 4.478 10 10s-4.478 10-10 10z" fill="#ff9c9b"/></g><g><path d="m202.499 399.622c-5.522 0-10.004-4.478-10.004-10s4.474-10 9.996-10h.008c5.522 0 10 4.478 10 10s-4.478 10-10 10z" fill="#ff9c9b"/></g><g><path d="m356.499 396.622c-5.522 0-10.004-4.478-10.004-10s4.474-10 9.996-10h.008c5.522 0 10 4.478 10 10s-4.478 10-10 10z" fill="#ff9c9b"/></g></g><path d="m433.739 171.637c-28.233-30.562-67.297-47.393-109.994-47.393-16.853 0-33.003 2.555-48.273 7.605 11.587-20.342 15.013-44.786 8.818-67.903-8.282-30.913-32.647-55.284-63.587-63.604-3.459-.929-7.146.061-9.674 2.592-22.635 22.674-31.551 55.963-23.268 86.876 3.56 13.288 10.099 25.362 18.848 35.477-6.017-.691-12.137-1.044-18.354-1.044-42.697 0-81.76 16.831-109.993 47.393-29.553 31.989-45.173 75.95-45.173 127.129 0 47.849 20.076 101.01 55.08 145.853 32.442 41.563 70.792 67.382 100.085 67.382 20.415 0 31.517-4.957 41.312-9.331 8.162-3.646 14.609-6.524 26.434-6.524 11.824 0 18.271 2.879 26.434 6.524 9.795 4.374 20.896 9.331 41.312 9.331 29.293 0 67.644-25.819 100.087-67.382 35.004-44.843 55.08-98.005 55.08-145.853-.001-51.178-15.621-95.139-45.174-127.128zm-212.568-150.196c21.352 7.746 37.873 25.561 43.8 47.682 4.776 17.82 2.194 36.656-6.632 52.396l-4.677-17.456c-1.43-5.334-6.914-8.502-12.247-7.071-5.335 1.43-8.501 6.913-7.071 12.247l4.677 17.455c-15.513-9.218-27.167-24.24-31.942-42.06-5.926-22.12-.526-45.809 14.092-63.193zm186.895 410.872c-27.868 35.701-61.754 59.687-84.321 59.687-16.152 0-24.412-3.688-33.157-7.594-8.672-3.872-18.501-8.262-34.588-8.262s-25.916 4.39-34.588 8.262c-8.745 3.905-17.005 7.594-33.157 7.594-22.567 0-56.453-23.986-84.32-59.688-32.313-41.396-50.846-90.072-50.846-133.547 0-90.979 55.582-154.521 135.166-154.521 22.695 0 43.876 5.279 62.955 15.691 2.986 1.629 6.596 1.629 9.58 0 19.08-10.412 40.261-15.691 62.955-15.691 79.584 0 135.167 63.542 135.167 154.521 0 43.475-18.533 92.151-50.846 133.548z" fill="#ff7d97"/></g></svg>