<svg id="Layer_1" enable-background="new 0 0 512.001 512.001" height="512" viewBox="0 0 512.001 512.001" width="512" xmlns="http://www.w3.org/2000/svg"><g><g><path clip-rule="evenodd" d="m414.09 220.866c-17.544-27.192-41.039-50.048-67.174-66.507-17.053-10.74-35.231-18.756-53.613-23.477-12.435-3.194-24.964-4.879-37.302-4.879s-24.867 1.686-37.302 4.879c-18.382 4.721-36.56 12.738-53.613 23.477-26.135 16.46-49.63 39.316-67.174 66.507-10.599 16.426-19.026 34.434-24.552 53.569-4.751 16.452-7.359 33.737-7.359 51.567 0 110.457 105.602 119.997 190 119.997s190-9.54 190-119.997c0-17.831-2.608-35.116-7.359-51.568-5.527-19.135-13.954-37.142-24.552-53.568z" fill="#faf7f6" fill-rule="evenodd"/><path clip-rule="evenodd" d="m256.001 236.001c-10.027 0-16.719.66-24.016 9.403-12.479 14.951-15.984 46.753-15.984 60.597 0 18.009 13.5 30 30 30h10 10c16.5 0 30-11.991 30-30 0-13.845-3.505-45.647-15.984-60.597-7.297-8.742-13.989-9.403-24.016-9.403z" fill="#dad0d3" fill-rule="evenodd"/><g><path d="m284.514 374.514c-21.236 0-38.513-17.276-38.513-38.513 0-5.522 4.477-10 10-10 5.522 0 10 4.478 10 10 0 10.208 8.305 18.513 18.513 18.513 5.522 0 10 4.478 10 10s-4.478 10-10 10z" fill="#dad0d3"/></g><g><path d="m227.488 374.514c-5.523 0-10-4.478-10-10s4.477-10 10-10c10.208 0 18.513-8.305 18.513-18.513 0-5.522 4.477-10 10-10 5.522 0 10 4.478 10 10 0 21.237-17.277 38.513-38.513 38.513z" fill="#dad0d3"/></g><g clip-rule="evenodd" fill-rule="evenodd"><path d="m165.085 154.359c-8.068-16.777-25.224-28.358-45.085-28.358-27.614 0-50 22.386-50 50 0 19.684 11.377 36.708 27.911 44.865 17.545-27.191 41.039-50.047 67.174-66.507z" fill="#e8e7f9"/><path d="m346.916 154.359c26.135 16.46 49.63 39.316 67.174 66.507 16.534-8.157 27.911-25.181 27.911-44.864 0-27.614-22.386-50-50-50-19.861 0-37.017 11.58-45.085 28.357z" fill="#e8e7f9"/><path d="m165.085 154.359c17.053-10.74 35.231-18.757 53.613-23.477-.491-3.386-1.621-6.737-3.436-9.88-5.574-9.654-16.072-14.691-26.489-13.774.917-10.418-4.12-20.915-13.774-26.489-9.654-5.573-21.263-4.687-29.827 1.316-4.415-9.481-14.025-16.053-25.173-16.053-11.147 0-20.758 6.573-25.173 16.053-8.564-6.003-20.173-6.89-29.827-1.316s-14.691 16.072-13.774 26.489c-10.418-.917-20.915 4.12-26.489 13.774-5.573 9.654-4.687 21.263 1.316 29.827-9.479 4.415-16.052 14.025-16.052 25.173 0 11.147 6.573 20.758 16.053 25.173-6.003 8.564-6.89 20.173-1.316 29.827s16.072 14.691 26.489 13.773c-.917 10.418 4.12 20.915 13.774 26.489 2.672 1.543 5.494 2.59 8.36 3.171 5.526-19.136 13.953-37.143 24.551-53.569-16.535-8.156-27.911-25.18-27.911-44.864 0-27.614 22.386-50 50-50 19.861 0 37.017 11.58 45.085 28.357z" fill="#dad0d3"/><path d="m165.085 154.359c-8.068-16.777-25.224-28.358-45.085-28.358-27.614 0-50 22.386-50 50 0 19.684 11.377 36.708 27.911 44.865 17.545-27.191 41.039-50.047 67.174-66.507z" fill="#faf7f6"/><path d="m346.916 154.359c26.135 16.46 49.63 39.316 67.174 66.507 16.534-8.157 27.911-25.181 27.911-44.864 0-27.614-22.386-50-50-50-19.861 0-37.017 11.58-45.085 28.357z" fill="#faf7f6"/><path d="m392.001 126.002c27.614 0 50 22.386 50 50 0 19.684-11.376 36.708-27.911 44.864 10.598 16.426 19.025 34.433 24.552 53.569 2.865-.581 5.687-1.628 8.359-3.171 9.654-5.574 14.691-16.071 13.774-26.489 10.418.917 20.915-4.12 26.489-13.773 5.573-9.654 4.687-21.264-1.316-29.827 9.481-4.415 16.053-14.025 16.053-25.173 0-11.147-6.573-20.758-16.053-25.173 6.003-8.564 6.89-20.173 1.316-29.827s-16.072-14.691-26.489-13.774c.917-10.418-4.12-20.915-13.773-26.489-9.654-5.573-21.264-4.687-29.827 1.316-4.415-9.481-14.026-16.053-25.173-16.053s-20.758 6.573-25.173 16.053c-8.564-6.003-20.173-6.89-29.827-1.316s-14.691 16.072-13.774 26.489c-10.418-.917-20.915 4.12-26.489 13.774-1.815 3.143-2.944 6.494-3.436 9.88 18.383 4.721 36.56 12.737 53.613 23.477 8.068-16.777 25.224-28.357 45.085-28.357z" fill="#dad0d3"/></g></g><g><path d="m512.001 176.001c0-11.118-4.953-21.551-13.157-28.629 3.565-10.229 2.639-21.743-2.92-31.372-5.56-9.628-15.065-16.187-25.709-18.214-2.027-10.642-8.586-20.148-18.214-25.708-9.631-5.559-21.144-6.484-31.371-2.92-7.078-8.204-17.511-13.157-28.629-13.157s-21.551 4.953-28.628 13.157c-10.229-3.564-21.743-2.64-31.372 2.92-9.628 5.559-16.187 15.066-18.215 25.708-10.643 2.028-20.149 8.587-25.708 18.215-.586 1.014-1.117 2.052-1.603 3.108-10.298-2.049-20.526-3.107-30.474-3.107-9.946 0-20.174 1.057-30.471 3.106-.487-1.055-1.021-2.092-1.607-3.107-5.559-9.629-15.065-16.188-25.708-18.215-2.028-10.642-8.587-20.149-18.215-25.708-9.629-5.559-21.141-6.486-31.371-2.92-7.078-8.204-17.511-13.157-28.628-13.157-11.118 0-21.551 4.953-28.629 13.157-10.23-3.565-21.743-2.638-31.372 2.92-9.627 5.56-16.187 15.066-18.214 25.709-10.642 2.027-20.149 8.586-25.709 18.214-5.558 9.629-6.484 21.142-2.919 31.372-8.205 7.078-13.158 17.51-13.158 28.628s4.954 21.552 13.157 28.629c-3.565 10.23-2.639 21.743 2.92 31.371 5.559 9.629 15.065 16.188 25.708 18.215 2.027 10.644 8.586 20.149 18.214 25.708.452.261.918.488 1.379.729-3.567 14.907-5.378 30.064-5.378 45.349 0 53.213 23.328 90.418 69.337 110.579 39.048 17.112 87.964 19.419 130.664 19.419s91.615-2.307 130.663-19.418c46.009-20.162 69.337-57.366 69.337-110.579 0-15.281-1.81-30.434-5.375-45.338.461-.241.924-.479 1.375-.74 9.629-5.559 16.188-15.064 18.215-25.709 10.642-2.027 20.149-8.586 25.708-18.214s6.485-21.141 2.92-31.371c8.203-7.078 13.157-17.511 13.157-28.63zm-450.813 69.651c.259-2.946-.799-5.856-2.89-7.948-2.092-2.092-5.003-3.145-7.948-2.891-6.859.603-13.513-2.855-16.952-8.812s-3.107-13.449.845-19.087c1.698-2.422 2.236-5.472 1.471-8.329-.766-2.856-2.757-5.229-5.438-6.477-6.243-2.905-10.276-9.228-10.276-16.107 0-6.878 4.033-13.201 10.275-16.107 2.681-1.249 4.672-3.62 5.438-6.478.766-2.856.227-5.906-1.471-8.328-3.952-5.638-4.284-13.13-.845-19.086 3.439-5.959 10.101-9.42 16.952-8.813 2.949.255 5.857-.799 7.948-2.891s3.149-5.002 2.89-7.948c-.603-6.857 2.856-13.512 8.813-16.951s13.449-3.107 19.088.845c2.421 1.697 5.472 2.235 8.328 1.471 2.857-.766 5.229-2.757 6.477-5.438 2.906-6.242 9.229-10.275 16.107-10.275s13.201 4.033 16.107 10.275c1.249 2.682 3.621 4.672 6.478 5.438 2.857.767 5.906.228 8.328-1.471 5.637-3.952 13.129-4.285 19.086-.845 5.958 3.439 9.417 10.094 8.813 16.952-.259 2.946.799 5.856 2.89 7.948 2.092 2.091 5.007 3.149 7.948 2.891 6.193-.55 12.203 2.224 15.846 7.146-7.154 2.308-14.277 5.071-21.299 8.297-23.072 10.601-45.198 26.116-63.987 44.871-19.653 19.617-35.226 42.005-46.286 66.54-2.474 5.487-4.678 11.029-6.643 16.612-4.257-3.69-6.598-9.272-6.093-15.004zm194.813 190.348c-93.488 0-180-13.326-180-109.997 0-49.08 20.719-96.791 58.339-134.344 34.913-34.851 80.394-55.656 121.661-55.656s86.747 20.806 121.66 55.656c37.621 37.553 58.34 85.264 58.34 134.344 0 96.67-86.512 109.997-180 109.997zm225.726-243.891c-2.682 1.248-4.673 3.62-5.438 6.477-.766 2.857-.228 5.907 1.471 8.329 3.952 5.638 4.284 13.13.845 19.087-3.439 5.956-10.095 9.416-16.952 8.812-2.942-.256-5.856.799-7.948 2.891s-3.149 5.002-2.891 7.948c.505 5.732-1.835 11.313-6.093 15.003-1.965-5.583-4.169-11.124-6.643-16.611-11.061-24.535-26.634-46.923-46.286-66.54-18.789-18.755-40.915-34.271-63.987-44.871-7.022-3.226-14.145-5.989-21.299-8.297 3.645-4.922 9.664-7.694 15.846-7.146 2.939.259 5.855-.8 7.948-2.891 2.092-2.092 3.149-5.002 2.891-7.948-.604-6.858 2.854-13.513 8.812-16.952s13.45-3.106 19.087.845c2.421 1.697 5.469 2.236 8.328 1.471 2.857-.766 5.229-2.756 6.478-5.438 2.906-6.242 9.229-10.275 16.107-10.275s13.201 4.033 16.107 10.275c1.249 2.682 3.62 4.672 6.478 5.438 2.859.767 5.907.227 8.328-1.471 5.638-3.95 13.13-4.283 19.086-.845 5.957 3.439 9.417 10.094 8.813 16.952-.259 2.946.799 5.856 2.891 7.948s5.006 3.149 7.948 2.891c6.863-.609 13.513 2.854 16.952 8.812 3.438 5.957 3.107 13.449-.845 19.087-1.698 2.422-2.236 5.472-1.471 8.328.766 2.857 2.756 5.229 5.438 6.478 6.242 2.907 10.275 9.229 10.275 16.107-.002 6.877-4.035 13.2-10.276 16.106z" fill="#b6bccf"/><g fill="#9ea6bf"><path d="m192.251 236.002h-.008c-5.523 0-9.996 4.478-9.996 10s4.481 10 10.004 10 10-4.478 10-10-4.477-10-10-10z"/><path d="m316.751 236.002h-.007c-5.522 0-9.997 4.478-9.997 10s4.481 10 10.004 10 10-4.478 10-10-4.478-10-10-10z"/></g></g></g></svg>