<svg id="Layer_1" enable-background="new 0 0 511.986 511.986" height="512" viewBox="0 0 511.986 511.986" width="512" xmlns="http://www.w3.org/2000/svg"><g><g clip-rule="evenodd" fill-rule="evenodd"><g><path d="m242.624 226.886c0 21.57-15.176 39.596-35.434 43.977.281 80.251-2.166 161.524-23.69 231.123h120c-21.078-68.156-23.718-150.247-23.583-231.096-20.311-4.345-35.542-22.396-35.542-44.005 0-.339.004-.678.011-1.015l-1.771.057c.006.32.009.639.009.959z" fill="#f4e9e8"/><path d="m207.191 270.867c20.257-4.385 35.433-22.411 35.433-43.981 0-.32-.003-.639-.01-.958-.446-21.357-15.771-39.056-36.028-43.15-2.896-.585-5.893-.893-8.962-.893-24.853 0-45 20.147-45 45 0 3.01.296 5.951.859 8.795 4.09 20.642 22.298 36.205 44.141 36.205 3.283.001 6.483-.351 9.567-1.018z" fill="#fffbe1"/><path d="m244.374 226.886c0 21.608 15.231 39.66 35.542 44.005 3.049.652 6.214.995 9.458.995 24.298 0 44.099-19.258 44.97-43.344.02-.55.03-1.102.03-1.656 0-24.853-20.147-45-45-45-3.069 0-6.066.307-8.962.892-20.239 4.09-35.555 21.761-36.027 43.093-.007.337-.011.675-.011 1.015z" fill="#fff7bf"/><path d="m243.499 192.858c24.853 0 45-20.147 45-45 0-1.375-.061-2.735-.182-4.078-2.061-22.942-21.34-40.922-44.818-40.922-2.773 0-5.487.251-8.121.731-19.566 3.566-34.717 19.784-36.666 39.868-.141 1.448-.213 2.916-.213 4.401 0 24.852 20.147 45 45 45z" fill="#fffbe1"/><path d="m152.624 226.886c0-24.853 20.147-45 45-45 3.069 0 6.066.307 8.962.893 4.882.986 9.477 2.763 13.646 5.19l.685-1.179c-13.405-7.792-22.418-22.31-22.418-38.932 0-1.485.072-2.953.215-4.401-10.945-.547-22.176.044-33.437 1.786-6.154.952-12.317 2.248-18.448 3.891-51.371 13.765-92.609 50.589-102.974 94.904-1.86 7.954 3.584 20.058 16.453 16.61l93.175-24.966c-.563-2.845-.859-5.786-.859-8.796z" fill="#e8f9ea"/><path d="m288.499 147.858c0 16.45-8.827 30.839-22.003 38.688-6.73 4.009-14.594 6.312-22.997 6.312-8.23 0-15.945-2.21-22.582-6.068l-.685 1.179c13.133 7.646 22.043 21.749 22.382 37.959l1.771-.057c.361-16.319 9.409-30.495 22.702-38.088 4.084-2.333 8.568-4.044 13.324-5.005 2.896-.585 5.893-.892 8.962-.892 24.853 0 45 20.147 45 45 0 .554-.01 1.107-.033 1.655l112.35 30.104c12.869 3.448 18.313-8.655 16.453-16.61-10.366-44.314-51.603-81.139-102.974-94.904-8.038-2.154-16.132-3.713-24.19-4.682-16.303-1.961-32.452-1.505-47.663 1.329.122 1.344.183 2.705.183 4.08z" fill="#cff2d2"/><path d="m288.313 143.779c15.214-2.834 31.364-3.29 47.667-1.329l121.336-32.512c14.386-3.854 12.891-18.615 6.645-25.275-34.803-37.106-95.307-49.707-152.732-34.32-4.313 1.156-8.453 2.422-12.424 3.797-24.044 8.323-41.888 20.611-54.503 36.305-3.334 4.148-6.303 8.533-8.925 13.144 2.634-.48 5.348-.731 8.121-.731 23.479 0 42.758 17.979 44.815 40.921z" fill="#e8f9ea"/><g fill="#cff2d2"><path d="m198.712 143.456c1.949-20.083 17.101-36.302 36.666-39.866 2.622-4.613 5.59-8.999 8.923-13.148-9.542-9.76-21.442-18.549-34.785-25.968-47.644-26.491-113.695-35.509-156.586-8.88-7.338 4.556-12.316 17.675-.117 24.718l112.463 64.931c11.262-1.743 22.492-2.333 33.436-1.787z"/><path d="m209.516 64.474c13.343 7.419 25.242 16.208 34.786 25.97 12.615-15.694 30.459-27.982 54.503-36.305-28.064-81.768-78.191-32.864-89.289 10.335z"/></g></g><g fill="#e8d0cf"><path d="m280.171 313.048h-73.166c-.348 24.161-1.202 48.184-3.012 71.75h79.227c-1.79-23.509-2.665-47.553-3.049-71.75z"/><path d="m291.677 452.925h-96.263c-3.113 16.84-7.021 33.239-11.914 49.061h120c-4.856-15.699-8.733-32.11-11.823-49.061z"/></g></g><path d="m477.571 103.153c2.433-8.528-.105-18.708-6.316-25.331-36.751-39.183-100.581-53.762-162.614-37.139-1.285.344-2.557.701-3.818 1.066-14.453-35.141-33.33-42.271-47.034-41.72-23.765.893-44.239 24.91-54.15 50.224-15.351-7.373-32.1-13.105-49.156-16.621-41.217-8.497-79.156-3.714-106.827 13.466-7.451 4.627-12.365 13.493-12.228 22.064.13 8.12 4.645 15.341 12.386 19.81l90.453 52.224c-52.954 16.155-93.513 55.094-104.149 100.564-1.931 8.256.773 17.679 6.729 23.447 4.087 3.957 9.415 6.026 15.207 6.026 2.227 0 4.522-.306 6.842-.928l83.882-22.476c8.205 19.845 27.696 33.875 50.431 34.044.039 70.407-2.371 149.602-23.264 217.156-.938 3.034-.379 6.334 1.505 8.891 1.885 2.556 4.873 4.064 8.048 4.064h120c3.176 0 6.163-1.509 8.048-4.064 1.885-2.557 2.444-5.855 1.505-8.891-20.568-66.503-23.056-146.173-23.138-217.159 25.181-.244 46.361-17.49 52.592-40.789l101.596 27.222c2.32.622 4.615.928 6.842.928 5.792-.001 11.121-2.069 15.207-6.027 5.956-5.768 8.661-15.19 6.729-23.446-10.09-43.134-47.11-80.385-96.09-97.891l83.113-22.27c9.062-2.428 15.337-8.267 17.669-16.444zm-219.031-83.139c9.925-.359 19.52 9.63 27.387 28.359-16.817 7.028-30.923 16.311-42.223 27.781-6.679-5.823-14.191-11.277-22.32-16.257 7.681-21.411 24.03-39.39 37.156-39.883zm-15.04 162.843c-19.299 0-35-15.701-35-35s15.701-35 35-35 35 15.701 35 35-15.702 35-35 35zm-188.075-114.015c-.028-1.766 1.442-3.922 2.78-4.752 23.302-14.468 56.061-18.327 92.239-10.869 30.801 6.349 60.304 20.496 80.594 38.417-.705 1.046-1.391 2.106-2.061 3.179-18.649 5.112-33.363 19.811-38.499 38.45-7.711.011-15.459.539-23.204 1.582l-50.56-29.191 5.882-9.19c2.977-4.651 1.62-10.836-3.032-13.813-4.651-2.978-10.837-1.62-13.813 3.032l-6.375 9.961-41.562-23.996c-2.365-1.365-2.382-2.415-2.389-2.81zm2.295 182.146c-2.199.591-2.771.035-2.958-.147-.934-.904-1.501-3.104-1.169-4.525 9.375-40.081 46.989-74.436 95.824-87.522 13.088-3.505 26.285-5.356 39.352-5.522.654 6.666 2.506 12.983 5.332 18.74-28.69 1.824-51.476 25.732-51.476 54.875 0 .451.023.896.034 1.344zm104.904-24.103c0-19.299 15.701-35 35-35s35 15.701 35 35-15.701 35-35 35-35-15.701-35-35zm34.189 265.101c18.562-68.259 20.509-145.312 20.394-213.717 10.809-4.133 19.988-11.577 26.292-21.093 6.327 9.55 15.55 17.015 26.411 21.139.006 68.878 2.039 146.314 20.282 213.67h-93.379zm92.562-230.101c-19.299 0-35-15.701-35-35s15.701-35 35-35 35 15.701 35 35-15.702 35-35 35zm164.031-17.572c.333 1.422-.235 3.621-1.168 4.525-.189.182-.763.735-2.959.147l-68.742-18.419 5.276-19.072c1.472-5.323-1.649-10.832-6.972-12.304-5.323-1.477-10.832 1.648-12.304 6.972l-5.319 19.228-17.19-4.606c-2.918-26.314-24.47-47.079-51.129-48.774 2.956-6.021 4.833-12.657 5.402-19.66 19.132-2.377 39.458-.87 59.28 4.441 48.836 13.086 86.45 47.44 95.825 87.522zm4.932-146.646c-.139.486-.508 1.78-3.61 2.611l-79.551 21.316-7.219-22.788c-1.668-5.264-7.288-8.182-12.553-6.513-5.265 1.668-8.181 7.288-6.513 12.554l6.947 21.928-20.653 5.534c-13.138-1.43-26.23-1.395-38.897.139-5.683-19.437-21.818-34.454-41.891-38.504 13.755-15.788 33.356-26.959 59.421-33.944 55.003-14.739 111.076-2.373 142.849 31.502 1.242 1.328 2.235 4.185 1.67 6.165z" fill="#89df8f"/></g></svg>