<svg id="Layer_1" enable-background="new 0 0 512.094 512.094" height="512" viewBox="0 0 512.094 512.094" width="512" xmlns="http://www.w3.org/2000/svg"><g><g><g clip-rule="evenodd" fill-rule="evenodd"><path d="m162.078 417.04c-42.118-39.998-91.131-109.276-117.187-155.286-29.409 10.493-49.988 40.075-20.529 91.231 15.604 27.098 83.51 80.86 137.614 101.892-6.279-11.792-6.245-26.073.102-37.837z" fill="#ffc8b8"/><path d="m44.891 261.754c26.056 46.01 75.069 115.288 117.184 155.284 1.795-3.328 4.095-6.456 6.9-9.268 4.925-4.938 10.284-9.431 15.983-13.439-45.668-72.544-90.141-209.708-90.141-245.621 0-1.839.029-3.639.087-5.4-38.234-9.322-86.918 8.871-67.702 80.771 2.175 8.134 8.506 21.458 17.689 37.673z" fill="#ffe5dd"/><path d="m94.818 148.709c0 35.913 44.474 173.076 90.14 245.62 11.326-7.968 23.997-14.026 37.296-17.874-26.838-80.453-31.138-248.153-31.138-275.309 0-5.616.709-11.066 2.043-16.264-36.812-22.806-95.705-20.638-98.255 58.426-.057 1.763-.086 3.563-.086 5.401z" fill="#ffc8b8"/><path d="m191.115 101.146c0 27.157 4.301 194.856 31.138 275.307 10.973-3.176 22.372-4.848 33.793-4.848 11.422 0 22.821 1.672 33.793 4.85 26.837-80.453 31.138-248.153 31.138-275.309 0-5.616-.709-11.066-2.043-16.264-7.204-28.083-32.629-48.836-62.888-48.836s-55.684 20.752-62.888 48.836c-1.333 5.199-2.043 10.649-2.043 16.264z" fill="#ffe5dd"/><path d="m320.978 101.146c0 27.157-4.301 194.856-31.138 275.307 13.298 3.849 25.97 9.907 37.294 17.877 45.668-72.544 90.141-209.708 90.141-245.621 0-1.839-.029-3.639-.086-5.4-2.55-79.064-61.442-81.233-98.255-58.426 1.334 5.198 2.044 10.648 2.044 16.263z" fill="#ffc8b8"/><path d="m417.275 148.709c0 35.913-44.474 173.076-90.14 245.62 5.699 4.009 11.057 8.502 15.983 13.441 2.805 2.812 5.105 5.939 6.897 9.27 42.118-39.997 91.131-109.276 117.187-155.286 9.183-16.215 15.515-29.539 17.689-37.674 19.216-71.9-29.469-90.093-67.701-80.771.056 1.762.085 3.562.085 5.4z" fill="#ffe5dd"/><g fill="#ffc8b8"><path d="m327.135 394.329c-11.326-7.968-23.997-14.026-37.295-17.875-10.972-3.176-22.372-4.848-33.793-4.848-11.422 0-22.821 1.672-33.793 4.848-13.298 3.849-25.97 9.907-37.295 17.876-5.699 4.009-11.057 8.502-15.982 13.44-2.805 2.813-5.105 5.94-6.9 9.268-6.345 11.766-6.378 26.047-.1 37.839 1.809 3.398 4.143 6.59 7 9.455 15.579 15.619 40.837 15.619 56.416 0 8.429-8.451 18.731-12.727 30.655-12.727s22.226 4.276 30.655 12.727c15.579 15.619 40.837 15.619 56.416 0 2.858-2.866 5.192-6.058 7.001-9.457 6.277-11.792 6.243-26.073-.102-37.838-1.795-3.328-4.095-6.455-6.9-9.267-4.926-4.939-10.284-9.432-15.983-13.441z"/><path d="m350.015 417.04c42.118-39.997 91.131-109.276 117.187-155.286 29.409 10.493 49.988 40.075 20.529 91.231-15.604 27.098-83.51 80.86-137.614 101.892 6.278-11.792 6.245-26.073-.102-37.837z"/></g></g><g><path d="m279.886 157.27c-.658 0-1.324-.065-1.994-.2-14.23-2.879-29.461-2.879-43.691 0-5.42 1.09-10.689-2.404-11.785-7.818-1.095-5.414 2.405-10.689 7.818-11.785 16.838-3.406 34.787-3.406 51.625 0 5.413 1.096 8.913 6.371 7.818 11.785-.96 4.743-5.131 8.018-9.791 8.018z" fill="#ffc8b8"/></g><g><path d="m269.885 236.977c-.658 0-1.325-.065-1.995-.201-7.709-1.561-15.979-1.561-23.688 0-5.401 1.095-10.689-2.402-11.785-7.816-1.097-5.413 2.403-10.689 7.816-11.785 10.316-2.09 21.309-2.09 31.625 0 5.413 1.096 8.913 6.372 7.816 11.785-.959 4.743-5.13 8.017-9.789 8.017z" fill="#ffc8b8"/></g><g><path d="m264.635 316.765c-.657 0-1.323-.064-1.991-.2-4.299-.869-8.896-.869-13.195 0-5.405 1.089-10.688-2.407-11.782-7.821-1.094-5.413 2.407-10.688 7.821-11.782 6.898-1.395 14.219-1.395 21.117 0 5.414 1.094 8.915 6.369 7.821 11.782-.959 4.744-5.131 8.021-9.791 8.021z" fill="#ffc8b8"/></g></g><path d="m508.64 287.851c-4.708-12.958-14.293-23.621-27.455-30.781 6.762-12.715 11.457-23.269 13.366-30.409 11.342-42.438-.143-65.605-11.774-77.568-13.236-13.612-34.157-19.943-56.377-17.529-3.921-36.626-20.332-53.614-34.385-61.479-22.107-12.372-47.753-8.512-67.538.521-11.699-26.228-37.961-44.56-68.431-44.56s-56.731 18.332-68.43 44.561c-19.786-9.033-45.439-12.893-67.547-.517-14.05 7.867-30.456 24.853-34.376 61.474-22.213-2.412-43.127 3.911-56.365 17.517-11.639 11.963-23.131 35.133-11.786 77.58 1.908 7.139 6.602 17.692 13.363 30.405-13.189 7.176-22.784 17.874-27.481 30.862-7.183 19.866-3.054 43.434 12.271 70.047 16.475 28.609 83.634 82.193 139.406 104.917 1.915 3.014 4.171 5.872 6.794 8.501 9.424 9.449 21.956 14.653 35.288 14.653 13.331 0 25.863-5.204 35.287-14.653v.001c6.57-6.587 14.281-9.789 23.575-9.789 9.295 0 17.006 3.202 23.575 9.789 9.425 9.448 21.957 14.652 35.288 14.652s25.863-5.204 35.288-14.652c2.623-2.63 4.88-5.488 6.795-8.502 55.771-22.724 122.929-76.307 139.405-104.917 15.348-26.65 19.467-50.243 12.244-70.124zm-40.203-124.815c11.504 11.83 13.853 32.047 6.792 58.462-3.171 11.865-19.083 42.555-47.482 84.369-25.6 37.693-53.031 72.041-76.512 95.934-.344-.366-.68-.736-1.037-1.094-3.127-3.135-6.406-6.1-9.819-8.89 43.491-73.319 84.816-199.595 86.813-240.198 14.034-1.786 30.559.427 41.245 11.417zm-86.189-75.497c16.373 9.163 25.027 30.315 25.027 61.17 0 30.527-38.872 156.175-83.339 231.626-6.888-4.079-14.132-7.531-21.625-10.322 26.938-92.463 28.667-267.102 28.667-268.867 0-3.773-.286-7.479-.825-11.104 18.242-9.228 38.142-10.312 52.095-2.503zm-126.202-41.492c30.289 0 54.932 24.718 54.932 55.1 0 34.312-5.042 184.753-27.882 263.297-8.864-1.865-17.931-2.838-27.05-2.838-9.118 0-18.185.973-27.049 2.838-22.84-78.544-27.882-228.985-27.882-263.297.001-30.382 24.642-55.1 54.931-55.1zm-126.207 41.495c13.952-7.809 33.856-6.727 52.101 2.502-.538 3.625-.824 7.33-.824 11.103 0 1.765 1.729 176.404 28.667 268.867-7.493 2.791-14.738 6.244-21.626 10.323-44.467-75.451-83.339-201.1-83.339-231.627 0-30.853 8.652-52.003 25.021-61.168zm-86.176 75.487c10.686-10.983 27.205-13.194 41.239-11.41 1.998 40.605 43.322 166.88 86.813 240.198-3.412 2.79-6.691 5.755-9.818 8.889-.357.358-.694.728-1.037 1.094-23.481-23.893-50.912-58.24-76.512-95.934-28.399-41.814-44.312-72.504-47.482-84.369-7.064-26.42-4.713-46.639 6.797-58.468zm-10.635 184.966c-12.078-20.974-15.811-39.393-10.795-53.266 3.628-10.034 11.147-16.322 18.452-20.223 26.331 44.912 70.028 105.863 109.467 144.883-2.047 5.833-2.973 11.973-2.801 18.087-49.679-24.407-102.451-68.865-114.323-89.481zm281.882 118.051c-7.979 0-15.482-3.116-21.128-8.775-10.366-10.395-23.063-15.665-37.735-15.665s-27.367 5.271-37.735 15.664v.001c-5.645 5.659-13.147 8.775-21.127 8.775s-15.483-3.116-21.128-8.776c-11.67-11.7-11.67-30.737 0-42.438 21.062-21.116 50.217-33.227 79.99-33.227 29.774 0 58.93 12.11 79.991 33.227 11.67 11.7 11.67 30.737 0 42.438-5.646 5.66-13.149 8.776-21.128 8.776zm164.155-118.051c-11.872 20.617-64.644 65.074-114.322 89.482.173-6.115-.754-12.255-2.801-18.088 39.44-39.021 83.137-99.973 109.468-144.886 7.304 3.901 14.799 10.179 18.431 20.177 5.043 13.879 1.317 32.316-10.776 53.315z" fill="#ff9171"/></g></svg>