<svg id="Layer_1" enable-background="new 0 0 512.004 512.004" height="512" viewBox="0 0 512.004 512.004" width="512" xmlns="http://www.w3.org/2000/svg"><g><g><path clip-rule="evenodd" d="m116.003 280h300c33 0 60-27 60-60s-27-60-60-60c0-33.137-26.863-60-60-60-7.458 0-14.596 1.365-21.183 3.851-7.812-53.095-53.552-93.851-108.817-93.851-60.751 0-110 49.249-110 110-44 0-80 36-80 80s36 80 80 80z" fill="#e6dfe1" fill-rule="evenodd"/><g><path d="m236.783 212.449c-5.523 0-10-4.478-10-10 0-17.396-14.153-31.55-31.55-31.55-8.427 0-16.35 3.282-22.31 9.241-3.904 3.905-10.237 3.904-14.142 0-3.905-3.906-3.905-10.237 0-14.143 9.737-9.736 22.683-15.099 36.451-15.099 28.425 0 51.55 23.125 51.55 51.55.001 5.524-4.476 10.001-9.999 10.001z" fill="#fff"/></g><g><path d="m218.28 174.994c-5.523 0-10-4.478-10-10 0-28.425 23.125-51.55 51.55-51.55 13.77 0 26.715 5.362 36.452 15.099 3.905 3.905 3.905 10.237 0 14.143-3.905 3.904-10.237 3.904-14.143 0-5.959-5.959-13.882-9.241-22.309-9.241-17.396 0-31.55 14.153-31.55 31.55 0 5.522-4.477 9.999-10 9.999z" fill="#fff"/></g><g><path d="m331.104 224.251c-5.523 0-10-4.478-10-10 0-22.933 18.656-41.589 41.588-41.589 11.109 0 21.553 4.326 29.408 12.182 3.905 3.906 3.905 10.237 0 14.143s-10.237 3.904-14.142 0c-4.078-4.078-9.499-6.324-15.266-6.324-11.904 0-21.588 9.685-21.588 21.589 0 5.521-4.477 9.999-10 9.999z" fill="#fff"/></g></g><g fill="#b6bccf"><path d="m425.378 150.625c-4.595-34.182-33.954-60.625-69.374-60.625-4.553 0-9.054.435-13.466 1.296-5.87-23.857-19.026-45.503-37.763-61.822-21.825-19.006-49.799-29.474-78.772-29.474-62.973 0-114.774 48.764-119.628 110.512-45.115 4.821-80.372 43.115-80.372 89.488 0 49.626 40.374 90 90 90h300c38.598 0 70-31.402 70-70.001 0-35.42-26.443-64.779-60.625-69.374zm-9.375 119.375h-300c-38.598 0-70-31.402-70-70s31.402-70 70-70c5.523 0 10-4.478 10-10 0-55.14 44.86-100 100-100 49.24 0 91.768 36.674 98.924 85.307.44 2.994 2.213 5.628 4.822 7.162 2.608 1.536 5.773 1.809 8.603.737 5.637-2.127 11.576-3.206 17.652-3.206 27.57 0 50 22.43 50 50 0 5.522 4.477 10 10 10 27.57 0 50 22.43 50 50s-22.43 50-50.001 50z"/><path d="m187.475 468.042c-5.335-1.43-10.818 1.736-12.248 7.071l-6.511 24.3c-1.43 5.334 1.736 10.817 7.071 12.247.867.232 1.738.344 2.595.344 4.415 0 8.456-2.947 9.653-7.415l6.511-24.3c1.429-5.334-1.737-10.817-7.071-12.247z"/><path d="m45.103 468.042c-5.337-1.43-10.818 1.736-12.248 7.071l-6.511 24.3c-1.43 5.334 1.736 10.817 7.071 12.247.867.232 1.738.344 2.595.344 4.415 0 8.456-2.947 9.653-7.415l6.511-24.3c1.429-5.334-1.737-10.817-7.071-12.247z"/><path d="m329.847 468.042c-5.334-1.43-10.819 1.736-12.248 7.071l-6.511 24.3c-1.43 5.334 1.736 10.817 7.071 12.247.867.232 1.738.344 2.595.344 4.415 0 8.456-2.947 9.653-7.415l6.511-24.3c1.429-5.334-1.737-10.817-7.071-12.247z"/><path d="m261.847 351.487c-5.335-1.432-10.819 1.736-12.248 7.071l-6.511 24.301c-1.43 5.334 1.736 10.817 7.071 12.247.867.232 1.738.344 2.595.344 4.415 0 8.456-2.947 9.653-7.415l6.511-24.301c1.429-5.334-1.737-10.817-7.071-12.247z"/><path d="m119.475 351.487c-5.336-1.432-10.818 1.736-12.248 7.071l-6.511 24.301c-1.43 5.334 1.736 10.817 7.071 12.247.867.232 1.738.344 2.595.344 4.415 0 8.456-2.947 9.653-7.415l6.511-24.301c1.429-5.334-1.737-10.817-7.071-12.247z"/><path d="m404.219 351.487c-5.337-1.432-10.819 1.736-12.248 7.071l-6.511 24.301c-1.43 5.334 1.736 10.817 7.071 12.247.867.232 1.738.344 2.595.344 4.415 0 8.456-2.947 9.653-7.415l6.511-24.301c1.43-5.334-1.737-10.817-7.071-12.247z"/></g></g></svg>