<svg id="Layer_1" enable-background="new 0 0 512.002 512.002" height="512" viewBox="0 0 512.002 512.002" width="512" xmlns="http://www.w3.org/2000/svg"><g><g><g clip-rule="evenodd" fill-rule="evenodd"><path d="m256.001 122.002c-35.255 0-150 128.835-150 227.964 0 82.081 67.784 152.35 150 152.035 82.216.315 150-69.953 150-152.035 0-31.193-11.363-65.327-28.035-97.464-.904.039-1.812.057-2.725.054-33.303.128-60.761-28.336-60.761-61.585 0-7.446 1.599-15.306 4.296-23.169-25.27-27.763-49.585-45.8-62.775-45.8z" fill="#ccf5fc"/><g fill="#99ebfa"><path d="m314.481 190.971c0 33.249 27.457 61.713 60.761 61.585.913.003 1.821-.014 2.725-.054-.001-.001-.001-.003 0 0 32.063-1.383 58.036-29.194 58.036-61.531 0-40.154-46.48-92.342-60.761-92.342-11.633 0-44.63 34.627-56.467 69.171-2.696 7.865-4.294 15.725-4.294 23.171z"/><path d="m122.661 128.207c25.575.098 46.66-21.761 46.66-47.294 0-30.836-35.694-70.913-46.66-70.913-10.967 0-46.661 40.077-46.661 70.913 0 25.533 21.086 47.392 46.661 47.294z"/></g></g><ellipse clip-rule="evenodd" cx="198.955" cy="381.017" fill="#fff" fill-rule="evenodd" rx="20" ry="20" transform="matrix(.383 -.924 .924 .383 -229.196 419.018)"/><g><path d="m232.036 443.447c-5.523 0-10.004-4.478-10.004-10s4.474-10 9.997-10h.007c5.523 0 10 4.478 10 10s-4.477 10-10 10z" fill="#fff"/></g><g><path d="m220.536 299.947c-5.523 0-10.004-4.478-10.004-10s4.474-10 9.997-10h.007c5.523 0 10 4.478 10 10s-4.477 10-10 10z" fill="#fff"/></g></g><g fill="#33d6f5"><path d="m446.002 190.971c0-26.805-16.913-53.601-26.994-67.188-4.355-5.87-26.937-35.154-43.766-35.154-16.83 0-39.411 29.284-43.767 35.154-4.665 6.287-10.79 15.405-16.028 26.041-16.144-16.166-41.178-37.822-59.446-37.822-25.048 0-66.391 40.606-96.251 80.851-40.513 54.6-63.749 111.865-63.749 157.113 0 42.634 17.659 84.677 48.449 115.35 30.238 30.122 69.632 46.688 110.921 46.687h1.184c41.362 0 80.761-16.566 110.997-46.687 30.79-30.673 48.449-72.716 48.449-115.35 0-26.618-7.945-57.41-23.058-89.696 11.764-3.118 22.654-9.366 31.681-18.359 13.586-13.533 21.378-32.099 21.378-50.94zm-92.565 260.175c-26.461 26.36-60.847 40.856-96.959 40.856-.344 0-.687 0-1.029 0-36.034 0-70.424-14.498-96.883-40.855-27.05-26.947-42.564-63.826-42.564-101.181 0-41.048 21.8-93.97 59.81-145.196 35.23-47.479 69.208-72.768 80.19-72.768 6.368 0 25.119 10.303 51.49 38.332-1.864 6.725-3.01 13.68-3.01 20.637 0 18.841 7.791 37.407 21.376 50.94 12.603 12.554 28.828 19.777 45.944 20.566 15.838 31.947 24.2 62.1 24.2 87.489 0 37.354-15.514 74.233-42.565 101.18zm21.767-208.59c-.063 0-.124.001-.186.001-13.012 0-25.451-5.258-35.046-14.814-9.845-9.808-15.491-23.21-15.491-36.771 0-14.812 7.921-34.297 21.731-53.459 12.829-17.802 24.945-27.308 29.029-28.771 4.084 1.464 16.199 10.971 29.029 28.771 13.81 19.163 21.73 38.647 21.73 53.459 0 13.562-5.646 26.964-15.491 36.771-9.638 9.602-22.129 14.822-35.305 14.813z"/><path d="m122.835 138.206c14.701 0 28.682-5.865 39.388-16.53 10.866-10.824 17.099-25.682 17.099-40.763 0-21.252-13.274-42.314-21.187-52.979-4.863-6.553-21.791-27.934-35.474-27.934s-30.611 21.381-35.474 27.935c-7.912 10.664-21.187 31.726-21.187 52.978 0 15.081 6.232 29.938 17.099 40.763 10.707 10.666 24.686 16.53 39.312 16.53zm-36.835-57.293c0-10.686 5.74-24.898 15.749-38.996 8.751-12.325 17.331-19.661 20.912-21.589 3.581 1.928 12.161 9.264 20.912 21.589 10.009 14.098 15.749 28.311 15.749 38.996 0 9.802-4.087 19.495-11.213 26.594-6.93 6.903-15.9 10.699-25.351 10.699-.045 0-.091 0-.135 0-.045 0-.089 0-.134 0-9.374 0-18.345-3.796-25.275-10.699-7.127-7.099-11.214-16.792-11.214-26.594z"/></g></g></svg>