<svg id="Layer_1" enable-background="new 0 0 511.999 511.999" height="512" viewBox="0 0 511.999 511.999" width="512" xmlns="http://www.w3.org/2000/svg"><g><path clip-rule="evenodd" d="m146.035 157.745c10.096-7.139 47.798 87.484 96.965 89.257 54.158 1.953 119.787-88.912 121.869-98.102-4.402-42.522 5.185-76.229 5.185-112.449 0-14.548-10.064-26.451-22.364-26.451h-183.381c-12.299 0-22.363 11.903-22.363 26.451-.001 38.676 10.93 73.779 4.089 121.294z" fill="#ff9eb1" fill-rule="evenodd"/></g><g><path clip-rule="evenodd" d="m204.711 185.975c0-50.92-37.459-48.274-58.675-33.272-4.04 28.062-14.278 62.213-36.628 107.823-54.356 110.925-124.863 200.498-90.2 241.474h473.584c34.663-40.975-35.844-130.548-90.2-241.474-24.752-50.512-34.649-86.97-37.723-116.668-3.972 17.532-49.458 22.334-49.458-25.335 0-42.161-54.791-48.255-54.791 3.305v62.132c0 48.725-55.909 44.435-55.909 2.015z" fill="#e8d0cf" fill-rule="evenodd"/></g><g><path d="m294.247 370.108c-5.065 0-9.409-3.834-9.936-8.982-.737-7.202-1.542-14.753-2.378-22.612-1.387-13.03-2.822-26.504-4.221-40.834-.537-5.497 3.484-10.388 8.981-10.925 5.498-.54 10.388 3.485 10.924 8.981 1.391 14.243 2.82 27.673 4.203 40.659.84 7.888 1.646 15.465 2.387 22.693.563 5.494-3.435 10.404-8.929 10.967-.346.036-.69.053-1.031.053z" fill="#ddb9b6"/></g><g><path d="m120.933 413.642c-.842 0-1.698-.107-2.55-.332-5.341-1.405-8.532-6.874-7.127-12.215 3.814-14.5 9.454-31.146 15.424-48.77 1.287-3.797 2.597-7.665 3.92-11.601 1.76-5.235 7.432-8.054 12.665-6.293 5.235 1.759 8.052 7.43 6.293 12.664-1.328 3.952-2.644 7.836-3.935 11.646-5.856 17.285-11.387 33.612-15.025 47.44-1.181 4.49-5.232 7.461-9.665 7.461z" fill="#ddb9b6"/></g><g><path d="m397.463 439.833c-4.782 0-9.009-3.44-9.845-8.313-2.639-15.394-8.776-34.104-17.158-58.854-1.771-5.231 1.033-10.908 6.264-12.68s10.908 1.034 12.679 6.264c8.677 25.622 15.042 45.06 17.927 61.891.933 5.443-2.723 10.612-8.167 11.546-.571.098-1.14.146-1.7.146z" fill="#ddb9b6"/></g><g><path d="m492.791 511.999h-473.583c-2.942 0-5.734-1.295-7.635-3.541-29.974-35.432 3.058-94.756 44.877-169.864 14.618-26.254 29.734-53.402 43.977-82.469 44.67-91.161 39.599-134.881 34.695-177.161-1.562-13.467-3.177-27.392-3.177-42.513 0-20.1 14.518-36.451 32.363-36.451h183.382c17.845 0 32.363 16.352 32.363 36.451 0 15.121-1.615 29.047-3.177 42.514-4.904 42.28-9.975 86 34.695 177.16 14.243 29.066 29.358 56.214 43.977 82.468 41.82 75.108 74.852 134.434 44.878 169.865-1.9 2.246-4.693 3.541-7.635 3.541zm-468.47-20h463.356c15.672-26.44-14.692-80.976-49.603-143.677-14.744-26.479-29.989-53.859-44.463-83.396-47.253-96.434-41.838-143.118-36.602-188.266 1.566-13.496 3.044-26.244 3.044-40.209 0-8.917-5.662-16.451-12.363-16.451h-183.381c-6.702 0-12.363 7.534-12.363 16.451 0 13.965 1.479 26.713 3.044 40.209 5.237 45.147 10.652 91.832-36.602 188.266-14.474 29.537-29.719 56.918-44.463 83.397-34.912 62.701-65.275 117.236-49.604 143.676z" fill="#d1a19e"/></g><g><path d="m294.247 370.108c-5.065 0-9.409-3.834-9.936-8.982-.737-7.202-1.542-14.753-2.378-22.612-1.387-13.03-2.822-26.504-4.221-40.834-.537-5.497 3.484-10.388 8.981-10.925 5.498-.54 10.388 3.485 10.924 8.981 1.391 14.243 2.82 27.673 4.203 40.659.84 7.888 1.646 15.465 2.387 22.693.563 5.494-3.435 10.404-8.929 10.967-.346.036-.69.053-1.031.053z" fill="#d1a19e"/></g><g><path d="m120.933 413.642c-.842 0-1.698-.107-2.55-.332-5.341-1.405-8.532-6.874-7.127-12.215 3.814-14.5 9.454-31.146 15.424-48.77 1.287-3.797 2.597-7.665 3.92-11.601 1.76-5.235 7.432-8.054 12.665-6.293 5.235 1.759 8.052 7.43 6.293 12.664-1.328 3.952-2.644 7.836-3.935 11.646-5.856 17.285-11.387 33.612-15.025 47.44-1.181 4.49-5.232 7.461-9.665 7.461z" fill="#d1a19e"/></g><g><path d="m397.463 439.833c-4.782 0-9.009-3.44-9.845-8.313-2.639-15.394-8.776-34.104-17.158-58.854-1.771-5.231 1.033-10.908 6.264-12.68s10.908 1.034 12.679 6.264c8.677 25.622 15.042 45.06 17.927 61.891.933 5.443-2.723 10.612-8.167 11.546-.571.098-1.14.146-1.7.146z" fill="#d1a19e"/></g></svg>