<svg id="Layer_1" enable-background="new 0 0 512.002 512.002" height="512" viewBox="0 0 512.002 512.002" width="512" xmlns="http://www.w3.org/2000/svg"><g><g clip-rule="evenodd" fill-rule="evenodd"><g><path d="m300.886 185.271c-4.67-8.86-13.982-14.935-24.643-14.935 0-10.749-6.093-20.074-15.014-24.71-.001-.001-.003-.003-.004-.004-3.835-1.993-8.193-3.119-12.814-3.119-3.459 0-6.771.633-9.826 1.787-3.624-24.629-24.841-43.535-50.477-43.535-28.181 0-51.026 22.845-51.026 51.025-20.41 0-37.109 16.699-37.109 37.109s16.699 37.109 37.109 37.109h139.161c15.307 0 27.832-12.525 27.832-27.832 0-4.644-1.153-9.032-3.186-12.892-.002.001-.003 0-.003-.003z" fill="#fff"/><g><path d="m253.027 325.213c-67.101-25.238-146.081-39.714-243.026-39.714v51.917c105.979 0 183.237 22.523 246 59.124 23.022-13.425 47.993-24.956 75.617-34.176-24.408-14.094-50.455-26.569-78.591-37.151z" fill="#eaf5bc"/><path d="m256.001 396.54c-62.764-36.601-140.021-59.124-246-59.124v64.583c100.553 0 162.988 29.894 213.716 74h132.878c-9.856-9.856-19.939-19.369-30.354-28.477-21.659-18.938-44.754-36.121-70.24-50.982z" fill="#e0ef9b"/><path d="m331.618 362.363c-27.624 9.22-52.595 20.751-75.617 34.176 25.486 14.862 48.581 32.045 70.239 50.983 44.148-28.002 98.784-45.523 175.76-45.523l.001-64.583c-67.105 0-122.696 9.031-170.383 24.947z" fill="#f5fade"/><path d="m502.001 401.999c-76.977 0-131.612 17.521-175.76 45.523 10.415 9.107 20.498 18.62 30.354 28.477h125.406c11 0 20-9 20-20z" fill="#eaf5bc"/><path d="m223.717 475.999c-50.729-44.106-113.163-74-213.716-74v54c0 11 9 20 20 20z" fill="#f5fade"/></g><path d="m348.872 36.809c-10.37 5.973-23.29 5.998-33.662 0-2.868-1.661-6.54-.683-8.202 2.185-5.944 10.278-16.824 16.661-28.66 16.839-3.78-.123-6.504 2.547-6.504 5.996 0 11.992-6.406 23.15-16.796 29.148-2.868 1.648-3.857 5.31-2.209 8.178 5.973 10.37 5.998 23.29 0 33.662-1.661 2.868-.683 6.54 2.186 8.202 2.258 1.306 4.335 2.853 6.201 4.603 8.923 4.636 15.018 13.963 15.018 24.714 10.661 0 19.973 6.075 24.643 14.935.001.002.002.003.003.005 2.379 2.224 4.451 4.809 6.118 7.704 1.648 2.868 5.31 3.857 8.178 2.209 10.37-5.973 23.289-5.998 33.662 0 2.868 1.661 6.54.683 8.202-2.186 5.936-10.265 16.845-16.661 28.661-16.839 3.779.123 6.504-2.547 6.504-5.996 0-11.963 6.427-23.176 16.796-29.148 2.868-1.648 3.857-5.31 2.209-8.178-5.973-10.37-5.998-23.29 0-33.662 1.661-2.868.683-6.54-2.186-8.201-10.279-5.944-16.661-16.824-16.839-28.661.123-3.779-2.547-6.504-5.996-6.504-11.974 0-23.169-6.415-29.148-16.796-1.649-2.868-5.311-3.857-8.179-2.209z" fill="#fff7bf"/></g><ellipse cx="332.029" cy="116.01" fill="#ffee80" rx="40" ry="40" transform="matrix(.973 -.23 .23 .973 -17.772 79.388)"/></g><g fill="#5cd0b3"><path d="m509.073 330.473c-1.876-1.875-4.419-2.929-7.071-2.929-51.08 0-98.568 5.384-141.146 16.002-9.745 2.431-19.309 5.154-28.681 8.166-42.147-24.207-88.951-42.836-139.179-55.391-55.277-13.816-116.847-20.822-182.996-20.822-2.652 0-5.195 1.054-7.071 2.929-1.875 1.876-2.929 4.419-2.929 7.071l.001 170.5c0 16.542 13.458 30 30 30h452c16.542 0 30-13.458 30-30l.001-118.455c0-2.652-1.054-5.195-2.929-7.071zm-202.056 30.199c-17.861 7.006-34.891 15.135-50.999 24.314-11.371-6.503-22.942-12.397-34.806-17.728-57.983-26.058-123.866-39.097-201.212-39.808v-31.899c112.3 1.191 206.514 22.549 287.017 65.121zm-287.016 95.327-.001-108.544c158.08 1.5 244.596 55.87 310.784 118.544h-300.783c-5.514 0-10-4.486-10-10zm472 0c0 5.514-4.486 10-10 10h-122.592c-27.896-27.934-55.318-50.598-83.715-69.021 60.247-31.989 131.269-48.197 216.308-49.366z"/><path d="m137.083 236.001h139.16c18.197 0 33.431-12.916 37.026-30.06 2.402-.159 4.757-.849 6.908-2.085 7.317-4.217 16.387-4.219 23.657-.014 2.471 1.432 5.215 2.163 7.996 2.163 1.383 0 2.774-.181 4.146-.546 4.132-1.101 7.586-3.745 9.731-7.449 4.124-7.133 11.769-11.658 19.982-11.843.093.002.186.002.279.002 4.353 0 8.392-1.599 11.427-4.535 3.107-3.007 4.818-7.078 4.818-11.465 0-8.446 4.517-16.295 11.78-20.479 7.642-4.393 10.288-14.185 5.891-21.839-4.215-7.318-4.219-16.386-.012-23.659 4.423-7.636 1.809-17.445-5.833-21.871-7.133-4.125-11.659-11.77-11.843-19.982.069-4.461-1.535-8.608-4.536-11.709-3.006-3.105-7.077-4.816-11.463-4.816-8.446 0-16.295-4.517-20.479-11.779-2.128-3.702-5.57-6.355-9.693-7.469-4.123-1.115-8.435-.556-12.146 1.577-7.317 4.217-16.387 4.218-23.659.013-7.635-4.424-17.444-1.809-21.871 5.833-4.125 7.134-11.77 11.659-19.982 11.843-.093-.002-.185-.002-.277-.002-4.354 0-8.396 1.6-11.431 4.538-3.106 3.006-4.816 7.076-4.816 11.462 0 8.437-4.52 16.288-11.779 20.479-7.645 4.394-10.289 14.188-5.892 21.84 4.21 7.309 4.217 16.366.024 23.636-9.447-21.886-31.382-37.028-56.088-37.028-30.566 0-55.957 22.592-60.353 51.953-21.525 4.34-37.782 23.397-37.782 46.182.001 25.975 21.133 47.109 47.11 47.109zm126.192-138.422c10.499-7.374 17.264-19.106 18.398-31.912 12.781-1.141 24.547-7.946 31.925-18.435 11.638 5.419 25.187 5.421 36.848.014 7.365 10.5 19.099 17.265 31.915 18.398 1.141 12.78 7.946 24.546 18.434 31.925-5.417 11.637-5.421 25.188-.013 36.848-10.501 7.365-17.265 19.098-18.399 31.915-12.779 1.141-24.545 7.946-31.924 18.434-11.821-5.504-25.616-5.42-37.403.249-.549-.417-1.138-.769-1.753-1.061-4.536-11.149-14.241-19.664-26.125-22.552-2.816-11.589-10.988-21.101-21.732-25.773-.141-.22-.288-.436-.447-.645 5.679-11.76 5.771-25.557.276-37.405zm-126.192 64.203c5.522 0 10-4.478 10-10 0-22.622 18.404-41.026 41.025-41.026 20.201 0 37.647 15.043 40.583 34.991.44 2.994 2.214 5.628 4.822 7.162 2.606 1.535 5.769 1.809 8.603.737 2.009-.758 4.127-1.143 6.295-1.143 9.833 0 17.832 7.999 17.832 17.832 0 5.522 4.478 10 10 10 9.833 0 17.832 8 17.832 17.833s-7.999 17.832-17.832 17.832h-139.16c-14.948 0-27.109-12.162-27.109-27.11 0-14.947 12.161-27.108 27.109-27.108z"/></g></g></svg>