<svg id="Layer_1" enable-background="new 0 0 512.002 512.002" height="512" viewBox="0 0 512.002 512.002" width="512" xmlns="http://www.w3.org/2000/svg"><g><g clip-rule="evenodd" fill-rule="evenodd"><path d="m214.072 502.002c-10.523-102.046-18.622-277.047-18.622-320.417 0-82.915 27.11-150.132 60.552-150.132s60.552 67.217 60.552 150.132c0 43.37-8.099 218.371-18.622 320.417h61.985c26.079-102.361 46.152-277.901 46.152-321.404 0-27.435-7.31-53.157-20.083-75.31-13.176-22.853-32.165-41.908-54.938-55.131-22.076-12.818-47.707-20.154-75.046-20.154s-52.97 7.336-75.046 20.154c-22.772 13.223-41.761 32.278-54.937 55.131-12.773 22.153-20.084 47.875-20.084 75.31 0 43.504 20.074 219.044 46.153 321.404z" fill="#e0ef9b"/><path d="m195.45 181.585c0 43.37 8.1 218.371 18.622 320.417h83.858c10.523-102.046 18.622-277.047 18.622-320.417 0-82.915-27.11-150.132-60.552-150.132-33.44 0-60.55 67.217-60.55 150.132z" fill="#eaf5bc"/></g><g fill="#89df8f"><path d="m426.357 250.434-15.129-2.388c2.427-23.888 4.006-43.866 4.588-57.448h10.185c5.522 0 10-4.478 10-10s-4.478-10-10-10h-10.252c-1.352-21.969-7.124-42.755-16.437-61.474l8.927-5.172c4.778-2.769 6.408-8.887 3.639-13.666-2.769-4.777-8.885-6.405-13.666-3.639l-8.904 5.159c-11.817-17.799-27.076-33.107-44.818-44.961l5.178-9c2.754-4.788 1.106-10.901-3.681-13.655-4.79-2.755-10.901-1.105-13.655 3.682l-5.134 8.924c-18.638-9.326-39.329-15.109-61.198-16.468v-10.328c0-5.522-4.478-10-10-10s-10 4.478-10 10v10.326c-21.868 1.359-42.559 7.142-61.197 16.468l-5.135-8.925c-2.755-4.787-8.867-6.436-13.655-3.681-4.787 2.755-6.435 8.868-3.681 13.655l5.178 9c-17.742 11.854-33 27.162-44.817 44.961l-8.903-5.159c-4.781-2.771-10.897-1.14-13.666 3.639s-1.14 10.897 3.639 13.666l8.927 5.173c-9.313 18.719-15.085 39.505-16.437 61.474h-10.252c-5.522 0-10 4.478-10 10s4.478 10 10 10h10.186c.581 13.582 2.16 33.56 4.587 57.448l-15.13 2.388c-5.455.861-9.18 5.981-8.318 11.438.778 4.927 5.03 8.442 9.865 8.442.519 0 1.044-.041 1.572-.124l14.133-2.231c2.018 18.137 4.435 37.87 7.198 58.327l-14.208 2.243c-5.455.861-9.18 5.981-8.318 11.438.778 4.927 5.03 8.442 9.865 8.442.519 0 1.044-.041 1.572-.124l13.844-2.185c2.798 19.567 5.886 39.521 9.222 59.148l-15.72 2.482c-5.455.861-9.18 5.982-8.318 11.438.778 4.927 5.03 8.442 9.865 8.442.519 0 1.044-.041 1.572-.124l16.056-2.535c5.165 28.54 10.835 55.827 16.872 79.521 1.129 4.431 5.118 7.531 9.69 7.531h207.829c4.572 0 8.562-3.101 9.69-7.531 6.037-23.695 11.706-50.982 16.871-79.521l16.057 2.535c.528.083 1.054.124 1.572.124 4.835 0 9.087-3.516 9.865-8.442.861-5.456-2.863-10.576-8.318-11.438l-15.721-2.482c3.335-19.627 6.424-39.581 9.222-59.148l13.843 2.185c.528.083 1.054.124 1.572.124 4.835 0 9.087-3.516 9.865-8.442.861-5.456-2.863-10.576-8.318-11.438l-14.208-2.243c2.763-20.457 5.18-40.19 7.198-58.327l14.132 2.231c.528.083 1.054.124 1.572.124 4.835 0 9.087-3.516 9.865-8.442.861-5.455-2.863-10.576-8.319-11.437zm-74.254 241.568h-192.203c-25.516-104.598-43.966-270.931-43.966-311.404 0-77.524 62.834-140.595 140.066-140.595 77.233 0 140.067 63.07 140.067 140.595.001 40.471-18.449 206.802-43.964 311.404z"/><path d="m211.682 395.2h-.008c-5.522 0-9.996 4.478-9.996 10s4.481 10 10.004 10 10-4.478 10-10-4.478-10-10-10z"/><path d="m299.682 365.825h-.007c-5.522 0-9.997 4.478-9.997 10s4.481 10 10.004 10 10-4.478 10-10-4.478-10-10-10z"/><path d="m254.381 305.153h-.008c-5.522 0-9.996 4.478-9.996 10s4.481 10 10.004 10 10-4.478 10-10-4.478-10-10-10z"/><path d="m172.058 255.2h-.008c-5.522 0-9.996 4.478-9.996 10s4.481 10 10.004 10 10-4.478 10-10-4.478-10-10-10z"/><path d="m349.887 239.151h-.008c-5.522 0-9.996 4.478-9.996 10s4.481 10 10.004 10 10-4.478 10-10-4.478-10-10-10z"/><path d="m259.38 192.153c0-5.522-4.478-10-10-10h-.007c-5.522 0-9.997 4.478-9.997 10s4.481 10 10.004 10 10-4.477 10-10z"/><path d="m209.38 128.152c0-5.522-4.478-10-10-10h-.007c-5.522 0-9.997 4.478-9.997 10s4.481 10 10.004 10 10-4.477 10-10z"/><path d="m312.38 107.153h-.007c-5.522 0-9.997 4.478-9.997 10s4.481 10 10.004 10 10-4.478 10-10-4.478-10-10-10z"/></g></g></svg>