<svg id="Layer_1" enable-background="new 0 0 512.002 512.002" height="512" viewBox="0 0 512.002 512.002" width="512" xmlns="http://www.w3.org/2000/svg"><g><g><g clip-rule="evenodd" fill-rule="evenodd"><path d="m231.093 71.313c16.542-1.748 33.275-1.748 49.816 0 3.224-17.149 5.092-32.835 5.092-39.065 0-16.569-13.431-22.248-30-22.248s-30 5.68-30 22.248c0 6.231 1.868 21.917 5.092 39.065z" fill="#f4e9e2"/><path d="m280.909 71.313c-16.542-1.748-33.275-1.748-49.816 0-70.816 7.486-138.119 47.02-171.83 118.601-8.085 17.17-.993 39.493 19.659 40.075.274.008.551.012.83.012 21.292 0 22.771-20.043 44.062-20.043s22.771 20.043 44.062 20.043c21.292 0 22.771-20.043 44.062-20.043s22.77 20.043 44.062 20.043c21.291 0 22.771-20.043 44.062-20.043s22.771 20.043 44.062 20.043 22.771-20.043 44.062-20.043c21.292 0 22.771 20.043 44.062 20.043.279 0 .556-.004.831-.012 20.652-.583 27.745-22.905 19.659-40.075-33.71-71.581-101.013-111.115-171.829-118.601z" fill="#e8d0c1"/><path d="m256.001 230.002c-21.292 0-22.771-20.043-44.062-20.043-21.292 0-22.771 20.043-44.062 20.043s-22.771-20.043-44.062-20.043-22.771 20.043-44.062 20.043c-.279 0-.556-.004-.83-.012v.012c0 150.221 79.281 272 177.079 272s177.079-121.778 177.079-272v-.012c-.274.008-.551.012-.831.012-21.292 0-22.771-20.043-44.062-20.043s-22.771 20.043-44.062 20.043-22.771-20.043-44.062-20.043c-21.292 0-22.772 20.043-44.063 20.043z" fill="#f4e9e2"/></g><g><path d="m330.741 424.917c-1.089 0-2.196-.18-3.282-.557-5.217-1.813-7.977-7.512-6.164-12.729 5.327-15.329 9.975-32.336 13.813-50.55 1.139-5.403 6.445-8.86 11.848-7.723 5.404 1.14 8.861 6.443 7.723 11.848-4.013 19.037-8.889 36.865-14.491 52.989-1.436 4.132-5.308 6.722-9.447 6.722z" fill="#e8d0c1"/></g><g><path d="m160.285 333.784c-4.917 0-9.205-3.629-9.894-8.638-2.406-17.481-4.149-35.73-5.181-54.24-.308-5.515 3.914-10.233 9.428-10.541 5.526-.312 10.233 3.913 10.541 9.428 1.002 17.972 2.693 35.678 5.026 52.627.753 5.471-3.072 10.517-8.543 11.27-.463.064-.923.094-1.377.094z" fill="#e8d0c1"/></g><g><path d="m285.755 346.61c-.17 0-.342-.004-.514-.013-5.516-.279-9.761-4.978-9.481-10.493.866-17.1 1.523-35.058 1.954-53.375.13-5.522 4.754-9.892 10.231-9.763 5.521.129 9.893 4.71 9.763 10.231-.434 18.498-1.098 36.639-1.974 53.918-.27 5.345-4.687 9.495-9.979 9.495z" fill="#e8d0c1"/></g><g><path d="m231.961 421.935c-5.046 0-9.382-3.807-9.931-8.938-1.754-16.399-3.271-34.541-4.508-53.923-.352-5.512 3.831-10.265 9.343-10.616 5.511-.352 10.265 3.831 10.617 9.343 1.218 19.098 2.71 36.952 4.435 53.069.587 5.491-3.388 10.419-8.879 11.007-.363.038-.722.058-1.077.058z" fill="#e8d0c1"/></g></g><path d="m461.786 185.654c-18.702-39.712-48.681-72.33-86.696-94.329-25.131-14.543-53.169-24.214-82.521-28.607 2.081-12.754 3.432-24.538 3.432-30.47 0-20.192-14.953-32.248-40-32.248s-40 12.056-40 32.248c0 5.958 1.349 17.712 3.433 30.47-29.352 4.393-57.391 14.064-82.521 28.607-38.015 21.999-67.994 54.617-86.696 94.329v.001c-6.079 12.909-5.484 28.38 1.516 39.414 4.165 6.566 10.119 11.115 17.275 13.349 1.378 71.58 20.301 138.691 53.605 189.688 35.332 54.102 82.704 83.896 133.389 83.896 50.735 0 98.139-29.845 133.48-84.036 33.253-50.99 52.135-118.037 53.512-189.547 7.157-2.233 13.112-6.783 17.277-13.349 6.999-11.035 7.594-26.506 1.515-39.416zm-225.785-153.406c0-3.665 0-12.248 20-12.248s20 8.583 20 12.248c0 4.332-1.166 15.18-3.346 28.316-5.522-.37-11.076-.562-16.653-.562-5.578 0-11.132.192-16.654.562-2.182-13.13-3.347-23.956-3.347-28.316zm136.728 384.792c-31.525 48.34-72.979 74.962-116.728 74.962-90.105 0-163.96-112.808-166.975-253.083 8.815-2.163 14.543-7.188 19.364-11.432 5.15-4.532 8.552-7.527 15.424-7.527s10.274 2.995 15.424 7.528c6.334 5.575 14.218 12.515 28.638 12.515s22.304-6.939 28.638-12.516c5.15-4.532 8.552-7.527 15.424-7.527s10.274 2.995 15.424 7.528c6.335 5.575 14.218 12.515 28.638 12.515 14.419 0 22.303-6.939 28.638-12.516 5.15-4.532 8.553-7.527 15.424-7.527s10.273 2.995 15.424 7.527c6.335 5.576 14.219 12.516 28.639 12.516s22.304-6.939 28.638-12.516c5.15-4.532 8.553-7.527 15.424-7.527 6.872 0 10.274 2.995 15.425 7.528 4.821 4.243 10.549 9.268 19.363 11.431-1.438 67.465-19.152 130.442-50.246 178.121zm70.653-202.685c-2.378 3.747-6.123 5.646-11.133 5.646-6.871 0-10.273-2.994-15.424-7.527-6.335-5.576-14.219-12.516-28.639-12.516s-22.304 6.939-28.638 12.516c-5.15 4.532-8.553 7.527-15.424 7.527-6.872 0-10.274-2.995-15.425-7.528-6.335-5.575-14.219-12.515-28.638-12.515-14.42 0-22.304 6.939-28.638 12.515-5.15 4.533-8.553 7.528-15.424 7.528-6.872 0-10.274-2.995-15.424-7.527-6.335-5.576-14.218-12.516-28.639-12.516-14.419 0-22.303 6.939-28.638 12.515-5.15 4.533-8.553 7.528-15.424 7.528s-10.273-2.995-15.424-7.527c-6.334-5.576-14.218-12.516-28.638-12.516-14.419 0-22.303 6.939-28.638 12.515-5.15 4.533-8.553 7.528-15.424 7.528-5.01 0-8.755-1.899-11.133-5.646-3.369-5.311-3.493-13.42-.31-20.181v.001c33.169-70.425 105.088-114.174 187.694-114.174s154.525 43.749 187.691 114.175c3.184 6.76 3.059 14.869-.31 20.179z" fill="#d1a19e"/></g></svg>