<svg id="Layer_1" enable-background="new 0 0 512 512" height="512" viewBox="0 0 512 512" width="512" xmlns="http://www.w3.org/2000/svg"><g><g clip-rule="evenodd" fill-rule="evenodd"><path d="m256 55h100v-35c0-5.5-4.5-10-10-10h-80c-5.5 0-10 4.5-10 10v17.5z" fill="#fff"/><path d="m346 116.999h-80c-5.5 0-10 4.5-10 10v35h100v-35c0-5.5-4.5-10-10-10z" fill="#ffbecb"/><path d="m356 161.999h-100-30c-11 0-20 9-20 20v40.001h200v-40.001c0-11-9-20-20-20z" fill="#fff"/><path d="m406 222h-200v219.998h200zm-120 50h40v40h40v40h-40v40h-40v-40h-40v-40h40z" fill="#ffbecb"/><path d="m326 272h-40v40h-40v40h40v40h40v-40h40v-40h-40z" fill="#fff"/><path d="m406 441.999h-200v40.001c0 11 9 20 20 20h160c10.999 0 20-9 20-20z" fill="#fff"/><path d="m135.995 170.989c16.44.063 29.995-13.989 29.995-30.402 0-19.823-22.945-45.586-29.995-45.586s-29.995 25.763-29.995 45.586c0 16.414 13.555 30.465 29.995 30.402z" fill="#cff5fd"/></g><g fill="#ff5d7d"><path d="m386 151.999h-20v-25c0-11.028-8.972-20-20-20h-30v-41.999h40c5.523 0 10-4.477 10-10v-35c0-11.028-8.972-20-20-20h-80c-11.028 0-20 8.972-20 20v7.5h-90.003c-2.422 0-4.762.879-6.585 2.474l-20.001 17.5c-4.156 3.637-4.578 9.954-.941 14.111 1.977 2.26 4.746 3.415 7.53 3.415 2.337 0 4.684-.814 6.581-2.474l17.173-15.026h86.246v7.5c0 5.523 4.477 10 10 10h40v41.999h-30c-11.028 0-20 8.972-20 20v25h-20c-16.542 0-30 13.458-30 30v300.001c0 16.542 13.458 30 30 30h160c16.542 0 30-13.458 30-30v-300.001c0-16.542-13.458-30-30-30zm-40-131.999v25h-80v-25zm-80 106.999h80v25h-80zm130 355.001c0 5.514-4.486 10-10 10h-160c-5.514 0-10-4.486-10-10v-300.001c0-5.514 4.486-10 10-10h160c5.514 0 10 4.486 10 10z"/><path d="m135.996 85.001c-9.812 0-20.296 12.155-25.672 19.4-5.35 7.21-14.324 21.497-14.324 36.186 0 10.637 4.39 21.11 12.042 28.734 7.557 7.528 17.438 11.668 27.766 11.668h.299c10.401 0 20.284-4.14 27.841-11.668 7.653-7.624 12.042-18.097 12.042-28.734 0-14.688-8.974-28.976-14.323-36.185-5.375-7.246-15.859-19.401-25.671-19.401zm13.837 70.151c-3.78 3.766-8.653 5.837-13.803 5.837-.024 0-.048 0-.072 0s-.048 0-.072 0c-5.075 0-9.948-2.072-13.729-5.837-3.913-3.898-6.157-9.208-6.157-14.565 0-12.437 13.563-29.67 19.996-34.676 6.432 5.006 19.995 22.239 19.995 34.676 0 5.358-2.244 10.667-6.158 14.565z"/></g></g></svg>