<svg id="Layer_1" enable-background="new 0 0 512 512" height="512" viewBox="0 0 512 512" width="512" xmlns="http://www.w3.org/2000/svg"><g><g clip-rule="evenodd" fill-rule="evenodd"><path d="m256 108.759c15.568 0 31.105.954 46.525 2.851 17.563 2.16 34.972 5.544 52.1 10.134v30.016 69 69.983c-32.166 26.884-65.324 40.5-98.625 40.5-3.779 0-7.557-.176-11.331-.526-17.66-1.639-35.254-7.106-52.652-16.349-11.647-6.188-23.208-14.068-34.642-23.625v-33.983-69-66.016c25.667-6.878 51.967-11.047 78.467-12.451 6.709-.356 13.431-.534 20.158-.534zm50-98.759h-100c-55 0-100 45-100 100v160c0 24.389 8.849 46.813 23.495 64.217 18.382 21.844 45.894 35.783 76.505 35.783h50 50c30.61 0 58.123-13.939 76.504-35.782 14.647-17.405 23.496-39.828 23.496-64.218v-160c0-55-45-100-100-100z" fill="#fffbdf"/><path d="m157.375 187.76 78.467-78.467c-26.5 1.404-52.8 5.573-78.467 12.451z" fill="#cff5fd"/><path d="m235.842 109.293-78.467 78.467v69l145.15-145.15c-15.419-1.897-30.957-2.851-46.525-2.851-6.727 0-13.449.178-20.158.534z" fill="#99ebfa"/><path d="m302.525 111.61-145.15 145.15v33.983c11.435 9.557 22.995 17.438 34.643 23.624l162.607-162.607v-30.016c-17.128-4.59-34.538-7.974-52.1-10.134z" fill="#cff5fd"/><path d="m354.625 151.76-162.608 162.608c17.398 9.243 34.992 14.71 52.652 16.347l109.956-109.955z" fill="#99ebfa"/><path d="m354.625 220.76-109.956 109.957c3.774.35 7.552.526 11.331.526 33.301 0 66.459-13.616 98.625-40.5z" fill="#cff5fd"/><path d="m382.505 334.218c-18.382 21.843-45.894 35.782-76.505 35.782h-50v132h220v-50.757c0-56.9-40.137-104.876-93.495-117.025zm-44.75 80.909h24v-24h32v24h24v32h-24v24h-32v-24h-24z" fill="#fff7bf"/><path d="m256 502v-132h-50c-30.61 0-58.123-13.939-76.505-35.782-53.358 12.149-93.495 60.125-93.495 117.025v50.757z" fill="#fff7bf"/><path d="m337.755 415.127v32h24v24h32v-24h24v-32h-24v-24h-32v24z" fill="#fff"/></g><g fill="#ffcd69"><path d="m150.962 298.416c34.001 28.418 69.341 42.827 105.039 42.827s71.037-14.409 105.038-42.827c2.273-1.9 3.587-4.71 3.587-7.673v-168.999c0-4.526-3.04-8.488-7.412-9.659-32.996-8.842-67.049-13.326-101.214-13.326s-68.218 4.483-101.214 13.325c-4.372 1.171-7.412 5.133-7.412 9.659v168.999c.001 2.964 1.314 5.774 3.588 7.674zm16.413-168.917c28.983-7.128 58.76-10.739 88.625-10.739s59.642 3.611 88.625 10.739v156.508c-29.164 23.384-58.96 35.236-88.625 35.236s-59.461-11.851-88.625-35.236z"/><path d="m457.1 369.737c-15.238-18.845-35.503-33.094-58.076-41.096 10.746-16.985 16.976-37.098 16.976-58.641v-160c0-60.654-49.346-110-110-110h-100c-60.654 0-110 49.346-110 110v160c0 21.543 6.23 41.656 16.976 58.642-22.605 8.014-42.898 22.293-58.14 41.175-18.596 23.035-28.836 51.953-28.836 81.426v50.757c0 5.523 4.477 10 10 10h440c5.523 0 10-4.477 10-10v-50.757c0-29.51-10.263-58.456-28.9-81.506zm-341.1-259.737c0-49.626 40.374-90 90-90h100c49.626 0 90 40.374 90 90v160c0 49.626-40.374 90-90 90h-100c-49.626 0-90-40.374-90-90zm-70 341.243c0-48.833 33.342-92.457 80.025-105.8 20.07 21.263 48.498 34.557 79.975 34.557h40v112h-200zm420 40.757h-200v-112h40c31.476 0 59.904-13.293 79.973-34.556 46.694 13.343 80.027 56.94 80.027 105.799z"/></g></g></svg>