<svg id="Layer_1" enable-background="new 0 0 512.002 512.002" height="512" viewBox="0 0 512.002 512.002" width="512" xmlns="http://www.w3.org/2000/svg"><g><g clip-rule="evenodd" fill-rule="evenodd"><path d="m205 10h50v45h-50z" fill="#fff"/><path d="m205 55h50v45h-50z" fill="#e8eaf0"/><path d="m205 100h50v45h-50z" fill="#fff"/><path d="m205 144.999h50v45.001h-50z" fill="#e8eaf0"/><path d="m422.002 422.002v-40c0-11.046-8.954-20-20-20s-20 8.954-20 20v40c0 11.046 8.954 20 20 20 11.045 0 20-8.954 20-20z" fill="#e0ef9b"/><path d="m422.002 382.002v40c0 11.046-8.954 20-20 20s-20-8.954-20-20v-40c0-11.046 8.954-20 20-20 11.045 0 20 8.954 20 20zm-65.065-69.294c-21.824 11.036-39.053 29.837-48.055 52.771-4.441 11.314-6.88 23.634-6.88 36.523 0 55.228 44.772 100 100 100s100-44.772 100-100c0-37.834-21.011-70.761-52.002-87.749-14.247-7.81-30.604-12.251-47.998-12.251-10.57 0-20.757 1.64-30.32 4.679-5.105 1.623-10.032 3.644-14.745 6.027z" fill="#fff"/><g fill="#ffbecb"><path d="m402.002 302.002c17.394 0 33.751 4.441 47.998 12.251v-49.379c0-63.249-51.749-170.999-114.999-170.999-22 0-39.999 18-39.999 39.999v96.127l76.68 76.68c9.563-3.039 19.75-4.679 30.32-4.679z"/><path d="m371.681 306.681-76.68-76.68v80.875c0 19.727 5.035 38.335 13.88 54.603 9.002-22.934 26.232-41.735 48.055-52.771 4.714-2.383 9.641-4.404 14.745-6.027z"/><path d="m164.999 230.001v-96.127c0-22-18-39.999-40-39.999-63.249 0-114.999 107.75-114.999 170.999v121.002c0 21.999 18 39.999 40 39.999 63.25 0 114.999-51.749 114.999-114.999z"/></g></g><g fill="#ff5d7d"><path d="m460 308.576v-43.702c0-33.721-13.816-78.607-35.199-114.352-25.71-42.979-57.602-66.647-89.8-66.647-27.57 0-50 22.429-50 49.999v71.984l-20.001-20.001v-175.857c0-5.523-4.477-10-10-10h-50c-5.523 0-10 4.477-10 10v175.857l-20.001 20.001v-71.985c0-27.569-22.43-49.999-50-49.999-32.199 0-64.09 23.669-89.8 66.647-21.383 35.746-35.199 80.632-35.199 114.353v121.001c0 27.57 22.43 50 50 50 68.925 0 124.999-56.074 124.999-124.999v-76.732l34.144-34.144h41.715l34.144 34.144v76.732c0 19.156 4.485 38.182 12.991 55.314-3.878 11.232-5.99 23.279-5.99 35.812 0 60.654 49.346 110 110 110s110-49.346 110-110c-.001-39.382-20.809-73.991-52.003-93.426zm-305.001 2.3c0 57.896-47.103 104.999-104.999 104.999-16.542 0-30-13.458-30-30v-121.001c0-30.365 12.703-71.22 32.363-104.084 21.637-36.17 48.112-56.915 72.636-56.915 16.542 0 30 13.458 30 29.999v91.985l-23.582 23.582-24.94-14.399 9.876-36.856c1.43-5.335-1.736-10.818-7.071-12.248-5.334-1.432-10.819 1.736-12.248 7.071l-8.489 31.68-5.578-3.221c-4.782-2.76-10.898-1.123-13.66 3.66s-1.123 10.899 3.66 13.66l43.809 25.293-53.785 53.785c-3.905 3.905-3.905 10.237 0 14.143 1.953 1.953 4.512 2.929 7.071 2.929s5.119-.976 7.071-2.929l15.929-15.929v26.483c0 5.523 4.477 10 10 10s10-4.477 10-10v-46.483l41.936-41.936v56.732zm60.001-290.876h30v160h-30zm90.001 113.874c0-16.542 13.458-29.999 30-29.999 24.524 0 50.999 20.745 72.636 56.915 19.66 32.864 32.363 73.719 32.363 104.084v33.896c-11.848-4.375-24.649-6.768-37.998-6.768-9.457 0-18.639 1.2-27.402 3.455l-31.376-31.376 43.809-25.293c4.783-2.761 6.422-8.877 3.66-13.66-2.762-4.784-8.877-6.423-13.66-3.66l-5.579 3.221-8.488-31.68c-1.429-5.335-6.914-8.503-12.247-7.071-5.335 1.429-8.501 6.913-7.071 12.247l9.875 36.857-24.94 14.399-23.582-23.582zm0 177.002v-56.732l41.936 41.936v10.727c-14.969 8.692-27.709 20.814-37.141 35.281-3.155-10.075-4.795-20.619-4.795-31.212zm97.001 181.126c-49.626 0-90-40.374-90-90s40.374-90 90-90 90 40.374 90 90-40.374 90-90 90z"/><path d="m435.376 392.002h-3.375v-10c0-1.872-.181-3.701-.51-5.478l4.414-2.549c4.783-2.762 6.421-8.877 3.66-13.661-2.762-4.783-8.878-6.422-13.661-3.66l-4.427 2.556c-2.77-2.37-5.973-4.246-9.475-5.489v-5.095c0-5.523-4.477-10-10-10s-10 4.477-10 10v5.095c-3.503 1.242-6.705 3.118-9.475 5.489l-4.427-2.556c-4.783-2.76-10.899-1.124-13.661 3.66-2.762 4.783-1.123 10.899 3.66 13.661l4.414 2.549c-.329 1.778-.51 3.607-.51 5.478v10h-3.375c-5.523 0-10 4.477-10 10s4.477 10 10 10h3.375v10c0 1.872.181 3.701.51 5.479l-4.414 2.548c-4.783 2.761-6.422 8.877-3.66 13.66 1.852 3.208 5.213 5.002 8.669 5.002 1.696 0 3.416-.433 4.991-1.342l4.428-2.556c2.77 2.37 5.973 4.246 9.475 5.489v5.095c0 5.523 4.477 10 10 10s10-4.477 10-10v-5.095c3.503-1.242 6.705-3.118 9.475-5.489l4.428 2.556c1.575.91 3.294 1.342 4.991 1.342 3.456 0 6.817-1.794 8.669-5.002 2.762-4.783 1.123-10.899-3.66-13.66l-4.414-2.548c.33-1.778.51-3.607.51-5.479v-10h3.375c5.523 0 10-4.477 10-10s-4.477-10-10-10zm-23.375 30c0 5.514-4.486 10-10 10s-10-4.486-10-10v-40c0-5.514 4.486-10 10-10s10 4.486 10 10z"/></g></g></svg>