<svg id="Layer_1" enable-background="new 0 0 512.001 512.001" height="512" viewBox="0 0 512.001 512.001" width="512" xmlns="http://www.w3.org/2000/svg"><g><g><g clip-rule="evenodd" fill-rule="evenodd"><path d="m152.087 363.328c41.333 0 45.422 12.291 63.692 30.228 10.359 10.171 24.557 16.444 40.221 16.444 11.164 0 21.583-3.186 30.398-8.699 3.554-2.222 6.847-4.823 9.824-7.745 14.004-13.749 19.676-24.181 40.176-28.303 6.245-1.255 13.865-1.926 23.516-1.926 7.613-.119 14.866-1.719 21.484-4.525 20.583-8.727 35.022-29.118 35.022-52.884 0-26.615-18.126-48.932-42.675-55.51-26.879-7.202-31.829-21.153-38.054-50.543l-32.026-151.21c-4.862-22.938-25.118-38.659-47.664-38.655-22.547-.004-42.802 15.718-47.665 38.656l-32.026 151.21c-6.225 29.39-11.175 43.34-38.053 50.543-24.549 6.578-42.676 28.895-42.676 55.51 0 31.406 25.216 56.919 56.506 57.409z" fill="#ffeae6"/><path d="m286.398 401.3v35.7c0 13.75 11.25 25 25 25 3.55 0 6.933-.75 9.999-2.099 8.81-3.877 15.001-12.701 15.001-22.901v-71.747c-20.5 4.122-26.172 14.553-40.176 28.303-2.976 2.922-6.27 5.522-9.824 7.744z" fill="#99ebfa"/><path d="m336.398 365.253v71.747c0 10.2-6.191 19.024-15.001 22.899v12.102c0 16.5 13.5 30 30 30s30-13.5 30-30v-113.199c-6.618 2.806-13.871 4.406-21.484 4.525-9.65.001-17.27.671-23.515 1.926z" fill="#cff5fd"/></g><g><path d="m234.814 270.319c-5.522 0-10.004-4.478-10.004-10s4.474-10 9.996-10h.008c5.522 0 10 4.478 10 10s-4.478 10-10 10z" fill="#ffd0c7"/></g><g><path d="m270.064 200.569c-5.522 0-10.004-4.478-10.004-10s4.474-10 9.996-10h.008c5.522 0 10 4.478 10 10s-4.478 10-10 10z" fill="#ffd0c7"/></g><g><path d="m281.313 315.319c-5.522 0-10.004-4.478-10.004-10s4.475-10 9.997-10h.007c5.522 0 10 4.478 10 10s-4.478 10-10 10z" fill="#ffd0c7"/></g><g><path d="m167.321 321.319c-5.522 0-10.004-4.478-10.004-10s4.475-10 9.997-10h.007c5.522 0 10 4.478 10 10s-4.478 10-10 10z" fill="#ffd0c7"/></g><g><path d="m358.572 320.569c-5.522 0-10.004-4.478-10.004-10s4.474-10 9.996-10h.008c5.522 0 10 4.478 10 10s-4.478 10-10 10z" fill="#ffd0c7"/></g></g><path d="m426.42 305.918c0-30.469-20.597-57.267-50.088-65.169-20.804-5.574-24.646-13.625-30.858-42.955l-32.026-151.211c-5.722-26.995-29.875-46.583-57.433-46.583-.006 0-.015.001-.025 0-27.559 0-51.715 19.59-57.438 46.584l-32.025 151.21c-6.212 29.33-10.055 37.381-30.858 42.955-29.491 7.902-50.088 34.701-50.088 65.169 0 17.821 6.889 34.626 19.397 47.318 12.493 12.677 29.169 19.812 46.953 20.09.052.001.104.001.156.001 30.671 0 36.734 6.433 48.816 19.249 2.309 2.449 4.926 5.226 7.869 8.115 12.683 12.452 29.455 19.309 47.228 19.309 7.021 0 13.88-1.086 20.398-3.149v20.149c0 19.299 15.701 35 34.999 35v.001c0 22.056 17.944 40 40 40s40-17.944 40-40v-106.929c5.687-3.123 10.949-7.091 15.626-11.836 12.509-12.692 19.397-29.496 19.397-47.318zm-130.021 131.082v-30.453c2.382-1.79 4.669-3.735 6.829-5.856 2.943-2.89 5.561-5.666 7.869-8.115 5.39-5.718 9.587-10.161 15.301-13.333v57.757c0 8.271-6.729 15-15 15s-14.999-6.729-14.999-15zm74.999 35.001c0 11.028-8.972 20-20 20s-20-8.972-20-20v-6.303c9.059-6.332 15-16.832 15-28.698v-63.123c3.911-.363 8.359-.55 13.516-.55.052 0 .104 0 .156-.001 3.84-.06 7.623-.459 11.328-1.145zm-11.567-118.674c-37.338.015-48.376 9.713-63.286 25.53-2.291 2.431-4.661 4.943-7.328 7.563-8.921 8.757-20.717 13.58-33.217 13.58s-24.296-4.823-33.216-13.58c-2.667-2.619-5.037-5.132-7.328-7.563-14.91-15.817-25.948-25.516-63.286-25.53-25.695-.442-46.59-21.694-46.59-47.409 0-21.433 14.501-40.287 35.264-45.851 32.568-8.727 38.821-27.782 45.249-58.129l32.025-151.208c3.775-17.808 19.701-30.73 37.877-30.73.005-.001.01-.001.017 0 18.17 0 34.098 12.923 37.871 30.729l32.025 151.21c6.428 30.347 12.681 49.402 45.249 58.129 20.763 5.563 35.264 24.418 35.264 45.851-.001 25.714-20.895 46.966-46.59 47.408z" fill="#c1b0b5"/></g></svg>