<svg id="Layer_1" enable-background="new 0 0 512 512" height="512" viewBox="0 0 512 512" width="512" xmlns="http://www.w3.org/2000/svg"><g><g><g clip-rule="evenodd" fill-rule="evenodd"><path d="m145.999 89.999h220.001 10c5.498 0 10-4.501 10-10v-49.999c0-10.998-9-20-20-20h-220.001c-11 0-20 9-20 20v49.999c0 5.5 4.502 10 10 10z" fill="#eaf5bc"/><path d="m145.999 89.999h220.001v40h-220.001z" fill="#e0ef9b"/><path d="m135.998 129.999c-21.999 0-40 18-40 40v322.001c0 5.499 4.503 10 10 10h300.003c5.497 0 10-4.502 10-10v-322.001c0-21.997-18.001-40-40-40-80.001 0-160.002 0-240.003 0z" fill="#eaf5bc"/><path d="m95.998 189.999h320.003v252h-320.003z" fill="#fff"/></g><g><path d="m256 316.75c-3.835 0-7.332-2.193-9.002-5.645l-29.754-61.5c-2.405-4.972-.325-10.952 4.647-13.357s10.952-.325 13.357 4.647l20.752 42.893 20.751-42.893c2.404-4.972 8.384-7.052 13.357-4.647 4.972 2.405 7.052 8.385 4.647 13.357l-29.753 61.5c-1.67 3.452-5.167 5.645-9.002 5.645z" fill="#e8eaf0"/></g><g><path d="m306 401.999h-100c-5.523 0-10-4.477-10-10s4.477-10 10-10h100c5.523 0 10 4.477 10 10s-4.477 10-10 10z" fill="#e8eaf0"/></g><g><path d="m306 361.999h-100c-5.523 0-10-4.477-10-10s4.477-10 10-10h100c5.523 0 10 4.477 10 10s-4.477 10-10 10z" fill="#e8eaf0"/></g></g><path d="m376.001 119.999-.001-20c11.028 0 20-8.972 20-20v-49.999c0-16.542-13.458-30-30-30h-220.001c-16.542 0-30 13.458-30 30v50c0 11.028 8.972 20 20 20v20h-.001c-27.57 0-50 22.43-50 50v322c0 11.028 8.972 20 20 20h300.003c11.028 0 20-8.972 20-20v-322.001c0-27.57-22.43-50-50-50zm-240.002-89.999c0-5.514 4.486-10 10-10h220.001c5.514 0 10 4.486 10 10v50h-26.962v-20c0-5.523-4.477-10-10-10s-10 4.477-10 10v19.999h-35.359v-19.999c0-5.523-4.477-10-10-10s-10 4.477-10 10v19.999h-35.359v-19.999c0-5.523-4.477-10-10-10s-10 4.477-10 10v19.999h-35.359v-19.999c0-5.523-4.477-10-10-10s-10 4.477-10 10v19.999h-26.962zm20.001 69.999h200v20h-200zm-50.001 392.001v-322.001c0-16.542 13.458-30 30-30h240.002c16.542 0 30 13.458 30 30v322z" fill="#7dd9c2"/></g></svg>