<svg id="Layer_1" enable-background="new 0 0 511.984 511.984" height="512" viewBox="0 0 511.984 511.984" width="512" xmlns="http://www.w3.org/2000/svg"><g><g clip-rule="evenodd" fill-rule="evenodd"><g><path d="m195.038 199.557c-27.353-14.569-29.259-52.426-5.872-70.354 2.053-13.48 6.232-27.183-5.12-44.777-11.709-18.148-38.104-18.576-40.847-5.115-1.941 9.527-1.107 23.975-13.785 51.183-6.449 13.841-8.358 27.928-8.318 38.902-12.091-5.867-26.018-3.321-27.969 6.258-1.941 9.527-1.107 23.975-13.785 51.183-25.098 53.863 18.12 81.036-19.597 120.288l-25.655 25.676 129.183 129.183 24.926-24.926c22.225-22.039 56.567-31.964 78.699-54.097 20.613-20.613 33.525-33.526 54.138-54.138 46.522-46.522 22.782-23.254 68.285-70.775 4.35-4.543 6.872-10.193 7.485-15.905.76-7.087-1.42-14.269-6.698-19.547-9.532-9.532-25.299-9.029-35.574.616l45.708-46.894c10.451-10.722 10.943-27.555.795-37.703-10.15-10.149-27.116-9.791-37.703.795l21.037-21.554c10.458-10.714 10.944-27.555.795-37.703-10.149-10.149-27.116-9.792-37.703.795l-33.367 33.368c10.354-10.814 10.944-27.554.795-37.703-10.15-10.149-27.116-9.792-37.703.795z" fill="#ffeae6"/><path d="m189.166 129.203c-23.386 17.928-21.481 55.785 5.872 70.354l82.15-82.15c10.587-10.587 27.553-10.944 37.703-.795 10.149 10.149 9.559 26.889-.795 37.703l33.367-33.368c10.587-10.587 27.554-10.944 37.703-.795 10.149 10.148 9.663 26.989-.795 37.703l-21.029 21.546c10.587-10.578 27.548-10.933 37.695-.787 10.148 10.148 9.655 26.982-.795 37.703l-45.708 46.894c10.274-9.644 26.042-10.148 35.574-.616 5.278 5.278 7.458 12.46 6.698 19.547 29.77 3.994 55.915-24.868 47.152-53.316-3.61-11.119 1.152-23.562 11.831-29.256 29.43-15.706 29.504-58.447.028-74.147-10.181-5.397-15.456-17.403-11.986-28.843 9.913-32.663-21.424-62.014-52.046-52.587-11.123 3.609-23.569-1.153-29.265-11.828-3.588-6.712-8.969-12.347-15.51-16.269-20.269-12.156-47.33-5.016-58.659 16.241-5.398 10.177-17.408 15.452-28.851 11.983-32.672-9.91-62.033 21.414-52.602 52.034 3.608 11.119-1.155 23.56-11.832 29.253-2.118 1.134-4.085 2.405-5.9 3.796z" fill="#cff5fd"/></g><g fill="#cff5fd"><ellipse cx="200.311" cy="357.796" rx="22.616" ry="22.616" transform="matrix(.973 -.23 .23 .973 -76.846 55.594)"/><path d="m267.809 392.308c-9.741 3.548-16.697 12.89-16.697 23.858 0 5.94 2.04 11.404 5.459 15.728 4.649 5.881 11.846 9.656 19.925 9.656 11.96 0 21.986-8.272 24.674-19.406 17.501-.513 31.531-14.86 31.531-32.485 0-8.975-3.638-17.1-9.519-22.981s-14.006-9.519-22.981-9.519c-17.949 0-32.5 14.551-32.5 32.5 0 .892.037 1.775.108 2.649z"/><path d="m56.706 104.099c12.457 0 22.616-10.16 22.616-22.617s-10.16-22.616-22.616-22.616-22.616 10.16-22.616 22.616c0 12.457 10.16 22.617 22.616 22.617z"/></g></g><path clip-rule="evenodd" d="m56.706 104.099c12.457 0 22.616-10.16 22.616-22.617s-10.16-22.616-22.616-22.616-22.616 10.16-22.616 22.616c0 12.457 10.16 22.617 22.616 22.617z" fill="#cff5fd" fill-rule="evenodd"/><g fill="#c1b0b5"><path d="m460.501 116.589c-6.134-3.251-9.12-10.445-7.101-17.103 5.66-18.649.754-38.036-13.124-51.859-13.729-13.675-33.437-18.73-51.434-13.19-.048.015-.096.03-.144.046-6.726 2.18-14.022-.773-17.359-7.029-4.439-8.305-11.073-15.267-19.186-20.132-12.102-7.257-26.926-9.233-40.67-5.422-13.883 3.85-25.232 12.919-31.966 25.554-3.254 6.134-10.451 9.119-17.115 7.1-18.659-5.659-38.057-.75-51.884 13.136-9.794 9.837-15.161 22.741-15.378 35.884-.806-1.503-1.693-3.025-2.69-4.569-10.337-16.021-28.244-20.834-40.498-18.525-9.846 1.853-16.78 8.146-18.551 16.835-.507 2.486-.835 5.114-1.183 7.896-1.123 8.99-2.662 21.303-11.868 41.061-5.019 10.771-7.422 21.317-8.49 30.214-3.54-.369-6.935-.236-9.981.338-9.846 1.853-16.781 8.146-18.551 16.835-.507 2.486-.835 5.114-1.183 7.896-1.123 8.99-2.662 21.303-11.868 41.06-13.031 27.965-9.391 50.063-6.466 67.819 3.217 19.522 5.344 32.427-11.212 49.695l-25.584 25.604c-3.902 3.906-3.901 10.235.003 14.14l129.183 129.183c1.953 1.953 4.512 2.929 7.071 2.929s5.118-.977 7.071-2.929l24.896-24.896c10.121-10.036 23.23-17.461 37.109-25.322 7.791-4.413 15.782-8.948 23.362-14.059 5.84 4.254 13.021 6.773 20.783 6.773 13.924 0 26.219-8.017 31.972-20.184 19.675-3.815 34.233-20.959 34.233-41.707 0-8.103-2.282-15.682-6.233-22.133 20.635-20.67 23.179-23.409 30.22-30.99 4.823-5.193 12.112-13.041 29.855-31.571 3.598-3.757 6.263-8.023 8.011-12.509 14.836-.622 28.957-7.581 38.917-19.511 11.225-13.445 14.979-31.038 10.044-47.061-.015-.048-.029-.096-.045-.144-2.181-6.717.773-14.012 7.027-17.347 16.906-9.022 27.403-26.632 27.396-45.957-.004-19.578-10.238-36.714-27.389-45.849zm-322.022 18.129c10.533-22.607 12.37-37.303 13.585-47.028.312-2.494.581-4.648.952-6.454.205-.329 1.818-1.29 4.936-1.313h.112c5.582 0 13.149 3.058 17.579 9.924 7.949 12.32 6.394 21.468 4.425 33.05-.057.336-.108.668-.165 1.003-10.677 9.597-16.84 23.21-16.94 38.274-.099 15.168 5.965 28.941 16.648 38.667l-31.031 31.031c.176-4.204.845-8.109 1.531-12.117 2.058-12.007 4.39-25.615-7.735-44.408-3.131-4.853-6.959-8.672-11.112-11.582.499-7.999 2.266-18.426 7.215-29.047zm162.398 277.43c-4.508.132-8.369 3.265-9.428 7.648-1.671 6.92-7.82 11.754-14.953 11.754-8.482 0-15.384-6.901-15.384-15.384 0-6.446 4.066-12.258 10.119-14.462 4.228-1.54 6.906-5.713 6.545-10.198-.05-.621-.075-1.242-.075-1.847 0-12.407 10.094-22.5 22.5-22.5s22.5 10.094 22.5 22.5c0 12.252-9.586 22.13-21.824 22.489zm81.221-121.015c-17.849 18.64-25.2 26.555-30.064 31.793-6.858 7.384-9.34 10.056-29.709 30.46-6.449-3.948-14.024-6.227-22.124-6.227-22.234 0-40.536 17.162-42.352 38.935-10.234 6.369-16.737 17.714-16.737 30.073 0 4.488.849 8.779 2.38 12.733-6.569 4.358-13.631 8.361-20.998 12.534-14.412 8.163-29.315 16.604-41.365 28.553l-17.855 17.855-115.044-115.044 18.59-18.605c.046-.046.092-.093.137-.14 23.566-24.525 20.02-46.053 16.59-66.871-2.733-16.596-5.561-33.757 4.86-56.121 10.533-22.606 12.37-37.302 13.585-47.027.312-2.494.581-4.648.952-6.454.205-.328 1.816-1.289 4.932-1.313 5.597-.08 13.234 3.009 17.695 9.924 7.902 12.248 6.68 19.384 4.828 30.187-1.499 8.751-3.331 19.44.056 33.621l-1.979 1.978c-3.905 3.906-3.905 10.237 0 14.143 3.906 3.905 10.236 3.906 14.143 0l141.641-141.642c6.715-6.714 17.284-7.072 23.561-.795 6.13 6.13 5.705 16.77-.946 23.717l-83.012 86.702c-3.819 3.989-3.682 10.319.308 14.139 3.989 3.818 10.317 3.683 14.14-.308l82.922-86.609 33.304-33.304c6.714-6.714 17.285-7.072 23.562-.794 6.195 6.194 5.8 16.802-.88 23.646l-20.95 21.464c-.001.001-.002.002-.003.003s-.002.002-.003.003l-95.834 98.187c-3.857 3.952-3.781 10.284.172 14.141 1.944 1.898 4.465 2.844 6.983 2.844 2.6 0 5.198-1.008 7.157-3.015l95.68-98.029c3.286-3.28 7.597-5.139 12.142-5.235 4.418-.076 8.442 1.489 11.405 4.452 6.19 6.19 5.793 16.8-.885 23.651l-97.993 100.535c-3.854 3.955-3.773 10.286.182 14.141 1.944 1.895 4.462 2.839 6.979 2.839 2.603 0 5.202-1.01 7.162-3.02l52.051-53.402c6.398-5.932 16.052-6.285 21.574-.764 5.524 5.526 5.103 15.155-.94 21.466zm68.987-100.386c-14.794 7.888-21.792 25.156-16.664 41.086 2.95 9.652.654 19.961-6.302 28.294-5.718 6.848-13.543 11.108-21.848 12.135-1.312-6.162-4.333-11.977-9.092-16.736-3.84-3.84-8.381-6.552-13.242-8.153l23.467-24.076c14.277-14.648 14.594-37.865.705-51.754-4.233-4.233-9.3-7.151-14.708-8.781 12.406-14.685 12.097-36.422-1.164-49.681-14.074-14.073-37.331-13.718-51.846.795l-9.808 9.808c-1.654-5.187-4.519-10.041-8.622-14.144-6.854-6.854-16.083-10.509-25.97-10.305-9.733.205-18.923 4.147-25.876 11.101l-76.321 76.321c-6.935-5.996-10.896-14.707-10.833-24.352.078-12.002 6.363-22.497 16.808-28.071 14.791-7.886 21.789-25.15 16.666-41.078-3.328-10.887-.169-22.896 8.254-31.355 8.517-8.553 20.443-11.585 31.907-8.108 15.796 4.789 32.864-2.305 40.578-16.85 4.122-7.734 11.101-13.299 19.651-15.67 8.488-2.354 17.615-1.15 25.039 3.301 5.009 3.003 9.101 7.294 11.83 12.4 7.891 14.788 25.164 21.784 41.088 16.66 10.895-3.33 22.912-.167 31.377 8.263 8.547 8.513 11.575 20.431 8.1 31.882-4.79 15.792 2.306 32.859 16.854 40.571 10.501 5.593 16.772 16.133 16.777 28.194.008 12.104-6.277 22.685-16.805 28.303z"/><path d="m56.707 114.099c17.984 0 32.616-14.632 32.616-32.617 0-17.984-14.632-32.616-32.616-32.616s-32.616 14.632-32.616 32.616c0 17.985 14.631 32.617 32.616 32.617zm0-45.232c6.957 0 12.616 5.659 12.616 12.616s-5.659 12.617-12.616 12.617-12.616-5.66-12.616-12.617 5.659-12.616 12.616-12.616z"/></g></g></svg>