<svg id="Layer_1" enable-background="new 0 0 512.002 512.002" height="512" viewBox="0 0 512.002 512.002" width="512" xmlns="http://www.w3.org/2000/svg"><g><g clip-rule="evenodd" fill-rule="evenodd"><path d="m299.394 171.466c0 22.091 17.909 40 40 40 17.199 0 31.863-10.856 37.515-26.089-12.478-21.316-30.433-39.038-51.933-51.234-14.967 5.786-25.582 20.315-25.582 37.323z" fill="#e0ef9b"/><circle cx="211.001" cy="222" fill="#e0ef9b" r="30"/><path d="m211.001 192c16.569 0 30 13.432 30 30s-13.432 30-30 30-30-13.432-30-30 13.432-30 30-30zm88.393-20.534c0-17.008 10.615-31.537 25.582-37.323-20.359-11.548-43.897-18.142-68.975-18.142-77.32 0-140 62.68-140 140 0 64.055 43.019 118.063 101.741 134.708-1.132-3.703-1.741-7.634-1.741-11.708 0-22.091 17.909-40 40-40s40 17.909 40 40c0 4.073-.609 8.005-1.741 11.708 58.722-16.645 101.741-70.653 101.741-134.708 0-25.758-6.956-49.891-19.093-70.624-5.651 15.233-20.315 26.089-37.515 26.089-22.09 0-39.999-17.909-39.999-40zm12.607 97.534c11.046 0 20 8.954 20 20s-8.954 20-20 20-20-8.954-20-20 8.955-20 20-20z" fill="#eaf5bc"/><ellipse cx="312.001" cy="289" fill="#e0ef9b" rx="20" ry="20" transform="matrix(.972 -.234 .234 .972 -58.937 80.985)"/><path d="m296.001 379.001c0-22.091-17.909-40-40-40s-40 17.909-40 40c0 4.073.609 8.005 1.741 11.708 12.16 3.447 24.994 5.292 38.259 5.292s26.099-1.845 38.259-5.292c1.132-3.703 1.741-7.634 1.741-11.708z" fill="#e0ef9b"/><g fill="#fff2a0"><circle cx="256.001" cy="40" r="30"/><circle cx="103.266" cy="103.265" r="30"/><circle cx="40" cy="256.001" r="30"/><circle cx="103.266" cy="408.736" r="30"/><circle cx="256.001" cy="472.002" r="30"/><circle cx="408.737" cy="408.736" r="30"/><circle cx="472.002" cy="256.001" r="30"/><circle cx="408.737" cy="103.265" r="30"/></g></g><path d="m472.002 216c-18.604 0-34.282 12.767-38.734 30h-27.608c-2.239-33.846-15.749-64.658-36.81-88.706l19.569-19.569c6.244 3.68 13.28 5.52 20.319 5.52 10.241 0 20.486-3.9 28.284-11.697 7.555-7.555 11.716-17.6 11.716-28.284s-4.161-20.729-11.716-28.285c-15.598-15.596-40.974-15.595-56.569 0-13.154 13.155-15.212 33.269-6.176 48.602l-19.569 19.57c-24.048-21.061-54.86-34.571-88.706-36.81v-27.607c17.233-4.452 30-20.13 30-38.734 0-22.056-17.944-40-40-40s-40 17.944-40 40c0 18.604 12.767 34.282 30 38.734v27.608c-33.846 2.239-64.657 15.749-88.706 36.81l-19.564-19.564c3.606-6.092 5.535-13.058 5.535-20.323 0-10.685-4.161-20.729-11.716-28.284s-17.6-11.716-28.284-11.716-20.731 4.161-28.286 11.715c-7.555 7.555-11.716 17.6-11.716 28.285s4.161 20.729 11.716 28.284 17.6 11.716 28.284 11.716c7.265 0 14.231-1.928 20.323-5.534l19.564 19.564c-21.061 24.048-34.572 54.86-36.811 88.706h-27.606c-4.452-17.233-20.13-30-38.735-30-22.056 0-40 17.944-40 40s17.944 40 40 40c18.605 0 34.283-12.767 38.735-30h27.607c2.239 33.846 15.75 64.658 36.81 88.706l-19.564 19.564c-6.092-3.606-13.058-5.534-20.323-5.534-10.685 0-20.729 4.161-28.284 11.716s-11.716 17.6-11.716 28.284 4.161 20.729 11.716 28.285c7.555 7.555 17.6 11.716 28.284 11.716s20.729-4.161 28.284-11.715c7.555-7.555 11.716-17.6 11.716-28.285 0-7.265-1.928-14.231-5.534-20.323l19.564-19.564c24.048 21.061 54.86 34.571 88.706 36.81v27.608c-17.233 4.452-30 20.13-30 38.734 0 22.056 17.944 40 40 40s40-17.944 40-40c0-18.604-12.767-34.282-30-38.734v-27.609c33.846-2.239 64.658-15.75 88.706-36.811l19.569 19.57c-9.037 15.333-6.979 35.447 6.176 48.602 7.799 7.798 18.042 11.696 28.285 11.696 10.242 0 20.485-3.898 28.284-11.696 7.555-7.555 11.716-17.6 11.716-28.285s-4.161-20.729-11.716-28.284c-13.156-13.155-33.27-15.214-48.603-6.176l-19.569-19.569c21.061-24.048 34.571-54.86 36.81-88.706h27.608c4.452 17.233 20.13 30 38.734 30 22.056 0 40-17.944 40-40s-17.943-40.001-39.999-40.001zm-77.407-126.877c3.898-3.899 9.021-5.849 14.142-5.849 5.122 0 10.244 1.95 14.143 5.849 3.777 3.777 5.858 8.8 5.858 14.142s-2.081 10.364-5.858 14.142c-7.796 7.798-20.484 7.8-28.284 0-7.799-7.798-7.799-20.486-.001-28.284zm-158.594-49.123c0-11.028 8.972-20 20-20s20 8.972 20 20-8.972 20-20 20-20-8.972-20-20zm-132.735 83.265c-5.342 0-10.364-2.08-14.142-5.858-3.777-3.777-5.858-8.799-5.858-14.142s2.081-10.365 5.858-14.142c3.777-3.777 8.799-5.857 14.142-5.857s10.364 2.081 14.142 5.858 5.858 8.8 5.858 14.142-2.081 10.364-5.858 14.142c-3.778 3.777-8.801 5.857-14.142 5.857zm-63.266 152.736c-11.028 0-20-8.972-20-20s8.972-20 20-20 20.001 8.972 20.001 20-8.973 20-20.001 20zm77.407 146.878c-3.777 3.777-8.799 5.857-14.142 5.857s-10.364-2.081-14.142-5.857c-3.777-3.777-5.858-8.8-5.858-14.142s2.081-10.364 5.858-14.142c3.777-3.777 8.8-5.857 14.142-5.857s10.364 2.08 14.142 5.858c3.777 3.777 5.858 8.799 5.858 14.142s-2.08 10.363-5.858 14.141zm158.594 49.122c0 11.028-8.972 20-20 20s-20-8.972-20-20 8.972-20 20-20 20 8.973 20 20zm132.735-83.255c5.122 0 10.244 1.95 14.143 5.849 3.777 3.777 5.858 8.799 5.858 14.142s-2.081 10.365-5.858 14.142c-7.798 7.797-20.486 7.799-28.284 0s-7.798-20.487 0-28.284c3.898-3.9 9.02-5.849 14.141-5.849zm-152.735-2.745c-71.683 0-130-58.318-130-130s58.317-130 130-130 130 58.318 130 130-58.317 130-130 130zm216.001-110c-11.028 0-20-8.972-20-20s8.972-20 20-20 20 8.972 20 20-8.972 20-20 20z" fill="#7dd9c2"/></g></svg>