<svg id="Layer_1" enable-background="new 0 0 512.002 512.002" height="512" viewBox="0 0 512.002 512.002" width="512" xmlns="http://www.w3.org/2000/svg"><g><g><g clip-rule="evenodd" fill-rule="evenodd"><g fill="#e0ef9b"><ellipse cx="310.859" cy="172.948" rx="20" ry="20" transform="matrix(.338 -.941 .941 .338 43.154 407.208)"/><path d="m188.534 272.783v-40c0-11.046-8.954-20-20-20s-20 8.954-20 20v40c0 11.046 8.954 20 20 20s20-8.954 20-20z"/><path d="m322.355 296.463-34.641 20c-9.566 5.523-12.843 17.754-7.32 27.32s17.754 12.843 27.32 7.32l34.641-20c9.566-5.523 12.843-17.755 7.32-27.32s-17.754-12.843-27.32-7.32z"/></g><path d="m287.714 316.463 34.641-20c9.566-5.523 21.797-2.245 27.32 7.32 5.523 9.566 2.245 21.797-7.32 27.32l-34.641 20c-9.566 5.523-21.797 2.245-27.32-7.32-5.523-9.566-2.246-21.797 7.32-27.32zm23.145-123.516c-11.046 0-20-8.954-20-20s8.954-20 20-20 20 8.954 20 20-8.955 20-20 20zm-255.859 63.054c0 111.01 89.991 201.001 201.001 201.001s201.001-89.991 201.001-201.001-89.991-201.001-201.001-201.001-201.001 89.991-201.001 201.001zm133.534-23.217v40c0 11.046-8.954 20-20 20s-20-8.954-20-20v-40c0-11.046 8.954-20 20-20s20 8.954 20 20z" fill="#cff5fd"/><path d="m457.002 256.001c0 111.01-89.991 201.001-201.001 201.001s-201.001-89.991-201.001-201.001 89.991-201.001 201.001-201.001 201.001 89.991 201.001 201.001zm45 0c0-135.863-110.138-246.001-246.001-246.001s-246.001 110.138-246.001 246.001 110.138 246.001 246.001 246.001 246.001-110.138 246.001-246.001z" fill="#fff"/></g><g><path d="m256.001 266.001c-5.523 0-10.004-4.477-10.004-10s4.474-10 9.997-10h.007c5.523 0 10 4.477 10 10s-4.477 10-10 10z" fill="#ffd4b5"/></g><g><path d="m207.677 145.642c-5.523 0-10.004-4.477-10.004-10s4.474-10 9.997-10h.007c5.523 0 10 4.477 10 10s-4.477 10-10 10z" fill="#ffd4b5"/></g><g><path d="m191.677 392.642c-5.523 0-10.004-4.477-10.004-10s4.474-10 9.997-10h.007c5.523 0 10 4.477 10 10s-4.477 10-10 10z" fill="#ffd4b5"/></g><g><path d="m394.677 244.642c-5.523 0-10.004-4.477-10.004-10s4.474-10 9.997-10h.007c5.523 0 10 4.477 10 10s-4.477 10-10 10z" fill="#ffd4b5"/></g></g><g fill="#a0c8ff"><path d="m256.001 0c-141.159 0-256.001 114.841-256.001 256.001s114.842 256.001 256.001 256.001 256-114.841 256-256.001-114.84-256.001-256-256.001zm0 492.002c-130.131 0-236.001-105.87-236.001-236.001s105.87-236.001 236.001-236.001 236 105.87 236 236.001-105.868 236.001-236 236.001z"/><path d="m201.909 242.783h-3.375v-10c0-1.872-.181-3.701-.51-5.479l4.414-2.549c4.783-2.761 6.422-8.877 3.66-13.66-2.762-4.784-8.878-6.423-13.66-3.66l-4.428 2.557c-2.77-2.37-5.973-4.246-9.475-5.489v-5.095c0-5.523-4.477-10-10-10s-10 4.477-10 10v5.095c-3.503 1.242-6.705 3.118-9.475 5.489l-4.428-2.557c-4.782-2.76-10.899-1.123-13.66 3.66-2.762 4.783-1.123 10.899 3.66 13.66l4.414 2.548c-.33 1.778-.51 3.607-.51 5.479v10h-3.375c-5.523 0-10 4.477-10 10s4.477 10 10 10h3.375v10c0 1.872.181 3.701.51 5.479l-4.414 2.548c-4.783 2.761-6.422 8.877-3.66 13.66 1.852 3.208 5.213 5.002 8.669 5.002 1.696 0 3.416-.433 4.991-1.342l4.428-2.557c2.77 2.37 5.973 4.246 9.475 5.489v5.095c0 5.523 4.477 10 10 10s10-4.477 10-10v-5.095c3.503-1.242 6.705-3.118 9.475-5.489l4.428 2.557c1.575.909 3.294 1.342 4.991 1.342 3.456 0 6.817-1.794 8.669-5.002 2.762-4.783 1.123-10.899-3.66-13.66l-4.414-2.549c.33-1.778.51-3.607.51-5.479v-10h3.375c5.523 0 10-4.477 10-10s-4.477-9.998-10-9.998zm-23.375 30c0 5.514-4.486 10-10 10s-10-4.486-10-10v-40c0-5.514 4.486-10 10-10s10 4.486 10 10z"/><path d="m276.955 164.92 4.414 2.549c-.33 1.778-.51 3.607-.51 5.479s.181 3.701.51 5.479l-4.414 2.548c-4.783 2.761-6.422 8.877-3.66 13.66 1.852 3.208 5.213 5.002 8.669 5.002 1.696 0 3.416-.433 4.991-1.342l4.428-2.556c2.77 2.37 5.973 4.246 9.475 5.489v5.095c0 5.523 4.477 10 10 10s10-4.477 10-10v-5.095c3.503-1.242 6.705-3.118 9.475-5.488l4.428 2.556c1.575.91 3.294 1.342 4.991 1.342 3.456 0 6.817-1.794 8.669-5.002 2.762-4.783 1.123-10.899-3.66-13.66l-4.413-2.548c.33-1.778.51-3.607.51-5.479s-.181-3.701-.51-5.479l4.414-2.548c4.783-2.762 6.421-8.877 3.66-13.661-2.762-4.782-8.878-6.421-13.661-3.66l-4.427 2.556c-2.77-2.371-5.973-4.246-9.475-5.489v-5.095c0-5.523-4.477-10-10-10s-10 4.477-10 10v5.095c-3.503 1.242-6.706 3.118-9.476 5.489l-4.427-2.556c-4.783-2.761-10.899-1.123-13.661 3.66-2.761 4.782-1.123 10.898 3.66 13.659zm23.904 8.028c0-5.514 4.486-10 10-10s10 4.486 10 10-4.486 10-10 10-10-4.487-10-10z"/><path d="m369.918 292.096c-2.762-4.783-8.877-6.422-13.66-3.66l-4.412 2.547c-2.827-2.412-6.053-4.248-9.491-5.461v-5.113c0-5.523-4.477-10-10-10s-10 4.477-10 10v5.096c-1.704.603-3.378 1.361-4.999 2.297l-8.66 5-1.688-2.923c-2.762-4.783-8.878-6.422-13.661-3.66s-6.421 8.877-3.66 13.661l1.687 2.922-8.66 5c-1.621.936-3.115 2.007-4.489 3.181l-4.414-2.548c-4.783-2.761-10.899-1.122-13.661 3.661-2.761 4.783-1.122 10.899 3.661 13.661l4.428 2.556c-.668 3.584-.691 7.295-.016 10.949l-4.412 2.547c-4.783 2.762-6.422 8.877-3.661 13.661 1.853 3.208 5.214 5.002 8.67 5.002 1.696 0 3.416-.433 4.991-1.341l4.409-2.546c2.827 2.412 6.056 4.241 9.494 5.455v5.118c0 5.523 4.477 10 10 10s10-4.477 10-10v-5.1c1.704-.603 3.379-1.358 5-2.294l8.66-5 1.687 2.923c1.852 3.208 5.213 5.002 8.669 5.002 1.696 0 3.416-.433 4.991-1.342 4.783-2.761 6.422-8.877 3.66-13.66l-1.687-2.922 8.661-5c1.621-.936 3.114-2.007 4.489-3.181l4.413 2.548c1.575.91 3.294 1.342 4.991 1.342 3.456 0 6.817-1.794 8.669-5.002 2.762-4.783 1.123-10.899-3.66-13.66l-4.428-2.557c.668-3.584.691-7.296.016-10.95l4.412-2.547c4.784-2.763 6.423-8.879 3.661-13.662zm-32.563 30.348-34.641 20c-4.775 2.755-10.904 1.115-13.66-3.66-2.757-4.775-1.115-10.903 3.66-13.661l34.641-20c4.775-2.757 10.903-1.115 13.661 3.66 2.755 4.776 1.113 10.904-3.661 13.661z"/></g></g></svg>