<svg id="Layer_1" enable-background="new 0 0 512.002 512.002" height="512" viewBox="0 0 512.002 512.002" width="512" xmlns="http://www.w3.org/2000/svg"><g><g clip-rule="evenodd" fill-rule="evenodd"><path d="m276.001 276.001v-40c0-11.046-8.954-20-20-20s-20 8.954-20 20v40c0 11.046 8.954 20 20 20s20-8.955 20-20z" fill="#e0ef9b"/><path d="m276.001 236.001v40c0 11.046-8.954 20-20 20s-20-8.954-20-20v-40c0-11.046 8.954-20 20-20s20 8.954 20 20zm100 20c0-66.274-53.726-120-120-120s-120 53.726-120 120 53.726 120 120 120 120-53.726 120-120z" fill="#fff"/></g><g fill="#7dd9c2"><path d="m289.376 246.001h-3.375v-10c0-1.872-.181-3.701-.51-5.479l4.414-2.548c4.783-2.761 6.422-8.877 3.66-13.66-2.761-4.783-8.877-6.421-13.66-3.66l-4.428 2.556c-2.77-2.37-5.973-4.246-9.475-5.489v-5.095c0-5.523-4.478-10-10-10s-10 4.477-10 10v5.095c-3.503 1.242-6.705 3.118-9.475 5.489l-4.428-2.556c-4.784-2.763-10.9-1.123-13.66 3.66-2.762 4.783-1.123 10.899 3.66 13.66l4.414 2.548c-.33 1.778-.51 3.607-.51 5.479v10h-3.374c-5.522 0-10 4.477-10 10s4.478 10 10 10h3.374v10c0 1.872.181 3.701.51 5.478l-4.414 2.548c-4.783 2.762-6.422 8.877-3.66 13.661 1.853 3.208 5.213 5.001 8.67 5.001 1.696 0 3.416-.433 4.99-1.342l4.428-2.557c2.77 2.371 5.973 4.246 9.476 5.489v5.095c0 5.523 4.478 10 10 10s10-4.477 10-10v-5.095c3.503-1.242 6.706-3.118 9.476-5.489l4.428 2.557c1.574.909 3.294 1.342 4.99 1.342 3.456 0 6.817-1.793 8.67-5.001 2.762-4.783 1.123-10.899-3.66-13.661l-4.414-2.548c.33-1.778.51-3.607.51-5.478v-10h3.375c5.522 0 10-4.477 10-10s-4.48-10-10.002-10zm-23.375 30c0 5.514-4.486 10-10 10s-10-4.486-10-10v-40c0-5.514 4.486-10 10-10s10 4.486 10 10z"/><path d="m509.073 248.93-25.598-25.597c-3.906-3.905-10.236-3.906-14.143 0-3.905 3.905-3.905 10.237 0 14.142l8.526 8.526h-92.238c-2.166-28.339-13.463-54.162-30.941-74.535l65.271-65.271v12.057c0 5.523 4.477 10 10 10 5.522 0 10-4.477 10-10l.001-36.2c0-2.652-1.054-5.196-2.929-7.071s-4.419-2.929-7.071-2.929h-36.2c-5.522 0-10 4.477-10 10s4.478 10 10 10h12.057l-65.271 65.271c-20.373-17.478-46.196-28.775-74.535-30.941v-92.24l8.526 8.526c1.953 1.953 4.512 2.929 7.071 2.929s5.118-.976 7.071-2.929c3.905-3.905 3.905-10.237 0-14.142l-25.598-25.597c-3.906-3.905-10.236-3.905-14.143 0l-25.598 25.597c-3.905 3.905-3.905 10.237 0 14.142 3.906 3.906 10.236 3.906 14.143 0l8.526-8.526v92.239c-28.34 2.166-54.162 13.463-74.535 30.941l-65.271-65.271h12.058c5.522 0 10-4.477 10-10s-4.478-10-10-10h-36.2c-2.652 0-5.196 1.054-7.071 2.929s-2.929 4.419-2.929 7.071l.001 36.2c0 5.522 4.478 10 10 10 5.523 0 10-4.478 10-10v-12.057l65.271 65.271c-17.478 20.373-28.775 46.196-30.941 74.535h-92.24l8.526-8.526c3.905-3.905 3.905-10.237 0-14.142-3.904-3.905-10.234-3.905-14.143 0l-25.597 25.598c-1.875 1.875-2.929 4.419-2.929 7.071s1.054 5.196 2.929 7.071l25.598 25.597c1.953 1.953 4.512 2.929 7.071 2.929s5.118-.976 7.071-2.929c3.905-3.905 3.905-10.237 0-14.142l-8.526-8.526h92.239c2.166 28.339 13.463 54.162 30.941 74.535l-65.271 65.271v-12.057c0-5.523-4.477-10-10-10-5.522 0-10 4.477-10 10l-.001 36.2c0 2.652 1.054 5.196 2.929 7.071s4.419 2.929 7.071 2.929h36.201c5.522 0 10-4.477 10-10s-4.478-10-10-10h-12.058l65.271-65.271c20.373 17.478 46.196 28.775 74.535 30.941v92.24l-8.526-8.527c-3.906-3.905-10.236-3.905-14.143 0-3.905 3.905-3.905 10.237 0 14.143l25.598 25.598c1.953 1.953 4.512 2.929 7.071 2.929s5.118-.976 7.071-2.929l25.598-25.598c3.905-3.905 3.905-10.237 0-14.143-3.906-3.905-10.236-3.905-14.143 0l-8.526 8.527v-92.24c28.34-2.166 54.162-13.463 74.535-30.941l65.271 65.271h-12.056c-5.522 0-10 4.477-10 10s4.478 10 10 10h36.2c2.652 0 5.196-1.054 7.071-2.929s2.929-4.419 2.929-7.071l-.001-36.2c0-5.522-4.478-10-10-10-5.523 0-10 4.478-10 10v12.057l-65.271-65.271c17.478-20.373 28.775-46.196 30.941-74.535h92.239l-8.526 8.526c-3.905 3.905-3.905 10.237 0 14.142 1.953 1.953 4.512 2.93 7.071 2.929 2.559 0 5.118-.977 7.071-2.929l25.598-25.597c1.875-1.875 2.929-4.419 2.929-7.071s-1.053-5.196-2.928-7.071zm-253.072 117.071c-60.654 0-110-49.346-110-110s49.346-110 110-110 110 49.346 110 110-49.346 110-110 110z"/></g></g></svg>