<svg id="Layer_1" enable-background="new 0 0 512 512" height="512" viewBox="0 0 512 512" width="512" xmlns="http://www.w3.org/2000/svg"><path clip-rule="evenodd" d="m268.411 416.683h-24.821c-101.394 0-183.589-82.196-183.589-183.589v-76.411l10.886-6.998c112.764-72.491 257.465-72.491 370.229 0l10.886 6.998v76.411c-.001 101.393-82.197 183.589-183.591 183.589z" fill="#cff5fd" fill-rule="evenodd"/><path d="m512 200.682c0-29.775-24.226-54-54.003-54h-3.06l-8.414-5.409c-56.944-36.606-122.825-55.956-190.521-55.956s-133.577 19.35-190.521 55.956l-8.414 5.409h-3.062c-29.777 0-54.003 24.225-54.003 54 0 28.838 22.722 52.468 51.203 53.929 10.739 96.656 92.915 172.072 192.388 172.072h24.82c99.473 0 181.649-75.416 192.388-172.072 28.478-1.461 51.199-25.091 51.199-53.929zm-492 0c0-17.393 13.132-31.769 30.001-33.757v66.168c0 .451.014.899.017 1.349-16.877-1.979-30.018-16.36-30.018-33.76zm248.411 206.001h-24.82c-95.718 0-173.59-77.872-173.59-173.59v-70.95l6.293-4.046c109.167-70.182 250.245-70.182 359.414 0l6.293 4.045v70.951c0 95.718-77.872 173.59-173.59 173.59zm193.573-172.241c.003-.45.017-.898.017-1.349v-66.167c16.868 1.988 29.999 16.363 29.999 33.756 0 17.4-13.14 31.78-30.016 33.76z" fill="#a0c8ff"/><g><path d="m377.991 227.047c-1.852 0-3.725-.514-5.397-1.589-70.828-45.533-162.357-45.533-233.186 0-4.645 2.987-10.832 1.641-13.819-3.005-2.986-4.646-1.642-10.832 3.005-13.819 38.08-24.479 82.137-37.419 127.407-37.419s89.327 12.939 127.407 37.419c4.646 2.987 5.991 9.174 3.005 13.819-1.911 2.973-5.133 4.594-8.422 4.594z" fill="#99ebfa"/></g><g><path d="m345.771 285.684c-1.852 0-3.725-.514-5.397-1.589-51.254-32.951-117.49-32.951-168.744 0-4.645 2.986-10.833 1.642-13.819-3.005-2.986-4.646-1.642-10.832 3.005-13.819 57.822-37.172 132.551-37.172 190.373 0 4.646 2.987 5.991 9.174 3.005 13.819-1.913 2.973-5.134 4.594-8.423 4.594z" fill="#99ebfa"/></g></svg>