<svg id="Layer_1" enable-background="new 0 0 512.002 512.002" height="512" viewBox="0 0 512.002 512.002" width="512" xmlns="http://www.w3.org/2000/svg"><g><g><g clip-rule="evenodd" fill-rule="evenodd"><g><path d="m235.062 347.65c-29.713-16.421-54.29-40.998-70.711-70.711l-19.127 19.127c-7.779 7.779-7.779 20.506 0 28.284l3.656 3.656 35.116 35.116 3.655 3.655c7.778 7.778 20.506 7.778 28.284 0z" fill="#e8eaf0"/><path d="m183.996 363.123-35.116-35.116-130.005 122.694c-12 11.325-11.666 30.76 0 42.426s31.103 11.999 42.426 0z" fill="#e6dfe1"/><path d="m182.002 190.001c0-77.32 62.68-140 140-140s140 62.68 140 140-62.68 140-140 140-140-62.681-140-140zm-40 0c0 99.411 80.589 180 180 180s180-80.589 180-180-80.589-180-180-180-180 80.589-180 180z" fill="#fff"/></g><path d="m342.001 170.001c0-11.046-8.954-20-20-20s-20 8.954-20 20v40c0 11.046 8.954 20 20 20s20-8.954 20-20z" fill="#e0ef9b"/><path d="m322.002 150.001c11.046 0 20 8.954 20 20v40c0 11.046-8.954 20-20 20s-20-8.954-20-20v-40c0-11.046 8.954-20 20-20zm140 40c0-77.32-62.68-140-140-140s-140 62.68-140 140 62.68 140 140 140 140-62.681 140-140z" fill="#cff5fd"/></g><g><path d="m241.51 167.386c-5.523 0-10.004-4.477-10.004-10s4.473-10 9.996-10h.008c5.523 0 10 4.477 10 10s-4.477 10-10 10z" fill="#ffd4b5"/></g><g><path d="m278.51 289.386c-5.522 0-10.004-4.477-10.004-10s4.474-10 9.996-10h.008c5.522 0 10 4.477 10 10s-4.477 10-10 10z" fill="#ffd4b5"/></g><g><path d="m396.51 229.385c-5.522 0-10.004-4.477-10.004-10s4.474-10 9.996-10h.008c5.522 0 10 4.477 10 10s-4.477 10-10 10z" fill="#ffd4b5"/></g><g><path d="m377.51 117.385c-5.522 0-10.004-4.477-10.004-10s4.474-10 9.996-10h.008c5.522 0 10 4.477 10 10s-4.477 10-10 10z" fill="#ffd4b5"/></g></g><g fill="#c1b0b5"><path d="m355.376 180h-3.375v-10c0-1.872-.181-3.701-.51-5.479l4.414-2.548c4.783-2.761 6.422-8.877 3.66-13.66-2.762-4.782-8.877-6.422-13.66-3.66l-4.428 2.556c-2.77-2.371-5.973-4.247-9.476-5.489v-5.095c0-5.523-4.478-10-10-10s-10 4.477-10 10v5.095c-3.502 1.242-6.705 3.118-9.475 5.489l-4.428-2.556c-4.784-2.761-10.899-1.121-13.66 3.661-2.762 4.783-1.122 10.899 3.66 13.66l4.414 2.548c-.329 1.778-.51 3.607-.51 5.478v10h-3.375c-5.522 0-10 4.477-10 10s4.478 10 10 10h3.375v10c0 1.872.181 3.701.51 5.478l-4.414 2.549c-4.783 2.761-6.422 8.877-3.66 13.66 1.853 3.208 5.213 5.002 8.67 5.002 1.696 0 3.415-.433 4.99-1.342l4.428-2.557c2.77 2.37 5.973 4.246 9.475 5.489v5.095c0 5.523 4.478 10 10 10s10-4.477 10-10v-5.095c3.503-1.242 6.706-3.118 9.476-5.489l4.428 2.557c1.574.909 3.294 1.342 4.99 1.342 3.456 0 6.817-1.793 8.67-5.001 2.762-4.783 1.123-10.899-3.66-13.661l-4.414-2.548c.329-1.778.51-3.607.51-5.479v-10h3.375c5.522 0 10-4.477 10-10s-4.477-10-10-10zm-23.375 30c0 5.514-4.486 10-10 10s-9.999-4.486-9.999-10v-40c0-5.514 4.485-10 9.999-10s10 4.486 10 10z"/><path d="m322.001 0c-104.766 0-190 85.233-190 190 0 30.548 7.257 59.428 20.121 85.026l-13.97 13.969c-10.465 10.465-11.559 26.797-3.3 38.499l-122.84 115.935c-7.589 7.161-11.853 16.967-12.007 27.611-.157 10.874 4.144 21.502 11.8 29.159 7.521 7.521 17.908 11.804 28.581 11.804.192 0 .384-.001.576-.004 10.644-.153 20.451-4.417 27.613-12.006l115.934-122.84c5.014 3.544 10.995 5.461 17.285 5.461 8.029 0 15.563-3.112 21.213-8.763l13.97-13.97c25.596 12.862 54.477 20.119 85.024 20.119 104.767 0 190-85.234 190-190s-85.233-190-190-190zm-267.971 486.264c-3.42 3.624-8.164 5.661-13.356 5.736-5.512.083-10.87-2.087-14.727-5.943-3.857-3.857-6.023-9.225-5.944-14.727.075-5.192 2.112-9.935 5.736-13.355l122.939-116.026 21.378 21.377zm154.834-126.557c-1.873 1.874-4.384 2.905-7.071 2.905s-5.198-1.031-7.071-2.905l-42.427-42.426c-3.899-3.899-3.899-10.243 0-14.142l10.127-10.127c14.645 22.609 33.959 41.923 56.568 56.569zm113.137.293c-93.738 0-170-76.262-170-170s76.262-170 170-170 170 76.262 170 170c0 93.739-76.261 170-170 170z"/></g></g></svg>