<?xml version="1.0" encoding="iso-8859-1"?>
<!-- Generator: Adobe Illustrator 19.0.0, SVG Export Plug-In . SVG Version: 6.00 Build 0)  -->
<svg version="1.1" id="Layer_1" xmlns="http://www.w3.org/2000/svg" xmlns:xlink="http://www.w3.org/1999/xlink" x="0px" y="0px"
	 viewBox="0 0 456.953 456.953" style="enable-background:new 0 0 456.953 456.953;" xml:space="preserve">
<g id="XMLID_1440_">
	<path id="XMLID_26_" style="fill:#E0E0E2;" d="M440.545,372.592c-3.18-34.534-27.941-44.559-47.837-52.613
		c-1.64-0.664-3.295-1.334-4.957-2.023c-8.853-3.67-15.409-11.071-17.988-20.306c-2.996-10.729,1.34-20.951,5.504-27.638
		c18.008-28.909,28.985-57.35,32.626-84.531c3.351-25.018,0.556-49.091-8.308-71.55c-10.655-26.997-30.403-51.781-57.109-71.673
		c-22.143-16.493-48.92-29.485-75.4-36.583C253.029,1.909,238.449,0,223.742,0c-39.553,0-78.937,13.399-113.895,38.745
		c-34.691,25.153-61.708,59.692-78.128,99.883c-20.526,50.239-20.733,105.043-0.582,154.317
		c22.148,54.158,66.77,97.091,129.041,124.155c60.836,26.441,115.172,39.849,161.5,39.853c0.008,0,0.012,0,0.02,0
		c44.147,0,80.042-12.692,101.064-35.737C435.801,406.922,442.116,389.653,440.545,372.592z"/>
	<path id="XMLID_27_" style="fill:#D8D7DA;" d="M440.545,372.592c-3.18-34.534-27.941-44.559-47.837-52.613
		c-1.64-0.664-3.295-1.334-4.957-2.023c-8.853-3.67-15.409-11.071-17.988-20.306c-2.996-10.729,1.34-20.951,5.504-27.638
		c18.008-28.909,28.985-57.35,32.626-84.531c3.351-25.018,0.556-49.091-8.308-71.55c-10.655-26.997-30.403-51.781-57.109-71.673
		c-22.143-16.493-48.92-29.485-75.4-36.583c-12.537-3.361-25.5-5.232-38.599-5.598V442.11c33.808,9.858,64.992,14.84,93.201,14.843
		c0.008,0,0.012,0,0.02,0c44.147,0,80.042-12.692,101.064-35.737C435.801,406.922,442.116,389.653,440.545,372.592z"/>
	<path id="XMLID_28_" style="fill:#CD2A00;" d="M310.801,125.717c-2.163-0.372-4.371-0.56-6.563-0.56
		c-22.277,0-41.658,18.669-46.083,44.39c-2.253,13.095-0.239,26.26,5.671,37.071c6.44,11.78,17.12,19.738,29.298,21.834
		c2.164,0.372,4.373,0.561,6.565,0.561c22.276,0,41.657-18.668,46.083-44.389C350.646,156.299,334.959,129.874,310.801,125.717z"/>
	<path id="XMLID_29_" style="fill:#FFD422;" d="M253.647,70.73c-6.977-14.38-22.484-23.313-40.471-23.313
		c-8.71,0-17.642,2.1-25.828,6.071c-11.954,5.8-21.479,15.108-26.82,26.213c-5.82,12.099-6.063,25.414-0.668,36.533
		c6.977,14.38,22.484,23.313,40.471,23.313c8.71,0,17.642-2.1,25.828-6.071C252.016,120.932,264.347,92.783,253.647,70.73z"/>
	<path id="XMLID_30_" style="fill:#1A6FB0;" d="M155.748,194.107c-3.602-26.191-23.319-45.941-45.864-45.941
		c-1.757,0-3.532,0.122-5.275,0.361c-12.243,1.684-23.185,9.276-30.019,20.833c-6.272,10.605-8.729,23.695-6.919,36.857
		c3.602,26.191,23.319,45.942,45.865,45.942c1.756,0,3.531-0.122,5.274-0.361C143.092,248.46,159.663,222.579,155.748,194.107z"/>
	<path id="XMLID_31_" style="fill:#4E901E;" d="M254.947,308.669c-1.437-12.237-7.414-24.14-16.83-33.514
		c-10.845-10.797-25.062-16.989-39.007-16.989c-11.367,0-21.77,4.161-29.293,11.718c-8.72,8.758-12.822,21.429-11.256,34.763
		c1.438,12.237,7.415,24.14,16.831,33.514c10.845,10.797,25.062,16.989,39.006,16.989c11.367,0,21.771-4.161,29.294-11.718
		C252.41,334.674,256.513,322.003,254.947,308.669z"/>
</g>
<g>
</g>
<g>
</g>
<g>
</g>
<g>
</g>
<g>
</g>
<g>
</g>
<g>
</g>
<g>
</g>
<g>
</g>
<g>
</g>
<g>
</g>
<g>
</g>
<g>
</g>
<g>
</g>
<g>
</g>
</svg>
