<?xml version="1.0" encoding="iso-8859-1"?>
<!-- Generator: Adobe Illustrator 19.0.0, SVG Export Plug-In . SVG Version: 6.00 Build 0)  -->
<svg version="1.1" id="Layer_1" xmlns="http://www.w3.org/2000/svg" xmlns:xlink="http://www.w3.org/1999/xlink" x="0px" y="0px"
	 viewBox="0 0 449.208 449.208" style="enable-background:new 0 0 449.208 449.208;" xml:space="preserve">
<g id="XMLID_1162_">
	<path id="XMLID_1785_" style="fill:#FFD422;" d="M157.653,389.513c4.377-2.112,7.459-6.212,8.272-11.003
		c0.812-4.791-0.747-9.678-4.183-13.114l-77.93-77.93c-3.436-3.436-8.323-4.995-13.114-4.183c-4.791,0.812-8.891,3.895-11.003,8.272
		L1.491,412.194c-2.772,5.744-1.607,12.614,2.903,17.124l15.496,15.496c4.51,4.51,11.38,5.675,17.124,2.903L157.653,389.513z"/>
	<path id="XMLID_1784_" style="fill:#EEBF00;" d="M157.653,389.513c4.377-2.112,7.459-6.212,8.272-11.003
		c0.812-4.791-0.747-9.678-4.183-13.114l-38.965-38.965L12.143,437.066l7.748,7.748c4.51,4.51,11.38,5.675,17.124,2.903
		L157.653,389.513z"/>
	<path id="XMLID_1783_" style="fill:#FF9811;" d="M428.708,20.5c-27.334-27.334-71.81-27.334-99.144,0L102.791,247.275
		c-5.858,5.858-5.858,15.355,0,21.213l77.93,77.93c5.858,5.858,15.355,5.858,21.213,0l226.773-226.773
		C456.042,92.311,456.042,47.834,428.708,20.5z"/>
	<path id="XMLID_1782_" style="fill:#EE8700;" d="M428.708,20.5L141.756,307.452l38.965,38.965c5.858,5.858,15.355,5.858,21.213,0
		l226.773-226.773C456.042,92.311,456.042,47.834,428.708,20.5z"/>
	<path id="XMLID_1781_" style="fill:#EE8700;" d="M200.215,323.486l-74.493-74.493c-17.215-17.215-45.226-17.215-62.441,0
		s-17.215,45.226,0,62.441l74.493,74.493c17.215,17.215,45.226,17.215,62.441,0S217.43,340.701,200.215,323.486z"/>
	<path id="XMLID_1780_" style="fill:#CC7400;" d="M200.215,323.486l-37.246-37.246l-62.441,62.441l37.246,37.246
		c17.215,17.215,45.226,17.215,62.441,0S217.43,340.701,200.215,323.486z"/>
</g>
<g>
</g>
<g>
</g>
<g>
</g>
<g>
</g>
<g>
</g>
<g>
</g>
<g>
</g>
<g>
</g>
<g>
</g>
<g>
</g>
<g>
</g>
<g>
</g>
<g>
</g>
<g>
</g>
<g>
</g>
</svg>
