<?xml version="1.0" encoding="iso-8859-1"?>
<!-- Generator: Adobe Illustrator 19.0.0, SVG Export Plug-In . SVG Version: 6.00 Build 0)  -->
<svg version="1.1" id="Layer_1" xmlns="http://www.w3.org/2000/svg" xmlns:xlink="http://www.w3.org/1999/xlink" x="0px" y="0px"
	 viewBox="0 0 452.581 452.581" style="enable-background:new 0 0 452.581 452.581;" xml:space="preserve">
<g id="XMLID_1612_">
	<g id="XMLID_1596_">
		<path id="XMLID_1595_" style="fill:#C0E6FF;" d="M428.58,371.32c10.187,16.391,10.69,37.05,1.313,53.916
			c-9.376,16.867-27.188,27.345-46.486,27.345H69.174c-19.298,0-37.11-10.477-46.486-27.345C13.311,408.37,13.814,387.711,24,371.32
			l133.26-214.427V15c0-8.284,6.716-15,15-15h108.062c8.284,0,15,6.716,15,15v141.893L428.58,371.32z"/>
	</g>
	<path id="XMLID_526_" style="fill:#E4187A;" d="M316.671,219.664H135.91L36.74,379.238c-7.318,11.776-7.679,26.592-0.942,38.71
		c6.736,12.118,19.512,19.632,33.376,19.632h314.233c13.864,0,26.64-7.515,33.376-19.632c6.736-12.118,6.376-26.935-0.942-38.71
		L316.671,219.664z"/>
	<path id="XMLID_527_" style="fill:#C61469;" d="M415.84,379.238l-99.17-159.574h-89.63v217.917h156.367
		c13.864,0,26.64-7.515,33.376-19.632C423.519,405.831,423.159,391.014,415.84,379.238z"/>
	<g id="XMLID_530_">
		<path id="XMLID_531_" style="fill:#96C8EF;" d="M428.58,371.32c10.187,16.391,10.69,37.05,1.313,53.916
			c-9.376,16.867-27.188,27.345-46.486,27.345H69.174c-19.298,0-37.11-10.477-46.486-27.345C13.311,408.37,13.814,387.711,24,371.32
			l133.26-214.427V15c0-8.284,6.716-15,15-15h108.062c8.284,0,15,6.716,15,15v141.893L428.58,371.32z M187.26,30v131.174
			c0,2.798-0.783,5.541-2.26,7.918L49.481,387.156c-4.441,7.145-4.66,16.15-0.572,23.504s11.853,11.921,20.266,11.921h314.232
			c8.413,0,16.178-4.567,20.266-11.921c4.088-7.353,3.868-16.359-0.572-23.504l-135.52-218.064c-1.477-2.377-2.26-5.12-2.26-7.918
			V30H187.26z"/>
	</g>
	<g id="XMLID_534_">
		<path id="XMLID_536_" style="fill:#78B9EB;" d="M299.517,30H153.064c-8.284,0-15-6.716-15-15s6.716-15,15-15h146.453
			c8.284,0,15,6.716,15,15S307.801,30,299.517,30z"/>
	</g>
	<path id="XMLID_805_" style="fill:#78B9EB;" d="M383.407,452.581c19.298,0,37.11-10.477,46.486-27.345
		c9.377-16.866,8.874-37.525-1.313-53.916L295.322,156.893V15c0-8.284-6.716-15-15-15H227.04v30h38.281v131.174
		c0,2.798,0.783,5.541,2.26,7.918L403.1,387.156c4.44,7.145,4.66,16.15,0.572,23.504s-11.852,11.921-20.266,11.921H227.04v30
		H383.407z"/>
	<path id="XMLID_806_" style="fill:#5AAAE7;" d="M299.517,0H227.04v30h72.477c8.284,0,15-6.716,15-15S307.801,0,299.517,0z"/>
</g>
<g>
</g>
<g>
</g>
<g>
</g>
<g>
</g>
<g>
</g>
<g>
</g>
<g>
</g>
<g>
</g>
<g>
</g>
<g>
</g>
<g>
</g>
<g>
</g>
<g>
</g>
<g>
</g>
<g>
</g>
</svg>
