<?xml version="1.0" encoding="iso-8859-1"?>
<!-- Generator: Adobe Illustrator 19.0.0, SVG Export Plug-In . SVG Version: 6.00 Build 0)  -->
<svg version="1.1" id="Layer_1" xmlns="http://www.w3.org/2000/svg" xmlns:xlink="http://www.w3.org/1999/xlink" x="0px" y="0px"
	 viewBox="0 0 474.985 474.985" style="enable-background:new 0 0 474.985 474.985;" xml:space="preserve">
<g id="XMLID_1022_">
	<g id="XMLID_1026_">
		<path id="XMLID_1027_" style="fill:#78B9EB;" d="M354.415,116.79c-8.284,0-15-6.716-15-15V54.895
			C339.415,41.168,328.247,30,314.52,30H160.322c-13.727,0-24.895,11.168-24.895,24.895v46.896c0,8.284-6.716,15-15,15
			s-15-6.716-15-15V54.895C105.427,24.626,130.053,0,160.322,0H314.52c30.27,0,54.896,24.626,54.896,54.895v46.896
			C369.415,110.074,362.701,116.79,354.415,116.79z"/>
	</g>
	<path id="XMLID_1028_" style="fill:#3D9AF2;" d="M314.52,0h-78.862v30h78.862c13.728,0,24.896,11.168,24.896,24.895v46.896
		c0,8.284,6.716,15,15,15s15-6.716,15-15V54.895C369.415,24.626,344.789,0,314.52,0z"/>
	<path id="XMLID_1417_" style="fill:#96C8EF;" d="M53.705,77.564c-29.057,29.057-29.057,76.336,0,105.393s76.336,29.057,105.393,0
		s29.057-76.337,0-105.394C130.042,48.507,82.762,48.507,53.705,77.564z"/>
	<path id="XMLID_1416_" style="fill:#78B9EB;" d="M315.886,77.909c-29.057,29.057-29.057,76.336,0,105.393s76.336,29.057,105.393,0
		s29.057-76.337,0-105.394S344.944,48.852,315.886,77.909z"/>
	<g id="XMLID_1033_">
		<path id="XMLID_1034_" style="fill:#3E3D42;" d="M365.323,474.985c-3.839,0-7.678-1.465-10.606-4.394l-60.804-60.804
			c-5.858-5.857-5.858-15.355,0-21.213c5.857-5.857,15.355-5.857,21.213,0l60.804,60.804c5.858,5.857,5.858,15.355,0,21.213
			C373.001,473.521,369.162,474.985,365.323,474.985z"/>
	</g>
	<g id="XMLID_1035_">
		<path id="XMLID_1036_" style="fill:#787680;" d="M109.519,474.985c-3.839,0-7.678-1.465-10.606-4.394
			c-5.858-5.857-5.858-15.355,0-21.213l60.804-60.804c5.857-5.857,15.355-5.857,21.213,0s5.858,15.355,0,21.213l-60.804,60.804
			C117.197,473.521,113.358,474.985,109.519,474.985z"/>
	</g>
	<circle id="XMLID_1037_" style="fill:#78B9EB;" cx="237.421" cy="277.292" r="175.502"/>
	<path id="XMLID_1038_" style="fill:#3D9AF2;" d="M237.421,101.79c-0.59,0-1.175,0.017-1.764,0.022v350.96
		c0.588,0.006,1.174,0.022,1.764,0.022c96.927,0,175.502-78.575,175.502-175.502S334.348,101.79,237.421,101.79z"/>
	<circle id="XMLID_2130_" style="fill:#FFFFFF;" cx="237.421" cy="277.292" r="147.498"/>
	<path id="XMLID_2160_" style="fill:#E0E0E2;" d="M237.421,150.263c78.02,0,141.881,60.578,147.138,137.263
		c0.232-3.382,0.359-6.793,0.359-10.234c0-81.461-66.037-147.498-147.498-147.498S89.923,195.831,89.923,277.292
		c0,3.441,0.128,6.852,0.36,10.234C95.54,210.841,159.401,150.263,237.421,150.263z"/>
	<circle id="XMLID_2262_" style="fill:#787680;" cx="236.712" cy="172.772" r="10.132"/>
	<circle id="XMLID_2264_" style="fill:#787680;" cx="236.712" cy="394.314" r="10.132"/>
	<circle id="XMLID_2265_" style="fill:#787680;" cx="347.483" cy="283.543" r="10.132"/>
	<circle id="XMLID_2263_" style="fill:#787680;" cx="125.941" cy="283.543" r="10.132"/>
	<g id="XMLID_1039_">
		<path id="XMLID_2131_" style="fill:#3D9AF2;" d="M237.421,400.101c-8.284,0-15-6.716-15-15v-82.149l-32.447,18.268
			c-7.218,4.065-16.365,1.506-20.43-5.712c-4.064-7.219-1.507-16.366,5.712-20.43l54.806-30.857
			c4.643-2.613,10.327-2.57,14.929,0.122c4.601,2.689,7.43,7.619,7.43,12.949v107.809
			C252.421,393.385,245.705,400.101,237.421,400.101z"/>
	</g>
	<g id="XMLID_1040_">
		<circle style="fill:#AA6100;" cx="237.421" cy="277.292" r="35.837"/>
	</g>
</g>
<g>
</g>
<g>
</g>
<g>
</g>
<g>
</g>
<g>
</g>
<g>
</g>
<g>
</g>
<g>
</g>
<g>
</g>
<g>
</g>
<g>
</g>
<g>
</g>
<g>
</g>
<g>
</g>
<g>
</g>
</svg>
