<?xml version="1.0" encoding="iso-8859-1"?>
<!-- Generator: Adobe Illustrator 19.0.0, SVG Export Plug-In . SVG Version: 6.00 Build 0)  -->
<svg version="1.1" id="Layer_1" xmlns="http://www.w3.org/2000/svg" xmlns:xlink="http://www.w3.org/1999/xlink" x="0px" y="0px"
	 viewBox="0 0 462 462" style="enable-background:new 0 0 462 462;" xml:space="preserve">
<g id="XMLID_1472_">
	<g id="XMLID_897_">
		<path id="XMLID_898_" style="fill:#EE8700;" d="M427.993,284.258h-100c0-53.481-43.511-96.992-96.993-96.992
			s-96.992,43.511-96.992,96.992h-100c0-108.622,88.37-196.992,196.992-196.992S427.993,175.636,427.993,284.258z"/>
	</g>
	<g id="XMLID_899_">
		<path id="XMLID_900_" style="fill:#EE8700;" d="M427.993,284.258h-100c0-53.481-43.511-96.992-96.993-96.992
			s-96.992,43.511-96.992,96.992h-100c0-108.622,88.37-196.992,196.992-196.992S427.993,175.636,427.993,284.258z"/>
	</g>
	<g id="XMLID_901_">
		<path id="XMLID_902_" style="fill:#EE8700;" d="M427.993,284.258h-100c0-53.481-43.511-96.992-96.993-96.992
			s-96.992,43.511-96.992,96.992h-100c0-108.622,88.37-196.992,196.992-196.992S427.993,175.636,427.993,284.258z"/>
	</g>
	<path id="XMLID_903_" style="fill:#CC7400;" d="M231,87.266c-0.286,0-0.57,0.01-0.856,0.011v100
		c0.286-0.002,0.57-0.011,0.856-0.011c53.482,0,96.993,43.511,96.993,96.992h100C427.993,175.636,339.622,87.266,231,87.266z"/>
	<path id="XMLID_904_" style="fill:#FFA733;" d="M447,265.085H15c-8.284,0-15,6.716-15,15v79.649c0,8.284,6.716,15,15,15h432
		c8.284,0,15-6.716,15-15v-79.649C462,271.8,455.284,265.085,447,265.085z"/>
	<path id="XMLID_905_" style="fill:#FF9811;" d="M447,265.085H230.143v109.649H447c8.284,0,15-6.716,15-15v-79.649
		C462,271.8,455.284,265.085,447,265.085z"/>
	<g id="XMLID_906_">
		<path id="XMLID_907_" style="fill:#CC7400;" d="M348.334,333.02c-8.284,0-15,6.716-15,15v26.714h30V348.02
			C363.334,339.736,356.618,333.02,348.334,333.02z"/>
		<path id="XMLID_908_" style="fill:#CC7400;" d="M289.667,333.02c-8.284,0-15,6.716-15,15v26.714h30V348.02
			C304.667,339.736,297.951,333.02,289.667,333.02z"/>
		<path id="XMLID_910_" style="fill:#CC7400;" d="M407,333.02c-8.284,0-15,6.716-15,15v26.714h30V348.02
			C422,339.736,415.284,333.02,407,333.02z"/>
		<path id="XMLID_911_" style="fill:#CC7400;" d="M55,333.02c-8.284,0-15,6.716-15,15v26.714h30V348.02
			C70,339.736,63.284,333.02,55,333.02z"/>
		<path id="XMLID_912_" style="fill:#CC7400;" d="M113.667,333.02c-8.284,0-15,6.716-15,15v26.714h30V348.02
			C128.667,339.736,121.951,333.02,113.667,333.02z"/>
		<path id="XMLID_913_" style="fill:#CC7400;" d="M172.334,333.02c-8.284,0-15,6.716-15,15v26.714h30V348.02
			C187.334,339.736,180.618,333.02,172.334,333.02z"/>
		<path id="XMLID_914_" style="fill:#CC7400;" d="M231,333.02c-8.284,0-15,6.716-15,15v26.714h30V348.02
			C246,339.736,239.284,333.02,231,333.02z"/>
	</g>
</g>
<g>
</g>
<g>
</g>
<g>
</g>
<g>
</g>
<g>
</g>
<g>
</g>
<g>
</g>
<g>
</g>
<g>
</g>
<g>
</g>
<g>
</g>
<g>
</g>
<g>
</g>
<g>
</g>
<g>
</g>
</svg>
