<?xml version="1.0" encoding="iso-8859-1"?>
<!-- Generator: Adobe Illustrator 19.0.0, SVG Export Plug-In . SVG Version: 6.00 Build 0)  -->
<svg version="1.1" id="Layer_1" xmlns="http://www.w3.org/2000/svg" xmlns:xlink="http://www.w3.org/1999/xlink" x="0px" y="0px"
	 viewBox="0 0 468.378 468.378" style="enable-background:new 0 0 468.378 468.378;" xml:space="preserve">
<g id="XMLID_15_">
	<g id="XMLID_17_">
		<path id="XMLID_2090_" style="fill:#610012;" d="M431.671,36.706c-23.639-23.64-63.464-36.659-112.138-36.659
			c-37.398,0-76.971,7.853-114.439,22.707c-41.972,16.641-79.068,40.893-110.258,72.082C45.267,144.405,12.604,210.14,2.864,279.93
			c-9.041,64.785,3.61,121.511,33.842,151.741c23.639,23.64,63.464,36.659,112.138,36.659c37.399,0,76.971-7.853,114.438-22.707
			c41.973-16.642,79.069-40.893,110.258-72.083c49.57-49.569,82.233-115.303,91.972-185.093
			C474.553,123.662,461.902,66.936,431.671,36.706z"/>
	</g>
	<path id="XMLID_2088_" style="fill:#50000F;" d="M465.513,188.447c9.04-64.783-3.61-121.506-33.839-151.738L36.71,431.674
		c23.639,23.637,63.463,36.656,112.134,36.656c37.399,0,76.971-7.853,114.438-22.707c41.973-16.642,79.069-40.894,110.258-72.083
		C423.111,323.97,455.773,258.237,465.513,188.447z"/>
	<path id="XMLID_2034_" style="fill:#CC7400;" d="M354.468,113.909c31.422,31.422,72.238,47.853,113.492,49.317
		c0.559-10.319,0.535-20.346-0.047-30.005c-33.551-1.459-66.67-14.963-92.231-40.524C350.134,67.149,336.63,34.052,335.159,0.52
		c-5.099-0.308-10.306-0.473-15.626-0.473c-4.761,0-9.558,0.13-14.38,0.383C306.619,41.679,323.049,82.49,354.468,113.909z"/>
	<path id="XMLID_2033_" style="fill:#CC7400;" d="M113.909,354.468c-31.422-31.422-72.238-47.853-113.492-49.316
		c-0.559,10.318-0.535,20.345,0.047,30.005c33.551,1.458,66.67,14.963,92.232,40.524c25.547,25.548,39.051,58.645,40.522,92.177
		c5.099,0.308,10.306,0.473,15.625,0.473c4.761,0,9.558-0.13,14.381-0.383C161.758,426.698,145.329,385.886,113.909,354.468z"/>
	<g id="XMLID_48_">
		<path id="XMLID_2032_" style="fill:#AA6100;" d="M155.381,327.996c-3.839,0-7.677-1.464-10.606-4.394
			c-5.858-5.857-5.858-15.355,0-21.213l157.616-157.615c5.858-5.857,15.355-5.859,21.213,0c5.858,5.857,5.858,15.355,0,21.213
			L165.988,323.602C163.059,326.531,159.219,327.996,155.381,327.996z"/>
	</g>
	<g id="XMLID_87_">
		<g id="XMLID_468_">
			<path id="XMLID_2030_" style="fill:#FFD422;" d="M265.422,280.422c-3.839,0-7.678-1.465-10.606-4.393l-62.468-62.468
				c-5.858-5.857-5.858-15.355,0-21.213c5.858-5.857,15.355-5.857,21.213,0l62.468,62.468c5.858,5.857,5.858,15.356,0,21.213
				C273.1,278.957,269.261,280.422,265.422,280.422z"/>
		</g>
		<g id="XMLID_469_">
			<path id="XMLID_2028_" style="fill:#FFD422;" d="M315.035,230.809c-3.839,0-7.678-1.465-10.607-4.393l-62.468-62.468
				c-5.858-5.857-5.858-15.355,0-21.213c5.857-5.857,15.355-5.857,21.213,0l62.468,62.468c5.858,5.857,5.858,15.355,0,21.213
				C322.712,229.345,318.874,230.809,315.035,230.809z"/>
		</g>
		<g id="XMLID_470_">
			<path id="XMLID_2026_" style="fill:#FFD422;" d="M215.811,330.035c-3.839,0-7.678-1.465-10.607-4.394l-62.468-62.468
				c-5.858-5.857-5.858-15.356,0-21.213c5.857-5.857,15.355-5.857,21.213,0l62.468,62.468c5.858,5.857,5.858,15.355,0,21.213
				C223.489,328.57,219.65,330.035,215.811,330.035z"/>
		</g>
	</g>
	<path id="XMLID_1716_" style="fill:#AA6100;" d="M467.913,133.22c-33.551-1.459-66.67-14.963-92.231-40.524
		c-0.001-0.001-0.002-0.002-0.004-0.004l-21.213,21.213c0.001,0.001,0.002,0.002,0.003,0.003
		c31.422,31.422,72.238,47.853,113.492,49.316C468.52,152.907,468.494,142.88,467.913,133.22z"/>
	<path id="XMLID_1712_" style="fill:#AA6100;" d="M113.909,354.468c-0.323-0.323-0.653-0.635-0.979-0.955l-21.213,21.213
		c0.326,0.319,0.656,0.632,0.979,0.955c25.547,25.548,39.051,58.645,40.522,92.177c5.099,0.308,10.306,0.473,15.625,0.473
		c4.761,0,9.558-0.131,14.381-0.383C161.758,426.698,145.329,385.886,113.909,354.468z"/>
</g>
<g>
</g>
<g>
</g>
<g>
</g>
<g>
</g>
<g>
</g>
<g>
</g>
<g>
</g>
<g>
</g>
<g>
</g>
<g>
</g>
<g>
</g>
<g>
</g>
<g>
</g>
<g>
</g>
<g>
</g>
</svg>
