<?xml version="1.0" encoding="iso-8859-1"?>
<!-- Generator: Adobe Illustrator 19.0.0, SVG Export Plug-In . SVG Version: 6.00 Build 0)  -->
<svg version="1.1" id="Layer_1" xmlns="http://www.w3.org/2000/svg" xmlns:xlink="http://www.w3.org/1999/xlink" x="0px" y="0px"
	 viewBox="0 0 458.017 458.017" style="enable-background:new 0 0 458.017 458.017;" xml:space="preserve">
<g id="XMLID_1540_">
	<path id="XMLID_333_" style="fill:#E0E0E2;" d="M425.898,68.661H32.119C14.409,68.661,0,83.07,0,100.78v256.457
		c0,17.71,14.409,32.119,32.119,32.119h393.779c17.711,0,32.119-14.409,32.119-32.119V100.78
		C458.017,83.07,443.608,68.661,425.898,68.661z"/>
	<path id="XMLID_334_" style="fill:#D8D7DA;" d="M425.898,68.661H229.294v320.695h196.604c17.711,0,32.119-14.409,32.119-32.119
		V100.78C458.017,83.07,443.608,68.661,425.898,68.661z"/>
	<g id="XMLID_341_">
		<path id="XMLID_348_" style="fill:#898890;" d="M72.654,331.034c-4.785,0-9.486-2.284-12.393-6.53
			c-4.679-6.836-2.929-16.171,3.908-20.85L174.427,228.2c6.837-4.678,16.172-2.929,20.85,3.908
			c4.679,6.836,2.929,16.171-3.908,20.85L81.111,328.412C78.521,330.184,75.572,331.034,72.654,331.034z"/>
	</g>
	<g id="XMLID_459_">
		<path id="XMLID_460_" style="fill:#898890;" d="M385.934,331.034c-2.909,0-5.848-0.844-8.433-2.606L266.727,252.94
			c-6.846-4.665-8.613-13.997-3.948-20.843c4.664-6.845,13.996-8.615,20.842-3.948l110.774,75.488
			c6.846,4.665,8.613,13.997,3.948,20.842C395.44,328.741,390.729,331.034,385.934,331.034z"/>
	</g>
	<g id="XMLID_461_">
		<path id="XMLID_811_" style="fill:#C6C5CA;" d="M229.051,281.459c-12.054,0-24.104-4.363-33.708-13.091L62.552,147.694
			c-6.131-5.572-6.584-15.058-1.013-21.189c5.572-6.131,15.059-6.584,21.189-1.013l132.791,120.674
			c7.701,6.999,19.325,7.009,27.038,0.024L375.88,125.473c6.14-5.561,15.626-5.09,21.187,1.051s5.09,15.627-1.051,21.187
			L262.693,268.428C253.099,277.116,241.073,281.459,229.051,281.459z"/>
	</g>
</g>
<g>
</g>
<g>
</g>
<g>
</g>
<g>
</g>
<g>
</g>
<g>
</g>
<g>
</g>
<g>
</g>
<g>
</g>
<g>
</g>
<g>
</g>
<g>
</g>
<g>
</g>
<g>
</g>
<g>
</g>
</svg>
