<?xml version="1.0" encoding="iso-8859-1"?>
<!-- Generator: Adobe Illustrator 19.0.0, SVG Export Plug-In . SVG Version: 6.00 Build 0)  -->
<svg version="1.1" id="Layer_1" xmlns="http://www.w3.org/2000/svg" xmlns:xlink="http://www.w3.org/1999/xlink" x="0px" y="0px"
	 viewBox="0 0 464 464" style="enable-background:new 0 0 464 464;" xml:space="preserve">
<g id="XMLID_1334_">
	<g id="XMLID_1344_">
		<g id="XMLID_1331_">
			<path id="XMLID_1332_" style="fill:#C2DFF6;" d="M24.916,15v434c0,8.284,6.716,15,15,15h342c8.284,0,15-6.716,15-15V16.278
				c0-8.99-7.288-16.278-16.278-16.278H39.916C31.632,0,24.916,6.716,24.916,15z"/>
			<path id="XMLID_1333_" style="fill:#C2DFF6;" d="M437.505,0c1.005,0.318,1.579,0.348,1.579,0H437.505z"/>
		</g>
		<path id="XMLID_1043_" style="fill:#5AAAE7;" d="M381.916,0h-83.787c7.926,7.926,95.501,95.501,98.787,98.787V15
			C396.916,6.716,390.2,0,381.916,0z"/>
		<polygon id="XMLID_1044_" style="fill:#96C8EF;" points="298.129,0 298.129,98.788 396.916,98.788 		"/>
	</g>
	<rect id="XMLID_1042_" x="99.476" y="111.466" style="fill:#96C8EF;" width="173.585" height="29.999"/>
	<rect id="XMLID_1335_" x="99.476" y="180.462" style="fill:#96C8EF;" width="243.544" height="29.999"/>
	<rect id="XMLID_1336_" x="99.476" y="249.459" style="fill:#96C8EF;" width="111.44" height="29.999"/>
	<rect id="XMLID_1337_" x="99.476" y="318.456" style="fill:#96C8EF;" width="198.653" height="29.999"/>
</g>
<g>
</g>
<g>
</g>
<g>
</g>
<g>
</g>
<g>
</g>
<g>
</g>
<g>
</g>
<g>
</g>
<g>
</g>
<g>
</g>
<g>
</g>
<g>
</g>
<g>
</g>
<g>
</g>
<g>
</g>
</svg>
