<?xml version="1.0" encoding="iso-8859-1"?>
<!-- Generator: Adobe Illustrator 19.0.0, SVG Export Plug-In . SVG Version: 6.00 Build 0)  -->
<svg version="1.1" id="Layer_1" xmlns="http://www.w3.org/2000/svg" xmlns:xlink="http://www.w3.org/1999/xlink" x="0px" y="0px"
	 viewBox="0 0 464 464" style="enable-background:new 0 0 464 464;" xml:space="preserve">
<g id="XMLID_1054_">
	<path id="XMLID_989_" style="fill:#CC7400;" d="M439.752,349.435V116.874c0-14.967-12.133-27.1-27.1-27.1H51.347
		c-14.967,0-27.1,12.133-27.1,27.1v232.561H439.752z"/>
	<path id="XMLID_1030_" style="fill:#AA6100;" d="M412.652,89.774H232.486v259.661h207.266V116.874
		C439.752,101.908,427.619,89.774,412.652,89.774z"/>
	<path id="XMLID_946_" style="fill:#3E3D42;" d="M405.762,109.11H58.237c-8.284,0-15,6.716-15,15v235.116c0,8.284,6.716,15,15,15
		h347.524c8.284,0,15-6.716,15-15V124.11C420.762,115.826,414.046,109.11,405.762,109.11z"/>
	<path id="XMLID_947_" style="fill:#2D2D30;" d="M405.762,109.11H231.999v265.116h173.762c8.284,0,15-6.716,15-15V124.11
		C420.762,115.826,414.046,109.11,405.762,109.11z"/>
	<g id="XMLID_985_">
		<path id="XMLID_992_" style="fill:#E0E0E2;" d="M192.102,261.86v23.308h-69.924V261.86h22.984v-41.274
			c-0.971,1.295-2.483,2.618-4.532,3.965c-2.051,1.351-4.345,2.59-6.879,3.723c-2.536,1.133-5.126,2.051-7.77,2.751
			c-2.646,0.703-4.992,1.052-7.041,1.052v-23.956c1.726,0,3.966-0.592,6.718-1.78c2.751-1.186,5.476-2.615,8.174-4.289
			c2.696-1.672,5.124-3.371,7.283-5.099c2.158-1.725,3.506-3.129,4.047-4.208h26.384v69.115H192.102z"/>
	</g>
	<g id="XMLID_984_">
		<path id="XMLID_990_" style="fill:#C6C5CA;" d="M272.455,285.168c0-5.071,0.377-9.603,1.133-13.596
			c0.754-3.991,2.049-7.633,3.885-10.926c1.834-3.29,4.315-6.338,7.446-9.145c3.128-2.805,7.065-5.557,11.815-8.255
			c5.07-2.805,9.307-5.124,12.706-6.96c3.399-1.834,6.095-3.453,8.093-4.856c1.996-1.401,3.425-2.671,4.29-3.804
			c0.862-1.133,1.295-2.453,1.295-3.966c0-3.02-1.08-5.448-3.237-7.284c-2.16-1.833-5.235-2.751-9.227-2.751
			c-4.532,0-8.473,1.107-11.815,3.318c-3.347,2.213-6.584,5.099-9.712,8.66l-16.51-19.1c1.725-1.942,4.046-3.829,6.96-5.665
			c2.913-1.833,6.204-3.48,9.873-4.937c3.668-1.456,7.688-2.615,12.059-3.48c4.371-0.862,8.928-1.295,13.678-1.295
			c11.654,0,20.582,2.537,26.788,7.608c6.204,5.073,9.307,11.924,9.307,20.556c0,3.561-0.566,6.745-1.699,9.55
			c-1.133,2.807-2.617,5.316-4.451,7.526c-1.836,2.213-3.885,4.155-6.15,5.827c-2.267,1.674-4.588,3.212-6.96,4.613
			c-1.619,0.971-3.561,2.105-5.827,3.399c-2.267,1.295-4.507,2.618-6.718,3.965c-2.213,1.351-4.264,2.699-6.15,4.047
			c-1.89,1.351-3.318,2.564-4.289,3.642h44.025v23.308h-80.608V285.168z"/>
	</g>
	<g id="XMLID_948_">
		<path id="XMLID_949_" style="fill:#2D2D30;" d="M449,374.01H15c-8.284,0-15-6.716-15-15s6.716-15,15-15h434
			c8.284,0,15,6.716,15,15S457.284,374.01,449,374.01z"/>
	</g>
	<path id="XMLID_950_" style="fill:#1D1D1F;" d="M449,344.01H232.486v30H449c8.284,0,15-6.716,15-15S457.284,344.01,449,344.01z"/>
	<g id="XMLID_983_">
		<path id="XMLID_987_" style="fill:#D8D7DA;" d="M251.122,224.098v14.512h-10.77v11.791h-16.326V238.61h-10.657v-14.512h10.657
			v-11.791h16.326v11.791H251.122z"/>
	</g>
	<rect id="XMLID_951_" x="62.252" y="306.326" style="fill:#FFE477;" width="101.291" height="37.684"/>
</g>
<g>
</g>
<g>
</g>
<g>
</g>
<g>
</g>
<g>
</g>
<g>
</g>
<g>
</g>
<g>
</g>
<g>
</g>
<g>
</g>
<g>
</g>
<g>
</g>
<g>
</g>
<g>
</g>
<g>
</g>
</svg>
