<?xml version="1.0" encoding="iso-8859-1"?>
<!-- Generator: Adobe Illustrator 19.0.0, SVG Export Plug-In . SVG Version: 6.00 Build 0)  -->
<svg version="1.1" id="Layer_1" xmlns="http://www.w3.org/2000/svg" xmlns:xlink="http://www.w3.org/1999/xlink" x="0px" y="0px"
	 viewBox="0 0 330 330" style="enable-background:new 0 0 330 330;" xml:space="preserve">
<g>
	<path style="fill:#EDC07B;" d="M330,104.998v-60c0-8.284-6.716-15-15-15H15c-8.284,0-15,6.716-15,15v60c0,8.284,6.716,15,15,15
		h86.919l-13.334,30H15c-8.284,0-15,6.716-15,15v60c0,8.284,6.716,15,15,15h33.585l-17.292,38.908
		c-3.364,7.57,0.045,16.434,7.615,19.799c1.98,0.881,4.048,1.297,6.083,1.297c5.747,0,11.231-3.322,13.716-8.912l22.708-51.092
		h167.17l22.708,51.092c2.484,5.591,7.969,8.912,13.716,8.912c2.035,0,4.104-0.417,6.083-1.297
		c7.57-3.364,10.979-12.229,7.615-19.799l-17.292-38.908H315c8.284,0,15-6.716,15-15v-60c0-8.284-6.716-15-15-15h-73.585l-13.334-30
		H315C323.284,119.998,330,113.282,330,104.998z M235.252,209.998H94.748l17.377-39.1l0.041-0.092l22.582-50.809h60.504
		l22.582,50.809l0.041,0.092L235.252,209.998z"/>
	<path style="fill:#D9380E;" d="M315,149.998h-73.585l6.666,15l6.667,15l13.333,30H300h15c8.284,0,15,6.716,15,15v-60
		C330,156.714,323.284,149.998,315,149.998z"/>
	<path style="fill:#D9380E;" d="M0,164.998v60c0-8.284,6.716-15,15-15h15h31.919l13.333-30l6.667-15l6.666-15H15
		C6.716,149.998,0,156.714,0,164.998z"/>
	<path style="fill:#D9380E;" d="M315,29.998H15c-8.284,0-15,6.716-15,15v60c0,8.284,6.716,15,15,15h86.919h16.414h16.415h60.504
		h16.415h16.414H315c8.284,0,15-6.716,15-15v-60C330,36.714,323.284,29.998,315,29.998z"/>
</g>
<g>
</g>
<g>
</g>
<g>
</g>
<g>
</g>
<g>
</g>
<g>
</g>
<g>
</g>
<g>
</g>
<g>
</g>
<g>
</g>
<g>
</g>
<g>
</g>
<g>
</g>
<g>
</g>
<g>
</g>
</svg>
