<?xml version="1.0" encoding="iso-8859-1"?>
<!-- Generator: Adobe Illustrator 19.0.0, SVG Export Plug-In . SVG Version: 6.00 Build 0)  -->
<svg version="1.1" id="Layer_1" xmlns="http://www.w3.org/2000/svg" xmlns:xlink="http://www.w3.org/1999/xlink" x="0px" y="0px"
	 viewBox="0 0 330 330" style="enable-background:new 0 0 330 330;" xml:space="preserve">
<g>
	<path style="fill:#EDC07B;" d="M180,230h-25h-5h-15h-15v55c0,24.813,20.186,45,45,45c24.813,0,45-20.188,45-45v-55h-15H180z"/>
	<path style="fill:#D0F852;" d="M165,0c-46.869,0-85,38.131-85,85v140c0,8.284,6.716,15,15,15h25h15h15h5h25h15h15h25
		c8.284,0,15-6.716,15-15V85C250,38.131,211.869,0,165,0z"/>
	<path style="fill:#DFF983;" d="M155,90c-8.284,0-15,6.716-15,15v105v15c0,8.284,6.716,15,15,15s15-6.716,15-15v-15V105
		C170,96.716,163.284,90,155,90z"/>
</g>
<g>
</g>
<g>
</g>
<g>
</g>
<g>
</g>
<g>
</g>
<g>
</g>
<g>
</g>
<g>
</g>
<g>
</g>
<g>
</g>
<g>
</g>
<g>
</g>
<g>
</g>
<g>
</g>
<g>
</g>
</svg>
