<?xml version="1.0" encoding="iso-8859-1"?>
<!-- Generator: Adobe Illustrator 19.0.0, SVG Export Plug-In . SVG Version: 6.00 Build 0)  -->
<svg version="1.1" id="Layer_1" xmlns="http://www.w3.org/2000/svg" xmlns:xlink="http://www.w3.org/1999/xlink" x="0px" y="0px"
	 viewBox="0 0 354.745 354.745" style="enable-background:new 0 0 354.745 354.745;" xml:space="preserve">
<g>
	<g>
		<path style="fill:#EDC07B;" d="M339.722,78.639l-10.605-10.605L318.51,57.425l-10.611-10.611l-10.602-10.601L286.69,25.609
			l-10.608-10.608l-96.869,96.869c-3.512-0.499-7.061-0.748-10.617-0.749c-20.027-0.001-38.854,7.794-53.01,21.951
			c-3.584,3.584-6.775,7.492-9.545,11.685c-28.404-0.295-55.23,10.662-75.309,30.739c-40.938,40.941-40.939,107.551-0.004,148.488
			c0.002,0.002,0.004,0.004,0.004,0.006c19.83,19.829,46.195,30.751,74.246,30.754c0.002,0.001,0.004,0.001,0.008,0
			c28.043,0.002,54.406-10.922,74.238-30.754c20.139-20.139,31.063-47.147,30.748-75.311c4.191-2.771,8.096-5.96,11.678-9.541
			c16.736-16.736,24.475-40.462,21.199-63.626L339.722,78.639z"/>
		<path style="fill:#EAB25C;" d="M73.16,239.137c-5.859-5.857-5.857-15.354,0-21.213c5.857-5.856,15.357-5.857,21.213,0.001
			l21.207,21.206l14.139-14.138c-6.607-6.607-10.246-15.396-10.246-24.743s3.641-18.136,10.252-24.747
			c6.609-6.612,15.398-10.253,24.748-10.253c9.346,0.002,18.131,3.638,24.742,10.246L307.898,46.814l-10.602-10.601l-10.607-10.604
			l-10.607-10.608l-96.869,96.869c-3.512-0.499-7.061-0.748-10.617-0.749c-20.027-0.001-38.854,7.794-53.01,21.951
			c-3.584,3.584-6.775,7.492-9.545,11.685c-28.404-0.295-55.23,10.662-75.309,30.739c-40.938,40.941-40.939,107.551-0.004,148.488
			l63.639-63.639L73.16,239.137z"/>
	</g>
	<g>
		<path style="fill:#E29229;" d="M336.197,60.974l-42.451-42.452L279.619,4.395c-5.857-5.859-15.355-5.86-21.213-0.001
			c-5.857,5.859-5.857,15.355,0,21.214l3.535,3.536l10.605,10.603l10.607,10.61l21.213,21.213l10.607,10.606l10.605,10.607
			l3.535,3.533c2.93,2.929,6.768,4.395,10.607,4.394c3.838,0.001,7.678-1.466,10.605-4.391c5.857-5.86,5.857-15.356,0-21.216
			L336.197,60.974z"/>
		<path style="fill:#E29229;" d="M304.367,113.995l-10.605-10.604l-10.607-10.609l-21.213-21.211l-10.607-10.609L240.73,50.357
			l-3.537-3.537c-5.857-5.856-15.355-5.857-21.213,0c-5.859,5.858-5.859,15.354,0,21.213l3.535,3.536l10.607,10.608l10.607,10.604
			l21.213,21.212l10.607,10.609l10.605,10.604l3.535,3.536c2.93,2.929,6.768,4.395,10.607,4.393
			c3.838,0.001,7.676-1.464,10.605-4.393c5.859-5.859,5.858-15.357,0-21.215L304.367,113.995z"/>
		<path style="fill:#EDC07B;" d="M336.187,60.963l-42.426-42.427c-0.004-0.004-0.01-0.009-0.016-0.015l42.451,42.452
			C336.193,60.972,336.191,60.966,336.187,60.963z"/>
	</g>
	<path style="fill:#313133;" d="M179.222,175.505c-6.611-6.613-15.4-10.254-24.75-10.255c-9.35,0-18.139,3.641-24.748,10.253
		c-6.611,6.611-10.252,15.4-10.252,24.747c0,9.351,3.641,18.14,10.25,24.748c6.611,6.612,15.4,10.252,24.75,10.253
		c9.348,0,18.135-3.639,24.75-10.253C192.867,211.35,192.865,189.147,179.222,175.505z"/>
	<path style="fill:#E29229;" d="M94.373,217.925c-5.855-5.858-15.355-5.857-21.213-0.001c-5.857,5.858-5.859,15.355,0,21.213
		l42.426,42.426c2.928,2.931,6.766,4.396,10.605,4.396c3.839,0,7.678-1.466,10.607-4.396c5.857-5.857,5.857-15.353,0-21.213
		L94.373,217.925z"/>
</g>
<g>
</g>
<g>
</g>
<g>
</g>
<g>
</g>
<g>
</g>
<g>
</g>
<g>
</g>
<g>
</g>
<g>
</g>
<g>
</g>
<g>
</g>
<g>
</g>
<g>
</g>
<g>
</g>
<g>
</g>
</svg>
