<?xml version="1.0" encoding="iso-8859-1"?>
<!-- Generator: Adobe Illustrator 19.0.0, SVG Export Plug-In . SVG Version: 6.00 Build 0)  -->
<svg version="1.1" id="Layer_1" xmlns="http://www.w3.org/2000/svg" xmlns:xlink="http://www.w3.org/1999/xlink" x="0px" y="0px"
	 viewBox="0 0 340 340" style="enable-background:new 0 0 340 340;" xml:space="preserve">
<g>
	<path style="fill:#D4D3D6;" d="M305,0H35c-8.284,0-15,6.716-15,15v105.002v15v0.003v59.993c0,8.284,6.716,15,15,15h5.403
		l8.936,116.152C49.94,333.965,56.457,340,64.295,340h210c7.838,0,14.355-6.035,14.956-13.85l8.935-116.152H305
		c8.284,0,15-6.716,15-15v-59.993v-0.003v-15V15C320,6.716,313.284,0,305,0z M260,120.002V75.003c0-8.284-6.716-15-15-15H95
		c-8.284,0-15,6.716-15,15v44.999H50V30h240v90.002H260z"/>
	<g>
		<path style="fill:#1D3366;" d="M283.142,209.998h-15.045H70.493H55.448H40.403l8.936,116.152C49.94,333.965,56.457,340,64.295,340
			h210c7.838,0,14.355-6.035,14.956-13.85l8.935-116.152L283.142,209.998L283.142,209.998z"/>
		<g>
			<path style="fill:#D4D3D6;" d="M290,120.002h-30V75.003c0-8.284-6.716-15-15-15H95c-8.284,0-15,6.716-15,15v44.999H50H20v15
				v0.003v59.993c0,8.284,6.716,15,15,15h5.403h15.045h15.045h197.604h15.045h15.045H305c8.284,0,15-6.716,15-15v-59.993v-0.003v-15
				H290z"/>
		</g>
		<path style="fill:#A7A6AC;" d="M50,30h240v90.002h30V15c0-8.284-6.716-15-15-15H35c-8.284,0-15,6.716-15,15v105.002h30V30z"/>
	</g>
</g>
<g>
</g>
<g>
</g>
<g>
</g>
<g>
</g>
<g>
</g>
<g>
</g>
<g>
</g>
<g>
</g>
<g>
</g>
<g>
</g>
<g>
</g>
<g>
</g>
<g>
</g>
<g>
</g>
<g>
</g>
</svg>
