<?xml version="1.0" encoding="iso-8859-1"?>
<!-- Generator: Adobe Illustrator 19.0.0, SVG Export Plug-In . SVG Version: 6.00 Build 0)  -->
<svg version="1.1" id="Layer_1" xmlns="http://www.w3.org/2000/svg" xmlns:xlink="http://www.w3.org/1999/xlink" x="0px" y="0px"
	 viewBox="0 0 313.854 313.854" style="enable-background:new 0 0 313.854 313.854;" xml:space="preserve">
<g>
	<path style="fill:#EAB355;" d="M294.809,75.599l-1.838-1.838c2.807-14.232-1.289-29.566-12.293-40.571
		c-8.506-8.505-19.816-13.188-31.848-13.188c-2.979,0-5.91,0.289-8.768,0.85l-1.809-1.809C225.975,6.763,209.649,0,192.286,0
		S158.6,6.762,146.325,19.038L19.038,146.322c-25.344,25.347-25.34,66.586,0.002,91.927l1.832,1.831
		c-2.801,14.238,1.305,29.583,12.318,40.597c8.494,8.494,19.789,13.174,31.807,13.174c0.002,0,0.002,0,0.002,0
		c2.984,0,5.924-0.29,8.787-0.853l1.816,1.815c12.277,12.278,28.602,19.04,45.967,19.041c0.002,0,0,0,0.002,0
		c17.361,0,33.686-6.762,45.961-19.038l127.283-127.284C320.159,142.188,320.157,100.948,294.809,75.599z"/>
	<path style="fill:#E29229;" d="M292.972,73.761c-1.057,5.363-3.103,10.565-6.121,15.325c-1.738,2.739-3.789,5.335-6.176,7.723
		L96.809,280.673c-2.367,2.367-4.959,4.427-7.715,6.183c-4.682,2.982-9.854,5.066-15.309,6.142l1.816,1.815
		c12.277,12.278,28.602,19.04,45.967,19.041c0.002,0,0,0,0.002,0c17.361,0,33.686-6.762,45.961-19.038l127.283-127.284
		c25.344-25.344,25.342-66.583-0.006-91.933L292.972,73.761z"/>
	<path style="fill:#DA8CBA;" d="M280.679,33.189c-8.506-8.505-19.816-13.188-31.848-13.188c-2.979,0-5.91,0.289-8.768,0.85
		c-5.459,1.071-10.635,3.153-15.318,6.133c-2.758,1.755-5.35,3.813-7.715,6.18l-3.791,3.791L36.958,213.232l-3.795,3.795
		c-2.385,2.387-4.435,4.982-6.172,7.722c-3.018,4.761-5.063,9.965-6.119,15.331c-2.801,14.238,1.305,29.583,12.318,40.597
		c8.494,8.494,19.789,13.174,31.807,13.174c0.002,0,0.002,0,0.002,0c2.984,0,5.924-0.29,8.787-0.853
		c5.455-1.075,10.627-3.159,15.309-6.142c2.756-1.756,5.348-3.815,7.715-6.183L280.675,96.809c2.387-2.388,4.438-4.983,6.176-7.723
		c3.018-4.76,5.065-9.962,6.121-15.325C295.778,59.528,291.683,44.194,280.679,33.189z"/>
	<g>
		<path style="fill:#D271A8;" d="M132.118,224.151c-0.801-0.946-1.717-1.819-2.775-2.57l-9.283-6.583h-0.002l-24.811-17.593
			l-0.02-0.015l-12.393-8.786l-0.02-0.015l-2.082-1.477c-5.854-4.149-13.652-3.504-18.752,1.131l-0.889,0.89
			c-0.449,0.482-0.881,0.987-1.273,1.539c-4.295,6.058-3.445,14.197,1.641,19.273c0.006,0.006,0.012,0.012,0.018,0.018
			c0.584,0.58,1.209,1.131,1.902,1.622l10.328,7.324l0.021,0.015l24.811,17.593l0,0l12.412,8.801v0.001l1.037,0.734
			c2.635,1.868,5.662,2.766,8.664,2.766c4.697,0,9.324-2.201,12.248-6.325c4.043-5.699,3.525-13.241-0.783-18.341
			C132.118,224.152,132.118,224.152,132.118,224.151z"/>
		<path style="fill:#D271A8;" d="M215.147,137.637l-10.34-7.387l-24.736-17.67l-0.02-0.014l-12.354-8.825l-0.02-0.014l-2.035-1.453
			c-5.848-4.177-13.666-3.549-18.781,1.09l-0.93,0.929c-0.428,0.462-0.838,0.943-1.213,1.469c-4.326,6.057-3.49,14.224,1.609,19.314
			c0.006,0.005,0.012,0.011,0.018,0.016c0.572,0.569,1.182,1.11,1.859,1.594l10.34,7.387l0.02,0.014l24.736,17.669v0.001
			l12.373,8.839l2.035,1.453c2.643,1.888,5.689,2.796,8.707,2.796c4.68,0,9.291-2.184,12.219-6.282
			c4.326-6.057,3.49-14.225-1.611-19.316C216.448,138.671,215.831,138.125,215.147,137.637z"/>
		<path style="fill:#D271A8;" d="M259.45,96.819c-0.576-0.575-1.191-1.122-1.877-1.61l-10.34-7.386l-24.736-17.669l-0.018-0.014
			l-12.355-8.825l-0.02-0.014l-2.035-1.453c-5.848-4.178-13.67-3.549-18.787,1.094l-0.902,0.903
			c-0.436,0.468-0.854,0.957-1.234,1.49c-4.326,6.057-3.49,14.224,1.609,19.314c0.006,0.005,0.012,0.011,0.018,0.016
			c0.572,0.569,1.182,1.11,1.859,1.595l10.34,7.386l0.02,0.014l24.736,17.669l0,0l12.375,8.839l2.033,1.453
			c2.643,1.888,5.689,2.795,8.707,2.795c4.68,0,9.291-2.185,12.219-6.282C265.388,110.077,264.552,101.91,259.45,96.819z"/>
		<path style="fill:#D271A8;" d="M172.72,180.063l-10.34-7.386v-0.001l-24.734-17.669l-0.02-0.014l-12.355-8.825l-0.02-0.014
			l-2.035-1.453c-5.844-4.176-13.66-3.55-18.775,1.085l-0.971,0.971c-0.414,0.45-0.813,0.921-1.178,1.432
			c-4.326,6.057-3.49,14.224,1.609,19.314c0.006,0.006,0.012,0.012,0.018,0.017c0.572,0.569,1.182,1.109,1.859,1.594l10.34,7.386
			l0.021,0.015l24.734,17.668v0.001l12.375,8.839l2.033,1.453c2.643,1.888,5.689,2.795,8.707,2.795c4.68,0,9.291-2.184,12.219-6.282
			c4.326-6.057,3.49-14.224-1.611-19.314C174.02,181.098,173.405,180.551,172.72,180.063z"/>
	</g>
</g>
<g>
</g>
<g>
</g>
<g>
</g>
<g>
</g>
<g>
</g>
<g>
</g>
<g>
</g>
<g>
</g>
<g>
</g>
<g>
</g>
<g>
</g>
<g>
</g>
<g>
</g>
<g>
</g>
<g>
</g>
</svg>
