<?xml version="1.0" encoding="iso-8859-1"?>
<!-- Generator: Adobe Illustrator 19.0.0, SVG Export Plug-In . SVG Version: 6.00 Build 0)  -->
<svg version="1.1" id="Layer_1" xmlns="http://www.w3.org/2000/svg" xmlns:xlink="http://www.w3.org/1999/xlink" x="0px" y="0px"
	 viewBox="0 0 330 330" style="enable-background:new 0 0 330 330;" xml:space="preserve">
<g>
	<path style="fill:#D4D3D6;" d="M315.606,4.393C312.793,1.58,308.978,0,304.999,0L164.998,0.008L24.999,0.017
		C16.715,0.018,10,6.732,10,15.017V245v70c0,8.284,6.716,15,15,15h139.998H305c8.284,0,15-6.716,15-15v-70V15
		C320,11.021,318.42,7.206,315.606,4.393z"/>
	<g>
		<g>
			<path style="fill:#B6002B;" d="M77.324,58.621c-9.766,9.766-9.764,25.592,0,35.355c0.849,0.848,1.744,1.617,2.676,2.318
				c4.431,3.333,9.714,5.004,15.001,5.004c5.285,0,10.568-1.671,14.999-5.004c0.933-0.701,1.829-1.471,2.678-2.319
				c9.764-9.763,9.764-25.592,0.002-35.354C102.916,48.857,87.086,48.857,77.324,58.621z"/>
			<path style="fill:#B6002B;" d="M147.324,58.621c-9.766,9.766-9.764,25.592,0,35.355c0.849,0.848,1.744,1.617,2.676,2.318
				c4.431,3.333,9.714,5.004,15.001,5.004c5.285,0,10.568-1.671,14.999-5.004c0.933-0.701,1.829-1.471,2.678-2.319
				c9.764-9.763,9.764-25.592,0.002-35.354C172.916,48.857,157.086,48.857,147.324,58.621z"/>
			<path style="fill:#B6002B;" d="M217.324,58.621c-9.766,9.766-9.764,25.592,0,35.355c0.849,0.848,1.744,1.617,2.676,2.318
				c4.431,3.333,9.714,5.004,15.001,5.004c5.285,0,10.568-1.671,14.999-5.004c0.933-0.701,1.829-1.471,2.678-2.319
				c9.764-9.763,9.764-25.592,0.002-35.354C242.916,48.857,227.086,48.857,217.324,58.621z"/>
		</g>
		<g>
			<path style="fill:#EDC07B;" d="M95.001,101.299c-5.287,0-10.57-1.671-15.001-5.004L80.002,230h15h15L110,96.295
				C105.569,99.628,100.286,101.299,95.001,101.299z"/>
			<path style="fill:#EDC07B;" d="M165.001,101.299c-5.287,0-10.57-1.671-15.001-5.004L150.002,230h15h15L180,96.295
				C175.569,99.628,170.286,101.299,165.001,101.299z"/>
			<path style="fill:#EDC07B;" d="M235.001,101.299c-5.287,0-10.57-1.671-15.001-5.004L220.002,230h15h15L250,96.295
				C245.569,99.628,240.286,101.299,235.001,101.299z"/>
		</g>
		<g>
			<path style="fill:#A7A6AC;" d="M25,230h15h40.002L80,96.295c-0.932-0.701-1.827-1.471-2.676-2.318
				c-9.764-9.764-9.766-25.59,0-35.355c9.762-9.764,25.592-9.764,35.355,0c9.762,9.763,9.762,25.592-0.002,35.354
				c-0.849,0.849-1.745,1.618-2.678,2.319L110.002,230h40L150,96.295c-0.932-0.701-1.827-1.471-2.676-2.318
				c-9.764-9.764-9.766-25.59,0-35.355c4.88-4.881,11.276-7.322,17.674-7.322V0.008L24.999,0.017C16.715,0.018,10,6.732,10,15.017
				V245C10,236.716,16.716,230,25,230z"/>
			<path style="fill:#D4D3D6;" d="M315.606,4.393C312.793,1.58,308.978,0,304.999,0L164.998,0.008v51.291
				c6.4-0.001,12.799,2.439,17.682,7.322c9.762,9.763,9.762,25.592-0.002,35.354c-0.849,0.849-1.745,1.618-2.678,2.319L180.002,230
				h40L220,96.295c-0.932-0.701-1.827-1.471-2.676-2.318c-9.764-9.764-9.766-25.59,0-35.355c9.762-9.764,25.592-9.764,35.355,0
				c9.762,9.763,9.762,25.592-0.002,35.354c-0.849,0.849-1.745,1.618-2.678,2.319L250.002,230H290h15c8.284,0,15,6.716,15,15V15
				C320,11.021,318.42,7.206,315.606,4.393z"/>
			<path style="fill:#403F44;" d="M305,230h-15h-39.998h-15h-15h-40h-15h-0.004v100H305c8.284,0,15-6.716,15-15v-70
				C320,236.716,313.284,230,305,230z"/>
			<path style="fill:#313133;" d="M150.002,230h-40h-15h-15H40H25c-8.284,0-15,6.716-15,15v70c0,8.284,6.716,15,15,15h139.998V230
				H150.002z"/>
		</g>
	</g>
</g>
<g>
</g>
<g>
</g>
<g>
</g>
<g>
</g>
<g>
</g>
<g>
</g>
<g>
</g>
<g>
</g>
<g>
</g>
<g>
</g>
<g>
</g>
<g>
</g>
<g>
</g>
<g>
</g>
<g>
</g>
</svg>
