<?xml version="1.0" encoding="iso-8859-1"?>
<!-- Generator: Adobe Illustrator 19.0.0, SVG Export Plug-In . SVG Version: 6.00 Build 0)  -->
<svg version="1.1" id="Layer_1" xmlns="http://www.w3.org/2000/svg" xmlns:xlink="http://www.w3.org/1999/xlink" x="0px" y="0px"
	 viewBox="0 0 370 370" style="enable-background:new 0 0 370 370;" xml:space="preserve">
<g>
	<g>
		<path style="fill:#D4D3D6;" d="M155,125h-9.286H145h-14.303H39.303H25h-0.714H15c-2.011,0-3.926-0.402-5.679-1.12L0.017,319.287
			c-0.194,4.097,1.297,8.096,4.128,11.065C6.975,333.321,10.898,335,15,335h140c4.103,0,8.025-1.68,10.855-4.648
			c2.831-2.969,4.322-6.968,4.128-11.065l-9.305-195.407C158.926,124.598,157.011,125,155,125z"/>
		<path style="fill:#222224;" d="M360.679,123.88c-1.753,0.718-3.668,1.12-5.679,1.12h-9.286H345h-14.303h-91.395H225h-0.714H215
			c-2.011,0-3.926-0.402-5.679-1.12l-9.305,195.407c-0.194,4.097,1.297,8.096,4.128,11.065c2.83,2.969,6.753,4.648,10.855,4.648h140
			c4.102,0,8.025-1.68,10.855-4.648c2.831-2.969,4.322-6.968,4.128-11.065L360.679,123.88z"/>
		<path style="fill:#A7A6AC;" d="M25,125h14.303h91.395H145h0.714H155c2.011,0,3.926-0.402,5.679-1.12
			c5.467-2.239,9.321-7.606,9.321-13.88c0-7.052-4.872-12.95-11.43-14.555C151.775,61.034,121.376,35,85,35
			S18.226,61.034,11.43,95.446C4.872,97.05,0,102.948,0,110c0,6.273,3.855,11.641,9.321,13.88C11.074,124.598,12.99,125,15,125
			h9.286H25z"/>
		<path style="fill:#A7A6AC;" d="M358.571,95.446C351.775,61.034,321.376,35,285,35s-66.774,26.034-73.57,60.445
			C204.872,97.05,200,102.948,200,110c0,6.273,3.855,11.641,9.321,13.88c1.753,0.718,3.668,1.12,5.679,1.12h9.286H225h14.303h91.395
			H345h0.714H355c2.011,0,3.926-0.402,5.679-1.12c5.467-2.239,9.321-7.606,9.321-13.88C370,102.948,365.128,97.05,358.571,95.446z"
			/>
	</g>
	<path style="fill:#D4D3D6;" d="M302.672,232.672c-2.79-2.789-6.649-4.39-10.6-4.39s-7.811,1.601-10.61,4.39
		c-2.79,2.791-4.39,6.66-4.39,10.61s1.6,7.82,4.39,10.61c2.8,2.79,6.66,4.39,10.61,4.39s7.81-1.6,10.6-4.39
		c2.8-2.801,4.4-6.66,4.4-10.61C307.073,239.332,305.472,235.473,302.672,232.672z"/>
	<path style="fill:#D4D3D6;" d="M288.532,197.323c2.79-2.79,4.399-6.66,4.399-10.609c0-3.951-1.609-7.811-4.399-10.61
		c-2.79-2.79-6.65-4.39-10.601-4.39c-3.949,0-7.819,1.6-10.609,4.39s-4.391,6.659-4.391,10.61c0,3.949,1.601,7.819,4.391,10.609
		c2.79,2.79,6.66,4.391,10.609,4.391C281.872,201.713,285.742,200.113,288.532,197.323z"/>
	<path style="fill:#222224;" d="M100.002,175.002c-3.96,0-7.82,1.601-10.609,4.391c-2.79,2.79-4.391,6.66-4.391,10.609
		c0,3.94,1.601,7.811,4.391,10.601c2.789,2.8,6.659,4.399,10.609,4.399c3.95,0,7.811-1.6,10.601-4.399
		c2.8-2.79,4.399-6.66,4.399-10.601c0-3.949-1.6-7.819-4.399-10.609C107.823,176.603,103.952,175.002,100.002,175.002z"/>
	<path style="fill:#222224;" d="M70.002,225.002c-3.95,0-7.82,1.601-10.609,4.391c-2.79,2.79-4.391,6.66-4.391,10.609
		c0,3.94,1.6,7.811,4.391,10.601c2.789,2.8,6.659,4.399,10.609,4.399c3.95,0,7.811-1.6,10.601-4.399
		c2.8-2.79,4.399-6.649,4.399-10.601c0-3.949-1.6-7.819-4.399-10.609C77.813,226.603,73.952,225.002,70.002,225.002z"/>
</g>
<g>
</g>
<g>
</g>
<g>
</g>
<g>
</g>
<g>
</g>
<g>
</g>
<g>
</g>
<g>
</g>
<g>
</g>
<g>
</g>
<g>
</g>
<g>
</g>
<g>
</g>
<g>
</g>
<g>
</g>
</svg>
