<?xml version="1.0" encoding="iso-8859-1"?>
<!-- Generator: Adobe Illustrator 19.0.0, SVG Export Plug-In . SVG Version: 6.00 Build 0)  -->
<svg version="1.1" id="Layer_1" xmlns="http://www.w3.org/2000/svg" xmlns:xlink="http://www.w3.org/1999/xlink" x="0px" y="0px"
	 viewBox="0 0 330 330" style="enable-background:new 0 0 330 330;" xml:space="preserve">
<g>
	<g>
		<path style="fill:#97D04E;" d="M144.746,294.707h-22.738c10.575,12.873,26.522,20.586,43.432,20.586
			c16.912,0,32.862-7.713,43.438-20.586h-22.739H144.746z"/>
		<path style="fill:#97D04E;" d="M29.432,204.227c0,16.902,7.706,32.844,20.568,43.42V224.89v-41.328v-22.758
			C37.137,171.379,29.432,187.322,29.432,204.227z"/>
		<path style="fill:#97D04E;" d="M280,160.795l-0.001,22.746v41.37v22.746c12.869-10.575,20.579-26.522,20.579-43.434
			C300.578,187.316,292.869,171.371,280,160.795z"/>
	</g>
	<path style="fill:#F4E07D;" d="M330,79.707c0-35.841-29.159-65-65-65H65c-35.841,0-65,29.159-65,64.999
		c-0.001,17.362,6.76,33.687,19.037,45.964c8.659,8.659,19.333,14.574,30.963,17.309v17.825
		c-12.863,10.575-20.568,26.519-20.568,43.424c0,16.902,7.706,32.844,20.568,43.42v32.059c0,8.284,6.716,15,15,15h57.008
		c10.575,12.873,26.522,20.586,43.432,20.586c16.912,0,32.862-7.713,43.438-20.586h56.121c8.284,0,15-6.716,15-15l0.001-32.05
		c12.869-10.575,20.579-26.522,20.579-43.434c0-16.907-7.709-32.853-20.578-43.429V142.96
		C308.633,136.172,329.998,110.389,330,79.707z"/>
	<path style="fill:#AD2E08;" d="M265,14.707H65c-35.841,0-65,29.159-65,64.999c-0.001,17.362,6.76,33.687,19.037,45.964
		c8.659,8.659,19.333,14.574,30.963,17.309v17.825v22.758v41.328v22.758v32.059c0,8.284,6.716,15,15,15h57.008h22.738h41.392h22.739
		h56.121c8.284,0,15-6.716,15-15l0.001-32.05v-22.746v-41.37L280,160.795V142.96c28.633-6.788,49.998-32.571,50-63.253
		C330,43.866,300.841,14.707,265,14.707z M264.998,114.707c-8.284,0-15,6.716-15,15v38.756v71.525v24.719h-48.91h-71.291H80v-24.366
		v-72.23v-38.403c0-3.979-1.58-7.794-4.394-10.607c-2.813-2.813-6.629-4.393-10.607-4.393c-9.349,0-18.139-3.641-24.749-10.25
		c-6.61-6.611-10.251-15.4-10.25-24.75c0-19.299,15.701-35,35-35h200c19.299,0,35,15.701,35,34.999
		C299.999,99.006,284.297,114.707,264.998,114.707z"/>
	<path style="fill:#AD2E08;" d="M205.002,154.703c-3.95,0-7.819,1.6-10.609,4.399c-2.79,2.79-4.391,6.659-4.391,10.601
		c0,3.949,1.6,7.819,4.391,10.609c2.8,2.79,6.659,4.391,10.609,4.391c3.94,0,7.81-1.601,10.6-4.391c2.8-2.79,4.4-6.66,4.4-10.609
		c0-3.941-1.6-7.811-4.4-10.601C212.812,156.303,208.942,154.703,205.002,154.703z"/>
	<path style="fill:#AD2E08;" d="M175.002,204.713c-3.95,0-7.819,1.6-10.609,4.39s-4.391,6.65-4.391,10.601
		c0,3.949,1.6,7.819,4.391,10.609c2.79,2.79,6.659,4.4,10.609,4.4s7.811-1.61,10.6-4.4c2.8-2.79,4.4-6.66,4.4-10.609
		c0-3.941-1.6-7.811-4.4-10.601C182.813,206.313,178.952,204.713,175.002,204.713z"/>
	<path style="fill:#F1D860;" d="M64.999,114.707c3.978,0,7.794,1.58,10.607,4.394C78.42,121.913,80,125.729,80,129.707v135h85
		v-33.848c-0.203-0.182-0.413-0.355-0.606-0.548c-2.79-2.79-4.391-6.66-4.391-10.61c0-3.939,1.601-7.81,4.391-10.6
		c0.193-0.193,0.403-0.367,0.606-0.549V44.707H65c-19.299,0-35,15.701-35,35c0,9.35,3.64,18.139,10.251,24.75
		C46.861,111.067,55.65,114.707,64.999,114.707z"/>
	<g>
		<path style="fill:#97D04E;" d="M144.746,294.707h-22.738c10.575,12.873,26.522,20.586,43.432,20.586
			c16.912,0,32.862-7.713,43.438-20.586h-22.739H144.746z"/>
		<path style="fill:#97D04E;" d="M29.432,204.227c0,16.902,7.706,32.844,20.568,43.42V224.89v-41.328v-22.758
			C37.137,171.379,29.432,187.322,29.432,204.227z"/>
		<path style="fill:#97D04E;" d="M280,160.795l-0.001,22.746v41.37v22.746c12.869-10.575,20.579-26.522,20.579-43.434
			C300.578,187.316,292.869,171.371,280,160.795z"/>
	</g>
</g>
<g>
</g>
<g>
</g>
<g>
</g>
<g>
</g>
<g>
</g>
<g>
</g>
<g>
</g>
<g>
</g>
<g>
</g>
<g>
</g>
<g>
</g>
<g>
</g>
<g>
</g>
<g>
</g>
<g>
</g>
</svg>
