<?xml version="1.0" encoding="iso-8859-1"?>
<!-- Generator: Adobe Illustrator 19.0.0, SVG Export Plug-In . SVG Version: 6.00 Build 0)  -->
<svg version="1.1" id="Layer_1" xmlns="http://www.w3.org/2000/svg" xmlns:xlink="http://www.w3.org/1999/xlink" x="0px" y="0px"
	 viewBox="0 0 330 330" style="enable-background:new 0 0 330 330;" xml:space="preserve">
<g>
	<path style="fill:#B6002B;" d="M300,240h-45V90c0-49.626-40.374-90-90-90c-42.245,0-77.785,29.26-87.424,68.574
		C72.174,66.273,66.233,65,60,65c-24.814,0-45,20.188-45,45v145v60c0,8.284,6.716,15,15,15h210h60c8.284,0,15-6.716,15-15v-60
		C315,246.716,308.284,240,300,240z"/>
	<path style="fill:#D7143A;" d="M240,270h-15H45H30c-8.284,0-15-6.716-15-15v60c0,8.284,6.716,15,15,15h210c8.284,0,15-6.716,15-15
		v-15v-30v-15C255,263.284,248.284,270,240,270z"/>
</g>
<g>
</g>
<g>
</g>
<g>
</g>
<g>
</g>
<g>
</g>
<g>
</g>
<g>
</g>
<g>
</g>
<g>
</g>
<g>
</g>
<g>
</g>
<g>
</g>
<g>
</g>
<g>
</g>
<g>
</g>
</svg>
