<svg id="Capa_1" enable-background="new 0 0 512 512" height="512" viewBox="0 0 512 512" width="512" xmlns="http://www.w3.org/2000/svg"><g><path d="m75 151c-8.291 0-15-6.709-15-15v-60c0-8.291 6.709-15 15-15s15 6.709 15 15v60c0 8.291-6.709 15-15 15z" fill="#6d1d40"/><path d="m347 151c-8.291 0-15-6.709-15-15v-60c0-8.291 6.709-15 15-15s15 6.709 15 15v60c0 8.291-6.709 15-15 15z" fill="#58072a"/><path d="m504.557 271-37.557-30v-30l9.833-30c-19.991-36.282-50.83-60-98.705-60h-122.128-181c-36.216 0-66.513 25.809-73.482 60l28.482 15-30 15v30l30 15-30 15v60l30 30h226 224.124l30.321-30c-1.113-20.405-2.922-40.622-5.888-60z" fill="#fed843"/><path d="m510.445 331c-1.113-20.405-2.922-40.622-5.889-60l-37.556-30v-30l9.833-30c-19.991-36.282-50.83-60-98.705-60h-122.128v240h224.124z" fill="#fabe2c"/><path d="m476.833 181h-220.833-151c-8.291 0-15 6.709-15 15v60c0 8.291 6.709 15 15 15h151 248.557c-5.175-33.831-13.885-64.882-27.724-90z" fill="#873a62"/><path d="m476.833 181h-220.833v90h248.557c-5.175-33.831-13.885-64.882-27.724-90z" fill="#6d1d40"/><path d="m510.445 331h-254.445-256v60c0 8.291 6.709 15 15 15h241 241c8.291 0 15-6.709 15-15 0-19.759-.46-39.955-1.555-60z" fill="#9cdd05"/><path d="m512 391c0-19.759-.46-39.955-1.555-60h-254.445v75h241c8.291 0 15-6.709 15-15z" fill="#6b0"/><path d="m60 256c0-8.286-6.716-15-15-15h-45v30h45c8.284 0 15-6.716 15-15z" fill="#fabe2c"/><path d="m60 196c0-8.286-6.716-15-15-15h-43.482c-.989 4.849-1.518 9.864-1.518 15v15h45c8.284 0 15-6.716 15-15z" fill="#fabe2c"/><path d="m120 211h60v30h-60z" fill="#f2f2fc"/><path d="m301 211h61v30h-61z" fill="#e2d9fb"/><g><path d="m392 241h75.908c-2.856-10.957-6.167-20.962-9.932-30h-65.976z" fill="#e2d9fb"/></g><path d="m377 61h-121-211c-8.291 0-15 6.709-15 15s6.709 15 15 15h211 121c8.291 0 15-6.709 15-15s-6.709-15-15-15z" fill="#873a62"/><path d="m392 76c0-8.291-6.709-15-15-15h-121v30h121c8.291 0 15-6.709 15-15z" fill="#6d1d40"/><path d="m256 211h-46v30h46 15v-30z" fill="#f2f2fc"/><path d="m256 211h15v30h-15z" fill="#e2d9fb"/><path d="m120 451c-33.091 0-60-26.909-60-60s26.909-60 60-60 60 26.909 60 60-26.909 60-60 60z" fill="#873a62"/><circle cx="120" cy="391" fill="#f2f2fc" r="30"/><path d="m392 451c-33.091 0-60-26.909-60-60s26.909-60 60-60 60 26.909 60 60-26.909 60-60 60z" fill="#6d1d40"/><circle cx="392" cy="391" fill="#e2d9fb" r="30"/></g></svg>