<svg id="Capa_1" enable-background="new 0 0 512 512" height="512" viewBox="0 0 512 512" width="512" xmlns="http://www.w3.org/2000/svg"><g><path d="m45 151c-8.291 0-15-6.709-15-15v-30c0-8.291 6.709-15 15-15s15 6.709 15 15v30c0 8.291-6.709 15-15 15z" fill="#6d1d40"/><path d="m482 271v30l30 30v105c0 8.399-6.599 15-15 15h-482c-8.401 0-15-6.601-15-15v-105l30-30v-30l-30-30v-105c0-8.401 6.599-15 15-15h111.7l25.8-51.601c2.7-5.099 7.8-8.399 13.5-8.399h180c5.7 0 10.8 3.3 13.5 8.399l25.8 51.601h111.7c8.401 0 15 6.599 15 15v105z" fill="#ff8fb8"/><path d="m482 271v30l30 30v105c0 8.399-6.599 15-15 15h-241v-390h90c5.7 0 10.8 3.3 13.5 8.399l25.8 51.601h111.7c8.401 0 15 6.599 15 15v105z" fill="#ff5f96"/><path d="m0 241h512v90h-512z" fill="#873a62"/><path d="m256 241h256v90h-256z" fill="#6d1d40"/><circle cx="436" cy="196" fill="#fabe2c" r="15"/><circle cx="256" cy="286" fill="#f2f2fc" r="135"/><path d="m391 286c0 74.399-60.601 135-135 135v-270c74.399 0 135 60.599 135 135z" fill="#e2d9fb"/><circle cx="256" cy="286" fill="#6aa9ff" r="75"/><path d="m331 286c0 41.4-33.6 75-75 75v-150c41.4 0 75 33.6 75 75z" fill="#4895ff"/></g></svg>