<svg id="Capa_1" enable-background="new 0 0 512 512" height="512" viewBox="0 0 512 512" width="512" xmlns="http://www.w3.org/2000/svg"><g><path d="m226 361v60l-15 30h-30l-15-30v-60l15-30h30z" fill="#873a62"/><path d="m166 391h60v30l-15 30h-30l-15-30z" fill="#6d1d40"/><path d="m467 361.599v59.401l-15 30h-241v-120h241z" fill="#f2f2fc"/><g fill="#e2d9fb"><path d="m467 391v30l-15 30h-241v-60z"/><path d="m437 301c-8.291 0-15-6.709-15-15 0-52.5-25.02-71.265-53.994-93.003-30.938-23.203-66.006-49.497-66.006-116.997 0-8.291 6.709-15 15-15s15 6.709 15 15c0 52.5 25.02 71.265 53.994 93.003 30.938 23.203 66.006 49.497 66.006 116.997 0 8.291-6.709 15-15 15z"/><path d="m497 301c-8.291 0-15-6.709-15-15 0-55.459-13.345-75.483-27.48-96.68-15.249-22.866-32.52-48.779-32.52-113.32 0-8.291 6.709-15 15-15s15 6.709 15 15c0 55.459 13.345 75.483 27.48 96.68 15.249 22.866 32.52 48.779 32.52 113.32 0 8.291-6.709 15-15 15z"/></g><path d="m512 346v90c0 8.399-6.599 15-15 15h-45v-120h45c8.401 0 15 6.599 15 15z" fill="#ff8fb8"/><path d="m512 391v45c0 8.399-6.599 15-15 15h-45v-60z" fill="#ff5f96"/><path d="m181 331v120h-166c-8.401 0-15-6.601-15-15v-90c0-8.401 6.599-15 15-15z" fill="#fed843"/><path d="m0 391h181v60h-166c-8.401 0-15-6.601-15-15z" fill="#fabe2c"/></g></svg>