<svg id="Capa_1" enable-background="new 0 0 512 512" height="512" viewBox="0 0 512 512" width="512" xmlns="http://www.w3.org/2000/svg"><g><path d="m271 406v91c0 8.399-6.599 15-15 15s-15-6.601-15-15v-91c0-8.401 6.599-15 15-15s15 6.599 15 15z" fill="#f2f2fc"/><path d="m271 406v91c0 8.399-6.599 15-15 15v-121c8.401 0 15 6.599 15 15z" fill="#e2d9fb"/><path d="m299.5 399.399-30-60c-2.701-5.099-8.101-7.8-13.5-7.8s-10.8 2.701-13.5 7.8l-30 60c-2.1 4.501-2.1 10.201.601 14.401 2.999 4.499 7.8 7.2 12.9 7.2h60c5.099 0 9.901-2.701 12.9-7.2 2.7-4.2 2.7-9.9.599-14.401z" fill="#ff8fb8"/><path d="m298.9 413.8c-2.999 4.499-7.8 7.2-12.9 7.2h-30v-89.401c5.4 0 10.8 2.701 13.5 7.8l30 60c2.101 4.501 2.101 10.201-.6 14.401z" fill="#ff5f96"/><path d="m256 0c-90.901 0-165 75.099-165 166 0 90.3 72.001 195 165 195s165-104.7 165-195c0-90.901-74.099-166-165-166z" fill="#ff5f96"/><path d="m421 166c0 90.3-72.001 195-165 195v-361c90.901 0 165 75.099 165 166z" fill="#e30a6c"/><g><path d="m294 209.021 14.5-14.079-14.5-21.973-23-14.996v-65.455c8.06 1.642 16.099 4.677 23 8.685l14.5-15.674-14.5-17.3c-11.684-4.499-24.75-7.229-38-7.229s-25.316 2.73-37 7.229l-15.5 18.358 15.5 14.615c6.901-4.008 13.94-7.042 22-8.685v65.455l-22 14.996-15.5 25.148 15.5 10.904 22-14.996v45.458c-8.115-1.655-15.068-4.878-22-8.93l-15.5 10.27 15.5 23.181c11.656 4.481 23.783 6.996 37 6.996s26.344-2.512 38-6.993l14.5-20.713-14.5-12.741c-6.932 4.052-14.885 7.275-23 8.93v-45.46z" fill="#fed843"/><path d="m308.5 243.294-14.5-12.742c-6.932 4.052-14.885 7.275-23 8.93v-45.46l23 14.998 14.5-14.079-14.5-21.972-23-14.996v-65.455c8.06 1.642 16.099 4.677 23 8.685l14.5-15.674-14.5-17.3c-11.684-4.499-24.75-7.229-38-7.229v210c13.217 0 26.344-2.512 38-6.993z" fill="#fabe2c"/><path d="m203.227 219.201 15.773-10.18v-36.052l-32.39 21.255c-3.563-8.727-5.61-18.232-5.61-28.224 0-27.678 15.63-51.804 38-64.797v-32.974c-39.368 15.161-68 53.13-68 97.771 0 44.538 28.385 82.773 68 98.004v-33.452c-5.511-3.223-11.265-6.879-15.773-11.351z" fill="#c3ea21"/><path d="m294 68.229v32.974c22.37 12.993 37 37.119 37 64.797 0 9.992-2.047 19.497-5.61 28.224l-31.39-21.255v36.052l14.773 10.181c-4.508 4.471-9.261 8.128-14.773 11.351v33.455c41.498-15.947 67-55.611 67-98.007 0-44.642-27.632-82.611-67-97.772z" fill="#e681fa"/></g></g></svg>