<svg id="Capa_1" enable-background="new 0 0 512 512" height="512" viewBox="0 0 512 512" width="512" xmlns="http://www.w3.org/2000/svg"><g><path d="m436 482h-45l30 30h15c8.291 0 15-6.709 15-15s-6.709-15-15-15z" fill="#58072a"/><path d="m421 482v30h-330c-16.5 0-30-13.5-30-30s13.5-60 30-60h300z" fill="#6d1d40"/><path d="m421 482v30h-165v-90h135z" fill="#58072a"/><path d="m421 452v30h-315c-8.401 0-15-6.601-15-15 0-8.401 6.599-15 15-15l27.001-30h257.999z" fill="#f2f2fc"/><path d="m421 452v30h-165v-60h135z" fill="#e2d9fb"/><path d="m451 15v422c0 8.399-6.599 15-15 15h-345c-16.5 0-30 13.5-30 30v-437c0-24.901 20.099-45 45-45h330c8.401 0 15 6.599 15 15z" fill="#873a62"/><path d="m451 15v422c0 8.399-6.599 15-15 15h-180v-452h180c8.401 0 15 6.599 15 15z" fill="#6d1d40"/><path d="m331 346c0 8.399-6.599 15-15 15h-120c-8.401 0-15-6.601-15-15 0-8.401 6.599-15 15-15h120c8.401 0 15 6.599 15 15z" fill="#6d1d40"/><g><path d="m294 239.021 14.5-14.079-14.5-21.973-23-14.996v-65.455c8.06 1.642 16.099 4.677 23 8.685l14.5-15.674-14.5-17.3c-11.684-4.499-24.75-7.229-38-7.229s-25.316 2.73-37 7.229l-15.5 18.358 15.5 14.615c6.901-4.008 13.94-7.042 22-8.685v65.455l-22 14.996-15.5 25.148 15.5 10.904 22-14.996v45.458c-8.115-1.655-15.068-4.878-22-8.93l-15.5 10.27 15.5 23.181c11.656 4.481 23.783 6.996 37 6.996s26.344-2.512 38-6.993l14.5-20.713-14.5-12.741c-6.932 4.052-14.885 7.275-23 8.93v-45.46z" fill="#fed843"/><path d="m308.5 273.294-14.5-12.742c-6.932 4.052-14.885 7.275-23 8.93v-45.46l23 14.998 14.5-14.079-14.5-21.972-23-14.996v-65.455c8.06 1.642 16.099 4.677 23 8.685l14.5-15.674-14.5-17.3c-11.684-4.499-24.75-7.229-38-7.229v210c13.217 0 26.344-2.512 38-6.993z" fill="#fabe2c"/><path d="m203.227 249.201 15.773-10.18v-36.052l-32.39 21.255c-3.563-8.727-5.61-18.232-5.61-28.224 0-27.678 15.63-51.804 38-64.797v-32.974c-39.368 15.161-68 53.13-68 97.771 0 44.538 28.385 82.773 68 98.004v-33.452c-5.511-3.223-11.265-6.879-15.773-11.351z" fill="#c3ea21"/><path d="m294 98.229v32.974c22.37 12.993 37 37.119 37 64.797 0 9.992-2.047 19.497-5.61 28.224l-31.39-21.255v36.052l14.773 10.181c-4.508 4.471-9.261 8.128-14.773 11.351v33.455c41.498-15.947 67-55.611 67-98.007 0-44.642-27.632-82.611-67-97.772z" fill="#e681fa"/></g><path d="m316 361h-60v-30h60c8.401 0 15 6.599 15 15 0 8.399-6.599 15-15 15z" fill="#58072a"/></g></svg>