<svg id="Capa_1" enable-background="new 0 0 511.912 511.912" height="512" viewBox="0 0 511.912 511.912" width="512" xmlns="http://www.w3.org/2000/svg"><g><path d="m453.825 148.832-62.866 62.161-15.004 29.835v179.897c3.371-.037 6.74-1.08 9.478-3.182 18.882-14.473 80.522-66.797 80.522-132.627v-133.079z" fill="#ff5f96"/><path d="m385.185 3.076c-2.71-2.082-5.962-3.076-9.229-3.076-3.146 0-6.306.917-8.979 2.886-3.311 2.476-81.021 62.333-81.021 134.022v17.558l14.312 32.175 75.688 90.828v-58.484l72.863-77.723 13.958-29.888c-12.65-53.544-61.016-95.579-77.592-108.298z" fill="#fed843"/><path d="m448.819 141.262 13.958-29.888c-12.65-53.544-61.016-95.579-77.592-108.298-2.71-2.082-5.962-3.076-9.229-3.076v218.985z" fill="#fabe2c"/><path d="m285.956 201.354v83.562c0 71.689 77.71 130.547 81.021 133.022 2.578 1.919 5.698 2.842 8.818 2.842.057 0 .104-.055.161-.055v-120.016l-10.378-26.456-60.552-66.846z" fill="#ff8fb8"/><path d="m385.565 297.44c6.357-5.303 7.222-14.766 1.919-21.138l-101.528-121.836v46.888l78.472 94.167c5.297 6.341 14.729 7.226 21.137 1.919z" fill="#f2f2fc"/><path d="m365.702 236.854c2.891 2.714 6.577 3.973 10.254 3.973v-36.843l-10.942 11.673c-5.669 6.036-5.362 15.529.688 21.197z" fill="none"/><path d="m375.956 120.912c-8.291 0-15 6.709-15 15v361c0 8.291 6.709 15 15 15s15-6.709 15-15v-361c0-8.291-6.709-15-15-15z" fill="#f2f2fc"/><path d="m465.956 136.908c0-8.789-1.229-17.285-3.179-25.534l-71.821 77.932v-53.394c0-8.291-6.709-15-15-15v391c8.291 0 15-6.709 15-15v-265.074l75-80.001z" fill="#e2d9fb"/><path d="m213.825 148.832-62.866 62.161-15.004 29.835v179.897c3.371-.037 6.74-1.08 9.478-3.182 18.882-14.473 80.522-66.797 80.522-132.627v-133.079z" fill="#c567ea"/><path d="m145.185 3.076c-2.71-2.082-5.962-3.076-9.229-3.076-3.146 0-6.306.917-8.979 2.886-3.311 2.476-81.021 62.333-81.021 134.022v17.558l14.312 32.175 75.688 90.828v-58.484l72.863-77.723 13.958-29.888c-12.65-53.544-61.016-95.579-77.592-108.298z" fill="#c3ea21"/><path d="m208.819 141.262 13.958-29.888c-12.65-53.544-61.016-95.579-77.592-108.298-2.71-2.082-5.962-3.076-9.229-3.076v218.985z" fill="#9cdd05"/><path d="m45.956 201.354v83.562c0 71.689 77.71 130.547 81.021 133.022 2.578 1.919 5.698 2.842 8.818 2.842.057 0 .104-.055.161-.055v-120.016l-10.378-26.456-60.552-66.846z" fill="#e681fa"/><path d="m145.565 297.44c6.357-5.303 7.222-14.766 1.919-21.138l-101.528-121.836v46.888l78.472 94.167c5.297 6.341 14.729 7.226 21.137 1.919z" fill="#f2f2fc"/><path d="m125.702 236.854c2.891 2.714 6.577 3.973 10.254 3.973v-36.843l-10.942 11.673c-5.669 6.036-5.362 15.529.688 21.197z" fill="none"/><path d="m135.956 120.912c-8.291 0-15 6.709-15 15v361c0 8.291 6.709 15 15 15s15-6.709 15-15v-361c0-8.291-6.709-15-15-15z" fill="#f2f2fc"/><path d="m225.956 136.908c0-8.789-1.229-17.285-3.179-25.534l-71.821 77.85v-53.312c0-8.291-6.709-15-15-15v391c8.291 0 15-6.709 15-15v-265.074l75-80.001z" fill="#e2d9fb"/></g></svg>