<svg id="Capa_1" enable-background="new 0 0 512 512" height="512" viewBox="0 0 512 512" width="512" xmlns="http://www.w3.org/2000/svg"><g><path d="m76 451c-41.353 0-76-33.647-76-75s34.647-75 76-75 75 33.647 75 75-33.647 75-75 75zm0-120c-24.814 0-46 20.186-46 45s21.186 45 46 45 45-20.186 45-45-20.186-45-45-45z" fill="#873a62"/><g><path d="m196 391h-120c-5.405 0-10.386-2.9-13.052-7.603-2.666-4.717-2.593-10.474.19-15.117l63.384-105.645c4.248-7.104 13.477-9.434 20.581-5.142 7.104 4.263 9.404 13.477 5.142 20.581l-49.746 82.926h93.501c8.291 0 15 6.709 15 15s-6.709 15-15 15z" fill="#e2d9fb"/></g><path d="m388.759 248.119c-2.739-4.424-7.559-7.119-12.759-7.119h-120-120c-5.2 0-10.02 2.695-12.759 7.119s-2.988 9.946-.659 14.59l60 120c2.549 5.083 7.734 8.291 13.418 8.291h60 60c5.684 0 10.869-3.208 13.418-8.291l60-120c2.329-4.644 2.08-10.166-.659-14.59z" fill="#e2d9fb"/><path d="m329.418 382.709 60-120c2.329-4.644 2.08-10.166-.659-14.59s-7.559-7.119-12.759-7.119h-120v150h60c5.684 0 10.869-3.208 13.418-8.291z" fill="#c7c1dc"/><path d="m211 271h-166c-24.853 0-45-20.147-45-45 0-24.853 20.147-45 45-45h166l30 23.85v36.15z" fill="#873a62"/><path d="m371.62 138.712c-14.004-.103-35.405.396-58.564 5.039-15.093 3.019-37.158 9.5-57.056 16.509-21.2 7.467-39.935 15.538-45 20.74v90h45 143.994z" fill="#ff8fb8"/><path d="m371.62 138.712c-14.004-.103-35.405.396-58.564 5.039-15.093 3.019-37.158 9.5-57.056 16.509v110.74h143.994z" fill="#ff5f96"/><path d="m286 301h-30-30c-8.291 0-15 6.709-15 15s6.709 15 15 15h30 30c8.291 0 15-6.709 15-15s-6.709-15-15-15z" fill="#f2f2fc"/><path d="m301 316c0-8.291-6.709-15-15-15h-30v30h30c8.291 0 15-6.709 15-15z" fill="#e2d9fb"/><path d="m436 451c-41.353 0-75-33.647-75-75s33.647-75 75-75 76 33.647 76 75-34.647 75-76 75zm0-120c-24.814 0-45 20.186-45 45s20.186 45 45 45 46-20.186 46-45-21.186-45-46-45z" fill="#6d1d40"/><path d="m451 241h-60c-8.291 0-15-6.709-15-15 0-41.353 33.647-75 75-75 8.291 0 15 6.709 15 15v60c0 8.291-6.709 15-15 15z" fill="#fabe2c"/><path d="m421.63 380.307-86.792-289.307h-48.838c-8.291 0-15-6.709-15-15s6.709-15 15-15h60c6.621 0 12.466 4.351 14.37 10.693l90 300c2.373 7.925-2.124 16.289-10.063 18.677-8.079 2.391-16.335-2.246-18.677-10.063z" fill="#e2d9fb"/></g></svg>