<svg id="Capa_1" enable-background="new 0 0 512 512" height="512" viewBox="0 0 512 512" width="512" xmlns="http://www.w3.org/2000/svg"><g><path d="m436.308 160.536-42.422-42.422-42.422-42.422c-5.859-5.859-15.352-5.859-21.211 0l-54.858 54.844c-3.34 3.34-4.907 8.057-4.248 12.729l10.605 74.253c.476 3.296 2.01 6.24 4.25 8.48s5.184 3.774 8.48 4.25l74.253 10.605c4.493.641 9.274-.793 12.729-4.248l54.844-54.858c5.859-5.859 5.859-15.351 0-21.211z" fill="#6d1d40"/><path d="m368.734 240.854c4.493.641 9.274-.793 12.729-4.248l54.844-54.858c5.859-5.859 5.859-15.352 0-21.211l-42.422-42.422-107.883 107.883c2.239 2.239 5.184 3.774 8.48 4.25z" fill="#58072a"/><g><path d="m341.201 260.799-31.8-53.099c-.601-1.051-1.388-1.988-2.251-2.851s-1.8-1.65-2.851-2.251l-53.099-31.8c-5.7-3.6-12.902-2.699-18.001 1.8-3.005 2.847-98.489 93.373-92.401 87.601-.298 0-.298 0-.298.298-3.6 3.6-6.901 7.202-9.901 11.1l11.151 41.151 28.749 28.749 19.501 19.503 50.4 20.4c3.9-3.3 7.8-6.601 11.4-10.201 8.474-8.937 82.766-87.301 87.601-92.399 4.499-5.101 5.4-12.301 1.8-18.001z" fill="#873a62"/><path d="m240.399 381.4c3.9-3.3 7.8-6.601 11.4-10.201 8.474-8.937 82.766-87.301 87.601-92.399 4.499-5.101 5.4-12.301 1.8-18.001l-31.8-53.099c-.601-1.051-1.388-1.988-2.251-2.851l-136.648 136.65 19.499 19.501z" fill="#6d1d40"/></g><path d="m185.501 326.499-54.901-54.9c-38.1 50.101-24.9 119.401-24.3 122.4s2.025 5.625 4.05 7.65 4.651 3.45 7.65 4.05c1.5.3 14.099 2.699 32.098 2.699 25.501 0 60.901-4.799 90.3-26.999z" fill="#fed843"/><path d="m150.099 408.399c25.501 0 60.901-4.799 90.3-26.999l-54.899-54.901-75.15 75.15c2.025 2.025 4.651 3.45 7.65 4.05 1.5.301 14.1 2.7 32.099 2.7z" fill="#fabe2c"/><path d="m436.308 415.097-339.405-339.405c-5.859-5.859-15.352-5.859-21.211 0s-5.859 15.352 0 21.211l339.404 339.404c5.859 5.859 15.352 5.859 21.211 0s5.86-15.351.001-21.21z" fill="#ff8fb8"/><path d="m436.308 415.097-339.405-339.405c-5.859-5.859-15.352-5.859-21.211 0l360.615 360.615c5.86-5.859 5.86-15.351.001-21.21z" fill="#ff5f96"/><path d="m256 0c-70.305 0-134.055 29.597-180.229 75.771s-75.771 109.924-75.771 180.229c0 140.61 115.39 256 256 256 70.305 0 134.055-29.597 180.229-75.771s75.771-109.924 75.771-180.229c0-140.61-115.39-256-256-256zm159.027 415.027c-40.741 40.741-96.991 66.973-159.027 66.973-124.072 0-226-101.928-226-226 0-62.036 26.232-118.286 66.973-159.027s96.991-66.973 159.027-66.973c124.072 0 226 101.928 226 226 0 62.036-26.232 118.286-66.973 159.027z" fill="#ff8fb8"/><path d="m256 0c-70.305 0-134.055 29.597-180.229 75.771l21.202 21.202c40.741-40.741 96.991-66.973 159.027-66.973 124.072 0 226 101.928 226 226 0 62.036-26.232 118.286-66.973 159.027l21.202 21.202c46.174-46.174 75.771-109.924 75.771-180.229 0-140.61-115.39-256-256-256z" fill="#ff5f96"/></g></svg>