<svg id="Capa_1" enable-background="new 0 0 512 512" height="512" viewBox="0 0 512 512" width="512" xmlns="http://www.w3.org/2000/svg"><g><g><g><path d="m241 0h19.291v58.308h-19.291z" fill="#eaf1ff"/></g><g><path d="m256 0h15v58.308h-15z" fill="#d5e7ff"/></g><g><path d="m171.975 18.495h30v58.308h-30z" fill="#eaf1ff" transform="matrix(.866 -.5 .5 .866 1.226 99.872)"/></g><g><path d="m295.871 32.65h58.308v30h-58.308z" fill="#d5e7ff" transform="matrix(.5 -.866 .866 .5 121.246 305.304)"/></g></g><g><path d="m156.432 98.395-37.171 108.955-44.507 27.656-9.121 34.041-2.233 65.527-31.737 61.249-20.76 77.478 74.524 19.969 50.506-133.81 50.581-253.004z" fill="#c3edb0"/><path d="m219.179 273.705-24.716-46.205 22.287-112.943-30.236-8.101-101.087 386.814 69.901 18.73 20.76-77.479.228-63.154 33.742-63.622z" fill="#73cbb1"/></g><g><path d="m65.633 269.047-33.97 126.776 74.045 19.84 30.225-56.203 2.961-70.783z" fill="#539499"/><path d="m210.058 307.745-71.164-19.068-33.186 126.986 70.38 18.858z" fill="#386468"/></g><g><g><path d="m355.568 98.395 37.171 108.955 44.507 27.656 9.121 34.041 3.147 67.642 30.823 59.134 20.76 77.478-74.524 19.969-50.506-133.81-50.581-253.004z" fill="#73cbb1"/><path d="m292.821 273.705 24.716-46.205-22.287-112.943 30.236-8.101 101.087 386.814-69.901 18.73-20.76-77.479 4.069-67.806-38.039-58.97z" fill="#c3edb0"/></g><g><path d="m446.367 269.047 33.97 126.776-74.045 19.84-30.225-56.203-2.961-70.783z" fill="#386468"/><path d="m301.942 307.745 71.164-19.068 33.186 126.986-70.38 18.858z" fill="#539499"/></g></g></g></svg>