<svg id="Capa_1" enable-background="new 0 0 512 512" height="512" viewBox="0 0 512 512" width="512" xmlns="http://www.w3.org/2000/svg"><g><g><path d="m82.983 223.782-22.418-22.418c-29.603-29.603-29.603-77.599 0-107.202l22.418-22.418 22.417 22.419c29.603 29.603 29.603 77.599 0 107.202z" fill="#386468"/><path d="m87.782 288-29.481-11.661c-38.93-15.398-58.007-59.44-42.608-98.37l11.661-29.481 29.481 11.661c38.93 15.398 58.007 59.44 42.608 98.37z" fill="#539499"/><path d="m100.784 341.034-31.583-2.763c-41.706-3.649-72.557-40.416-68.908-82.121l2.763-31.583 31.583 2.763c41.706 3.649 72.557 40.416 68.908 82.121z" fill="#73cbb1"/><path d="m139.679 382.991-29.792 10.843c-39.34 14.319-82.839-5.965-97.158-45.305l-10.843-29.792 29.792-10.843c39.34-14.319 82.839 5.965 97.158 45.305z" fill="#c3edb0"/><path d="m181.323 395.635-22.418 22.418c-29.603 29.603-77.599 29.603-107.202 0l-22.418-22.418 22.418-22.418c29.603-29.603 77.599-29.603 107.202 0z" fill="#effdd1"/></g><g><path d="m429.017 223.782 22.418-22.418c29.603-29.603 29.603-77.599 0-107.202l-22.418-22.418-22.417 22.419c-29.603 29.603-29.603 77.599 0 107.202z" fill="#2f5457"/><path d="m424.218 288 29.481-11.661c38.93-15.398 58.007-59.44 42.608-98.37l-11.661-29.481-29.481 11.661c-38.93 15.398-58.007 59.44-42.608 98.37z" fill="#386468"/><path d="m411.216 341.034 31.583-2.763c41.706-3.649 72.557-40.416 68.908-82.121l-2.763-31.583-31.583 2.763c-41.706 3.649-72.557 40.416-68.908 82.121z" fill="#539499"/><path d="m372.321 382.991 29.792 10.843c39.34 14.319 82.839-5.965 97.158-45.305l10.843-29.792-29.792-10.843c-39.34-14.319-82.839 5.965-97.158 45.305z" fill="#73cbb1"/><path d="m330.677 395.635 22.418 22.418c29.603 29.603 77.599 29.603 107.202 0l22.418-22.418-22.418-22.418c-29.603-29.603-77.599-29.603-107.202 0z" fill="#c3edb0"/></g><g><path d="m247.045 198.017c-21.874-21.874-57.339-21.874-79.213 0-21.874 21.874-21.874 57.339 0 79.213l8.955 8.955 79.213 79.214 5.811-87.932-5.811-70.494z" fill="#e06379"/><g><path d="m344.169 198.018c-21.874-21.874-57.339-21.874-79.213 0l-8.956 8.955v158.427l79.213-79.213 8.955-8.955c21.875-21.875 21.875-57.34.001-79.214z" fill="#c63c50"/></g></g></g></svg>