<svg id="Capa_1" enable-background="new 0 0 511.891 511.891" height="512" viewBox="0 0 511.891 511.891" width="512" xmlns="http://www.w3.org/2000/svg"><g><g><g><g><g><path d="m270.945 511.891h-45.504c-52.038 0-94.374-42.336-94.374-94.374v-45.504h45.504c52.038 0 94.373 42.336 94.373 94.374v45.504z" fill="#539499"/></g></g><g><g><path d="m270.945 339.917h-45.504c-52.038 0-94.374-42.336-94.374-94.373v-45.504h45.504c52.038 0 94.373 42.336 94.373 94.374v45.503z" fill="#c3edb0"/></g></g><g><g><path d="m286.449 425.904h-45.504v-45.504c0-52.038 42.336-94.374 94.374-94.374h45.504v45.504c0 52.038-42.336 94.374-94.374 94.374z" fill="#73cbb1"/></g></g></g><g><path d="m240.945 21.213h22.082v490.678h-22.082z" fill="#c3edb0"/></g><g><path d="m255.945 21.213h15v490.678h-15z" fill="#73cbb1"/></g><g><path d="m177.91 78.035 21.213 21.213 56.822-56.822 7.083-21.213-7.083-21.213z" fill="#c3edb0"/></g></g><path d="m255.945 0v42.426l56.823 56.822 21.213-21.213z" fill="#73cbb1"/></g></svg>