<svg id="Capa_1" enable-background="new 0 0 512 512" height="512" viewBox="0 0 512 512" width="512" xmlns="http://www.w3.org/2000/svg"><g><g><g><path d="m73.462 370.795-73.299 45.35v95.855h208.602l9.599-63.874-9.411-77.331z" fill="#73cbb1"/><path d="m416.081 416.145-73.892-45.35h-133.424v141.205h207.316z" fill="#539499"/></g><path d="m161.733 312.61v63.928c0 25.975 21.057 47.032 47.032 47.032l4.843-110.96z" fill="#f1cbbc"/><path d="m208.765 312.61v110.96c25.975 0 47.032-21.057 47.032-47.032v-63.928z" fill="#eebca8"/><g><g><g><g><g><path d="m216.048 87.199-126.709 34.947v26.086c-23.512 1.423-42.144 20.933-42.144 44.803 0 24.152 19.073 43.841 42.977 44.847 6.898 59.396 57.346 105.51 118.593 105.51z" fill="#f6dccd"/><path d="m328.191 148.232v-44.495l-119.426-16.538v256.193c61.247 0 111.695-46.114 118.593-105.51 23.904-1.006 42.977-20.695 42.977-44.847 0-23.87-18.631-43.38-42.144-44.803z" fill="#f1cbbc"/></g></g></g></g></g><path d="m208.765 0h-25.64-15.075c-43.471 0-78.711 35.24-78.711 78.711v43.435h119.426l4.843-61.073z" fill="#a45d4e"/><path d="m208.765 0v122.146h68.844c43.471 0 78.711-35.24 78.711-78.711v-43.435z" fill="#8f5041"/></g><g><g><g><path d="m208.765 265.112c-9.028 0-16.374-7.346-16.374-16.375h-30c0 25.571 20.804 46.375 46.375 46.375z" fill="#e9a48c"/><path d="m225.14 248.738c0 9.029-7.346 16.375-16.375 16.375l.001 30c25.57 0 46.374-20.804 46.374-46.375z" fill="#de9180"/></g></g></g><path d="m314.246 332.95c-24.721 24.722-24.721 64.803 0 89.525l89.525 89.525 12.31-112.248-12.31-66.802c-24.722-24.721-64.803-24.721-89.525 0z" fill="#e06379"/><path d="m493.296 332.95c-24.721-24.722-64.803-24.722-89.525 0v179.05l89.525-89.525c24.721-24.721 24.721-64.803 0-89.525z" fill="#c63c50"/></g></svg>