<svg id="Capa_1" enable-background="new 0 0 512 512" height="512" viewBox="0 0 512 512" width="512" xmlns="http://www.w3.org/2000/svg"><g><path d="m178.187 478.474h90.995v33.526h-90.995z" fill="#524798"/><path d="m256 478.474h77.813v33.526h-77.813z" fill="#2e2654"/><g><g><g><path d="m265.565 483.354h-87.378v-140.936l87.378-14.895z" fill="#6b66d0"/><path d="m333.813 483.354h-77.813v-155.831l77.813 14.895z" fill="#524798"/></g></g></g><g><g><path d="m119.73 95.947-33.305 2.141-1.534-2.929c-11.65-22.25-3.056-49.732 19.194-61.382l5.902-3.09 22.627 43.217z" fill="#f1cbbc"/><path d="m204.341 210.9-9.807 28.006-46.356-22.871-61.753-117.948 46.19-24.183z" fill="#73cbb1"/></g><g><path d="m392.27 95.947 33.305 2.141 1.534-2.929c11.65-22.25 3.056-49.732-19.194-61.382l-5.902-3.09-22.627 43.217z" fill="#eebca8"/><path d="m307.659 210.9 9.807 28.006 46.356-22.871 61.753-117.948-46.19-24.183z" fill="#539499"/></g></g><path d="m178.187 160.945h87.378v181.472h-87.378z" fill="#c3edb0"/><path d="m256 160.945h77.813v181.472h-77.813z" fill="#73cbb1"/><path d="m229.637 145.347v26.118c0 14.56 11.803 26.363 26.363 26.363s9.565-11.68 9.565-26.24l-9.565-26.241z" fill="#eebca8"/><path d="m256 145.347v52.48c14.56 0 26.363-11.803 26.363-26.363v-26.118h-26.363z" fill="#e9a48c"/><path d="m199.799 49.067v55.678c0 31.039 25.162 56.201 56.201 56.201 9.565-15.599 0-25.162 0-56.201v-55.678z" fill="#f1cbbc"/><path d="m256 49.067v111.879c31.039 0 56.201-25.162 56.201-56.201v-55.678z" fill="#eebca8"/><path d="m256 63.953s9.565-16.436 9.565-37.566l-9.565-26.387h-5.979-11.963c-21.13 0-38.259 17.129-38.259 38.259v25.693h56.201z" fill="#a45d4e"/><path d="m293.071 63.953c21.13 0 38.259-17.129 38.259-38.259v-25.694h-75.33v63.953z" fill="#8f5041"/></g></svg>