<svg id="Capa_1" enable-background="new 0 0 512 512" height="512" viewBox="0 0 512 512" width="512" xmlns="http://www.w3.org/2000/svg"><g><g><g><path d="m33.555 367.803h188.882v136.697h-188.882z" fill="#ecbd2c"/><path d="m127.997 367.803h94.441v136.697h-94.441z" fill="#e68f21"/><g><g><path d="m134.536 245.544-100.981 31.193c-.111 1.88-.168 3.775-.168 5.683v22.821c-18.627 1.127-33.387 16.584-33.387 35.494 0 19.134 15.11 34.732 34.048 35.529 5.465 47.055 45.431 83.588 93.952 83.588l15.398-136.022z" fill="#f6dccd"/><path d="m222.613 305.241v-22.821c0-1.908-.056-3.803-.168-5.683l-94.445-31.193v214.308c48.521 0 88.488-36.532 93.952-83.588 18.938-.797 34.048-16.395 34.048-35.529 0-18.91-14.76-34.367-33.387-35.494z" fill="#f1cbbc"/></g></g><g><g><g><path d="m115.663 375.701h-30c0 23.345 18.992 42.337 42.336 42.337l11.812-18.76-11.811-11.24c-6.802 0-12.337-5.534-12.337-12.337z" fill="#e9a48c"/><path d="m140.337 375.701c0 6.803-5.534 12.337-12.337 12.337v30c23.345 0 42.337-18.992 42.337-42.337z" fill="#de9180"/></g></g></g><g><path d="m127.916 188.065c-52.207 0-94.528 42.322-94.528 94.528v15.433h73.642l20.97-16.036 12.161-50.967z" fill="#ecbd2c"/><path d="m127.916 188.065.084 93.925 20.97 16.036h73.475v-15.433c0-52.206-42.322-94.528-94.529-94.528z" fill="#e68f21"/></g></g><g><path d="m289.555 367.803h188.882v136.697h-188.882z" fill="#61362b"/><path d="m383.997 367.803h94.441v136.697h-94.441z" fill="#4d2c21"/><g><g><path d="m390.536 245.544-100.981 31.194c-.111 1.88-.168 3.775-.168 5.683v22.821c-18.627 1.126-33.387 16.583-33.387 35.493 0 19.134 15.11 34.732 34.048 35.529 5.465 47.055 45.431 83.588 93.952 83.588l15.398-136.022z" fill="#f6dccd"/><path d="m478.613 305.241v-22.821c0-1.908-.056-3.803-.168-5.683l-94.445-31.193v214.308c48.521 0 88.488-36.532 93.952-83.588 18.938-.797 34.048-16.395 34.048-35.529 0-18.91-14.76-34.367-33.387-35.494z" fill="#f1cbbc"/></g></g><g><g><g><path d="m371.663 375.701h-30c0 23.345 18.992 42.337 42.336 42.337l11.812-18.76-11.811-11.24c-6.802 0-12.337-5.534-12.337-12.337z" fill="#e9a48c"/><path d="m396.337 375.701c0 6.803-5.534 12.337-12.337 12.337v30c23.345 0 42.337-18.992 42.337-42.337z" fill="#de9180"/></g></g></g><g><path d="m383.916 188.065c-52.207 0-94.529 42.322-94.529 94.528v15.433h73.642l20.971-16.036 12.161-50.967z" fill="#61362b"/><path d="m383.916 188.065.084 93.925 20.97 16.036h73.474v-15.433c.001-52.206-42.321-94.528-94.528-94.528z" fill="#4d2c21"/></g></g></g><g><path d="m66.845 7.5c-36.917 0-66.845 29.927-66.845 66.845v100.429l35.031-29.138h78.949l6.108-69.068-6.109-69.068z" fill="#6b66d0"/><g><path d="m158.891 7.5h-44.911v138.136h44.911c38.145 0 69.068-30.923 69.068-69.068 0-38.145-30.923-69.068-69.068-69.068z" fill="#524798"/></g><g><g><path d="m67.543 61.568h30v30h-30z" fill="#d5e7ff"/></g><g><path d="m130.416 61.568h30v30h-30z" fill="#acceff"/></g></g></g><g><path d="m431.05 7.5c36.917 0 66.845 29.927 66.845 66.845v100.429l-35.031-29.138h-78.949l-6.108-69.068 6.109-69.068z" fill="#acceff"/><g><path d="m339.005 7.5h44.911v138.136h-44.911c-38.145 0-69.068-30.923-69.068-69.068 0-38.145 30.922-69.068 69.068-69.068z" fill="#d5e7ff"/></g><g><g><path d="m400.352 61.568h30v30h-30z" fill="#524798"/></g><g><path d="m337.48 61.568h30v30h-30z" fill="#6b66d0"/></g></g></g></g></svg>