<svg id="Capa_1" enable-background="new 0 0 512 512" height="512" viewBox="0 0 512 512" width="512" xmlns="http://www.w3.org/2000/svg"><g><path d="m371.107 239.064v227.24h-115.107l-8.277-113.62 8.277-113.62z" fill="#6b66d0"/><g><path d="m35.953 239.064h116.132v227.24h-116.132z" fill="#c3edb0"/><path d="m76.87 306.832c-15.443 15.443-40.481 15.443-55.923 0l-9.364-9.364c-15.443-15.443-15.443-40.481 0-55.923 15.443-15.443 40.481-15.443 55.923 0l9.364 9.364c15.442 15.443 15.442 40.481 0 55.923z" fill="#f6dccd"/><g><path d="m160.503 111.304-88.068-11.84v66.057c0 40.616 32.926 73.542 73.542 73.542z" fill="#b26e5a"/><path d="m145.977 109.352v129.713c40.616 0 73.542-32.926 73.542-73.542v-46.283z" fill="#a45d4e"/><g><g><g><path d="m47.402 45.696v25.235c0 27.65 22.415 50.065 50.065 50.065h48.51l9.243-37.65-9.243-37.65z" fill="#774132"/></g></g></g><path d="m169.454 45.696h-15.654-7.823v75.3h73.542v-25.235c0-27.65-22.415-50.065-50.065-50.065z" fill="#61362b"/></g></g><g><path d="m366.023 239.064h110.023v227.24h-110.023z" fill="#524798"/><path d="m435.13 306.832c15.443 15.443 40.481 15.443 55.923 0l9.364-9.364c15.443-15.443 15.443-40.481 0-55.923-15.443-15.443-40.48-15.443-55.923 0l-9.364 9.364c-15.442 15.443-15.442 40.481 0 55.923z" fill="#a45d4e"/><g><path d="m380.549 111.304-88.068-11.84v66.057c0 40.616 32.926 73.542 73.542 73.542z" fill="#f6dccd"/><path d="m366.023 109.352v129.713c40.616 0 73.542-32.926 73.542-73.542v-46.283z" fill="#f1cbbc"/><g><g><g><path d="m267.448 45.696v25.235c0 27.65 22.415 50.065 50.065 50.065h48.51l9.243-37.65-9.243-37.65z" fill="#a45d4e"/></g></g></g><path d="m389.501 45.696h-15.654-7.823v75.3h73.542v-25.235c0-27.65-22.415-50.065-50.065-50.065z" fill="#8f5041"/></g></g><path d="m145.977 239.064h110.023v227.24h-110.023z" fill="#73cbb1"/></g></svg>