<svg id="Capa_1" enable-background="new 0 0 512 512" height="512" viewBox="0 0 512 512" width="512" xmlns="http://www.w3.org/2000/svg"><g><path d="m256.652 185.326h-128.334l17.358 111.18 122.087-43.861z" fill="#edb6b6"/><path d="m256.652 240.904-110.976 55.602 14.262 91.35 106.142-37.992z" fill="#e06379"/><path d="m256.652 339.4-96.714 48.456 14.262 91.351 93.563-31.734z" fill="#f5d844"/><g><path d="m367.581 185.326h-110.929v55.578z" fill="#e06379"/><path d="m174.2 479.207 5.119 32.793h84.33l-6.997-74.104z" fill="#ecbd2c"/><path d="m256.652 512h77.333l19.114-122.426-96.447 48.322z" fill="#e68f21"/><path d="m256.652 437.896 96.447-48.322 16.682-106.854-113.129 56.68z" fill="#ecbd2c"/><path d="m367.581 185.326-110.929 55.578v98.496l113.129-56.68 15.205-97.394z" fill="#c63c50"/></g><g><g><g><path d="m204.018 142.804h-30v-9.893c0-26.433-15.782-50.043-40.207-60.149l-8.514-3.522 11.469-27.721 8.515 3.522c35.682 14.765 58.737 49.256 58.737 87.87z" fill="#f9e997"/></g></g><g><g><path d="m339.287 142.804h-30v-9.893c0-38.614 23.056-73.105 58.736-87.87l8.516-3.522 11.469 27.721-8.515 3.522c-24.424 10.106-40.206 33.717-40.206 60.149z" fill="#ecbd2c"/></g></g><g><path d="m241.652 0h19.002v110.757h-19.002z" fill="#f5d844"/></g><g><path d="m256.652 0h15v110.757h-15z" fill="#ecbd2c"/></g><path d="m497.1 110.405h-20.449v-20.448h-30v20.448h-20.447v30h20.447v20.448h30v-20.448h20.449z" fill="#73cbb1"/><path d="m85.795 249.594h-20.447v-20.448h-30v20.448h-20.448v30h20.448v20.448h30v-20.448h20.447z" fill="#f5d844"/><g><path d="m433.704 10.885h30.035v30h-30.035z" fill="#c63c50"/></g><g><path d="m63.711 17.148h30.035v30h-30.035z" fill="#c3edb0"/></g><g><path d="m33.676 115.276h30.035v30h-30.035z" fill="#e06379"/></g><g><path d="m418.362 273.747h30.034v30h-30.034z" fill="#c3edb0"/></g></g><g><path d="m108.764 170.326h154.885v30h-154.885z" fill="#c63c50"/></g><g><path d="m256.652 170.326h147.889v30h-147.889z" fill="#a1003c"/></g></g></svg>