<svg id="Capa_1" enable-background="new 0 0 512 512" height="512" viewBox="0 0 512 512" width="512" xmlns="http://www.w3.org/2000/svg"><g><g><g><path d="m173.436 126.546c0 66.023 53.522 119.546 119.546 119.546l18.1-127.448-18.1-111.644c-66.023 0-119.546 53.522-119.546 119.546z" fill="#ecbd2c"/><path d="m292.982 7v239.091c66.023 0 119.546-53.522 119.546-119.546s-53.523-119.545-119.546-119.545z" fill="#e68f21"/><g><path d="m269.706 139.726h-30c0 29.376 23.9 53.276 53.276 53.276l9.431-13.322-9.431-16.678c-12.835 0-23.276-10.441-23.276-23.276z" fill="#f9e997"/><path d="m316.258 139.726c0 12.834-10.442 23.276-23.276 23.276v30c29.376 0 53.276-23.9 53.276-53.276z" fill="#f5d844"/></g><g><path d="m239.706 76.705h30v30h-30z" fill="#f9e997"/></g><g><path d="m316.258 76.705h30v30h-30z" fill="#f5d844"/></g></g></g><g><g><path d="m224.487 354.425h96.879c15.963 0 28.949-12.986 28.949-28.949v-42.355h-178.913l-36.084 24.616h-72.828v76.688l161.998 11.15v-41.15z" fill="#f6dccd"/><path d="m499.128 295.935-32.878-32.878-97.644 97.644c-10.759 14.391-27.929 23.724-47.239 23.724l90.879 11.15 61.103-11.15 26.094-26.655c16.865-17.213 16.724-44.795-.315-61.835z" fill="#f6dccd"/><path d="m224.487 384.425h-161.997v1.108 36.839 56.09h72.828l37.617 26.149h182.758l117.656-120.186h-151.982z" fill="#f1cbbc"/></g><path d="m0 283.121h94.988v221.879h-94.988z" fill="#73cbb1"/><path d="m0 384.425h94.988v120.575h-94.988z" fill="#539499"/></g></g></svg>