<svg id="Capa_1" enable-background="new 0 0 511.815 511.815" height="512" viewBox="0 0 511.815 511.815" width="512" xmlns="http://www.w3.org/2000/svg"><g><path d="m123.955 140.116c-48.927 0-88.732 39.805-88.732 88.732v142.762l59.063-49.126h81.659l7.158-182.368z" fill="#c3edb0"/><g><g><g><path d="m195.148 91.184c0 50.279 40.905 91.184 91.184 91.184h52.129l4.294-182.368h-56.424c-50.278 0-91.183 40.905-91.183 91.184z" fill="#eaf1ff"/><path d="m387.861 0h-49.4v182.368h79.069l59.063 49.126v-142.762c0-48.927-39.805-88.732-88.732-88.732z" fill="#d5e7ff"/></g><g><path d="m276.212 76.184h71.551v30h-71.551z" fill="#d5e7ff"/></g><g><path d="m338.461 76.184h57.068v30h-57.068z" fill="#acceff"/></g></g><g><path d="m225.484 140.116h-49.539v182.368h49.539c50.278 0 91.184-40.905 91.184-91.184-.001-50.279-40.906-91.184-91.184-91.184z" fill="#73cbb1"/><g><path d="m160.945 216.3h18.571v30h-18.571z" fill="#539499"/></g><g><path d="m175.945 216.3h15v30h-15z" fill="#386468"/></g><g><path d="m223.806 216.3h30v30h-30z" fill="#386468"/></g><g><path d="m98.083 216.3h30v30h-30z" fill="#539499"/></g></g><g><g><path d="m195.148 371.505c0 50.279 40.905 91.184 91.184 91.184h52.129l4.294-182.368h-56.424c-50.278 0-91.183 40.905-91.183 91.184z" fill="#f9e997"/><path d="m387.861 280.321h-49.4v182.368h79.069l59.063 49.126v-142.762c0-48.927-39.805-88.732-88.732-88.732z" fill="#f5d844"/></g><g><g><path d="m259.676 356.505h62.861v30h-62.861z" fill="#ecbd2c"/></g><g><path d="m354.384 356.505h62.861v30h-62.861z" fill="#e68f21"/></g></g></g></g></g></svg>