<svg id="Capa_1" enable-background="new 0 0 512 512" height="512" viewBox="0 0 512 512" width="512" xmlns="http://www.w3.org/2000/svg"><g><g fill="#f89580"><path d="m300.59 169.821c-9.668-59.766-27.261-135.297-42.144-162.104-3.047-5.508-9.272-8.525-15.498-7.529-6.24 1.011-11.177 5.815-12.349 12.026-5.698 30.161 1.113 107.538 10.796 167.406 0 .029.015.059.015.073l13.213 79.277 57.554-19.57z"/><path d="m401.4 12.229c-1.172-6.211-6.108-11.016-12.349-12.026-6.167-1.011-12.422 2.007-15.498 7.529-14.868 26.763-32.461 102.323-42.144 162.104-.469 2.856-14.048 84.346-20.2 121.201l59.985 4.995 19.395-116.338c9.683-59.897 16.51-137.303 10.811-167.465z"/><path d="m256 243.316-30-2.316h-90l-30 15v105c0 82.842 67.158 151 150 151l30-35.219 81.795-224.837z"/></g><path d="m367.795 251.944-111.795-8.628v268.684l30-35.219z" fill="#ef7f6c"/><path d="m376 211c-38.725.011-88.918 3.477-120 10.073-8.928 1.895-16.523 4.01-21.519 6.422-5.185 2.504-8.481 7.748-8.481 13.505s3.296 11.001 8.481 13.506c5.03 2.43 12.545 4.572 21.519 6.469 28.951 6.116 74.392 9.459 111.491 9.849-59.89-.485-111.491 34.689-111.491 105.176v136c82.842 0 150-68.158 150-151v-120c.027-18.082-14.782-30-30-30z" fill="#ffbfab"/><path d="m136 211c-16.569 0-30 13.431-30 30v15c0 80.449 15.073 116.47 30 116.47s30-36.021 30-116.47v-15c0-16.569-13.431-30-30-30z" fill="#ffe1ba"/><path d="m196 181c-16.569 0-30 13.431-30 30v15c0 80.449 15.073 116.47 30 116.47s30-36.021 30-116.47v-15c0-16.569-13.431-30-30-30z" fill="#ffe1ba"/></g></svg>