<svg id="Capa_1" enable-background="new 0 0 512 512" height="512" viewBox="0 0 512 512" width="512" xmlns="http://www.w3.org/2000/svg"><g><path d="m338.665 60-37.665-15h-45-36.563l-46.102 15c-12.407 75.218-51.832 315.29-51.828 316l51.828 15h82.665 89.063l45.43-15c.003-.71-39.421-240.782-51.828-316z" fill="#ff5f96"/><path d="m390.493 376c.004-.71-39.421-240.782-51.828-316l-37.665-15h-45v346h89.063z" fill="#e30a6c"/><path d="m334.97 37.603c-3.618-21.783-22.281-37.603-44.385-37.603h-34.585-34.585c-22.104 0-40.767 15.82-44.385 37.603 0 0-1.379 8.353-3.695 22.397h82.665 82.665c-2.316-14.044-3.695-22.397-3.695-22.397z" fill="#f2f2fc"/><path d="m334.97 37.603c-3.618-21.783-22.281-37.603-44.385-37.603h-34.585v60h82.665c-2.316-14.044-3.695-22.397-3.695-22.397z" fill="#c7c1dc"/><g fill="#ff8fb8"><circle cx="256" cy="166" r="45"/><path d="m311.605 320.395c-6.152-6.153-10.605-10.606-10.605-34.395 0-24.814-20.186-45-45-45s-45 20.186-45 45c0 23.789-4.453 28.242-10.605 34.395-10.606 10.605-19.395 22.119-19.395 55.605 0 8.291 6.709 15 15 15h60 60c8.291 0 15-6.709 15-15 0-33.486-8.789-45-19.395-55.605z"/></g><path d="m331 376c0-33.486-8.789-45-19.395-55.605-6.152-6.153-10.605-10.606-10.605-34.395 0-24.814-20.186-45-45-45v150h60c8.291 0 15-6.709 15-15z" fill="#ff5f96"/><path d="m301 166c0-24.814-20.186-45-45-45v90c24.814 0 45-20.186 45-45z" fill="#ff5f96"/><path d="m331.762 448.48c-4.248-2.827-6.68-7.383-6.68-12.48s2.432-9.653 6.68-12.48l52.559-35.039c4.189-2.802 6.145-7.553 6.172-12.48h-134.493-134.493c.027 4.927 1.983 9.679 6.172 12.48l52.559 35.039c4.248 2.827 6.68 7.383 6.68 12.48s-2.432 9.653-6.68 12.48l-52.558 36.04c-5.493 3.662-7.954 10.503-6.035 16.831s7.749 10.649 14.355 10.649h120 120c6.606 0 12.437-4.321 14.355-10.649s-.542-13.169-6.035-16.831z" fill="#f2f2fc"/><path d="m390.355 501.351c1.919-6.328-.542-13.169-6.035-16.831l-52.559-36.039c-4.248-2.827-6.68-7.383-6.68-12.48s2.432-9.653 6.68-12.48l52.559-35.039c4.189-2.802 6.145-7.553 6.172-12.48h-134.492v136h120c6.606-.002 12.437-4.323 14.355-10.651z" fill="#c7c1dc"/></g></svg>