<svg id="Capa_1" enable-background="new 0 0 512.003 512.003" height="512" viewBox="0 0 512.003 512.003" width="512" xmlns="http://www.w3.org/2000/svg"><g><path d="m306.101 316.004c0 8.399-6.599 15-15 15h-70.199c-8.401 0-15-6.601-15-15 0-8.401 6.599-15 15-15h70.199c8.401 0 15 6.599 15 15z" fill="#873a62"/><path d="m306.101 316.004c0 8.399-6.599 15-15 15h-35.099v-30h35.099c8.401 0 15 6.599 15 15z" fill="#6d1d40"/><circle cx="376.001" cy="346.004" fill="#873a62" r="90"/><path d="m466.001 346.004c0 49.799-40.201 90-90 90v-180c49.8 0 90 40.199 90 90z" fill="#6d1d40"/><circle cx="136.001" cy="346.004" fill="#873a62" r="90"/><path d="m226.001 346.004c0 49.799-40.201 90-90 90v-180c49.8 0 90 40.199 90 90z" fill="#6d1d40"/><path d="m51.128 331.004h-36.127c-4.307 0-8.394-1.846-11.25-5.068-2.842-3.223-4.175-7.529-3.633-11.792l31-240c.601-4.834 3.516-9.067 7.808-11.367 4.292-2.314 9.434-2.358 13.784-.19l60 30c7.412 3.706 10.415 12.715 6.709 20.127-3.721 7.412-12.7 10.4-20.127 6.709l-41.03-20.522-26.268 202.103h19.135c8.291 0 15 6.709 15 15s-6.71 15-15.001 15z" fill="#873a62"/><path d="m497.001 331.004h-36.127c-8.291 0-15-6.709-15-15s6.709-15 15-15h19.135l-26.268-202.105-41.03 20.522c-7.383 3.691-16.406.703-20.127-6.709-3.706-7.412-.703-16.421 6.709-20.127l60-30c4.351-2.153 9.492-2.109 13.784.19 4.292 2.3 7.207 6.533 7.808 11.367l31 240c.542 4.263-.791 8.569-3.633 11.792-2.857 3.224-6.944 5.07-11.251 5.07z" fill="#6d1d40"/><g><path d="m174.001 389.024 14.5-14.079-14.5-21.973-23-14.996v-65.455c8.06 1.642 16.099 4.677 23 8.685l14.5-15.674-14.5-17.3c-11.684-4.499-24.75-7.229-38-7.229s-25.816 2.73-37.5 7.229l-15 18.358 15.5 14.615c6.901-4.008 13.94-7.042 22-8.685v65.455l-22 14.996-15.5 25.148 15.5 10.904 22-14.996v45.458c-8.115-1.655-15.068-4.878-22-8.93l-15.5 10.27 15.5 23.181c11.656 4.481 23.783 6.996 37 6.996s26.344-2.512 38-6.993l14.5-20.713-14.5-12.742c-6.932 4.052-14.885 7.275-23 8.93v-45.46z" fill="#fed843"/><path d="m188.501 423.298-14.5-12.742c-6.932 4.052-14.885 7.275-23 8.93v-45.46l23 14.998 14.5-14.079-14.5-21.973-23-14.996v-65.455c8.06 1.642 16.099 4.677 23 8.685l14.5-15.674-14.5-17.3c-11.684-4.499-24.75-7.229-38-7.229v210c13.217 0 26.344-2.512 38-6.993z" fill="#fabe2c"/><path d="m83.229 399.205 15.773-10.181v-36.052l-32.39 21.255c-3.563-8.727-5.61-18.232-5.61-28.224 0-27.678 15.63-51.804 38-64.797l-.5-32.974c-39.368 15.161-67.5 53.13-67.5 97.771 0 44.538 28.385 82.773 68 98.004v-33.452c-5.512-3.222-11.265-6.878-15.773-11.35z" fill="#c3ea21"/><path d="m174.001 248.233v32.974c22.37 12.993 37 37.119 37 64.797 0 9.992-2.047 19.497-5.61 28.224l-31.39-21.255v36.052l14.773 10.181c-4.508 4.471-9.261 8.128-14.773 11.351v33.455c41.498-15.947 67-55.611 67-98.007 0-44.642-27.632-82.611-67-97.772z" fill="#e681fa"/></g><g><path d="m414.001 389.024 14.5-14.079-14.5-21.973-23-14.996v-65.455c8.06 1.642 16.099 4.677 23 8.685l14.5-15.674-14.5-17.3c-11.684-4.499-24.75-7.229-38-7.229s-25.316 2.73-37 7.229l-15.5 18.358 15.5 14.615c6.901-4.008 13.94-7.042 22-8.685v65.455l-22 14.996-15.5 25.148 15.5 10.904 22-14.996v45.458c-8.115-1.655-15.068-4.878-22-8.93l-15.5 10.27 15.5 23.181c11.656 4.481 23.783 6.996 37 6.996s26.344-2.512 38-6.993l14.5-20.713-14.5-12.742c-6.932 4.052-14.885 7.275-23 8.93v-45.46z" fill="#fed843"/><path d="m428.501 423.298-14.5-12.742c-6.932 4.052-14.885 7.275-23 8.93v-45.46l23 14.998 14.5-14.079-14.5-21.973-23-14.996v-65.455c8.06 1.642 16.099 4.677 23 8.685l14.5-15.674-14.5-17.3c-11.684-4.499-24.75-7.229-38-7.229v210c13.217 0 26.344-2.512 38-6.993z" fill="#fabe2c"/><path d="m323.229 399.205 15.773-10.181v-36.052l-32.39 21.255c-3.563-8.727-5.61-18.232-5.61-28.224 0-27.678 15.63-51.804 38-64.797v-32.974c-39.368 15.161-68 53.13-68 97.771 0 44.538 28.385 82.773 68 98.004v-33.452c-5.512-3.222-11.265-6.878-15.773-11.35z" fill="#c3ea21"/><path d="m414.001 248.233v32.974c22.37 12.993 37 37.119 37 64.797 0 9.992-2.047 19.497-5.61 28.224l-31.39-21.255v36.052l14.773 10.181c-4.508 4.471-9.261 8.128-14.773 11.351v33.455c41.498-15.947 67-55.611 67-98.007 0-44.642-27.632-82.611-67-97.772z" fill="#e681fa"/></g></g></svg>