<svg id="Capa_1" enable-background="new 0 0 512 512" height="512" viewBox="0 0 512 512" width="512" xmlns="http://www.w3.org/2000/svg"><g><g><path d="m96.21 415.79c-5.863-5.863-15.351-5.863-21.213 0l-70.6 70.6c-5.863 5.863-5.863 15.351 0 21.213 5.863 5.863 15.351 5.863 21.213 0l70.6-70.6c5.863-5.863 5.863-15.351 0-21.213z" fill="#873a62"/><path d="m25.61 507.603 70.6-70.6c5.863-5.863 5.863-15.351 0-21.213l-91.813 91.813c5.863 5.863 15.351 5.863 21.213 0z" fill="#6d1d40"/></g><path d="m301.903 210.097-51.935-51.935-197.5 237.834c-4.879 5.956-4.444 14.657 1.005 20.105l21.213 21.213 21.214 21.213c5.448 5.448 14.149 5.883 20.105 1.005l237.834-197.5z" fill="#ff8fb8"/><path d="m116.005 459.531 237.834-197.5-51.935-51.935-227.218 227.218 21.214 21.213c5.448 5.448 14.149 5.883 20.105 1.004z" fill="#ff5f96"/><circle cx="377.061" cy="134.939" fill="#f2f2fc" r="135"/><path d="m472.52 230.398c52.639-52.639 52.639-138.279 0-190.919l-190.918 190.919c52.639 52.64 138.279 52.64 190.918 0z" fill="#e2d9fb"/><path d="m493.734 230.398-106.066-106.066-106.066-106.066c-5.863-5.863-15.351-5.863-21.213 0-5.863 5.863-5.863 15.351 0 21.213l106.066 106.066 106.065 106.067c5.863 5.863 15.351 5.863 21.213 0 5.863-5.863 5.863-15.351.001-21.214z" fill="#e2d9fb"/><path d="m493.734 251.612c5.863-5.863 5.863-15.351 0-21.213l-106.066-106.067-21.213 21.213 106.065 106.067c5.863 5.862 15.351 5.862 21.214 0z" fill="#c7c1dc"/><path d="m260.388 251.612c-5.863-5.863-15.351-5.863-21.213 0l-21.213 21.213c-5.863 5.863-5.863 15.351 0 21.213s15.351 5.863 21.213 0l21.213-21.213c5.863-5.863 5.863-15.351 0-21.213z" fill="#873a62"/><path d="m239.175 294.038 21.213-21.213c5.863-5.863 5.863-15.351 0-21.213l-42.426 42.426c5.863 5.863 15.351 5.863 21.213 0z" fill="#6d1d40"/></g></svg>