<svg id="Capa_1" enable-background="new 0 0 512 512" height="512" viewBox="0 0 512 512" width="512" xmlns="http://www.w3.org/2000/svg"><g><g fill="#e30a6c"><path d="m497 211c-.015 0-.044 0-.059 0-20.859-.088-42.543-.425-62.89-1.245-8.276-.322-14.722-7.31-14.385-15.586.322-8.276 7.207-15.381 15.586-14.385 19.995.791 41.327 1.128 61.806 1.216 8.291.029 14.971 6.782 14.941 15.059-.028 8.261-6.737 14.941-14.999 14.941z"/><path d="m497 151c-.015 0-.044 0-.073 0-20.127-.088-40.961-.41-60.253-1.187-8.276-.322-14.722-7.31-14.385-15.586.322-8.291 6.929-15.205 15.585-14.385 18.941.747 39.423 1.069 59.199 1.157 8.276.029 14.956 6.782 14.927 15.073-.044 8.248-6.753 14.928-15 14.928z"/><path d="m497 451c-.015 0-.044 0-.059 0-23.745-.088-48.783-.483-73.319-1.479-8.276-.337-14.722-7.31-14.385-15.586.322-8.276 7.09-14.912 15.586-14.385 24.185.967 48.842 1.362 72.235 1.45 8.276.029 14.971 6.768 14.941 15.059-.028 8.261-6.737 14.941-14.999 14.941z"/><path d="m497 271c-.015 0-.044 0-.059 0-21.592-.088-44.096-.439-65.497-1.304-8.276-.322-14.722-7.31-14.385-15.586.322-8.291 6.885-14.971 15.586-14.385 21.05.835 43.202 1.187 64.413 1.274 8.291.029 14.971 6.782 14.941 15.059-.028 8.262-6.737 14.942-14.999 14.942z"/><path d="m497 391c-.015 0-.044 0-.059 0-23.027-.088-47.216-.469-70.712-1.421-8.276-.337-14.722-7.31-14.385-15.586s7.412-15.322 15.586-14.385c23.145.923 46.952 1.304 69.628 1.392 8.276.029 14.971 6.768 14.941 15.059-.028 8.261-6.737 14.941-14.999 14.941z"/><path d="m497 331c-.015 0-.044 0-.059 0-22.295-.088-45.663-.454-68.104-1.362-8.276-.337-14.722-7.31-14.385-15.586.322-8.291 7.148-15.146 15.586-14.385 22.09.879 45.077 1.245 67.021 1.333 8.291.029 14.971 6.782 14.941 15.059-.029 8.261-6.738 14.941-15 14.941z"/><path d="m437.86 119.843c-49.817-1.939-91.936-8.801-146.309-17.036-54.198-7.837-117.63-11.807-186.551-11.807l-.044 330c56.968.146 99.818 2.725 141.405 8.701 46.406 7.148 116.528 17.974 177.407 19.834h.469c7.998 0 14.619-6.299 14.971-14.341l13.052-299.707c.366-8.334-6.138-15.34-14.4-15.644z"/></g><path d="m380.57 240.561c-2.49-3.105-6.108-5.083-10.078-5.508-12.744-1.377-24.507-7.954-32.271-18.062-7.397-9.624-10.488-21.226-8.716-32.651 1.26-8.174-4.336-15.835-12.51-17.124-41.924-6.563-75.454-10.591-105.454-12.671-39.492-2.886-78.109-3.413-106.469-3.545l-.146 210c37.046.19 65.863 1.113 91.234 2.974 31.685 2.256 61.421 6.519 88.843 10.811 4.052.612 8.024-.41 11.162-2.71 3.223-2.358 5.376-5.889 5.977-9.829 3.765-24.287 29.487-40.884 58.682-37.705 3.955.483 7.939-.718 11.03-3.223 3.105-2.49 5.083-6.123 5.508-10.078l6.445-59.663c.425-3.956-.732-7.926-3.237-11.016z" fill="#fabe2c"/><path d="m120 106v300c0 25.199-26.4 45-60 45s-60-19.801-60-45v-300z" fill="#ff8fb8"/><path d="m120 106v300c0 25.199-26.4 45-60 45v-345z" fill="#ff5f96"/><path d="m60 61c-33.6 0-60 19.799-60 45 0 25.199 26.4 45 60 45s60-19.801 60-45c0-25.201-26.4-45-60-45z" fill="#ff5f96"/><path d="m120 106c0 25.199-26.4 45-60 45v-90c33.6 0 60 19.799 60 45z" fill="#e30a6c"/></g></svg>