<svg id="Capa_1" enable-background="new 0 0 511.908 511.908" height="512" viewBox="0 0 511.908 511.908" width="512" xmlns="http://www.w3.org/2000/svg"><g><path d="m384.075 413.81c4.475-1.409 8.038-4.827 9.612-9.239 8.794-24.538-45.213-79.021-45.772-79.581l.01.01c.539.539 54.442 53.986 78.576 46.383 4.475-1.409 8.038-4.827 9.612-9.239 5.192-14.486-11.487-39.353-26.153-57.457l1.594-43.337-45.534-60.532-84.853-84.853c-31.892-31.892-77.872-45.658-121.81-36.957l-48.895-48.895c-5.863-5.863-15.351-5.863-21.213 0l-60.531 60.531-24.321 24.321c-5.863 5.863-5.863 15.351 0 21.213l48.895 48.895c-8.701 43.939 5.065 89.918 36.957 121.81l3.107 18.106 127.29 127.29c.539.539 54.442 53.986 78.576 46.383 4.475-1.409 8.038-4.827 9.612-9.239 8.794-24.538-45.213-79.021-45.772-79.581l.01.01c.539.539 54.442 53.986 78.576 46.383 4.475-1.409 8.038-4.827 9.612-9.239 8.794-24.538-45.213-79.021-45.772-79.581l.01.01c.54.54 54.443 53.987 78.577 46.385z" fill="#c86e59"/><path d="m90.25 306.884 3.107 18.106 127.29 127.29c.539.539 54.442 53.986 78.576 46.383 4.475-1.409 8.038-4.827 9.612-9.239 8.794-24.538-45.213-79.021-45.772-79.581l.01.01c.539.539 54.442 53.986 78.576 46.383 4.475-1.409 8.038-4.827 9.612-9.239 3.434-9.583-2.709-23.732-11.506-37.453l-34.266-42.128-276.771-276.772-24.321 24.321c-5.863 5.863-5.863 15.351 0 21.213l48.896 48.895c-8.701 43.939 5.064 89.918 36.957 121.811z" fill="#a34f3e"/><path d="m205.048 361.792c-16.349-16.349-46.006 3.58-61.765 19.338l-25.066-17.36 17.567 24.859c-11.716 11.716-11.716 30.71 0 42.426s30.71 11.716 42.426 0l7.51-7.51c15.758-15.757 35.748-45.333 19.328-61.753z" fill="#ffe1ba"/><path d="m178.21 431.056 7.51-7.51c15.758-15.758 35.748-45.334 19.328-61.754l-69.264 69.264c11.716 11.716 30.71 11.716 42.426 0z" fill="#ffbfab"/><path d="m162.621 319.365c-16.349-16.349-46.006 3.58-61.765 19.338l-25.066-17.36 17.567 24.859c-11.716 11.716-11.716 30.71 0 42.426s30.71 11.716 42.426 0l7.51-7.51c15.759-15.757 35.748-45.333 19.328-61.753z" fill="#ffe1ba"/><path d="m135.784 388.629 7.51-7.51c15.758-15.758 35.748-45.334 19.328-61.754l-69.264 69.264c11.715 11.716 30.709 11.716 42.426 0z" fill="#ffbfab"/><path d="m120.195 276.939c-16.349-16.349-46.006 3.58-61.765 19.338l-7.499 7.499c-11.716 11.716-11.716 30.71 0 42.426s30.71 11.716 42.426 0l7.51-7.51c15.758-15.757 35.748-45.333 19.328-61.753z" fill="#ffe1ba"/><path d="m93.357 346.203 7.51-7.51c15.758-15.758 35.748-45.334 19.328-61.754l-69.264 69.264c11.716 11.716 30.71 11.716 42.426 0z" fill="#ffbfab"/><path d="m236.867 414.825c-15.498-15.498-42.815 1.585-59.055 16.828-11.193 11.752-11.143 30.289.397 41.83 11.541 11.541 30.086 11.589 41.836.391 15.252-16.231 32.389-43.483 16.822-59.049z" fill="#ffe1ba"/><path d="m220.046 473.873c15.251-16.23 32.388-43.482 16.821-59.048l-58.657 58.657c11.541 11.541 30.086 11.589 41.836.391z" fill="#ffbfab"/><path d="m445.405 185.074 62.109-62.109c5.857-5.857 5.857-15.356 0-21.213l-42.426-42.426-42.426-42.426c-5.857-5.857-15.356-5.857-21.213 0l-62.109 62.109c-67.345-13.372-110.875 27.244-114.257 28.925-22.408 21.259-41.259 46.797-54.931 74.531-4.319 8.667-6.642 15.027.218 23.316 4.06 4.06 10.089 5.448 15.516 3.563 15.112-5.246 40.576-23.908 65.812-45.599 5.993-5.152 14.906-4.919 20.495.669l43.904 43.904 74.246 74.246c.229.229 9.444 9.563 19.619 22.123 30.321-31.733 44.113-75.993 35.443-119.613z" fill="#ffe1ba"/><path d="m409.961 304.687c30.322-31.733 44.113-75.993 35.444-119.613l62.109-62.109c5.857-5.857 5.857-15.356 0-21.213l-42.426-42.426-148.992 148.991 74.246 74.246c.229.229 9.444 9.563 19.619 22.124z" fill="#ffbfab"/></g></svg>