<svg id="Capa_1" enable-background="new 0 0 512 512" height="512" viewBox="0 0 512 512" width="512" xmlns="http://www.w3.org/2000/svg"><g><path d="m196 301h-60c-8.401 0-15 6.599-15 15v181c0 8.399 6.599 15 15 15h60c8.401 0 15-6.601 15-15v-181c0-8.401-6.599-15-15-15z" fill="#f2f2fc"/><path d="m196 301h-29.923v210.826l31.97.024c7.398-.974 12.953-7.148 12.953-14.85v-181c0-8.401-6.599-15-15-15z" fill="#e2d9fb"/><path d="m316 121h-301c-8.401 0-15 6.599-15 15v240c0 8.399 6.599 15 15 15h301c8.401 0 15-6.601 15-15v-240c0-8.401-6.599-15-15-15z" fill="#ff5f96"/><path d="m316 121h-149.923v270h149.923c8.401 0 15-6.601 15-15v-240c0-8.401-6.599-15-15-15z" fill="#e30a6c"/><path d="m192.997 182.04c-11.396 2.329-20.288 8.291-26.924 15.264-.022-.024-.051-.042-.073-.066-8.566-9.018-20.872-16.238-37.5-16.238-29.443 0-52.5 23.086-52.5 52.573 0 31.172 25.723 51.211 61.304 78.94 6.079 4.731 12.539 9.771 19.321 15.205 2.74 2.183 6.065 3.281 9.376 3.281s6.636-1.099 9.374-3.296c6.754-5.405 13.184-10.4 19.219-15.103l10.693-8.364z" fill="#ffe1ba"/><path d="m166.077 197.3v133.697c3.285-.017 6.58-1.113 9.298-3.293 6.754-5.405 13.184-10.4 19.219-15.103l10.693-8.364-12.29-122.197c-11.394 2.329-20.285 8.289-26.92 15.26z" fill="#ffbfab"/><path d="m376 301h-60c-8.401 0-15 6.599-15 15v181c0 8.399 6.599 15 15 15h60c8.401 0 15-6.601 15-15v-181c0-8.401-6.599-15-15-15z" fill="#f2f2fc"/><path d="m391 316v181c0 8.399-6.599 15-15 15h-30v-211h30c8.401 0 15 6.599 15 15z" fill="#e2d9fb"/><path d="m497 0h-301c-8.401 0-15 6.599-15 15v301c0 8.399 6.599 15 15 15h301c8.401 0 15-6.601 15-15v-301c0-8.401-6.599-15-15-15z" fill="#873a62"/><path d="m512 15v301c0 8.399-6.599 15-15 15h-151v-331h151c8.401 0 15 6.599 15 15z" fill="#6d1d40"/><g><path d="m384 209.021 14.5-14.079-14.5-21.973-23-14.996v-65.455c8.06 1.642 16.099 4.677 23 8.685l14.5-15.674-14.5-17.3c-11.684-4.499-24.75-7.229-38-7.229s-25.316 2.73-37 7.229l-15.5 18.358 15.5 14.615c6.901-4.008 13.94-7.042 22-8.685v65.455l-22 14.996-15.5 25.148 15.5 10.904 22-14.996v45.458c-8.115-1.655-15.068-4.878-22-8.93l-15.5 10.27 15.5 23.181c11.656 4.481 23.783 6.996 37 6.996s26.344-2.512 38-6.993l14.5-20.713-14.5-12.741c-6.932 4.052-14.885 7.275-23 8.93v-45.46z" fill="#fed843"/><path d="m398.5 243.294-14.5-12.742c-6.932 4.052-14.885 7.275-23 8.93v-45.46l23 14.998 14.5-14.079-14.5-21.972-23-14.996v-65.455c8.06 1.642 16.099 4.677 23 8.685l14.5-15.674-14.5-17.3c-11.684-4.499-24.75-7.229-38-7.229v210c13.217 0 26.344-2.512 38-6.993z" fill="#fabe2c"/><path d="m293.227 219.201 15.773-10.18v-36.052l-32.39 21.255c-3.563-8.727-5.61-18.232-5.61-28.224 0-27.678 15.63-51.804 38-64.797v-32.974c-39.368 15.161-68 53.13-68 97.771 0 44.538 28.385 82.773 68 98.004v-33.452c-5.511-3.223-11.265-6.879-15.773-11.351z" fill="#c3ea21"/><path d="m384 68.229v32.974c22.37 12.993 37 37.119 37 64.797 0 9.992-2.047 19.497-5.61 28.224l-31.39-21.255v36.052l14.773 10.181c-4.508 4.471-9.261 8.128-14.773 11.351v33.455c41.498-15.947 67-55.611 67-98.007 0-44.642-27.632-82.611-67-97.772z" fill="#e681fa"/></g></g></svg>