<svg id="Layer_1" enable-background="new 0 0 512.002 512.002" height="512" viewBox="0 0 512.002 512.002" width="512" xmlns="http://www.w3.org/2000/svg"><g><g><g clip-rule="evenodd" fill-rule="evenodd"><path d="m194.251 64.621c-4.775-8.543-11.851-15.945-20.954-21.177-26.808-15.405-61.032-6.16-76.438 20.648-14.709 25.477-29.424 50.95-44.143 76.421 6.165 5.878 10.653 13.848 21.53 13.848 17.229 0 18.426-20 35.654-20s18.426 20 35.655 20c17.228 0 18.426-20 35.654-20 17.229 0 18.426 20 35.654 20 10.753 0 15.261-7.79 21.319-13.646z" fill="#fff"/><path d="m181.209 134.36c-17.229 0-18.426 20-35.654 20-17.229 0-18.426-20-35.655-20s-18.426 20-35.654 20c-10.877 0-15.365-7.97-21.53-13.848-14.236 24.638-28.476 49.274-42.716 73.91l.001 111.569c9.081-5 18.161-10.001 35.143-10.001 33.963 0 36.323 20 70.286 20 33.962 0 36.323-20 70.285-20 30.725 0 35.586 16.368 61.379 19.49 20.402-35.338 36.318-62.872 51.788-89.63l-60.7-105.136c-6.058 5.857-10.566 13.646-21.319 13.646-17.228 0-18.425-20-35.654-20z" fill="#e8d0c1"/><path d="m360.907 138.514c-14.926 25.852-27.45 47.528-39.156 67.779 1.932.729 4.105 1.158 6.621 1.158 17.229 0 18.426-20 35.655-20s18.426 20 35.654 20 18.426-20 35.654-20 18.426 20 35.654 20c2.599 0 4.832-.458 6.812-1.231l-38.845-67.282c-3.827-6.847-9.498-12.779-16.793-16.971-21.482-12.346-48.91-4.937-61.256 16.547z" fill="#fff"/><path d="m364.027 187.45c-17.229 0-18.426 20-35.655 20-2.517 0-4.689-.429-6.621-1.158-7.832 13.549-15.297 26.46-22.869 39.557-15.47 26.758-31.386 54.292-51.788 89.63 2.718.329 5.669.511 8.907.511 33.963 0 36.323-20 70.286-20s36.323 20 70.286 20c33.962 0 36.323-20 70.286-20 16.981 0 26.062 5 35.142 10l.001-77.855-24.2-41.916c-1.98.773-4.212 1.231-6.812 1.231-17.228 0-18.426-20-35.654-20-17.229 0-18.426 20-35.654 20-17.229 0-18.426-20-35.655-20z" fill="#f4e9e2"/><path d="m502.001 405.843v-79.853c-9.081-5-18.161-10-35.142-10-33.963 0-36.323 20-70.286 20s-36.323-20-70.286-20-36.323 20-70.286 20c-3.238 0-6.189-.182-8.907-.511-25.794-3.121-30.654-19.489-61.379-19.489-33.962 0-36.323 20-70.285 20-33.963 0-36.323-20-70.286-20-16.982 0-26.062 5-35.143 10.001v80.412l2.46-.413c8.99-5 17.98-10 34.792-10 33.623 0 35.959 20 69.583 20 33.623 0 35.96-20 69.582-20 33.623 0 35.96 20 69.583 20s35.96-20 69.583-20 35.96 20 69.583 20 35.96-20 69.583-20c16.811 0 25.801 5 34.791 10z" fill="#ccf5fc"/><path d="m499.541 405.99c-8.99-5-17.98-10-34.791-10-33.623 0-35.96 20-69.583 20s-35.96-20-69.583-20-35.96 20-69.583 20-35.96-20-69.583-20-35.96 20-69.582 20c-33.623 0-35.959-20-69.583-20-16.812 0-25.802 5-34.792 10l-2.46.413v49.587c0 11 9 20 20 20h452c11 0 20-9 20-20v-50.148z" fill="#99ebfa"/></g><g><path d="m95.371 274.768h-25.2c-5.522 0-10-4.477-10-10s4.478-10 10-10h25.2c5.522 0 10 4.477 10 10s-4.477 10-10 10z" fill="#ddb9a3"/></g><g><path d="m169.171 206.369h-25.2c-5.522 0-10-4.477-10-10s4.478-10 10-10h25.2c5.522 0 10 4.477 10 10s-4.478 10-10 10z" fill="#ddb9a3"/></g><g><path d="m443.971 285.569h-25.2c-5.522 0-10-4.477-10-10s4.478-10 10-10h25.2c5.522 0 10 4.477 10 10s-4.478 10-10 10z" fill="#e8d0c1"/></g><g><path d="m375.571 253.768h-25.2c-5.522 0-10-4.477-10-10s4.478-10 10-10h25.2c5.522 0 10 4.477 10 10s-4.477 10-10 10z" fill="#e8d0c1"/></g><g><path d="m233.371 260.369h-25.2c-5.522 0-10-4.477-10-10s4.478-10 10-10h25.2c5.522 0 10 4.477 10 10s-4.477 10-10 10z" fill="#ddb9a3"/></g></g><path d="m510.662 243.136-63.012-109.141c-4.826-8.607-11.915-15.763-20.504-20.699-12.705-7.301-27.492-9.217-41.646-5.396-14.148 3.822-25.962 12.925-33.254 25.614-21.259 36.822-37.466 64.856-53.359 92.346l-95.945-166.185c-5.803-10.354-14.329-18.963-24.663-24.901-31.549-18.13-71.963-7.211-90.08 24.318-27.923 48.364-55.869 96.714-83.815 145.064l-3.042 5.261c-.879 1.522-1.342 3.248-1.342 5.005l.001 241.569c0 16.542 13.458 30 30 30h452c16.542 0 30-13.458 30-30l.001-207.855c0-1.756-.462-3.48-1.34-5zm-490.662-26.032 1.699-2.939c27.948-48.353 55.896-96.705 83.831-145.09 12.634-21.985 40.798-29.594 62.784-16.959 7.219 4.148 13.169 10.16 17.208 17.385.022.041.045.081.068.121l101.742 176.225c-13.564 23.461-27.729 47.968-45.37 78.52-6.25-1.612-11.047-4.253-16.281-7.135-9.569-5.269-20.414-11.24-39.967-11.24-19.552 0-30.397 5.972-39.966 11.24-8.536 4.701-15.909 8.76-30.319 8.76s-21.782-4.06-30.319-8.76c-9.568-5.269-20.413-11.24-39.966-11.24-10.409 0-18.342 1.672-25.145 4.159v-93.047zm472.001 238.887c0 5.514-4.486 10-10 10h-452c-5.514 0-10-4.486-10-10v-124.017c7.055-3.595 13.898-5.984 25.144-5.984 14.41 0 21.782 4.06 30.319 8.76 9.568 5.269 20.413 11.24 39.966 11.24s30.398-5.972 39.967-11.24c8.536-4.7 15.908-8.76 30.318-8.76s21.783 4.06 30.319 8.76c9.569 5.269 20.414 11.24 39.967 11.24s30.397-5.972 39.967-11.24c8.536-4.7 15.909-8.76 30.319-8.76s21.782 4.06 30.319 8.76c9.568 5.269 20.413 11.24 39.966 11.24s30.397-5.972 39.967-11.24c8.536-4.7 15.909-8.76 30.319-8.76 11.679 0 18.73 2.668 25.144 5.966zm.001-145.873c-6.542-2.373-14.582-4.128-25.144-4.128-19.553 0-30.397 5.972-39.967 11.24-8.536 4.7-15.909 8.76-30.319 8.76s-21.782-4.06-30.319-8.76c-9.568-5.269-20.413-11.24-39.966-11.24s-30.397 5.972-39.967 11.24c-6.694 3.686-12.674 6.978-21.893 8.227 18.833-32.611 33.74-58.395 48.646-84.176 16.918-29.261 33.836-58.522 56.505-97.786 4.64-8.075 12.146-13.859 21.139-16.288 8.991-2.429 18.39-1.212 26.465 3.429 5.474 3.145 9.984 7.703 13.047 13.18.022.04.045.081.068.121l61.705 106.877z" fill="#b6bccf"/></g></svg>