<svg id="Layer_1" enable-background="new 0 0 512.001 512.001" height="512" viewBox="0 0 512.001 512.001" width="512" xmlns="http://www.w3.org/2000/svg"><g><g clip-rule="evenodd" fill-rule="evenodd"><path d="m149.876 161.496c11.58-20.097 12.426-45.65-.005-67.181s-34.983-33.575-58.177-33.594c-11.58 20.097-12.426 45.65.005 67.181 12.43 21.531 34.982 33.574 58.177 33.594z" fill="#e0ef9b"/><path d="m360.924 96.103c-12.431 21.531-11.585 47.084-.005 67.181 23.194-.02 45.746-12.063 58.177-33.595 12.431-21.531 11.585-47.084.005-67.181-23.195.021-45.747 12.064-58.177 33.595z" fill="#e0ef9b"/><path d="m256.001 451.281c54.779 0 99.27-44.046 99.991-98.655.006-.448.009-.897.009-1.347 0-38.668-21.947-72.21-54.063-88.849-13.755-7.126-29.375-11.152-45.936-11.152-16.514 0-32.093 4.003-45.82 11.092-32.18 16.618-54.18 50.195-54.18 88.91 0 .385.002.77.006 1.155.619 54.696 45.15 98.846 99.993 98.846z" fill="#d1aee5"/><path d="m156.001 351.279c0-38.715 22-72.292 54.18-88.91l-.21-.723c-.747-37.491-22.123-69.922-53.245-86.403-13.945-7.385-29.847-11.567-46.726-11.567-55.228 0-100 44.772-100 100.001s44.771 100.001 100 100.001c15.93 0 31.469-3.801 45.402-10.901l.606-.345c-.005-.382-.007-.767-.007-1.153z" fill="#e0c9ed"/><path d="m156.726 175.244c31.122 16.481 52.498 48.912 53.245 86.403l.21.723c13.727-7.089 29.306-11.092 45.82-11.092 16.561 0 32.181 4.026 45.936 11.152l.095-.895c.788-37.444 22.152-69.827 53.242-86.292-2.692-22.202-12.749-42.86-28.563-58.674-39.053-39.053-102.37-39.053-141.423-.001-15.813 15.813-25.87 36.472-28.562 58.676z" fill="#d1aee5"/><path d="m355.275 175.244c-31.09 16.464-52.455 48.848-53.243 86.291l-.095.895c32.117 16.639 54.063 50.181 54.063 88.849 0 .449-.003.899-.009 1.347l.686.191c13.988 7.113 29.512 10.862 45.324 10.862 55.228 0 100-44.772 100-100.001s-44.772-100.001-100-100.001c-16.879-.001-32.781 4.182-46.726 11.567z" fill="#e0c9ed"/><ellipse cx="256.001" cy="401.28" fill="#e0c9ed" rx="20" ry="20" transform="matrix(.973 -.232 .232 .973 -86.022 70.248)"/><circle cx="80.007" cy="281.397" fill="#fff" r="20"/><circle cx="430.007" cy="259.397" fill="#fff" r="20"/><ellipse cx="277.007" cy="142.397" fill="#e0c9ed" rx="20" ry="20" transform="matrix(.987 -.161 .161 .987 -19.33 46.511)"/></g><path d="m411.775 154.115c6.277-5.487 11.706-12.02 15.981-19.426 13.73-23.784 13.733-53.355.008-77.174-1.785-3.098-5.089-5.007-8.665-5.007-.002 0-.006 0-.009 0-27.491.024-53.098 14.813-66.828 38.595-5.118 8.865-8.327 18.535-9.63 28.412-2.739-3.512-5.693-6.861-8.851-10.018-20.777-20.776-48.4-32.219-77.783-32.219-.002 0 .001 0-.001 0-29.38 0-57.006 11.443-77.781 32.218-3.502 3.502-6.74 7.253-9.726 11.19-1.015-10.899-4.333-21.621-9.961-31.37-13.73-23.783-39.338-38.572-66.829-38.595-.003 0-.005 0-.008 0-3.575 0-6.879 1.909-8.665 5.007-13.726 23.82-13.722 53.391.009 77.174 4.73 8.193 10.871 15.318 18.011 21.14-56.481 4.57-101.047 51.994-101.047 109.636 0 60.655 49.346 110.001 110 110.001 12.635 0 25.262-2.226 37.157-6.485 7.735 53.14 53.594 94.087 108.844 94.087s101.11-40.947 108.844-94.088c11.896 4.259 24.524 6.486 37.156 6.486 60.654 0 110-49.347 110-110.001 0-57.361-44.133-104.6-100.226-109.563zm-42.191-53.011c9.172-15.887 25.501-26.356 43.559-28.276 7.367 16.598 6.465 35.975-2.707 51.862-6.846 11.857-17.681 20.692-30.243 25.211l7.172-12.422c2.762-4.783 1.123-10.899-3.66-13.66-4.782-2.76-10.899-1.123-13.66 3.66l-7.172 12.422c-2.369-13.139-.135-26.94 6.711-38.797zm-177.224 22.534c16.999-16.999 39.6-26.36 63.64-26.36s46.641 9.362 63.64 26.361c12.594 12.594 21.229 28.901 24.664 46.35-6.901 4.266-13.377 9.325-19.303 15.136-17.377 17.039-28.42 38.901-31.848 62.615-11.612-4.18-24.12-6.464-37.153-6.464-13.034 0-25.543 2.284-37.155 6.464-3.425-23.694-14.45-45.54-31.805-62.575-5.938-5.829-12.428-10.902-19.346-15.178 3.434-17.444 12.079-33.761 24.666-46.349zm-94.709-52.598c18.058 1.919 34.387 12.389 43.559 28.276 6.846 11.857 9.079 25.658 6.712 38.797l-7.172-12.422c-2.761-4.783-8.877-6.423-13.66-3.66-4.783 2.761-6.422 8.877-3.66 13.66l7.172 12.422c-12.563-4.519-23.398-13.354-30.243-25.211-9.172-15.887-10.075-35.264-2.708-51.862zm-77.651 192.638c0-49.627 40.374-90.001 90-90.001 46.947 0 86.176 36.846 89.725 83.123-30.758 18.391-51.833 51.367-53.598 89.307-11.352 4.965-23.736 7.573-36.127 7.573-49.626-.001-90-40.375-90-90.002zm236.001 177.603c-49.626 0-90-40.375-90-90.001 0-49.627 40.374-90.002 90-90.002s90 40.375 90 90.002c-.001 49.626-40.374 90.001-90 90.001zm146-87.602c-12.388 0-24.774-2.609-36.126-7.575-1.766-37.94-22.841-70.915-53.599-89.306 3.549-46.269 42.798-83.123 89.725-83.123 49.626 0 90 40.375 90 90.001s-40.374 90.003-90 90.003z" fill="#c193dc"/></g></svg>