<svg id="Layer_1" enable-background="new 0 0 512.002 512.002" height="512" viewBox="0 0 512.002 512.002" width="512" xmlns="http://www.w3.org/2000/svg"><g><g><g clip-rule="evenodd" fill-rule="evenodd"><path d="m273.601 169.278h-35.199l-5.101 169.73-28.092-28.092c-7.778-7.778-20.506-7.778-28.284 0s-7.778 20.506 0 28.284l30.8 30.799 23.926 23.926-3.248 108.075h55.2l-3.969-132-2.447-81.418 51.478-51.477c7.778-7.778 7.778-20.506 0-28.284s-20.506-7.778-28.284 0l-24.844 24.844z" fill="#f4e9e2"/><path d="m238.402 169.278h35.199l1.935 64.385 24.844-24.844c7.778-7.778 20.506-7.778 28.284 0 7.778 7.779 7.779 20.506 0 28.284l-51.478 51.477 2.448 81.42h111.472c24.795 0 44.895-19.781 44.895-44.182 0-19.241-12.499-35.605-29.94-41.668 11.803-7.96 19.548-21.324 19.548-36.469 0-21.98-16.311-40.209-37.67-43.61 10.291-8.096 16.885-20.553 16.885-34.527 0-24.401-20.1-44.182-44.895-44.182-1.279 0-2.545.055-3.797.159 4.506-6.886 7.121-15.085 7.121-23.885 0-24.401-20.1-44.182-44.895-44.182-6.41 0-12.505 1.325-18.021 3.707 4.252-26.34-16.197-51.161-44.336-51.161s-48.588 24.822-44.336 51.16c-5.516-2.382-11.611-3.707-18.021-3.707-24.795 0-44.895 19.781-44.895 44.182 0 8.8 2.615 16.999 7.121 23.885-1.252-.103-2.517-.159-3.796-.159-24.795 0-44.895 19.781-44.895 44.182 0 13.974 6.594 26.43 16.885 34.527-21.359 3.401-37.67 21.629-37.67 43.61 0 15.145 7.745 28.508 19.548 36.469-17.441 6.063-29.94 22.428-29.94 41.668 0 24.401 20.1 44.182 44.895 44.182h86.827l-30.8-30.799c-7.778-7.778-7.778-20.506 0-28.284 7.779-7.779 20.506-7.778 28.284 0l28.092 28.092z" fill="#ffc8b8"/></g><g><path d="m175.518 249.87c-5.523 0-10.004-4.478-10.004-10s4.474-10 9.997-10h.007c5.523 0 10 4.478 10 10s-4.477 10-10 10z" fill="#ffad95"/></g><g><path d="m227.118 119.07c-5.523 0-10.004-4.478-10.004-10s4.474-10 9.997-10h.007c5.523 0 10 4.478 10 10s-4.477 10-10 10z" fill="#ffad95"/></g><g><path d="m308.718 138.271c-5.523 0-10.004-4.478-10.004-10s4.474-10 9.997-10h.007c5.523 0 10 4.478 10 10s-4.477 10-10 10z" fill="#ffad95"/></g><g><path d="m343.518 315.87c-5.523 0-10.004-4.478-10.004-10s4.474-10 9.997-10h.007c5.523 0 10 4.478 10 10s-4.477 10-10 10z" fill="#ffad95"/></g></g><path d="m423.269 281.906c7.887-9.552 12.339-21.595 12.339-34.226 0-20.931-11.877-39.259-29.85-48.274 5.865-8.742 9.065-19.062 9.065-29.862 0-26.079-18.764-47.914-43.667-53.042 1.385-4.801 2.096-9.798 2.096-14.866 0-29.876-24.626-54.183-54.895-54.183-2.641 0-5.253.183-7.828.545-1.229-10.475-5.544-20.492-12.581-28.756-10.412-12.228-25.701-19.242-41.947-19.242-16.245 0-31.534 7.014-41.947 19.243-7.036 8.263-11.351 18.28-12.581 28.755-2.575-.362-5.188-.545-7.828-.545-30.269 0-54.895 24.307-54.895 54.183 0 5.068.711 10.065 2.096 14.866-24.903 5.128-43.667 26.963-43.667 53.042 0 10.801 3.2 21.12 9.065 29.862-17.973 9.016-29.85 27.344-29.85 48.274 0 12.631 4.453 24.674 12.339 34.226-14.011 10.019-22.732 26.252-22.732 43.911 0 29.876 24.626 54.183 54.895 54.183h82.685l17.943 17.942-3.118 103.759c-.081 2.703.936 5.324 2.819 7.265s4.473 3.036 7.177 3.036h55.2c2.704 0 5.293-1.096 7.177-3.036 1.883-1.94 2.9-4.562 2.819-7.265l-3.659-121.701h101.168c30.269 0 54.895-24.307 54.895-54.183-.001-17.659-8.723-33.892-22.733-43.911zm-184.562 210.096 2.938-97.775c.083-2.756-.976-5.423-2.924-7.372l-54.726-54.726c-1.873-1.873-2.904-4.384-2.904-7.07s1.031-5.198 2.905-7.071c1.873-1.873 4.384-2.905 7.071-2.905s5.198 1.032 7.071 2.905l28.092 28.092c2.822 2.82 7.05 3.695 10.759 2.224s6.188-5.006 6.308-8.994l4.81-160.03h15.791l1.644 54.686c.12 3.988 2.599 7.523 6.308 8.994 3.707 1.471 7.938.598 10.758-2.224l24.844-24.843c3.898-3.898 10.243-3.898 14.142 0s3.899 10.243 0 14.142l-51.478 51.477c-1.949 1.949-3.007 4.616-2.924 7.372l6.105 203.12h-34.59zm152.399-132.002h-101.768l-2.026-67.402 48.423-48.422c11.697-11.697 11.697-30.729 0-42.427-11.698-11.695-30.73-11.697-42.426 0l-8.473 8.473-1.239-41.244c-.163-5.403-4.59-9.699-9.996-9.699h-35.199c-5.406 0-9.833 4.296-9.996 9.699l-4.406 146.587-11.721-11.721c-11.698-11.697-30.73-11.698-42.427 0-5.65 5.651-8.763 13.185-8.763 21.214s3.112 15.563 8.763 21.213l13.729 13.729h-62.685c-19.241 0-34.895-15.334-34.895-34.183 0-14.444 9.333-27.394 23.224-32.223 3.577-1.243 6.144-4.4 6.633-8.155s-1.186-7.464-4.325-9.581c-9.479-6.393-15.139-16.927-15.139-28.178 0-16.849 12.298-31.036 29.242-33.733 3.924-.625 7.106-3.514 8.106-7.359s-.372-7.919-3.495-10.376c-8.305-6.534-13.068-16.255-13.068-26.668 0-18.848 15.654-34.182 34.895-34.182.976 0 1.976.042 2.972.124 3.814.329 7.462-1.567 9.417-4.851 1.954-3.282 1.867-7.393-.225-10.59-3.591-5.489-5.489-11.855-5.489-18.41 0-18.849 15.654-34.183 34.895-34.183 4.89 0 9.619.972 14.056 2.888 3.351 1.446 7.227.952 10.108-1.291s4.31-5.879 3.728-9.483c-1.575-9.757 1.247-19.729 7.744-27.357 6.705-7.873 16.195-12.209 26.721-12.209 10.527 0 20.017 4.336 26.72 12.209 6.497 7.629 9.319 17.601 7.744 27.357-.582 3.604.847 7.24 3.728 9.483 2.881 2.244 6.756 2.738 10.108 1.291 4.437-1.916 9.167-2.888 14.056-2.888 19.241 0 34.895 15.334 34.895 34.183 0 6.555-1.898 12.921-5.489 18.41-2.092 3.197-2.179 7.308-.225 10.59 1.955 3.283 5.613 5.166 9.417 4.851 20.627-1.701 37.867 14.254 37.867 34.058 0 10.413-4.763 20.134-13.068 26.668-3.123 2.457-4.495 6.53-3.495 10.376s4.182 6.734 8.106 7.359c16.944 2.697 29.242 16.885 29.242 33.733 0 11.251-5.659 21.785-15.139 28.178-3.14 2.117-4.814 5.826-4.325 9.581s3.056 6.912 6.633 8.155c13.891 4.829 23.224 17.778 23.224 32.223.001 18.849-15.653 34.183-34.894 34.183z" fill="#ff9171"/></g></svg>