<svg id="Layer_1" enable-background="new 0 0 512.001 512.001" height="512" viewBox="0 0 512.001 512.001" width="512" xmlns="http://www.w3.org/2000/svg"><g><g><g clip-rule="evenodd" fill-rule="evenodd"><path d="m318.697 355.609c-80.521-21.576-235.69-96.686-256.204-96.986-20.513-.3-34.002 16.198-52.494 26.874.001 80.523.001 89.978.001 170.501 0 11 9 20 20 20h452c11 0 20-9.001 20-20l.001-118.455c-17.673-17.689-60.712-43.148-81.189-43.148-13.532-.001-53.977 34.493-102.115 61.214z" fill="#fff3db"/><path d="m278.347 176.164c11.815.178 22.725 6.574 28.661 16.839 1.661 2.868 5.333 3.847 8.202 2.186 10.352-5.986 23.286-5.986 33.638 0 2.868 1.661 6.54.683 8.201-2.186 5.936-10.265 16.845-16.661 28.661-16.839 3.779.123 6.504-2.547 6.504-5.996 0-11.963 6.427-23.176 16.796-29.148 2.868-1.648 3.857-5.31 2.209-8.178-5.973-10.37-5.998-23.289 0-33.662 1.661-2.868.683-6.54-2.185-8.201-10.279-5.944-16.661-16.824-16.839-28.661.123-3.779-2.547-6.504-5.996-6.504-11.974 0-23.169-6.415-29.148-16.796-1.648-2.868-5.31-3.857-8.178-2.209-10.37 5.973-23.29 5.998-33.662 0-2.868-1.661-6.54-.683-8.202 2.186-5.944 10.278-16.824 16.661-28.66 16.839-3.78-.123-6.504 2.547-6.504 5.996 0 11.992-6.405 23.15-16.796 29.148-2.868 1.648-3.857 5.31-2.209 8.178 5.959 10.346 5.959 23.341 0 33.686-1.648 2.868-.659 6.53 2.209 8.178 10.37 5.972 16.796 17.185 16.796 29.148-.002 3.449 2.723 6.12 6.502 5.996zm53.681-20.166c-22.092 0-40-17.908-40-40 0-22.091 17.908-40 40-40 22.091 0 40 17.908 40 40s-17.908 40-40 40z" fill="#fff7bf"/><ellipse cx="332.028" cy="115.998" fill="#ffee80" rx="40" ry="40" transform="matrix(.973 -.23 .23 .973 -17.769 79.387)"/></g><g><path d="m384.959 432.1c-3.457 0-6.817-1.794-8.67-5.002-2.762-4.783-1.123-10.898 3.66-13.66 15.607-9.011 24.253-32.712 26.914-50.27.827-5.461 5.919-9.218 11.386-8.388 5.46.827 9.216 5.925 8.388 11.386-1.204 7.943-8.631 48.394-36.688 64.592-1.574.909-3.294 1.342-4.99 1.342z" fill="#ffe6b4"/></g><g><path d="m169.738 385.406c-32.397.001-59.054-31.316-64.068-37.595-3.447-4.315-2.743-10.608 1.572-14.055 4.316-3.446 10.609-2.742 14.055 1.572 11.083 13.875 30.419 30.078 48.441 30.077 5.522 0 10 4.477 10 10s-4.476 10.001-10 10.001z" fill="#ffe6b4"/></g></g><g fill="#ffcd69"><path d="m509.075 330.475c-18.538-18.557-63.768-46.081-88.263-46.081-10.155 0-23.405 8.628-50.032 26.578-15.688 10.574-33.92 22.865-53.368 33.915-43.479-12.214-107.908-39.226-159.977-61.056-54.924-23.027-84.084-35.051-94.796-35.207-.24-.004-.477-.005-.714-.005-17.305 0-29.922 9.237-42.129 18.175-4.762 3.486-9.687 7.092-14.797 10.043-3.094 1.786-5 5.088-5 8.66v170.501c0 16.542 13.458 30 30 30h452c16.542 0 30-13.458 30-30l.001-118.456c.001-2.65-1.051-5.192-2.925-7.067zm-17.075 125.523c0 5.514-4.486 10-10 10h-452c-5.514 0-10-4.486-10-10v-164.909c4.085-2.646 7.894-5.436 11.612-8.158 10.48-7.674 19.547-14.312 30.334-14.312.128 0 .257.001.385.003 7.816.3 50.081 18.02 87.371 33.653 45.201 18.951 99.619 41.766 142.408 55.775-17.291 8.086-35.06 14.352-52.477 16.954-5.463.816-9.229 5.906-8.413 11.368.817 5.463 5.915 9.224 11.368 8.413 50.928-7.61 102.046-42.069 139.371-67.23 15.031-10.133 33.738-22.744 38.853-23.162 15.925 0 53.004 20.937 71.188 37.436z"/><path d="m250.057 149.686c7.27 4.187 11.786 12.035 11.786 20.482 0 4.385 1.71 8.456 4.816 11.462 3.1 3.002 7.253 4.628 11.708 4.536 8.214.184 15.858 4.71 19.987 11.849 2.964 5.118 8.349 7.98 13.875 7.979 2.718 0 5.472-.692 7.986-2.148 7.285-4.214 16.334-4.214 23.619-.004 7.634 4.424 17.445 1.809 21.87-5.833 4.126-7.133 11.771-11.659 19.984-11.843 4.468.101 8.608-1.535 11.708-4.536 3.106-3.006 4.816-7.077 4.816-11.462 0-8.447 4.517-16.296 11.779-20.479 3.702-2.128 6.355-5.571 7.469-9.694 1.114-4.124.556-8.435-1.577-12.146-4.215-7.317-4.219-16.386-.013-23.659 2.143-3.698 2.716-8.01 1.615-12.14-1.101-4.131-3.744-7.585-7.447-9.729-7.134-4.126-11.66-11.771-11.844-19.984.069-4.461-1.535-8.608-4.536-11.708-3.006-3.106-7.076-4.816-11.462-4.816-8.447 0-16.296-4.517-20.479-11.779-4.394-7.643-14.188-10.29-21.84-5.892-7.319 4.215-16.385 4.219-23.659.012-7.635-4.421-17.442-1.809-21.871 5.833-4.124 7.134-11.769 11.659-19.982 11.843-4.446-.07-8.607 1.535-11.708 4.536-3.105 3.006-4.816 7.077-4.816 11.463 0 8.437-4.52 16.287-11.779 20.479-7.645 4.394-10.289 14.187-5.892 21.838 4.211 7.312 4.211 16.396-.004 23.713-4.392 7.643-1.747 17.437 5.891 21.827zm31.616-84.021c12.781-1.141 24.548-7.947 31.925-18.434 11.638 5.418 25.188 5.421 36.849.013 7.364 10.5 19.098 17.266 31.915 18.399 1.14 12.78 7.945 24.545 18.433 31.925-5.415 11.636-5.42 25.186-.013 36.848-10.5 7.364-17.265 19.097-18.398 31.915-12.78 1.141-24.546 7.945-31.925 18.433-11.651-5.428-25.204-5.427-36.859.001-7.382-10.489-19.146-17.293-31.925-18.434-1.134-12.816-7.896-24.548-18.399-31.915 5.396-11.649 5.396-25.194-.001-36.838 10.499-7.374 17.264-19.107 18.398-31.913z"/></g></g></svg>