<svg id="Layer_1" enable-background="new 0 0 512.011 512.011" height="512" viewBox="0 0 512.011 512.011" width="512" xmlns="http://www.w3.org/2000/svg"><g><g><g clip-rule="evenodd" fill-rule="evenodd"><g><path d="m307.383 280.009c-20.618 0-30.637 7.539-40.655 15.078-3.27 2.461-6.54 4.922-10.773 4.922-4.232 0-7.503-2.461-10.773-4.922-10.018-7.539-20.037-15.078-40.656-15.078-20.618 0-30.637 7.539-40.655 15.078-3.27 2.461-6.541 4.922-10.773 4.922s-7.503-2.461-10.773-4.922c-10.018-7.539-20.037-15.078-40.656-15.078-13.577 0-22.558 3.269-29.969 7.654-3.843 2.274-7.265 4.849-10.686 7.424l.003.004c-9.457 7.076-12.796 20.114-7.328 31.051 6.148 12.297 21.102 17.281 33.399 11.133 1.36-.68 2.63-1.468 3.806-2.348l.003.004c2.109-1.587 4.219-3.175 6.586-4.102 1.303-.51 2.684-.82 4.186-.82 4.232 0 7.503 2.461 10.773 4.922 7.1 5.343 14.2 10.686 25.075 13.346 4.469 1.093 9.575 1.733 15.581 1.733 17.533 0 27.401-5.452 36.122-11.719 1.535-1.103 3.034-2.231 4.534-3.36 3.27-2.461 6.541-4.922 10.772-4.922 4.232 0 7.503 2.461 10.773 4.922 4.78 3.597 9.56 7.194 15.492 9.973 6.5 3.044 14.383 5.106 25.164 5.106 10.839 0 18.749-2.084 25.269-5.155 5.883-2.771 10.635-6.347 15.387-9.923 3.27-2.461 6.541-4.922 10.772-4.922 4.232 0 7.503 2.461 10.773 4.922 1.529 1.151 3.058 2.301 4.625 3.424 8.699 6.24 18.56 11.654 36.032 11.654 6.05 0 11.188-.649 15.681-1.757 10.818-2.668 17.896-7.995 24.975-13.321 3.27-2.461 6.541-4.922 10.773-4.922 1.54 0 2.953.326 4.285.859 2.328.932 4.408 2.497 6.488 4.062.371.278.747.543 1.128.798l-.053.082c11.488 7.658 27.01 4.554 34.668-6.934s4.554-27.01-6.935-34.669l-.032.048c-3.033-2.276-6.101-4.526-9.497-6.543-7.427-4.41-16.424-7.703-30.052-7.703-20.618 0-30.637 7.539-40.656 15.078-3.27 2.461-6.54 4.922-10.773 4.922-4.232 0-7.503-2.461-10.773-4.922-10.02-7.539-20.039-15.079-40.657-15.079z" fill="#ffbecb"/><g fill="#ffe0e6"><path d="m102.733 410.973c15.779-18.62 31.435-37.1 34.784-62.696-10.874-2.659-17.975-8.003-25.075-13.346-3.27-2.461-6.541-4.922-10.773-4.922-1.502 0-2.883.31-4.186.82 2.353 21.823-11.365 38.015-25.219 54.362-22.601 26.668-45.449 53.63-32.492 101.987 2.848 10.657 13.796 16.988 24.453 14.141 10.657-2.848 16.988-13.796 14.141-24.453-7.561-28.218 8.49-47.158 24.367-65.893z"/><path d="m176.686 385.078c-14.928 31.609-30.02 63.565-4.988 106.921 5.509 9.557 17.722 12.839 27.279 7.33s12.839-17.723 7.33-27.28c-14.607-25.3-4.005-47.75 6.482-69.954 9.333-19.761 18.597-39.388 18.001-61.648-5.931-2.778-10.712-6.375-15.492-9.973-3.27-2.461-6.54-4.922-10.773-4.922-4.232 0-7.502 2.461-10.772 4.922-1.5 1.128-2.999 2.257-4.534 3.359 3.361 17.589-4.552 34.346-12.533 51.245z"/><path d="m299.223 402.095c10.487 22.205 21.089 44.655 6.482 69.954-5.509 9.557-2.227 21.771 7.33 27.28s21.771 2.227 27.279-7.33c25.032-43.356 9.94-75.312-4.988-106.921-7.971-16.878-15.875-33.615-12.546-51.179-1.567-1.124-3.096-2.274-4.625-3.424-3.27-2.461-6.541-4.922-10.773-4.922s-7.502 2.461-10.772 4.922c-4.752 3.576-9.504 7.152-15.387 9.922-.611 22.281 8.661 41.923 18 61.698z"/><path d="m374.492 348.252c3.343 25.609 19.003 44.096 34.787 62.721 15.877 18.734 31.928 37.675 24.367 65.893-2.848 10.657 3.484 21.605 14.141 24.453s21.605-3.484 24.453-14.141c12.957-48.357-9.891-75.319-32.492-101.987-13.846-16.338-27.555-32.521-25.223-54.324-1.332-.533-2.745-.859-4.285-.859-4.232 0-7.503 2.461-10.773 4.922-7.078 5.328-14.157 10.655-24.975 13.322z"/><path d="m163.87 295.088c10.018-7.539 20.037-15.078 40.655-15.078 20.619 0 30.637 7.539 40.656 15.078 3.27 2.461 6.541 4.922 10.773 4.922 4.233 0 7.503-2.461 10.773-4.922 10.018-7.539 20.037-15.078 40.655-15.078s30.637 7.539 40.656 15.078c3.27 2.461 6.541 4.922 10.773 4.922s7.503-2.461 10.773-4.922c10.018-7.539 20.037-15.078 40.656-15.078 13.627 0 22.625 3.294 30.052 7.704 10.339-24.519 15.716-50.935 15.716-77.711 0-110.459-89.544-200.003-200.002-200.003s-200.001 89.544-200.001 200.002c0 26.758 5.37 53.157 15.695 77.662 7.411-4.385 16.392-7.654 29.969-7.654 20.619 0 30.638 7.54 40.656 15.078 3.27 2.461 6.54 4.922 10.773 4.922 4.231-.001 7.502-2.462 10.772-4.922z"/></g></g><ellipse cx="190.389" cy="97.734" fill="#ffbecb" rx="20" ry="20" transform="matrix(.383 -.924 .924 .383 27.236 236.229)"/><ellipse cx="264.189" cy="196.734" fill="#ffbecb" rx="20" ry="20" transform="matrix(.383 -.924 .924 .383 -18.67 365.526)"/><ellipse cx="342.189" cy="115.134" fill="#ffbecb" rx="20" ry="20" transform="matrix(.383 -.924 .924 .383 104.869 387.216)"/></g><g><path d="m121.389 147.934c-5.522 0-10.004-4.478-10.004-10s4.474-10 9.996-10h.008c5.522 0 10 4.478 10 10s-4.478 10-10 10z" fill="#fff"/></g><g><path d="m178.988 192.334c-5.522 0-10.004-4.478-10.004-10s4.475-10 9.997-10h.007c5.522 0 10 4.478 10 10s-4.477 10-10 10z" fill="#fff"/></g><g><path d="m259.389 134.734c-5.522 0-10.004-4.478-10.004-10s4.475-10 9.997-10h.007c5.522 0 10 4.478 10 10s-4.478 10-10 10z" fill="#fff"/></g><g><path d="m278.589 68.734c-5.522 0-10.004-4.478-10.004-10s4.474-10 9.996-10h.008c5.522 0 10 4.478 10 10s-4.477 10-10 10z" fill="#fff"/></g><g><path d="m340.988 204.334c-5.522 0-10.004-4.478-10.004-10s4.475-10 9.997-10h.007c5.522 0 10 4.478 10 10s-4.477 10-10 10z" fill="#fff"/></g><g><path d="m398.589 175.534c-5.522 0-10.004-4.478-10.004-10s4.474-10 9.996-10h.008c5.522 0 10 4.478 10 10s-4.477 10-10 10z" fill="#fff"/></g></g><path d="m447.376 378.728c-8.753-10.328-16.718-19.73-20.608-29.953 14.127 3.831 29.751-1.518 38.307-14.351 5.187-7.778 7.032-17.111 5.199-26.278-1.834-9.168-7.128-17.072-14.907-22.258-.143-.095-.286-.186-.433-.272-.761-.57-1.549-1.155-2.363-1.747 8.909-23.67 13.436-48.481 13.436-73.866.001-115.797-94.205-210.003-210.001-210.003-115.795 0-210.001 94.206-210.001 210.002 0 25.366 4.52 50.159 13.416 73.814-1.516 1.096-2.982 2.198-4.42 3.28-.099.075-.196.151-.292.229-13.264 10.158-17.462 28.296-9.965 43.29 7.583 15.166 24.794 22.398 40.553 18.011-3.866 10.273-11.857 19.712-20.661 30.1-22.891 27.01-48.836 57.624-34.524 111.034 3.577 13.386 15.722 22.24 28.964 22.24 2.554 0 5.149-.33 7.73-1.02 7.735-2.066 14.202-7.022 18.21-13.953 4.009-6.931 5.077-15.008 3.009-22.75-6.206-23.159 7.021-38.767 22.336-56.838 14.378-16.965 29.182-34.449 35.12-57.763 2.401.214 4.93.333 7.615.333 10.127 0 18.124-1.625 24.792-4.103-2.306 8.063-6.202 16.34-10.245 24.901-15.12 32.015-32.258 68.3-4.61 116.186 3.998 6.937 10.458 11.9 18.19 13.979 2.589.695 5.216 1.039 7.826 1.039 5.187 0 10.307-1.358 14.921-4.018 14.319-8.254 19.254-26.619 10.996-40.943-11.989-20.767-3.253-39.265 6.863-60.685 7.182-15.206 14.559-30.836 17.572-48.044 4.829 1.062 10.28 1.688 16.551 1.688 6.315 0 11.797-.635 16.651-1.71 3.01 17.216 10.39 32.853 17.576 48.066 10.116 21.42 18.853 39.918 6.861 60.689-3.999 6.937-5.058 15.015-2.979 22.748 2.077 7.731 7.041 14.191 13.978 18.19 4.615 2.659 9.734 4.018 14.921 4.018 2.61 0 5.237-.344 7.826-1.039 7.732-2.078 14.192-7.042 18.187-13.973 27.651-47.892 10.514-84.177-4.606-116.191-4.036-8.547-7.926-16.81-10.233-24.859 6.645 2.454 14.608 4.061 24.678 4.061 2.72 0 5.279-.122 7.708-.341 5.932 23.311 20.746 40.796 35.133 57.772 15.313 18.072 28.54 33.679 22.332 56.845-2.066 7.734-.998 15.812 3.011 22.742 4.008 6.931 10.475 11.887 18.21 13.953 2.576.688 5.189 1.028 7.786 1.028 5.2 0 10.334-1.365 14.956-4.039 6.931-4.008 11.887-10.475 13.951-18.203 14.312-53.414-11.632-84.029-34.523-111.038zm-381.371-168.726c0-104.768 85.234-190.002 190.001-190.002 104.768 0 190.002 85.234 190.002 190.002 0 21.985-3.742 43.496-11.132 64.08-6.606-2.421-14.62-4.072-24.636-4.072-23.961 0-36.025 9.078-46.672 17.09-1.633 1.229-3.868 2.91-4.757 2.91-.892 0-3.127-1.683-4.761-2.912-10.644-8.01-22.707-17.088-46.668-17.088-23.963 0-36.025 9.078-46.668 17.088-1.725 1.297-3.87 2.912-4.761 2.912s-3.036-1.615-4.76-2.912c-10.644-8.01-22.706-17.088-46.669-17.088-23.961 0-36.024 9.078-46.668 17.088-1.725 1.297-3.87 2.912-4.761 2.912s-3.126-1.683-4.759-2.912c-10.644-8.01-22.706-17.088-46.669-17.088-10.007 0-17.934 1.587-24.554 4.014-7.373-20.567-11.108-42.058-11.108-64.022zm29.099 194.507c-16.553 19.531-35.313 41.669-26.398 74.938 1.42 5.313-1.748 10.791-7.061 12.211-2.576.69-5.263.332-7.568-1.002-2.306-1.333-3.955-3.485-4.645-6.065-11.603-43.301 7.891-66.301 30.462-92.934 11.592-13.679 24.456-28.875 27.277-48.177 5.411 4.067 11.246 8.344 18.854 11.53-4.898 18.781-17.577 33.753-30.921 49.499zm108.643-6.685c-10.934 23.149-23.326 49.389-6.104 79.22 2.747 4.765 1.104 10.875-3.66 13.621-2.307 1.331-4.995 1.683-7.569.991-2.572-.691-4.722-2.343-6.056-4.657-22.414-38.821-9.538-66.083 5.371-97.65 6.974-14.77 14.147-30.006 14.26-46.595 1.608-1.209 3.684-2.744 4.536-2.744.891 0 3.126 1.683 4.76 2.912 3.413 2.569 6.975 5.246 11.026 7.699-1.892 16.095-9.029 31.25-16.564 47.203zm127.903 89.181c-2.745 4.766-8.858 6.408-13.621 3.66-2.308-1.33-3.96-3.479-4.651-6.053-.691-2.572-.339-5.26.988-7.563 17.226-29.837 4.833-56.076-6.101-79.226-7.543-15.972-14.689-31.146-16.571-47.261 4.011-2.438 7.544-5.094 10.93-7.642 1.633-1.229 3.868-2.911 4.759-2.911.868 0 3.015 1.601 4.639 2.821.135 16.558 7.296 31.77 14.261 46.517 14.909 31.569 27.785 58.831 5.367 97.658zm-7.482-160.064c-3.888-2.926-9.212-6.932-16.785-6.932-7.576 0-12.899 4.007-16.785 6.932-9.703 7.301-17.367 13.068-34.644 13.068s-24.94-5.768-34.643-13.068c-3.887-2.925-9.21-6.932-16.786-6.932s-12.899 4.007-16.787 6.933c-9.703 7.301-17.367 13.067-34.642 13.067s-24.938-5.767-34.642-13.068c-3.887-2.925-9.21-6.932-16.786-6.932-7.402 0-12.653 3.824-16.516 6.729-.085.06-.168.12-.251.182-.713.533-1.483 1.009-2.29 1.412-7.35 3.672-16.308.682-19.979-6.661-3.226-6.452-1.386-14.263 4.374-18.572.099-.073.194-.147.289-.224 9.575-7.205 17.257-12.865 34.373-12.865 17.277 0 24.94 5.767 34.642 13.068 3.887 2.925 9.21 6.932 16.786 6.932 7.574 0 12.898-4.006 16.786-6.932 9.703-7.301 17.366-13.068 34.643-13.068s24.94 5.767 34.643 13.068c3.888 2.926 9.212 6.932 16.786 6.932s12.898-4.006 16.786-6.932c9.702-7.302 17.365-13.068 34.643-13.068 17.276 0 24.939 5.768 34.642 13.068 3.887 2.925 9.21 6.932 16.787 6.932 7.572 0 12.895-4.004 16.785-6.932 9.703-7.301 17.367-13.068 34.644-13.068 17.229 0 25.155 5.947 33.547 12.244.369.277.755.526 1.154.746 2.969 2.216 4.989 5.407 5.721 9.068.786 3.928-.005 7.928-2.228 11.262-4.385 6.576-13.103 8.57-19.872 4.731-.276-.23-.568-.449-.875-.653-.228-.152-.454-.311-.667-.471-2.271-1.709-5.039-3.782-8.454-5.214-.075-.033-.151-.062-.227-.093-2.372-.966-5.05-1.62-8.099-1.62-7.574 0-12.898 4.006-16.787 6.932-6.698 5.041-12.427 9.348-21.015 11.533-.144.03-.286.061-.427.097-3.754.915-8.042 1.438-13.199 1.438-17.276 0-24.94-5.767-34.645-13.069zm138.41 157.657c-.688 2.573-2.337 4.726-4.643 6.059-2.307 1.333-4.991 1.69-7.568 1.002-5.313-1.42-8.48-6.897-7.063-12.204 8.917-33.274-9.843-55.412-26.396-74.946-13.348-15.75-26.042-30.734-30.936-49.535 7.605-3.199 13.438-7.487 18.852-11.558 2.798 19.329 15.676 34.535 27.294 48.244 22.571 26.631 42.064 49.631 30.46 92.938z" fill="#ff7d97"/></g></svg>