<svg id="Layer_1" enable-background="new 0 0 511.996 511.996" height="512" viewBox="0 0 511.996 511.996" width="512" xmlns="http://www.w3.org/2000/svg"><g><g><path clip-rule="evenodd" d="m93.226 418.771c32.052 32.053 82.233 45.977 118.493 9.717 32.031-32.03 46.009 6.691 89.097 5.367 83.027-2.552 88.337-78.215 61.732-103.139-12.191-11.42.098-31.988 29.158-21.644 65.561 23.337 115.182-39.307 109.91-74.248-4.427-29.34-31.887-38.304-45.881-45.394-17.509-8.871-14.669-29.042 1.804-35.171 55.27-20.565 48.097-84.771 13.828-113.63-28.857-34.27-93.064-41.443-113.629 13.827-6.129 16.473-26.3 19.313-35.171 1.804-7.09-13.995-16.054-41.454-45.394-45.881-34.941-5.272-97.585 44.349-74.248 109.911 10.344 29.06-10.224 41.348-21.644 29.158-24.925-26.605-100.588-21.295-103.139 61.732-1.325 43.088 37.397 57.066 5.367 89.097-36.257 36.257-22.335 86.44 9.717 118.494z" fill="#ffe5dd" fill-rule="evenodd"/><g><path d="m273.652 139.511c-5.522 0-10-4.477-10-10v-37.082c0-5.523 4.478-10 10-10s10 4.477 10 10v37.082c0 5.523-4.477 10-10 10z" fill="#ffad95"/></g><g><path d="m419.567 248.344h-37.082c-5.522 0-10-4.477-10-10s4.478-10 10-10h37.082c5.522 0 10 4.477 10 10s-4.477 10-10 10z" fill="#ffad95"/></g><g><path d="m164.736 248.428c-5.522 0-10-4.477-10-10v-37.082c0-5.523 4.478-10 10-10s10 4.477 10 10v37.082c0 5.523-4.477 10-10 10z" fill="#ffad95"/></g><g><path d="m310.65 357.26h-37.082c-5.522 0-10-4.477-10-10s4.478-10 10-10h37.082c5.522 0 10 4.477 10 10s-4.477 10-10 10z" fill="#ffad95"/></g></g><path d="m511.505 233.331c-4.676-30.991-30.395-43.013-45.762-50.195-2-.935-3.89-1.818-5.487-2.627-4.324-2.191-6.601-5.27-6.409-8.668.197-3.49 2.948-6.636 7.181-8.21 25.367-9.438 41.693-28.213 45.972-52.864 4.771-27.494-6.684-58.414-28.537-77.232-18.819-21.854-49.737-33.306-77.233-28.538-24.651 4.278-43.426 20.604-52.864 45.971-1.575 4.232-4.721 6.984-8.211 7.181-3.374.182-6.476-2.084-8.668-6.409-.81-1.598-1.692-3.488-2.627-5.488-7.183-15.367-19.204-41.086-50.195-45.762-21.95-3.31-50.465 10.387-69.358 33.313-21.206 25.732-26.966 58.477-15.803 89.839 4.192 11.778 1.734 18.479-.94 20.109-1.53.933-3.014-.103-3.984-1.141-15.838-16.904-45.665-22.251-70.924-12.714-30.233 11.416-48.278 40.93-49.509 80.976-.61 19.842 6.203 34.187 11.677 45.713 7.569 15.937 10.701 22.533-3.386 36.62-19.106 19.107-27.264 43.065-23.589 69.284 2.748 19.606 12.067 39.184 26.508 56.008l-76.427 76.428c-3.905 3.905-3.905 10.237 0 14.143 1.953 1.953 4.512 2.929 7.071 2.929s5.118-.976 7.071-2.929l76.426-76.426c16.825 14.442 36.403 23.761 56.009 26.509 4.095.574 8.133.859 12.107.859 21.474 0 41.052-8.327 57.175-24.45 14.087-14.087 20.684-10.954 36.62-3.386 11.527 5.475 25.871 12.285 45.714 11.678 40.045-1.231 69.56-19.276 80.976-49.509 9.537-25.259 4.19-55.086-12.714-70.923-1.037-.971-2.076-2.451-1.141-3.985 1.631-2.675 8.334-5.132 20.108-.94 31.365 11.165 64.108 5.403 89.84-15.804 22.926-18.895 36.624-47.416 33.313-69.36zm-46.031 53.924c-11.854 9.77-36.768 24.372-70.413 12.396-23.159-8.244-38.118-.103-43.894 9.373-5.739 9.417-3.913 21.067 4.545 28.99 9.41 8.816 15.299 29.077 7.677 49.263-8.536 22.607-30.867 35.6-62.879 36.583-15.031.457-25.947-4.732-36.52-9.753-16.536-7.854-35.277-16.755-59.343 7.31-29.729 29.73-69.379 19.928-96.95-2.974l61.182-61.182h54.688c5.522 0 10-4.477 10-10s-4.478-10-10-10h-34.688l88.917-88.917h54.688c5.522 0 10-4.477 10-10s-4.478-10-10-10h-34.688l64-64h41.857c5.522 0 10-4.477 10-10s-4.478-10-10-10h-21.857l35.245-35.245c3.905-3.905 3.905-10.237 0-14.143-3.906-3.905-10.236-3.905-14.143 0l-35.246 35.246v-21.859c0-5.523-4.478-10-10-10s-10 4.477-10 10v41.859l-64 64v-34.689c0-5.523-4.478-10-10-10s-10 4.477-10 10v54.689l-88.916 88.916v-34.689c0-5.523-4.478-10-10-10s-10 4.477-10 10v54.689l-61.181 61.181c-22.902-27.572-32.705-67.221-2.976-96.951 24.064-24.064 15.163-42.807 7.31-59.342-5.021-10.574-10.214-21.507-9.753-36.519.984-32.012 13.977-54.343 36.583-62.879 6.459-2.438 12.922-3.494 19.019-3.494 12.959 0 24.25 4.771 30.245 11.171 7.923 8.458 19.574 10.284 28.989 4.544 9.476-5.775 17.616-20.736 9.373-43.894-11.977-33.646 2.625-58.558 12.396-70.413 16.159-19.609 38.306-28.165 50.939-26.256 20.395 3.077 28.526 20.475 35.061 34.454 1.004 2.148 1.953 4.177 2.905 6.058 5.829 11.504 16.167 17.987 27.636 17.338 11.544-.651 21.44-8.382 25.828-20.174 8.786-23.613 25.265-31.109 37.54-33.24 20.661-3.588 44.958 5.61 59.068 22.366.368.437.771.84 1.208 1.208 16.756 14.111 25.954 38.401 22.366 59.069-2.13 12.276-9.627 28.753-33.24 37.54-11.792 4.387-19.522 14.284-20.174 25.827-.648 11.476 5.833 21.807 17.338 27.636 1.881.953 3.909 1.901 6.058 2.905 13.979 6.534 31.378 14.666 34.455 35.061 1.907 12.635-6.648 34.781-26.255 50.941z" fill="#ff9171"/></g></svg>