<svg id="Layer_1" enable-background="new 0 0 512.001 512.001" height="512" viewBox="0 0 512.001 512.001" width="512" xmlns="http://www.w3.org/2000/svg"><g><g><g clip-rule="evenodd" fill-rule="evenodd"><path d="m280.576 37.143 54.334 131.027 142.6 11.971c14.685 1.209 25.61 14.095 24.4 28.78-.651 7.912-4.694 14.73-10.578 19.15l-106.535 91.062 32.703 139.415c3.34 14.339-5.577 28.673-19.916 32.013-7.54 1.756-15.079.122-21.018-3.907l-119.988-73.465-122.412 74.139c-12.554 7.602-28.894 3.587-36.496-8.967-3.627-5.99-4.751-13.104-3.129-19.916l33.076-138.011-108.416-93.578c-11.114-9.617-12.328-26.425-2.711-37.539 4.769-5.513 11.304-8.648 18.039-9.177l141.486-11.19 55.447-131.911c5.701-13.533 21.295-19.882 34.828-14.181 6.457 2.719 11.597 7.807 14.286 14.285z" fill="#ffe0e6"/><path d="m176.497 281.721c11.016 0 20-8.984 20-20s-8.984-20-20-20-20 8.984-20 20 8.984 20 20 20z" fill="#ffbecb"/><path d="m368.201 260.412c11.016 0 20-8.984 20-20s-8.984-20-20-20-20 8.984-20 20 8.985 20 20 20z" fill="#ffbecb"/><path d="m291.796 350.099c11.016 0 20-8.984 20-20s-8.984-20-20-20-20 8.984-20 20 8.984 20 20 20z" fill="#ffbecb"/><path d="m261.401 186.012c11.016 0 20-8.984 20-20s-8.984-20-20-20-20 8.984-20 20 8.985 20 20 20z" fill="#ffbecb"/></g><g><path d="m256.993 274.298c-5.523 0-10.004-4.478-10.004-10s4.474-10 9.997-10h.007c5.523 0 10 4.478 10 10s-4.477 10-10 10z" fill="#fff"/></g><g><path d="m104.594 235.298c-5.523 0-10.004-4.478-10.004-10s4.474-10 9.997-10h.007c5.523 0 10 4.478 10 10s-4.477 10-10 10z" fill="#ff9eb1"/></g><g><path d="m196.994 327.699c-5.523 0-10.004-4.478-10.004-10s4.474-10 9.997-10h.007c5.523 0 10 4.478 10 10s-4.477 10-10 10z" fill="#fff"/></g><g><path d="m171.794 409.298c-5.523 0-10.004-4.478-10.004-10s4.474-10 9.997-10h.007c5.523 0 10 4.478 10 10s-4.477 10-10 10z" fill="#fff"/></g><g><path d="m340.994 411.699c-5.523 0-10.004-4.478-10.004-10s4.474-10 9.997-10h.007c5.523 0 10 4.478 10 10s-4.477 10-10 10z" fill="#fff"/></g><g><path d="m220.994 220.899c-5.523 0-10.004-4.478-10.004-10s4.474-10 9.997-10h.007c5.523 0 10 4.478 10 10s-4.477 10-10 10z" fill="#ff9eb1"/></g><g><path d="m421.394 229.298c-5.523 0-10.004-4.478-10.004-10s4.474-10 9.997-10h.007c5.523 0 10 4.478 10 10s-4.477 10-10 10z" fill="#fff"/></g><g><path d="m254.602 111.098c-5.523 0-10.004-4.478-10.004-10s4.474-10 9.997-10h.007c5.523 0 10 4.478 10 10s-4.477 10-10 10z" fill="#fff"/></g><g><path d="m301.394 226.898c-5.523 0-10.004-4.478-10.004-10s4.474-10 9.997-10h.007c5.523 0 10 4.478 10 10s-4.477 10-10 10z" fill="#fff"/></g><g><path d="m327.794 292.298c-5.523 0-10.004-4.478-10.004-10s4.474-10 9.997-10h.007c5.523 0 10 4.478 10 10s-4.477 10-10 10z" fill="#ff9eb1"/></g><g><path d="m225.794 371.499c-5.523 0-10.004-4.478-10.004-10s4.474-10 9.997-10h.007c5.523 0 10 4.478 10 10s-4.477 10-10 10z" fill="#ff9eb1"/></g></g><g><path d="m391.573 501.249c-7.205.001-14.34-2.12-20.413-6.178l-114.612-70.174-117.203 70.984c-17.253 10.444-39.785 4.909-50.231-12.342-5.012-8.279-6.54-18.014-4.303-27.411l31.66-132.104-103.804-89.598c-7.404-6.407-11.865-15.304-12.57-25.059-.704-9.754 2.432-19.199 8.831-26.594 6.377-7.372 15.191-11.848 24.819-12.604l135.41-10.709 53.087-126.298c3.797-9.014 10.872-16.004 19.925-19.69s18.998-3.624 28.004.169c8.967 3.776 15.942 10.761 19.639 19.667 0 .001.001.002.001.004l52 125.4 136.532 11.462c20.141 1.658 35.19 19.407 33.53 39.565-.85 10.323-6.045 19.824-14.269 26.12l-101.685 86.916 31.313 133.486c2.225 9.552.599 19.383-4.573 27.697-5.173 8.315-13.274 14.118-22.811 16.339-2.73.639-5.51.952-8.277.952zm-134.997-98.06c1.81 0 3.62.49 5.222 1.472l119.988 73.465c.132.081.263.165.392.252 3.894 2.642 8.559 3.511 13.136 2.443 4.334-1.01 8.015-3.646 10.366-7.425 2.351-3.778 3.089-8.246 2.08-12.58l-32.7-139.399c-.854-3.642.395-7.455 3.238-9.886l106.535-91.062c.16-.137.324-.269.493-.395 3.815-2.865 6.227-7.229 6.617-11.974.754-9.167-6.088-17.239-15.254-17.993l-142.616-11.973c-3.727-.313-6.968-2.68-8.401-6.135l-54.333-131.026c-1.668-4.017-4.84-7.177-8.929-8.899-4.084-1.72-8.595-1.748-12.7-.076-4.104 1.671-7.312 4.84-9.032 8.923l-55.444 131.905c-1.449 3.448-4.702 5.799-8.43 6.094l-141.486 11.189c-4.354.342-8.352 2.384-11.265 5.751-5.995 6.928-5.236 17.44 1.691 23.434l108.404 93.569c2.831 2.444 4.062 6.264 3.19 9.901l-33.076 138.011c-1.009 4.239-.315 8.65 1.959 12.406 4.733 7.815 14.942 10.326 22.763 5.593l122.41-74.139c1.594-.964 3.388-1.446 5.182-1.446z" fill="#ff7d97"/></g></g></svg>