<svg id="Layer_1" enable-background="new 0 0 512.002 512.002" height="512" viewBox="0 0 512.002 512.002" width="512" xmlns="http://www.w3.org/2000/svg"><g><g><g clip-rule="evenodd" fill-rule="evenodd"><path d="m285.961 502.002v-149.347c-11.024 4.647-14.686 17.345-29.96 17.345s-18.936-12.698-29.96-17.345v149.347z" fill="#ddb9b6"/><path d="m256.001 143.157c18.694 0 19.993-19.023 38.688-19.023 18.694 0 19.993 19.023 38.687 19.023 2.289 0 4.51-.325 6.625-.93 16.166-4.626 26.077-25.63 12.25-43.044l-50.579-63.695c-12.973-16.334-24.911-25.488-45.671-25.488-20.759 0-32.698 9.154-45.67 25.489l-50.579 63.695c-13.827 17.413-3.917 38.417 12.248 43.043 2.115.605 4.337.93 6.626.93 18.694 0 19.993-19.023 38.688-19.023s19.993 19.023 38.687 19.023z" fill="#fff"/><path d="m256.001 143.157c-18.694 0-19.994-19.023-38.688-19.023s-19.994 19.023-38.688 19.023c-2.29 0-4.511-.325-6.624-.933l-50.939 72.932c-12.727 18.222-4.207 37.684 11.052 42.725 2.453.81 5.081 1.248 7.822 1.248 18.694 0 19.993-19.023 38.688-19.023 18.694 0 19.993 19.023 38.688 19.023 18.694 0 19.993-19.023 38.688-19.023s19.994 19.023 38.688 19.023 19.994-19.023 38.688-19.023c18.695 0 19.994 19.023 38.688 19.023 2.741 0 5.368-.438 7.822-1.248 15.259-5.041 23.78-24.503 11.053-42.725l-50.938-72.929c-2.114.605-4.335.93-6.625.93-18.694 0-19.993-19.023-38.687-19.023-18.694.001-19.993 19.023-38.688 19.023z" fill="#eaf5bc"/><path d="m217.314 259.13c-18.694 0-19.994-19.023-38.688-19.023-18.695 0-19.994 19.023-38.688 19.023-2.741 0-5.369-.438-7.822-1.248l-49.74 68.146c-15.209 20.835-.918 43.972 18.874 43.972 18.694 0 19.993-19.023 38.688-19.023s19.993 19.023 38.688 19.023c18.694 0 19.993-19.023 38.688-19.023 3.421 0 6.259.637 8.727 1.677 11.025 4.647 14.686 17.345 29.96 17.345s18.936-12.698 29.96-17.345c2.469-1.041 5.307-1.677 8.728-1.677 18.694 0 19.993 19.023 38.687 19.023 18.695 0 19.994-19.023 38.688-19.023s19.993 19.023 38.688 19.023c19.792 0 34.083-23.138 18.874-43.973l-49.74-68.146c-2.453.811-5.081 1.248-7.822 1.248-18.694 0-19.994-19.023-38.688-19.023s-19.993 19.023-38.688 19.023c-18.694 0-19.993-19.023-38.688-19.023-18.693.001-19.992 19.024-38.686 19.024z" fill="#e0ef9b"/></g><g><path d="m243.665 78.864c-5.523 0-10.004-4.477-10.004-10s4.473-10 9.996-10h.008c5.523 0 10 4.477 10 10s-4.477 10-10 10z" fill="#eaf5bc"/></g><g><path d="m299.99 188.064c-5.523 0-10.004-4.477-10.004-10s4.474-10 9.997-10h.007c5.523 0 10 4.477 10 10s-4.477 10-10 10z" fill="#e0ef9b"/></g><g><path d="m214.903 210.864c-5.523 0-10.004-4.477-10.004-10s4.474-10 9.997-10h.007c5.523 0 10 4.477 10 10s-4.477 10-10 10z" fill="#e0ef9b"/></g><g><path d="m160.974 302.064c-5.523 0-10.004-4.477-10.004-10s4.474-10 9.997-10h.007c5.523 0 10 4.477 10 10s-4.477 10-10 10z" fill="#e0ef9b"/></g><g><path d="m256.001 324.387c-5.523 0-10.004-4.477-10.004-10s4.474-10 9.997-10h.007c5.523 0 10 4.477 10 10s-4.477 10-10 10z" fill="#e0ef9b"/></g><g><path d="m339.545 312.864c-5.523 0-10.004-4.477-10.004-10s4.474-10 9.997-10h.007c5.523 0 10 4.477 10 10s-4.477 10-10 10z" fill="#e0ef9b"/></g></g><path d="m437.704 320.131-43.21-59.199c3.449-2.907 6.376-6.496 8.548-10.663 6.588-12.639 5.129-27.905-3.905-40.839l-44.492-63.7c4.375-3.392 8.036-7.807 10.547-13.008 6.265-12.975 4.355-27.837-5.11-39.757l-50.58-63.694c-13.951-17.57-28.389-29.271-53.501-29.271s-39.55 11.701-53.501 29.271l-50.58 63.694c-9.464 11.92-11.375 26.782-5.109 39.757 2.511 5.2 6.172 9.615 10.546 13.007l-44.492 63.701c-9.034 12.934-10.493 28.201-3.905 40.839 2.172 4.167 5.099 7.756 8.548 10.663l-43.21 59.199c-9.217 12.628-10.861 27.763-4.396 40.484 6.076 11.957 18.088 19.385 31.348 19.385 13.344 0 20.796-7.09 26.237-12.267 4.795-4.563 7.328-6.756 12.451-6.756s7.656 2.193 12.451 6.756c5.441 5.177 12.892 12.267 26.237 12.267 13.344 0 20.795-7.09 26.236-12.267 4.38-4.167 6.878-6.352 11.179-6.701v140.969c0 5.523 4.477 10 10 10h59.92c5.523 0 10-4.477 10-10v-140.968c4.301.349 6.799 2.534 11.178 6.701 5.442 5.176 12.893 12.266 26.237 12.266 13.345 0 20.796-7.09 26.237-12.267 4.795-4.563 7.328-6.756 12.451-6.756s7.656 2.193 12.451 6.756c5.442 5.177 12.893 12.267 26.237 12.267 13.26 0 25.272-7.428 31.348-19.385 6.464-12.722 4.821-27.856-4.396-40.484zm-270.121-214.729 50.58-63.694c12.888-16.23 22.436-21.708 37.838-21.708s24.95 5.478 37.839 21.708l50.58 63.694c4.646 5.851 5.652 12.639 2.762 18.624-2.678 5.547-8.097 9.131-13.805 9.131-5.123 0-7.655-2.193-12.451-6.756-5.441-5.177-12.893-12.267-26.237-12.267s-20.796 7.09-26.237 12.267c-4.795 4.563-7.328 6.756-12.451 6.756s-7.655-2.193-12.451-6.756c-5.441-5.177-12.893-12.267-26.237-12.267s-20.796 7.09-26.237 12.267c-4.795 4.563-7.328 6.756-12.451 6.756-5.708 0-11.127-3.584-13.806-9.131-2.888-5.985-1.881-12.774 2.764-18.624zm-38.321 115.48 47.355-67.8c.668.04 1.337.075 2.01.075 13.344 0 20.796-7.09 26.237-12.267 4.795-4.563 7.328-6.756 12.451-6.756s7.656 2.193 12.451 6.756c5.441 5.177 12.893 12.267 26.237 12.267s20.796-7.09 26.237-12.267c4.795-4.563 7.328-6.756 12.451-6.756s7.655 2.193 12.451 6.756c5.441 5.177 12.893 12.267 26.237 12.267.672 0 1.341-.035 2.008-.075l47.356 67.8c4.755 6.808 5.69 14.149 2.567 20.142-2.646 5.076-7.597 8.106-13.243 8.106-5.123 0-7.655-2.193-12.451-6.756-5.441-5.177-12.893-12.267-26.237-12.267s-20.795 7.09-26.236 12.267c-4.796 4.563-7.329 6.756-12.451 6.756s-7.655-2.193-12.451-6.756c-5.441-5.177-12.893-12.267-26.237-12.267s-20.796 7.09-26.237 12.267c-4.795 4.563-7.328 6.756-12.451 6.756s-7.655-2.193-12.451-6.756c-5.441-5.177-12.893-12.267-26.236-12.267-13.345 0-20.796 7.09-26.237 12.267-4.795 4.563-7.328 6.756-12.451 6.756-5.646 0-10.597-3.03-13.243-8.105-3.127-5.994-2.191-13.335 2.564-20.143zm106.779 271.12v-118.781c4.807 3.631 11.072 6.779 19.96 6.779s15.154-3.148 19.96-6.779v118.781zm188.23-140.447c-2.647 5.209-7.827 8.445-13.518 8.445-5.123 0-7.655-2.193-12.451-6.756-5.441-5.177-12.893-12.267-26.237-12.267s-20.796 7.09-26.237 12.267c-4.795 4.563-7.328 6.756-12.451 6.756s-7.655-2.193-12.45-6.756c-5.441-5.177-12.893-12.267-26.237-12.267s-20.796 7.09-26.237 12.267c-4.795 4.563-7.328 6.756-12.451 6.756s-7.655-2.193-12.451-6.756c-5.441-5.177-12.893-12.267-26.237-12.267s-20.796 7.09-26.237 12.267c-4.796 4.563-7.328 6.756-12.451 6.756s-7.656-2.193-12.451-6.756c-5.441-5.177-12.893-12.267-26.237-12.267s-20.796 7.09-26.237 12.267c-4.795 4.563-7.328 6.756-12.451 6.756-5.691 0-10.871-3.236-13.518-8.445-3.028-5.959-2.037-13.115 2.721-19.633l45.977-62.989c1.159.117 2.327.196 3.509.196 13.344 0 20.796-7.09 26.237-12.267 4.796-4.563 7.328-6.756 12.451-6.756s7.655 2.193 12.451 6.756c5.441 5.177 12.893 12.267 26.237 12.267s20.796-7.09 26.237-12.267c4.795-4.563 7.328-6.756 12.451-6.756s7.656 2.193 12.451 6.756c5.441 5.177 12.893 12.267 26.237 12.267s20.796-7.09 26.237-12.267c4.796-4.563 7.328-6.756 12.451-6.756s7.655 2.193 12.451 6.756c5.441 5.177 12.893 12.267 26.237 12.267 1.182 0 2.35-.08 3.509-.196l45.976 62.989c4.755 6.517 5.746 13.674 2.719 19.633z" fill="#5cd0b3"/></g></svg>