<svg id="Layer_1" enable-background="new 0 0 512 512" height="512" viewBox="0 0 512 512" width="512" xmlns="http://www.w3.org/2000/svg"><g><g clip-rule="evenodd" fill-rule="evenodd"><g fill="#ffbdbc"><path d="m103.387 139.387c-13.387-13.387-6.176-40.299 2.283-71.869 2.975-11.104-5.709-21.518-15.67-21.518-44.183 0-80 35.817-80 80 0 34.786 22.202 64.386 53.209 75.404 8.376 2.976 17.394 4.596 26.791 4.596 5.659 0 11.182-.589 16.51-1.709 36.243-7.617 63.49-39.798 63.49-78.291 0-11.285-10.545-16.533-18.958-12.044z"/><path d="m141.906 235.635c-9.357 10.025-17.166 21.45-23.084 34.066-2.595 5.532-4.827 11.293-6.668 17.266-3.91 12.691-6.052 26.338-6.151 40.772-.003.348-.004.697-.004 1.046 0 9.841.948 18.473 2.757 26.043 3.659 15.315 10.843 26.289 20.838 34.152 7.764 6.107 17.223 10.337 28.043 13.264 12.214 3.304 26.162 4.95 41.363 5.765 17.573.942 36.821.773 56.999.773s39.426.169 56.999-.773c15.201-.814 29.149-2.46 41.363-5.765 10.82-2.928 20.28-7.157 28.043-13.264 9.995-7.863 17.179-18.837 20.838-34.152 1.809-7.571 2.757-16.203 2.757-26.043 0-.349-.001-.697-.004-1.046-.099-14.435-2.24-28.081-6.151-40.772-1.84-5.973-4.072-11.734-6.668-17.266-5.919-12.617-13.727-24.041-23.084-34.066-27.51-29.475-68.417-46.849-114.092-46.849s-86.582 17.374-114.094 46.849z"/><path d="m422 206c9.397 0 18.415-1.62 26.791-4.596 31.007-11.018 53.209-40.618 53.209-75.404 0-44.183-35.817-80-80-80-9.961 0-18.645 10.414-15.67 21.518 8.459 31.569 15.67 58.482 2.283 71.868l-47.655-25.431c-8.413-4.488-18.958.76-18.958 12.045 0 38.493 27.247 70.674 63.49 78.291 5.328 1.12 10.851 1.709 16.51 1.709z"/></g><path d="m256 298.79c55.196 0 99.942 18.185 99.942 44.541 0 26.357-44.745 25.452-99.942 25.452-55.196 0-99.942.905-99.942-25.452 0-26.356 44.746-44.541 99.942-44.541z" fill="#ff9c9b"/><path d="m103.387 139.387 43.512 42.826c14.28-14.453 23.101-34.311 23.101-56.213 0-11.285-10.545-16.533-18.958-12.044z" fill="#ff9c9b"/><path d="m408.613 139.387-43.512 42.826c-14.28-14.453-23.101-34.311-23.101-56.213 0-11.285 10.545-16.533 18.958-12.044z" fill="#ff9c9b"/></g><g fill="#ff7d97"><path d="m424.49 261.11c15.14-13.615 26.329-31.593 32.575-52.223 32.255-13.698 54.935-45.693 54.935-82.887 0-49.626-40.374-90-90-90-7.862 0-15.559 3.912-20.587 10.465-5.217 6.799-6.946 15.416-4.742 23.641 6.041 22.545 11.804 44.053 8.178 55.936l-39.183-20.909c-7.254-3.872-15.699-3.716-22.592.417-6.934 4.16-11.074 11.804-11.074 20.45 0 49.626 40.373 90 89.999 90 3.856 0 7.656-.245 11.385-.717-5.368 12.013-12.904 22.536-22.268 30.956-4.241 3.814-8.821 7.157-13.669 10.013-7.457-13.295-17.063-25.407-28.66-35.936-29.497-26.781-69.553-41.53-112.788-41.53-43.234 0-83.29 14.749-112.788 41.53-11.597 10.529-21.203 22.641-28.66 35.936-4.848-2.857-9.427-6.2-13.668-10.013-9.363-8.419-16.9-18.942-22.268-30.956 3.73.472 7.53.717 11.385.717 49.626 0 90-40.374 90-90 0-8.646-4.139-16.291-11.073-20.449-6.891-4.134-15.336-4.289-22.593-.417l-39.214 20.926c-3.593-11.912 2.169-33.414 8.209-55.954 2.204-8.225.476-16.841-4.741-23.64-5.029-6.553-12.725-10.466-20.588-10.466-49.626 0-90 40.374-90 90 0 37.194 22.679 69.189 54.935 82.887 6.246 20.631 17.437 38.61 32.576 52.223 5.699 5.124 11.896 9.569 18.488 13.297-5.492 14.156-8.786 29.309-9.715 45.08-12.519 2.998-25.478 8.48-40.2 16.979-4.783 2.761-6.422 8.877-3.66 13.66 1.852 3.208 5.213 5.001 8.669 5.001 1.696 0 3.416-.432 4.991-1.341 11.191-6.461 21.063-10.907 30.357-13.646 1.573 20.239 7.522 36.122 18.051 48.205-7.75 7.053-17.42 18.044-28.027 36.416-2.762 4.783-1.123 10.899 3.66 13.66 1.575.909 3.294 1.342 4.991 1.342 3.456 0 6.817-1.794 8.669-5.002 10.351-17.928 19.131-27.428 26.147-33.375 14.691 9.115 33.168 13.476 54.263 15.545-4.079 11.355-7.264 26.505-7.264 49.068 0 5.523 4.477 10 10 10s10-4.477 10-10c0-23.779 3.721-37.418 8.237-47.702 13.568.519 27.931.508 42.851.491l7.979-.006 7.979.006c2.622.003 5.22.006 7.807.006 12.134 0 23.859-.069 35.045-.497 4.517 10.283 8.237 23.923 8.237 47.701 0 5.523 4.478 10 10 10s10-4.477 10-10c0-22.563-3.185-37.713-7.264-49.069 21.095-2.07 39.574-6.43 54.265-15.544 7.015 5.947 15.795 15.447 26.146 33.374 1.853 3.208 5.213 5.002 8.67 5.002 1.696 0 3.416-.433 4.99-1.342 4.783-2.761 6.422-8.877 3.66-13.66-10.608-18.372-20.277-29.363-28.027-36.416 10.529-12.084 16.478-27.966 18.051-48.205 9.294 2.739 19.167 7.186 30.358 13.647 1.575.91 3.294 1.341 4.99 1.341 3.456 0 6.818-1.793 8.67-5.001 2.762-4.783 1.123-10.899-3.66-13.66-14.723-8.5-27.682-13.982-40.201-16.98-.929-15.771-4.223-30.924-9.715-45.08 6.594-3.726 12.791-8.171 18.491-13.295zm-72.49-135.11c0-1.132.236-2.624 1.361-3.298.383-.23.827-.345 1.295-.345.52 0 1.067.141 1.593.421l47.369 25.278c3.832 2.044 8.544 1.382 11.663-1.637 17.899-17.325 9.933-47.059.707-81.488-.796-2.972.467-5.216 1.291-6.29 1.251-1.629 3.059-2.641 4.721-2.641 38.598 0 70 31.402 70 70s-31.402 70-70 70-70-31.402-70-70zm-332 0c0-38.598 31.402-70 70-70 1.662 0 3.471 1.012 4.721 2.642.823 1.073 2.086 3.317 1.29 6.288-9.223 34.417-17.188 64.141.62 81.499 3.119 3.041 7.847 3.713 11.688 1.662l47.431-25.312c1-.533 2.08-.562 2.889-.077 1.125.675 1.361 2.166 1.361 3.298 0 38.598-31.402 70-70 70s-70-31.402-70-70zm244.001 272.789-8.001-.006-8.001.006c-50.914.063-94.889.106-116.3-21.281-10.564-10.552-15.699-26.489-15.699-48.723 0-74.112 60.187-130 140-130s140 55.888 140 130c0 22.233-5.135 38.17-15.699 48.723-21.411 21.387-65.375 21.339-116.3 21.281z"/><path d="m227.954 218.788h-.007c-5.523 0-9.997 4.477-9.997 10s4.481 10 10.004 10 10-4.477 10-10-4.477-10-10-10z"/><path d="m284.053 218.788h-.007c-5.522 0-9.997 4.477-9.997 10s4.481 10 10.004 10 10-4.477 10-10-4.477-10-10-10z"/></g></g></svg>