<svg id="Layer_1" enable-background="new 0 0 512.071 512.071" height="512" viewBox="0 0 512.071 512.071" width="512" xmlns="http://www.w3.org/2000/svg"><g><g><g clip-rule="evenodd" fill-rule="evenodd"><path d="m367.001 286.132c5.05-25.591 1.708-52.51-10.025-76.344-5.661-11.5-13.276-22.281-22.844-31.849s-20.35-17.183-31.849-22.844c-23.834-11.733-50.753-15.074-76.344-10.025-22.539 4.447-44.047 15.403-61.512 32.868-46.863 46.863-199.315 253.234-141.421 311.127 57.893 57.894 264.264-94.559 311.127-141.421 17.464-17.465 28.42-38.974 32.868-61.512z" fill="#ffc8b8"/><path d="m302.282 155.097c2.85-41.237 35.477-93.085 58.389-117.799-8.348-6.573-18.135-11.6-29.048-14.525-43.097-11.547-87.394 14.028-98.942 57.124-4.197 15.662-7.187 39.934-6.742 65.173 25.591-5.05 52.51-1.708 76.343 10.027z" fill="#b8ecbb"/><path d="m360.668 37.295c-22.909 24.717-55.536 76.564-58.385 117.799 11.5 5.661 22.282 13.275 31.849 22.844 9.568 9.568 17.182 20.349 22.841 31.85 41.236-2.851 93.084-35.477 117.801-58.386 1.286-1.192 2.499-2.358 3.633-3.493 31.549-31.549 31.549-82.699 0-114.248-31.549-31.549-82.699-31.549-114.248 0-1.133 1.135-2.298 2.348-3.491 3.634z" fill="#cff2d2"/><path d="m474.775 151.403c-24.717 22.908-76.565 55.535-117.799 58.385 11.733 23.834 15.074 50.753 10.025 76.344 25.238.445 49.51-2.546 65.172-6.742 43.097-11.548 68.672-55.845 57.124-98.942-2.924-10.913-7.952-20.7-14.522-29.045z" fill="#b8ecbb"/></g><g><path d="m369.589 129.061c-2.138 0-4.291-.682-6.112-2.091-4.368-3.38-5.17-9.661-1.79-14.029l33.848-43.747c3.382-4.368 9.662-5.168 14.028-1.79 4.368 3.38 5.17 9.661 1.79 14.029l-33.848 43.747c-1.97 2.546-4.927 3.881-7.916 3.881z" fill="#a0e5a5"/></g><g><path d="m392.868 152.325c-2.988 0-5.945-1.334-7.916-3.881-3.38-4.368-2.578-10.649 1.79-14.029l43.746-33.848c4.365-3.379 10.647-2.579 14.028 1.79 3.38 4.368 2.578 10.649-1.79 14.029l-43.746 33.848c-1.82 1.409-3.975 2.091-6.112 2.091z" fill="#a0e5a5"/></g><g><path d="m288.898 299.264c-2.56 0-5.118-.976-7.071-2.929l-29.698-29.699c-3.905-3.906-3.905-10.237 0-14.143 3.906-3.904 10.236-3.905 14.143 0l29.698 29.698c3.905 3.906 3.905 10.237 0 14.143-1.954 1.953-4.513 2.93-7.072 2.93z" fill="#ffad95"/></g><g><path d="m134.587 372.828c-2.559 0-5.119-.976-7.071-2.929l-28.881-28.881c-3.905-3.905-3.905-10.237 0-14.143s10.237-3.905 14.143 0l28.881 28.881c3.905 3.905 3.905 10.237 0 14.143-1.953 1.953-4.513 2.929-7.072 2.929z" fill="#ffad95"/></g><g><path d="m204.896 339.387c-2.559 0-5.119-.976-7.071-2.929l-11-11c-3.905-3.905-3.905-10.237 0-14.143s10.237-3.905 14.143 0l11 11c3.905 3.905 3.905 10.237 0 14.143-1.953 1.953-4.512 2.929-7.072 2.929z" fill="#ffad95"/></g><g><path d="m200.146 403.887c-2.559 0-5.118-.976-7.071-2.929l-11-11c-3.905-3.905-3.906-10.237 0-14.142s10.237-3.906 14.142 0l11 11c3.905 3.905 3.906 10.237 0 14.142-1.952 1.952-4.512 2.929-7.071 2.929z" fill="#ffad95"/></g><g><path d="m202.895 245.636c-2.559 0-5.119-.976-7.071-2.929l-11-11c-3.905-3.905-3.905-10.237 0-14.143s10.237-3.905 14.143 0l11 11c3.905 3.905 3.905 10.237 0 14.143-1.953 1.953-4.513 2.929-7.072 2.929z" fill="#ffad95"/></g><g><path d="m313.395 240.136c-2.56 0-5.118-.976-7.071-2.929l-11-11c-3.905-3.905-3.905-10.237 0-14.142 3.906-3.905 10.236-3.906 14.143 0l11 11c3.905 3.905 3.905 10.237 0 14.142-1.954 1.952-4.512 2.929-7.072 2.929z" fill="#ffad95"/></g><g><path d="m70.271 462.262c-2.56 0-5.119-.976-7.071-2.929l-11-11c-3.905-3.905-3.905-10.237 0-14.142 3.905-3.904 10.238-3.905 14.142 0l11 11c3.905 3.905 3.905 10.237 0 14.142-1.953 1.953-4.512 2.929-7.071 2.929z" fill="#ffad95"/></g></g><path d="m487.813 152.532c15.658-16.841 24.258-38.628 24.258-61.746 0-24.25-9.443-47.048-26.591-64.195-17.147-17.147-39.945-26.591-64.195-26.591-23.117 0-44.902 8.599-61.743 24.255-7.789-4.972-16.274-8.714-25.331-11.141-23.422-6.276-47.889-3.056-68.89 9.07-21.001 12.125-36.023 31.702-42.299 55.125-4.319 16.119-6.888 38.003-7.105 59.789-21.953 5.788-42.081 17.289-58.562 33.769-23.461 23.462-73.603 86.616-111.619 153.56-48.429 85.283-58.456 143.055-29.802 171.709 10.628 10.628 25.259 15.935 43.816 15.934 31.476-.001 74.242-15.27 127.893-45.737 66.945-38.017 130.098-88.157 153.56-111.619 16.48-16.48 27.981-36.609 33.769-58.561 21.781-.218 43.692-2.792 59.788-7.106 48.354-12.956 77.152-62.835 64.196-111.189-2.426-9.054-6.171-17.538-11.143-25.326zm-66.528-132.532c18.907 0 36.684 7.363 50.053 20.733 13.37 13.37 20.732 31.146 20.732 50.053s-7.362 36.683-20.732 50.053c-21.614 21.615-70.198 52.71-108.664 58.265-5.76-10.219-12.949-19.716-21.47-28.237s-18.018-15.71-28.237-21.47c5.552-38.463 36.619-87.017 58.266-108.664 13.368-13.37 31.144-20.733 50.052-20.733zm-178.945 62.486c10.102-37.702 48.991-60.152 86.694-50.054 5.897 1.58 11.48 3.874 16.694 6.839-20.431 24.934-44.483 65.181-51.57 101.447-4.357-1.599-8.801-2.968-13.323-4.091l-.904-23.041c-.216-5.518-4.833-9.816-10.385-9.6-5.519.216-9.816 4.866-9.6 10.384l.743 18.921c-3.773-.326-7.578-.5-11.41-.5-4.47 0-8.906.228-13.294.671.454-18.741 2.754-37.535 6.355-50.976zm84.721 258.087c-7.996 7.996-21.359 19.641-38.226 32.986l-15.367-15.366c-3.906-3.905-10.236-3.905-14.143 0-3.905 3.905-3.905 10.237 0 14.142l13.551 13.551c-27.351 20.645-60.959 43.664-95.109 63.057-6.107 3.468-12.063 6.719-17.882 9.778l-38.31-38.31c-3.905-3.905-10.237-3.905-14.143 0s-3.905 10.237 0 14.143l33.603 33.603c-20.081 9.513-38.143 16.254-53.953 20.111-27.064 6.601-46.244 4.49-57.006-6.273-10.764-10.763-12.874-29.943-6.273-57.006 6.082-24.933 19.312-55.443 39.325-90.684 17.101-30.114 37.021-59.806 55.647-85.158l24.401 24.401c1.953 1.953 4.512 2.929 7.071 2.929s5.119-.977 7.071-2.929c3.905-3.905 3.905-10.237 0-14.143l-26.411-26.411c16.495-21.472 31.108-38.501 40.59-47.983 8.23-8.23 17.537-14.988 27.599-20.158l21.772 21.772c1.953 1.953 4.512 2.929 7.071 2.929s5.119-.976 7.071-2.929c3.905-3.905 3.905-10.237 0-14.143l-15.604-15.604c9.6-2.692 19.628-4.087 29.872-4.087 29.382 0 57.006 11.442 77.781 32.218 20.776 20.776 32.219 48.399 32.219 77.781s-11.441 57.006-32.217 77.783zm102.523-70.843c-13.423 3.596-32.231 5.896-50.976 6.352.443-4.388.671-8.822.671-13.292 0-2.761-.095-5.507-.265-8.239l23.386-.918c5.519-.216 9.816-4.866 9.6-10.384s-4.822-9.812-10.385-9.6l-25.378.996c-1.252-5.701-2.887-11.289-4.887-16.737 36.264-7.089 76.523-31.15 101.446-51.567 2.966 5.215 5.261 10.797 6.841 16.694 10.103 37.703-12.351 76.593-50.053 86.695z" fill="#ff9171"/></g></svg>