<svg id="Layer_1" enable-background="new 0 0 512.002 512.002" height="512" viewBox="0 0 512.002 512.002" width="512" xmlns="http://www.w3.org/2000/svg"><g><g><path clip-rule="evenodd" d="m416.001 160c0-33.137-26.863-60-60-60-7.458 0-14.596 1.365-21.183 3.851-7.812-53.094-53.552-93.851-108.817-93.851-60.751 0-110 49.249-110 110-44 0-80 36-80 80s36 80 80 80h84.2 125.165 90.635c33 0 60-27 60-60s-27-60-60-60z" fill="#e6dfe1" fill-rule="evenodd"/><path clip-rule="evenodd" d="m325.366 280h-125.165c-11.495 29.256-22.989 58.513-34.484 87.769-3.454 8.791 2.574 17.23 11.376 17.23h52.654l-31.351 117.003 148.877-148.877h-64.126z" fill="#fff2a0" fill-rule="evenodd"/><g><path d="m236.781 212.45c-5.523 0-10-4.478-10-10 0-17.396-14.153-31.55-31.55-31.55-8.427 0-16.351 3.281-22.31 9.24-3.904 3.905-10.237 3.904-14.142 0-3.905-3.906-3.905-10.237 0-14.143 9.736-9.736 22.682-15.098 36.451-15.098 28.425 0 51.55 23.125 51.55 51.55.001 5.524-4.476 10.001-9.999 10.001z" fill="#fff"/></g><g><path d="m218.278 174.995c-5.523 0-10-4.478-10-10 0-28.425 23.125-51.551 51.55-51.551 13.77 0 26.715 5.362 36.452 15.099 3.905 3.905 3.905 10.237 0 14.143-3.905 3.904-10.237 3.904-14.143 0-5.959-5.959-13.882-9.241-22.309-9.241-17.396 0-31.55 14.153-31.55 31.551 0 5.522-4.477 9.999-10 9.999z" fill="#fff"/></g><g><path d="m331.102 224.251c-5.523 0-10-4.478-10-10 0-22.932 18.656-41.588 41.588-41.588 11.108 0 21.552 4.326 29.408 12.181 3.905 3.905 3.906 10.236 0 14.143-3.905 3.904-10.237 3.906-14.142 0-4.078-4.077-9.5-6.323-15.266-6.323-11.904 0-21.588 9.685-21.588 21.588 0 5.521-4.477 9.999-10 9.999z" fill="#fff"/></g></g><path d="m425.376 150.625c-4.595-34.182-33.955-60.625-69.375-60.625-4.553 0-9.053.435-13.467 1.297-5.87-23.858-19.026-45.504-37.763-61.822-21.823-19.007-49.797-29.475-78.77-29.475-62.974 0-114.774 48.764-119.628 110.512-45.115 4.821-80.372 43.115-80.372 89.488 0 49.626 40.374 90 90 90h69.526l-29.118 74.113c-2.861 7.282-2.077 15.019 2.152 21.224 4.124 6.05 11.051 9.662 18.532 9.662h39.622l-27.978 104.415c-1.171 4.371.739 8.985 4.659 11.248 1.561.901 3.285 1.34 4.997 1.34 2.588 0 5.148-1.003 7.075-2.929l148.877-148.877c2.86-2.86 3.715-7.161 2.167-10.898-1.548-3.736-5.194-6.173-9.239-6.173h-46.805l30.672-53.125h84.861c38.598 0 70-31.402 70-70 0-35.42-26.443-64.78-60.625-69.375zm-150.889 197.5c-1.787 3.094-1.787 6.906 0 10 1.786 3.094 5.087 5 8.66 5h39.984l-105.416 105.416 21.691-80.954c.805-3.003.167-6.209-1.726-8.676-1.893-2.466-4.825-3.912-7.934-3.912h-52.654c-1.135 0-1.717-.504-2.005-.926-.458-.673-.48-1.588-.064-2.646l31.993-81.427h101.03zm141.514-78.125h-300c-38.598 0-70-31.402-70-70s31.402-70 70-70c5.523 0 10-4.478 10-10 0-55.14 44.86-100 100-100 49.24 0 91.768 36.674 98.924 85.308.44 2.994 2.213 5.628 4.822 7.162 2.608 1.536 5.771 1.808 8.603.737 5.639-2.128 11.578-3.207 17.652-3.207 27.57 0 50 22.43 50 50 0 5.522 4.477 10 10 10 27.57 0 50 22.43 50 50s-22.431 50-50.001 50z" fill="#b6bccf"/></g></svg>