<?xml version="1.0" encoding="iso-8859-1"?>
<!-- Generator: Adobe Illustrator 19.0.0, SVG Export Plug-In . SVG Version: 6.00 Build 0)  -->
<svg version="1.1" id="Layer_1" xmlns="http://www.w3.org/2000/svg" xmlns:xlink="http://www.w3.org/1999/xlink" x="0px" y="0px"
	 viewBox="0 0 330 330" style="enable-background:new 0 0 330 330;" xml:space="preserve">
<g>
	<path style="fill:#EAB355;" d="M180,200h-15h-15h-15h-15v85c0,24.813,20.186,45,45,45s45-20.188,45-45v-85h-15H180z"/>
	<path style="fill:#A7A6AC;" d="M275,0H165H55c-8.284,0-15,6.716-15,15v60v60v60c0,8.284,6.716,15,15,15h65h15h15h15h15h15h15h65
		c8.284,0,15-6.716,15-15v-60V75V15C290,6.716,283.284,0,275,0z M70,90h80v30H70V90z M180,90h80v30h-80V90z M260,60h-80V30h80V60z
		 M70,30h80v30H70V30z M70,180v-30h80v30h-15H70z M260,180h-65h-15v-30h80V180z"/>
</g>
<g>
</g>
<g>
</g>
<g>
</g>
<g>
</g>
<g>
</g>
<g>
</g>
<g>
</g>
<g>
</g>
<g>
</g>
<g>
</g>
<g>
</g>
<g>
</g>
<g>
</g>
<g>
</g>
<g>
</g>
</svg>
