<?xml version="1.0" encoding="iso-8859-1"?>
<!-- Generator: Adobe Illustrator 19.0.0, SVG Export Plug-In . SVG Version: 6.00 Build 0)  -->
<svg version="1.1" id="Layer_1" xmlns="http://www.w3.org/2000/svg" xmlns:xlink="http://www.w3.org/1999/xlink" x="0px" y="0px"
	 viewBox="0 0 330.004 330.004" style="enable-background:new 0 0 330.004 330.004;" xml:space="preserve">
<g>
	<polygon style="fill:#D7143A;" points="90.002,55 90.002,70 90.002,120 90.002,135 90.002,150 240.002,150 240.002,135 
		240.002,120 240.002,70 240.002,55 240.002,40 90.002,40 	"/>
	<path style="fill:#EDC07B;" d="M275.002,180h-15v-45V55V15c0-8.283-6.716-15-15-15s-15,6.717-15,15v25v15v15v50v15v15v30h-130v-30
		v-15v-15V70V55V40V15c0-8.283-6.716-15-15-15s-15,6.717-15,15v40v80v45h-15c-8.284,0-15,6.717-15,15c0,8.285,6.716,15,15,15h25.239
		l58.75,41.471l-72.64,51.275c-6.768,4.777-8.382,14.137-3.604,20.904c2.923,4.141,7.559,6.354,12.268,6.354
		c2.99,0,6.01-0.895,8.638-2.75l81.35-57.422l81.35,57.422c2.629,1.855,5.647,2.75,8.638,2.75c4.709,0,9.345-2.215,12.268-6.354
		c4.777-6.767,3.163-16.127-3.604-20.904l-72.64-51.275L249.763,210h25.239c8.284,0,15-6.715,15-15
		C290.002,186.717,283.286,180,275.002,180z M197.741,210l-32.739,23.111L132.263,210H197.741z"/>
</g>
<g>
</g>
<g>
</g>
<g>
</g>
<g>
</g>
<g>
</g>
<g>
</g>
<g>
</g>
<g>
</g>
<g>
</g>
<g>
</g>
<g>
</g>
<g>
</g>
<g>
</g>
<g>
</g>
<g>
</g>
</svg>
