<?xml version="1.0" encoding="iso-8859-1"?>
<!-- Generator: Adobe Illustrator 19.0.0, SVG Export Plug-In . SVG Version: 6.00 Build 0)  -->
<svg version="1.1" id="Layer_1" xmlns="http://www.w3.org/2000/svg" xmlns:xlink="http://www.w3.org/1999/xlink" x="0px" y="0px"
	 viewBox="0 0 340 340" style="enable-background:new 0 0 340 340;" xml:space="preserve">
<g>
	<path style="fill:#C1C4F0;" d="M338.018,162.548C310.633,114.714,259.665,85,205.001,85c-48.222,0-93.556,23.132-122.373,61.415
		L25.607,89.394c-4.288-4.291-10.741-5.572-16.347-3.252C3.654,88.463,0,93.933,0,100v140c0,6.066,3.654,11.536,9.26,13.858
		c1.855,0.769,3.805,1.142,5.737,1.142c3.903,0,7.74-1.524,10.609-4.394l57.021-57.021C111.444,231.868,156.778,255,205.001,255
		c54.666,0,105.637-29.715,133.018-77.548C340.661,172.835,340.661,167.164,338.018,162.548z"/>
	<path style="fill:#969BE7;" d="M71.981,177.452c-2.643-4.617-2.643-10.288,0.001-14.904c0.674-1.178,1.374-2.335,2.075-3.49
		c2.662-4.378,5.523-8.595,8.57-12.643l-57.02-57.021c-4.288-4.291-10.741-5.572-16.347-3.252C3.654,88.463,0,93.933,0,100v140
		c0,6.066,3.654,11.536,9.26,13.858c1.855,0.769,3.805,1.142,5.737,1.142c3.903,0,7.74-1.524,10.609-4.394l57.021-57.021
		c-3.047-4.048-5.909-8.265-8.57-12.643C73.355,179.787,72.655,178.63,71.981,177.452z"/>
</g>
<g>
</g>
<g>
</g>
<g>
</g>
<g>
</g>
<g>
</g>
<g>
</g>
<g>
</g>
<g>
</g>
<g>
</g>
<g>
</g>
<g>
</g>
<g>
</g>
<g>
</g>
<g>
</g>
<g>
</g>
</svg>
