<?xml version="1.0" encoding="iso-8859-1"?>
<!-- Generator: Adobe Illustrator 19.0.0, SVG Export Plug-In . SVG Version: 6.00 Build 0)  -->
<svg version="1.1" id="Layer_1" xmlns="http://www.w3.org/2000/svg" xmlns:xlink="http://www.w3.org/1999/xlink" x="0px" y="0px"
	 viewBox="0 0 385.437 385.437" style="enable-background:new 0 0 385.437 385.437;" xml:space="preserve">
<g>
	<g>
		<g>
			<path style="fill:#57575C;" d="M259.423,327.463c-0.007-0.031-0.013-0.064-0.018-0.096l-11.242-56.209
				c-8.822,4.875-18.348,8.623-28.385,11.053l6.645,33.223h-67.404l6.645-33.223c-10.037-2.43-19.563-6.178-28.385-11.053
				l-11.242,56.209l-0.019,0.096l-8.006,40.029c-1.624,8.124,3.644,16.025,11.768,17.65c0.993,0.199,1.981,0.295,2.957,0.295
				c7.004,0,13.267-4.932,14.693-12.063l5.589-27.941h79.404l5.589,27.941c1.427,7.131,7.689,12.063,14.693,12.063
				c0.975,0,1.965-0.096,2.957-0.295c8.124-1.625,13.392-9.526,11.768-17.65L259.423,327.463z"/>
		</g>
		<g>
			<path style="fill:#D7143A;" d="M292.72,185.434h-1.12h-15.232h-83.647h-83.647H93.84h-1.12H78.697
				c4.834,36.94,27.267,68.42,58.58,85.725c8.822,4.875,18.348,8.623,28.385,11.053c8.681,2.102,17.74,3.223,27.058,3.223
				s18.377-1.121,27.058-3.223c10.037-2.43,19.563-6.178,28.385-11.053c31.313-17.305,53.746-48.784,58.58-85.725L292.72,185.434
				L292.72,185.434z"/>
			<path style="fill:#B6002B;" d="M312.72,155.434h-5.978c-5.355-40.93-32.315-75.158-69.022-90.827V15c0-8.284-6.716-15-15-15h-30
				h-30c-8.284,0-15,6.716-15,15v49.606c-36.707,15.669-63.667,49.897-69.022,90.827H72.72c-8.284,0-15,6.715-15,15
				c0,8.283,6.716,15,15,15h5.978H92.72h1.12h15.232h83.647h83.647h15.232h1.12h14.022h5.978c8.284,0,15-6.717,15-15
				C327.72,162.148,321.004,155.434,312.72,155.434z M207.72,56.411c-4.911-0.643-9.917-0.979-15-0.979s-10.089,0.336-15,0.979V30
				h15h15V56.411z"/>
		</g>
	</g>
	<path style="fill:#B6002B;" d="M109.072,185.434H93.84h-1.12H78.697c4.834,36.94,27.267,68.42,58.58,85.725
		c8.822,4.875,18.348,8.623,28.385,11.053c8.681,2.102,17.74,3.223,27.058,3.223v-100L109.072,185.434L109.072,185.434z"/>
	<path style="fill:#70001E;" d="M93.84,185.434h15.232h83.647V55.433c-5.083,0-10.089,0.336-15,0.979V30h15V0h-30
		c-8.284,0-15,6.716-15,15v49.606c-36.707,15.669-63.667,49.897-69.022,90.827h-5.978c-8.284,0-15,6.715-15,15
		c0,8.283,6.716,15,15,15h5.978h14.022L93.84,185.434L93.84,185.434z"/>
</g>
<g>
</g>
<g>
</g>
<g>
</g>
<g>
</g>
<g>
</g>
<g>
</g>
<g>
</g>
<g>
</g>
<g>
</g>
<g>
</g>
<g>
</g>
<g>
</g>
<g>
</g>
<g>
</g>
<g>
</g>
</svg>
