<?xml version="1.0" encoding="iso-8859-1"?>
<!-- Generator: Adobe Illustrator 19.0.0, SVG Export Plug-In . SVG Version: 6.00 Build 0)  -->
<svg version="1.1" id="Layer_1" xmlns="http://www.w3.org/2000/svg" xmlns:xlink="http://www.w3.org/1999/xlink" x="0px" y="0px"
	 viewBox="0 0 350 350" style="enable-background:new 0 0 350 350;" xml:space="preserve">
<g>
	<path style="fill:#F0D03D;" d="M300.11,127.846c0-5.551-3.066-10.648-7.97-13.25c-4.905-2.602-10.844-2.281-15.44,0.83
		c-9.356,6.337-18.228,13.213-26.588,20.565V75c0-41.355-33.644-75-75-75c-41.355,0-75,33.645-75,75v10v50.998
		c-7.885-6.936-16.223-13.446-24.995-19.48c-2.734-2.445-6.299-3.822-10.002-3.822c-0.075,0-0.15,0.002-0.223,0.001
		c-3.605,0-7.192,1.296-10.024,3.839c-3.928,3.526-5.627,8.756-4.756,13.744V225c0,68.926,56.075,125,125,125s125-56.074,125-125
		L300.11,127.846z"/>
	<path style="fill:#E49429;" d="M220.112,100H235c0.038,0,0.073-0.006,0.111-0.006C243.344,99.934,250,93.246,250,85
		c0-8.284-6.716-15-15-15h-0.112h-15.061h-29.716V32.58V16.89V15c0-8.284-6.716-15-15-15s-15,6.716-15,15v1.891v15.69V70h-29.716
		h-15.06h-0.224c-8.284,0-15,6.716-15,15s6.716,15,15,15h15h30v30h-30h-15H115c-5.603,0-10.48,3.078-13.056,7.629
		c4.545,4.072,8.938,8.283,13.167,12.633c3.088,3.175,6.087,6.424,9.003,9.738h5.997h30v52.501
		c2.558,4.904,4.959,9.889,7.205,14.946c2.19,4.934,4.232,9.936,6.12,15c0.57,1.531,1.129,3.066,1.671,4.609
		c0.542-1.543,1.103-3.078,1.673-4.609c1.888-5.064,3.929-10.066,6.119-15c2.247-5.062,4.652-10.049,7.212-14.957V160h30h5.991
		c2.916-3.316,5.92-6.564,9.009-9.74c4.185-4.304,8.524-8.477,13.018-12.509c-2.539-4.589-7.411-7.704-13.018-7.745
		c-0.038,0-0.073-0.006-0.111-0.006h-14.889h-30v-30H220.112z"/>
	<path style="fill:#75B26D;" d="M300.11,127.846c0-5.551-3.066-10.648-7.97-13.25c-4.905-2.602-10.844-2.281-15.44,0.83
		c-9.356,6.337-18.228,13.213-26.588,20.565c-0.663,0.584-1.325,1.17-1.982,1.76c-4.493,4.032-8.833,8.205-13.018,12.509
		c-3.089,3.176-6.093,6.424-9.009,9.74c-2.039,2.318-4.039,4.666-5.991,7.049c-11.565,14.112-21.608,29.346-30,45.441
		c-2.56,4.908-4.965,9.895-7.212,14.957c-2.19,4.934-4.231,9.936-6.119,15c-0.568,1.527-1.129,3.06-1.669,4.598
		c-0.001,0.004-0.003,0.008-0.004,0.012c-0.542-1.543-1.101-3.078-1.671-4.609c-1.889-5.064-3.93-10.066-6.12-15
		c-2.246-5.058-4.647-10.042-7.205-14.946c-8.392-16.094-18.437-31.323-30-45.435c-1.956-2.387-3.954-4.744-5.997-7.066
		c-2.916-3.314-5.915-6.564-9.003-9.738c-4.229-4.35-8.622-8.561-13.167-12.633c-0.608-0.545-1.219-1.09-1.833-1.631
		c-7.885-6.936-16.223-13.446-24.995-19.48c-2.734-2.445-6.299-3.822-10.002-3.822c-0.075,0-0.15,0.002-0.223,0.001
		c-3.605,0-7.192,1.296-10.024,3.839c-3.928,3.526-5.627,8.756-4.756,13.744V225c0,68.926,56.075,125,125,125s125-56.074,125-125
		L300.11,127.846z"/>
	<path style="fill:#689F5F;" d="M175.108,247.057c-0.542-1.543-1.101-3.078-1.671-4.609c-1.889-5.064-3.93-10.066-6.12-15
		c-2.246-5.058-4.647-10.042-7.205-14.946c-8.392-16.094-18.437-31.323-30-45.435c-1.956-2.387-3.954-4.744-5.997-7.066
		c-2.916-3.314-5.915-6.564-9.003-9.738c-4.229-4.35-8.622-8.561-13.167-12.633c-0.608-0.545-1.219-1.09-1.833-1.631
		c-7.885-6.936-16.223-13.446-24.995-19.48c-2.734-2.445-6.299-3.822-10.002-3.822c-0.075,0-0.15,0.002-0.223,0.001
		c-3.605,0-7.192,1.296-10.024,3.839c-3.928,3.526-5.627,8.756-4.756,13.744V225c0,68.926,56.075,125,125,125V247.045
		C175.111,247.049,175.109,247.053,175.108,247.057z"/>
</g>
<g>
</g>
<g>
</g>
<g>
</g>
<g>
</g>
<g>
</g>
<g>
</g>
<g>
</g>
<g>
</g>
<g>
</g>
<g>
</g>
<g>
</g>
<g>
</g>
<g>
</g>
<g>
</g>
<g>
</g>
</svg>
