<?xml version="1.0" encoding="iso-8859-1"?>
<!-- Generator: Adobe Illustrator 19.0.0, SVG Export Plug-In . SVG Version: 6.00 Build 0)  -->
<svg version="1.1" id="Layer_1" xmlns="http://www.w3.org/2000/svg" xmlns:xlink="http://www.w3.org/1999/xlink" x="0px" y="0px"
	 viewBox="0 0 365.434 365.434" style="enable-background:new 0 0 365.434 365.434;" xml:space="preserve">
<g>
	<path style="fill:#D2D1D4;" d="M47.717,206.359v28.202v0.872v115c0,8.284,6.716,15,15,15h60c8.284,0,15-6.716,15-15v-70
		c0-24.813,20.187-45,45-45s45,20.188,45,45v70c0,8.284,6.716,15,15,15h60c8.284,0,15-6.716,15-15v-115v-0.872v-28.202H47.717z"/>
	<path style="fill:#A7A6AC;" d="M122.752,235.434H77.717h-15h-10c-1.756,0-3.434-0.317-5-0.872v115.872c0,8.284,6.716,15,15,15h60
		c8.284,0,15-6.716,15-15v-70c0-24.813,20.187-45,45-45h-39.665L122.752,235.434L122.752,235.434z"/>
	<path style="fill:#D7143A;" d="M321.307,155.433h-8.59h-15h-115h-115h-15h-8.59c-2.256,0-4.438-0.513-6.41-1.445v1.445v65.001
		c0,6.528,4.178,12.066,10,14.128c1.566,0.555,3.244,0.872,5,0.872h10h15h45.035h20.3h39.665h39.665h20.3h45.035h15h10
		c1.756,0,3.434-0.317,5-0.872c5.822-2.061,10-7.6,10-14.128v-65.001v-1.445C325.744,154.92,323.563,155.433,321.307,155.433z"/>
	<path style="fill:#B6002B;" d="M341.307,135.433h-11.63c-14.781-22.815-34.749-42.022-58.213-55.854
		c-13.71-8.082-28.443-14.201-43.747-18.264V15c0-8.284-6.716-15-15-15h-30h-30c-8.284,0-15,6.716-15,15v46.314
		c-15.304,4.063-30.037,10.182-43.747,18.264c-23.464,13.832-43.432,33.039-58.213,55.854h-11.63c-8.284,0-15,6.716-15,15
		s6.716,15,15,15h13.59v-1.445c1.973,0.933,4.154,1.445,6.41,1.445h8.59h15h115h115h15h8.59c2.256,0,4.438-0.513,6.41-1.445v1.445
		h13.59c8.284,0,15-6.716,15-15S349.591,135.433,341.307,135.433z M197.717,56.099c-4.977-0.427-9.979-0.666-15-0.666
		c-5.02,0-10.022,0.239-15,0.666V30h15h15V56.099z"/>
	<path style="fill:#B6002B;" d="M67.717,165.433h-15h-8.59c-2.256,0-4.438-0.513-6.41-1.445v1.445v55.001
		c0,6.528,4.178,12.066,10,14.128c1.566,0.555,3.244,0.872,5,0.872h10h15h45.035h20.3h39.665v-70.001L67.717,165.433L67.717,165.433
		z"/>
	<path style="fill:#70001E;" d="M44.127,165.433h8.59h15h115v-110c-5.02,0-10.022,0.239-15,0.666V30h15V0h-30
		c-8.284,0-15,6.716-15,15v46.314c-15.304,4.063-30.037,10.182-43.747,18.264c-23.464,13.832-43.432,33.039-58.213,55.854h-11.63
		c-8.284,0-15,6.716-15,15s6.716,15,15,15h13.59v-1.445C39.689,164.92,41.871,165.433,44.127,165.433z"/>
</g>
<g>
</g>
<g>
</g>
<g>
</g>
<g>
</g>
<g>
</g>
<g>
</g>
<g>
</g>
<g>
</g>
<g>
</g>
<g>
</g>
<g>
</g>
<g>
</g>
<g>
</g>
<g>
</g>
<g>
</g>
</svg>
