<?xml version="1.0" encoding="iso-8859-1"?>
<!-- Generator: Adobe Illustrator 19.0.0, SVG Export Plug-In . SVG Version: 6.00 Build 0)  -->
<svg version="1.1" id="Layer_1" xmlns="http://www.w3.org/2000/svg" xmlns:xlink="http://www.w3.org/1999/xlink" x="0px" y="0px"
	 viewBox="0 0 330 330" style="enable-background:new 0 0 330 330;" xml:space="preserve">
<g>
	<path style="fill:#8AB5E6;" d="M238.927,149.43L220,102.111V26.158c3.061-2.746,5-6.721,5-11.158c0-8.284-6.716-15-15-15h-5h-80h-5
		c-8.284,0-15,6.716-15,15c0,4.438,1.938,8.412,5,11.158v75.953L91.073,149.43c-0.709,1.772-1.073,3.663-1.073,5.571V165v80v70
		c0,8.284,6.716,15,15,15h120c8.284,0,15-6.716,15-15v-70v-80v-9.999C240,153.093,239.636,151.202,238.927,149.43z"/>
	<g>
		<path style="fill:#D9380E;" d="M190,105V30h-50v75c0,1.908-0.364,3.799-1.073,5.57L120,157.89V165h90v-7.11l-18.927-47.319
			C190.364,108.799,190,106.908,190,105z"/>
		<rect x="120" y="245" style="fill:#D9380E;" width="90" height="55"/>
	</g>
	<g>
		<polygon style="fill:#FFFFFF;" points="210,165 120,165 105,165 90,165 90,245 105,245 120,245 210,245 225,245 240,245 240,165 
			225,165 		"/>
	</g>
	<g>
		<path style="fill:#EAB25C;" d="M210,0h-5h-80h-5c-8.284,0-15,6.716-15,15c0,4.438,1.938,8.412,5,11.158
			c2.655,2.381,6.153,3.842,10,3.842h5h15h50h15h5c3.847,0,7.345-1.461,10-3.842c3.061-2.746,5-6.721,5-11.158
			C225,6.716,218.284,0,210,0z"/>
	</g>
</g>
<g>
</g>
<g>
</g>
<g>
</g>
<g>
</g>
<g>
</g>
<g>
</g>
<g>
</g>
<g>
</g>
<g>
</g>
<g>
</g>
<g>
</g>
<g>
</g>
<g>
</g>
<g>
</g>
<g>
</g>
</svg>
