<?xml version="1.0" encoding="iso-8859-1"?>
<!-- Generator: Adobe Illustrator 19.0.0, SVG Export Plug-In . SVG Version: 6.00 Build 0)  -->
<svg version="1.1" id="Layer_1" xmlns="http://www.w3.org/2000/svg" xmlns:xlink="http://www.w3.org/1999/xlink" x="0px" y="0px"
	 viewBox="0 0 390.001 390.001" style="enable-background:new 0 0 390.001 390.001;" xml:space="preserve">
<g>
	<path style="fill:#A7A6AC;" d="M390,302.574c0-3.979-1.58-7.793-4.393-10.606l-63.641-63.642l-42.426-42.425
		c-5.857-5.858-15.356-5.857-21.213-0.001l-10.607,10.607L216.214,165L325.607,55.607c5.858-5.859,5.858-15.355,0-21.214
		c-5.857-5.858-15.355-5.858-21.213,0L195,143.787L85.607,34.394c-5.857-5.858-15.355-5.858-21.213,0.001
		c-5.858,5.857-5.859,15.354,0,21.211L173.788,165l-31.509,31.508L131.672,185.9c-2.814-2.813-6.629-4.393-10.607-4.393
		c-3.979,0-7.794,1.58-10.606,4.394l-42.426,42.427l-63.639,63.64c-5.859,5.858-5.859,15.355,0,21.213l42.426,42.427
		c2.928,2.928,6.768,4.393,10.605,4.393c3.84,0,7.679-1.465,10.607-4.394l63.633-63.634c0.002-0.002,0.004-0.003,0.006-0.004
		l42.428-42.428c2.813-2.813,4.394-6.628,4.393-10.606c0-3.979-1.579-7.794-4.393-10.606l-10.607-10.607l31.509-31.508
		l31.507,31.508L215.9,228.328c-2.814,2.813-4.394,6.628-4.394,10.607c-0.001,3.978,1.579,7.793,4.394,10.605l42.428,42.428
		c0.002,0.001,0.004,0.002,0.006,0.004l63.632,63.634c2.93,2.929,6.769,4.394,10.607,4.394c3.838,0,7.677-1.465,10.606-4.393
		l42.427-42.426C388.42,310.368,390.001,306.553,390,302.574z"/>
	<path style="fill:#EDC07B;" d="M89.246,228.328c-2.813-2.813-6.628-4.394-10.607-4.394c-3.978,0.001-7.793,1.581-10.605,4.394
		l-63.639,63.64c-5.859,5.858-5.859,15.355,0,21.213l42.426,42.427c2.928,2.928,6.768,4.393,10.605,4.393
		c3.84,0,7.679-1.465,10.607-4.394l63.633-63.634l0.006-0.005c5.858-5.857,5.857-15.354,0-21.212L89.246,228.328z"/>
	<path style="fill:#EDC07B;" d="M321.967,228.326c-2.813-2.813-6.629-4.393-10.606-4.393c-3.98,0-7.794,1.58-10.607,4.393
		l-31.82,31.821l-10.605,10.607c-5.859,5.858-5.857,15.356,0,21.213l0.006,0.005l63.632,63.634c2.93,2.929,6.769,4.394,10.607,4.394
		c3.838,0,7.677-1.465,10.606-4.393l42.427-42.426c2.814-2.813,4.395-6.629,4.394-10.607c0-3.979-1.58-7.793-4.393-10.606
		L321.967,228.326z"/>
</g>
<g>
</g>
<g>
</g>
<g>
</g>
<g>
</g>
<g>
</g>
<g>
</g>
<g>
</g>
<g>
</g>
<g>
</g>
<g>
</g>
<g>
</g>
<g>
</g>
<g>
</g>
<g>
</g>
<g>
</g>
</svg>
