<?xml version="1.0" encoding="iso-8859-1"?>
<!-- Generator: Adobe Illustrator 19.0.0, SVG Export Plug-In . SVG Version: 6.00 Build 0)  -->
<svg version="1.1" id="Layer_1" xmlns="http://www.w3.org/2000/svg" xmlns:xlink="http://www.w3.org/1999/xlink" x="0px" y="0px"
	 viewBox="0 0 330 330" style="enable-background:new 0 0 330 330;" xml:space="preserve">
<g>
	<g>
		<g>
			<polygon style="fill:#A7A6AC;" points="180,160 180,110 165,110 150,110 150,160 165,160 			"/>
			<path style="fill:#A7A6AC;" d="M80,315v-65H65H50v65c0,8.284,6.716,15,15,15S80,323.284,80,315z"/>
			<path style="fill:#A7A6AC;" d="M265,330c8.284,0,15-6.716,15-15v-65h-15h-15v65C250,323.284,256.716,330,265,330z"/>
			<path style="fill:#D7143A;" d="M316.574,87.489c-15.108-26.117-36.834-48.021-62.827-63.345C226.952,8.349,196.264,0,165,0
				s-61.952,8.349-88.747,24.145C50.26,39.468,28.534,61.372,13.426,87.489c-2.685,4.641-2.688,10.361-0.009,15.005
				C16.096,107.139,21.049,110,26.41,110H150h15h15h123.59c5.361,0,10.314-2.861,12.993-7.506
				C319.262,97.851,319.259,92.13,316.574,87.489z"/>
		</g>
		<path style="fill:#EAB25C;" d="M285,160H180h-15h-15H45c-8.284,0-15,6.716-15,15v60c0,8.284,6.716,15,15,15h5h15h15h85h85h15h15h5
			c8.284,0,15-6.716,15-15v-60C300,166.716,293.284,160,285,160z"/>
	</g>
	<path style="fill:#B6002B;" d="M76.253,24.145C50.26,39.468,28.534,61.372,13.426,87.489c-2.685,4.641-2.688,10.361-0.009,15.005
		C16.096,107.139,21.049,110,26.41,110H150h15V0C133.736,0,103.048,8.349,76.253,24.145z"/>
	<path style="fill:#E29229;" d="M150,160H45c-8.284,0-15,6.716-15,15v60c0,8.284,6.716,15,15,15h5h15h15h85v-90H150z"/>
</g>
<g>
</g>
<g>
</g>
<g>
</g>
<g>
</g>
<g>
</g>
<g>
</g>
<g>
</g>
<g>
</g>
<g>
</g>
<g>
</g>
<g>
</g>
<g>
</g>
<g>
</g>
<g>
</g>
<g>
</g>
</svg>
