<?xml version="1.0" encoding="iso-8859-1"?>
<!-- Generator: Adobe Illustrator 19.0.0, SVG Export Plug-In . SVG Version: 6.00 Build 0)  -->
<svg version="1.1" id="Layer_1" xmlns="http://www.w3.org/2000/svg" xmlns:xlink="http://www.w3.org/1999/xlink" x="0px" y="0px"
	 viewBox="0 0 330 330" style="enable-background:new 0 0 330 330;" xml:space="preserve">
<g>
	<path style="fill:#D7143A;" d="M235,61.767V29.128c5.822-2.061,10-7.6,10-14.128c0-8.284-6.716-15-15-15h-10H110h-10
		c-8.284,0-15,6.716-15,15c0,6.528,4.178,12.067,10,14.128v32.639C66.37,68.559,45,94.322,45,125v120
		c0,28.092,17.917,52.074,42.921,61.133C86.093,308.619,85,311.678,85,315c0,8.284,6.716,15,15,15h130c8.284,0,15-6.716,15-15
		c0-3.322-1.093-6.381-2.921-8.867C267.083,297.074,285,273.092,285,245V125C285,94.322,263.63,68.559,235,61.767z"/>
	<path style="fill:#70001E;" d="M165,60h15v-5c0-8.284-6.716-15-15-15s-15,6.716-15,15v5H165"/>
	<path style="fill:#B6002B;" d="M230,0h-10H110h-10c-8.284,0-15,6.716-15,15c0,6.528,4.178,12.067,10,14.128
		C96.566,29.683,98.244,30,100,30h10h15h80h15h10c1.756,0,3.434-0.317,5-0.872c5.822-2.061,10-7.6,10-14.128
		C245,6.716,238.284,0,230,0z"/>
	<path style="fill:#B6002B;" d="M245,315c0-3.322-1.093-6.381-2.921-8.867C235.183,308.632,227.749,310,220,310H110
		c-7.749,0-15.183-1.368-22.079-3.867C86.093,308.619,85,311.678,85,315c0,8.284,6.716,15,15,15h130
		C238.284,330,245,323.284,245,315z"/>
	<path style="fill:#B6002B;" d="M150,60v-5c0-7.246,5.138-13.292,11.97-14.693V30H125h-15h-10c-1.756,0-3.434-0.317-5-0.872v32.639
		C66.37,68.559,45,94.322,45,125v120c0,28.092,17.917,52.074,42.921,61.133C94.817,308.632,102.251,310,110,310h51.97V60H150z"/>
</g>
<g>
</g>
<g>
</g>
<g>
</g>
<g>
</g>
<g>
</g>
<g>
</g>
<g>
</g>
<g>
</g>
<g>
</g>
<g>
</g>
<g>
</g>
<g>
</g>
<g>
</g>
<g>
</g>
<g>
</g>
</svg>
