<?xml version="1.0" encoding="iso-8859-1"?>
<!-- Generator: Adobe Illustrator 19.0.0, SVG Export Plug-In . SVG Version: 6.00 Build 0)  -->
<svg version="1.1" id="Capa_1" xmlns="http://www.w3.org/2000/svg" xmlns:xlink="http://www.w3.org/1999/xlink" x="0px" y="0px"
	 viewBox="0 0 503.745 503.745" style="enable-background:new 0 0 503.745 503.745;" xml:space="preserve">
<g transform="translate(0 -1)">
	<g>
		<path style="fill:#3F5C6C;" d="M156.719,27.413c-12.41,8.071-79.143,126.004-79.577,132.513
			c-19.005,32.195-76.713,32.195-76.713,32.195S-8.249,2.681,52.496,1.206C88.921,0.335,124.903,9.33,156.632,27.24L156.719,27.413z
			"/>
		<path style="fill:#3F5C6C;" d="M503.317,192.121c0,0-56.754,0-76.193-31.414c-0.434-6.769-67.428-125.397-80.011-133.467
			C378.843,9.33,414.825,0.335,451.249,1.206C511.995,2.681,503.317,192.121,503.317,192.121z"/>
	</g>
	<g>
		<path style="fill:#2C3E50;" d="M95.886,122.697c-2.459,0.003-4.804-1.04-6.449-2.869c-6.188-6.621-13.817-11.727-22.297-14.924
			c-2.947-0.964-5.155-3.427-5.793-6.462c-0.638-3.034,0.391-6.178,2.699-8.248c2.308-2.07,5.546-2.751,8.493-1.786
			c11.365,4.137,21.58,10.925,29.797,19.801c2.295,2.547,2.876,6.206,1.481,9.338S99.315,122.698,95.886,122.697z"/>
		<path style="fill:#2C3E50;" d="M408.293,122.697c-3.432-0.002-6.542-2.026-7.931-5.165c-1.39-3.139-0.799-6.801,1.507-9.344
			c8.276-8.877,18.544-15.658,29.958-19.784c2.948-0.958,6.184-0.271,8.488,1.803c2.304,2.074,3.326,5.22,2.682,8.252
			c-0.644,3.032-2.857,5.491-5.805,6.449c-8.535,3.196-16.224,8.307-22.475,14.941C413.075,121.666,410.741,122.7,408.293,122.697z"
			/>
	</g>
	<path style="fill:#D1D4D1;" d="M451.596,271.698c-0.694,28.811-5.554,58.056-24.732,82.527
		c-7.859,9.882-16.893,18.77-26.902,26.468H104.304c-10.076-7.65-19.144-16.543-26.988-26.468
		c-19.178-24.472-24.038-53.717-24.732-82.527c-0.35-10.476,0.26-20.962,1.822-31.327c2.433-11.952,6.832-23.418,13.017-33.931
		c3.485-6.978,5.912-14.436,7.203-22.129c1.388-8.071,1.909-16.228,2.517-24.385c0.434-6.508,0.868-12.93,1.735-19.352
		c1.748-13.94,5.887-27.473,12.236-40.005c8.824-16.231,19.671-31.277,32.282-44.778c9.812-10.883,21.017-20.424,33.323-28.377
		c28.245-18.528,61.63-27.641,95.371-26.034c33.609-1.613,66.867,7.438,95.024,25.86c12.44,7.982,23.762,17.583,33.671,28.551
		c12.611,13.501,23.458,28.547,32.282,44.778c6.349,12.532,10.488,26.066,12.236,40.005c0.955,6.682,1.388,13.364,1.822,20.133
		c0.375,7.907,1.187,15.787,2.43,23.604c1.291,7.693,3.718,15.15,7.203,22.129c6.185,10.513,10.584,21.979,13.017,33.931
		C451.336,250.736,451.946,261.222,451.596,271.698z"/>
	<path style="fill:#FFFFFF;" d="M195.856,209.651c0,0-1.822,0.955-5.033,2.343c0.626-2.083,0.948-4.246,0.955-6.422
		c-0.287-7.192-3.42-13.976-8.709-18.859s-12.302-7.463-19.494-7.175c-14.949-0.564-27.531,11.085-28.117,26.034
		c0.036,7.492,3.447,14.569,9.285,19.265c-7.557,1.03-15.236-0.629-21.695-4.686c-20.74-15.447-2.169-66.213-2.169-66.213
		s40.439-13.104,61.093,2.256C202.712,171.641,195.856,209.651,195.856,209.651z"/>
	<path style="fill:#2C2F38;" d="M191.778,205.572c-0.007,2.175-0.328,4.338-0.955,6.422c-14.568,6.735-30.128,11.072-46.08,12.843
		c-5.838-4.696-9.249-11.773-9.285-19.265c0.586-14.948,13.167-26.598,28.117-26.034c7.192-0.288,14.205,2.293,19.494,7.175
		S191.491,198.379,191.778,205.572z"/>
	<path style="fill:#FFFFFF;" d="M381.131,220.151c-6.459,4.057-14.138,5.716-21.695,4.686c5.838-4.696,9.249-11.773,9.285-19.265
		c-1.155-14.697-13.418-26.034-28.16-26.034s-27.005,11.337-28.16,26.034c0.007,2.175,0.328,4.338,0.955,6.422
		c-3.211-1.388-5.033-2.343-5.033-2.343s-6.856-38.01,13.885-53.456c20.654-15.36,61.093-2.256,61.093-2.256
		S401.871,204.704,381.131,220.151z"/>
	<path style="fill:#2C2F38;" d="M368.721,205.572c-0.036,7.492-3.447,14.569-9.285,19.265c-15.952-1.771-31.512-6.108-46.08-12.843
		c-0.626-2.083-0.948-4.246-0.955-6.422c1.155-14.697,13.418-26.034,28.16-26.034S367.567,190.875,368.721,205.572z"/>
	<path style="fill:#3F5C6C;" d="M399.962,380.693c-2.256-7.723-4.773-15.1-7.55-22.042c-4.107-10.339-7.273-21.027-9.459-31.935
		c-4.339-21.695-25.687-63.176-124.008-64.998c0.955,0.087,1.909,0.174,2.951,0.26c6.971,0.478,13.901,1.435,20.74,2.864
		c0.501,0.074,0.994,0.19,1.475,0.347c8.73,1.469,16.909,5.244,23.691,10.934c0.399,0.383,0.776,0.789,1.128,1.215
		c1.138,1.314,2.048,2.81,2.69,4.425c0.321,0.6,0.555,1.243,0.694,1.909c0.355,1.271,0.53,2.586,0.521,3.906
		c0,26.034-17.356,26.034-26.034,43.39c-6.565,13.875-19.554,23.617-34.712,26.034c-15.158-2.417-28.147-12.159-34.712-26.034
		c-8.678-17.356-26.034-17.356-26.034-43.39c0-22.736,46.514-25.6,58.142-25.947h-1.649
		c-100.491,1.215-122.186,43.303-126.612,65.085c-2.186,10.908-5.352,21.596-9.459,31.935c-2.69,6.942-5.294,14.319-7.463,22.042
		c-16.054,54.932-15.62,123.835,59.791,123.835c17.727,0.637,35.28-3.691,50.679-12.496c22.087,16.662,52.544,16.662,74.631,0
		c15.383,8.845,32.948,13.176,50.679,12.496C415.496,504.528,415.93,435.712,399.962,380.693z"/>
	<path style="fill:#2C2F38;" d="M312.835,287.579c0,26.034-17.356,26.034-26.034,43.39c-6.565,13.875-19.554,23.617-34.712,26.034
		c-15.158-2.417-28.147-12.159-34.712-26.034c-8.678-17.356-26.034-17.356-26.034-43.39c0-22.736,46.514-25.6,58.142-25.947
		c1.649-0.087,2.603-0.087,2.603-0.087h0.174c0.694,0,3.124,0,6.682,0.174c0.868,0.087,1.909,0.174,2.951,0.26
		c6.971,0.478,13.901,1.435,20.74,2.864c0.501,0.074,0.994,0.19,1.475,0.347c8.73,1.469,16.909,5.244,23.691,10.934
		c0.399,0.383,0.776,0.789,1.128,1.215c1.138,1.314,2.048,2.81,2.69,4.425c0.283,0.616,0.515,1.255,0.694,1.909
		C312.669,284.944,312.845,286.259,312.835,287.579z"/>
	<path style="fill:#E6E7E8;" d="M252.717,321.282c-9.043-0.188-17.669-3.844-24.093-10.212c-3.391-3.381-3.403-8.869-0.027-12.265
		c3.376-3.396,8.864-3.416,12.264-0.045c2.834,3.238,6.925,5.099,11.229,5.106c4.303,0.007,8.401-1.839,11.246-5.068
		c3.389-3.389,8.883-3.389,12.271,0c3.389,3.389,3.389,8.883,0,12.271C269.693,317.459,261.422,321.149,252.717,321.282z"/>
	<path style="fill:#547580;" d="M289.405,492.032c-22.087,16.662-52.544,16.662-74.631,0c27.509-16.748,34.972-46.687,36.795-65.605
		c0.434-4.513,0.521-8.331,0.521-11.281c0,2.951,0.087,6.769,0.521,11.281C254.433,445.344,261.896,475.283,289.405,492.032z"/>
	<g>
		<path style="fill:#3F5C6C;" d="M173.988,157.409c-30.331,0-49.797-28.678-50.61-29.898c-1.756-2.579-1.992-5.903-0.618-8.705
			c1.374-2.802,4.146-4.65,7.261-4.841c3.115-0.191,6.092,1.305,7.798,3.919c0.136,0.199,15.212,22.17,36.17,22.17
			c21.212,0,28.72-6.284,28.797-6.347c3.546-3.094,8.898-2.853,12.153,0.547c3.213,3.346,3.168,8.645-0.102,11.936
			C212.962,148.062,202.191,157.409,173.988,157.409z"/>
		<path style="fill:#3F5C6C;" d="M330.191,157.409c-28.203,0-38.975-9.347-40.847-11.221c-3.336-3.354-3.371-8.762-0.079-12.159
			c3.292-3.397,8.698-3.532,12.155-0.303c0.491,0.402,8.169,6.326,28.771,6.326c20.957,0,36.034-21.97,36.186-22.191
			c2.677-3.95,8.041-4.997,12.007-2.344c3.966,2.653,5.046,8.01,2.417,11.992C379.988,128.731,360.522,157.409,330.191,157.409z"/>
	</g>
</g>
<g>
</g>
<g>
</g>
<g>
</g>
<g>
</g>
<g>
</g>
<g>
</g>
<g>
</g>
<g>
</g>
<g>
</g>
<g>
</g>
<g>
</g>
<g>
</g>
<g>
</g>
<g>
</g>
<g>
</g>
</svg>
