<svg height="512" viewBox="0 0 58 58" width="512" xmlns="http://www.w3.org/2000/svg"><g id="Page-1" fill="none" fill-rule="evenodd"><g id="006---Octopus" fill-rule="nonzero" transform="translate(0 -1)"><path id="Shape" d="m53.4 46.42c-.9226798.1054768-1.8516632.1455768-2.78.12 1.5905776 1.406452 2.6055391 3.3509046 2.85 5.46.84 6.84-11.8 4.9-15.49.45-.0622174.7595775-.2800682 1.4982277-.64 2.17-1.33 2.57-4.56 4.38-8.34 4.38-3.76 0-6.98-1.79-8.32-4.34-.3722217-.6823669-.5970693-1.4352656-.66-2.21-3.69 4.45-16.33 6.39-15.49-.45.24329738-2.1116797 1.26259632-4.0576141 2.86-5.46-.92833507.0253604-1.85730327-.0147389-2.78-.12-3.12-.41-5.62-1.82-4.2-5.67 1.96-5.29 8.02-5.14 12.22-4.32.76.15 1.46.32 2.06.48h28.62c.6-.16 1.3-.33 2.06-.48 4.2-.82 10.26-.97 12.22 4.32 1.42 3.84-1.08 5.26-4.19 5.67z" fill="#ff5364"/><path id="Shape" d="m45.37 36.43c-2.9291139 6.406213-9.325905 10.515142-16.37 10.515142s-13.4408861-4.108929-16.37-10.515142c.76.15 1.46.32 2.06.48h28.62c.6-.16 1.3-.33 2.06-.48z" fill="#df4d60"/><path id="Shape" d="m34.982 9.054c8.2717754 2.9146496 13.2388702 11.3666042 11.7603855 20.0113445-1.4784847 8.6447402-8.972126 14.9655715-17.7423855 14.9655715s-16.2639008-6.3208313-17.7423855-14.9655715c-1.47848475-8.6447403 3.4886101-17.0966949 11.7603855-20.0113445z" fill="#fb7b76"/><path id="Shape" d="m4 43.139c-.11878155-.000597-.23654786-.0219167-.348-.063-.51769838-.1919929-.78181817-.7672369-.59-1.285.473-1.278 1.783-2.8 5.333-2.8.55228475 0 1 .4477153 1 1s-.44771525 1-1 1c-1.926 0-3.089.5-3.458 1.5-.14673732.3901885-.52013222.6484168-.937.648z" fill="#fb7b76"/><path id="Shape" d="m22.72 50.47c-.0113254 1.6333121-.7613149 3.1737318-2.04 4.19-.3722217-.6823669-.5970693-1.4352656-.66-2.21.4509411-.526549.6991623-1.196746.7-1.89-.0215226-.5538327.4064601-1.0219388.96-1.05.265273-.0108235.5239618.0842861.7190475.2643652s.3105535.4303448.3209525.6956348z" fill="#df4d60"/><path id="Shape" d="m15.02 43.05c.0501562.5507421-.3502317 1.0401052-.9 1.1-2.3895977.3013403-4.68557053 1.1167007-6.73 2.39-.92833507.0253604-1.85730327-.0147389-2.78-.12.05102713-.1806092.15146378-.3433858.29-.47 3.58-3.23 8.81-3.77 9.03-3.79.545912-.0524141 1.0321839.3446336 1.09.89z" fill="#df4d60"/><path id="Shape" d="m53.4 46.42c-.9226798.1054768-1.8516632.1455768-2.78.12-2.0444295-1.2732993-4.3404023-2.0886597-6.73-2.39-.5497683-.0598948-.9501562-.5492579-.9-1.1.0578161-.5453664.544088-.9424141 1.09-.89.22.02 5.45.56 9.03 3.79.1385362.1266142.2389729.2893908.29.47z" fill="#df4d60"/><path id="Shape" d="m8.358 53.329c-.05156316-.0000941-.10304466-.0041056-.154-.012-.54558793-.0846137-.9193698-.5953743-.835-1.141.818-5.276 8.3-6.155 8.617-6.191.548971-.0607513 1.0432487.335029 1.104.884s-.335029 1.0432487-.884 1.104c-.062.007-6.278.753-6.86 4.509-.07544794.4873179-.49487617.8468885-.988.847z" fill="#fb7b76"/><path id="Shape" d="m54 43.139c-.4187597-.0000982-.7931091-.2611052-.938-.654-.368-.993-1.531-1.5-3.457-1.5-.5522847 0-1-.4477153-1-1s.4477153-1 1-1c3.55 0 4.86 1.524 5.332 2.8.1919184.5174805-.0716976 1.092602-.589 1.285-.1110846.0431319-.2288622.0664844-.348.069z" fill="#fb7b76"/><path id="Shape" d="m49.642 53.329c-.4931238-.0001115-.9125521-.3596821-.988-.847-.582-3.756-6.8-4.5-6.86-4.509-.355122-.0392992-.6623024-.2650685-.8058293-.5922628-.1435268-.3271943-.1015951-.7061049.11-.994.2115952-.2878951.5607073-.4410364.9158293-.4017372.317.036 7.8.915 8.617 6.191.0843698.5456257-.2894121 1.0563863-.835 1.141-.0509553.0078944-.1024368.0119059-.154.012z" fill="#fb7b76"/><path id="Shape" d="m37.98 52.45c-.0622174.7595775-.2800682 1.4982277-.64 2.17-.0817009-.0407606-.1560496-.0948324-.22-.16-1.1792124-.9916847-1.8660043-2.4492909-1.88-3.99-.0195057-.3786823.1768462-.7358216.5070403-.9222421.3301941-.1864206.737422-.1700496 1.0515861.0422748s.481214.5840728.4313736.9599673c.01202.7031889.2784703 1.3781965.75 1.9z" fill="#df4d60"/><path id="Shape" d="m29 56.876c-3.136 0-5.823-1.7-5.99-3.8-.0522398-.3686401.1046484-.735779.4071662-.9528217.3025178-.2170428.7005676-.2480466 1.0330437-.0804633.3324761.1675834.5443198.506002.5497901.878285.053.664 1.511 1.955 4 1.955s3.943-1.291 4-1.955c.0439066-.5506279.5258721-.9614066 1.0765-.9175s.9614066.5258721.9175 1.0765c-.171 2.093-2.858 3.796-5.994 3.796z" fill="#fb7b76"/><circle id="Oval" cx="24" cy="26" fill="#35495e" r="3"/><circle id="Oval" cx="24" cy="25.5" fill="#3f5c6c" r="2.5"/><circle id="Oval" cx="34" cy="26" fill="#35495e" r="3"/><circle id="Oval" cx="34" cy="25.5" fill="#3f5c6c" r="2.5"/><path id="Shape" d="m33 32c0 2.209139-1.790861 4-4 4s-4-1.790861-4-4z" fill="#802d40"/><g fill="#ff5364"><path id="Shape" d="m19 31c-.5522847 0-1-.4477153-1-1v-1c0-.5522847.4477153-1 1-1s1 .4477153 1 1v1c0 .5522847-.4477153 1-1 1z"/><path id="Shape" d="m19 36c-.5522847 0-1-.4477153-1-1v-1c0-.5522847.4477153-1 1-1s1 .4477153 1 1v1c0 .5522847-.4477153 1-1 1z"/><path id="Shape" d="m17 33h-1c-.5522847 0-1-.4477153-1-1s.4477153-1 1-1h1c.5522847 0 1 .4477153 1 1s-.4477153 1-1 1z"/><path id="Shape" d="m39 31c-.5522847 0-1-.4477153-1-1v-1c0-.5522847.4477153-1 1-1s1 .4477153 1 1v1c0 .5522847-.4477153 1-1 1z"/><path id="Shape" d="m39 36c-.5522847 0-1-.4477153-1-1v-1c0-.5522847.4477153-1 1-1s1 .4477153 1 1v1c0 .5522847-.4477153 1-1 1z"/><path id="Shape" d="m42 33h-1c-.5522847 0-1-.4477153-1-1s.4477153-1 1-1h1c.5522847 0 1 .4477153 1 1s-.4477153 1-1 1z"/></g><rect id="Rectangle-path" fill="#f3d55b" height="6" rx="1" width="8" x="25" y="5"/><path id="Shape" d="m25 10-8.365 4.712c-1.6.8-3.635-.16-3.635-1.715v-9.997c0-1.555 2.035-2.515 3.635-1.715l8.365 4.715z" fill="#f0c419"/><path id="Shape" d="m33 10 8.365 4.712c1.6.8 3.635-.16 3.635-1.715v-9.997c0-1.555-2.035-2.515-3.635-1.715l-8.365 4.715z" fill="#f0c419"/><path id="Shape" d="m31.75 34.9c-1.5401016 1.4664128-3.9598984 1.4664128-5.5 0 .761293-.6523715 1.7503141-.9760512 2.75-.9.9996859-.0760512 1.988707.2476285 2.75.9z" fill="#ff5364"/><circle id="Oval" cx="23" cy="25" fill="#ecf0f1" r="1"/><circle id="Oval" cx="33" cy="25" fill="#ecf0f1" r="1"/></g></g></svg>