<svg id="Capa_1" enable-background="new 0 0 512 512" height="512" viewBox="0 0 512 512" width="512" xmlns="http://www.w3.org/2000/svg"><g><path d="m355.757.281-99.757 190.605-99.757-190.605c1.103-.187 2.217-.281 3.33-.281h192.853c1.114 0 2.228.094 3.331.281z" fill="#665e66"/><path d="m455.805 265.824v235.77c0 5.747-4.659 10.406-10.406 10.406h-206.049v-273.951c0-10.084 2.445-20.012 7.118-28.951l9.532-18.212 99.757-190.605c1.165.177 2.31.468 3.434.853l56.289 19.346c4.202 1.444 7.024 5.398 7.024 9.841v124.683c0 22.613 5.266 44.925 15.381 65.155l13.528 27.046c2.883 5.788 4.392 12.156 4.392 18.619z" fill="#8b818e"/><path d="m437.885 220.16c-10.115-20.23-15.381-42.537-15.381-65.155v-124.684c0-4.444-2.821-8.397-7.024-9.841l-14.835-5.099v144.679c0 22.618 5.266 44.925 15.381 65.155l15.722 31.445c1.445 2.89 2.197 6.077 2.197 9.308v246.032h11.452c5.747 0 10.406-4.659 10.406-10.406v-235.767c0-6.462-1.505-12.836-4.395-18.616z" fill="#756e78"/><path d="m295.545 238.051c0-13.725-3.364-27.408-9.729-39.569l-16.896-32.284-22.452 42.899c-4.676 8.935-7.118 18.869-7.118 28.953v273.95h56.195z" fill="#756e78"/><path d="m272.65 238.049v273.951h-206.048c-5.747 0-10.407-4.659-10.407-10.406v-235.77c0-6.462 1.509-12.831 4.392-18.617l13.528-27.046c10.115-20.23 15.381-42.542 15.381-65.155v-124.684c0-4.444 2.822-8.397 7.024-9.841l56.289-19.346c1.124-.385 2.269-.677 3.434-.853l99.757 190.604 9.532 18.211c4.673 8.94 7.118 18.868 7.118 28.952z" fill="#8b818e"/><path d="m100.046 389.259h85.046c3.077 0 5.696-2.242 6.17-5.283l3.259-20.924c.59-3.786-2.338-7.205-6.17-7.205h-91.564c-3.831 0-6.759 3.419-6.17 7.205l3.259 20.924c.474 3.041 3.093 5.283 6.17 5.283z" fill="#665e66"/><path d="m411.954 389.259h-85.046c-3.077 0-5.696-2.242-6.17-5.283l-3.259-20.924c-.59-3.786 2.338-7.205 6.17-7.205h91.563c3.831 0 6.759 3.419 6.17 7.205l-3.259 20.924c-.473 3.041-3.092 5.283-6.169 5.283z" fill="#665e66"/><g><g><path d="m239.981 263.805h-10.407c-4.31 0-7.805-3.494-7.805-7.805 0-4.31 3.494-7.805 7.805-7.805h10.407c4.31 0 7.805 3.494 7.805 7.805 0 4.31-3.494 7.805-7.805 7.805z" fill="#665e66"/></g><g><path d="m239.981 309.594h-10.407c-4.31 0-7.805-3.494-7.805-7.805 0-4.31 3.494-7.805 7.805-7.805h10.407c4.31 0 7.805 3.494 7.805 7.805 0 4.31-3.494 7.805-7.805 7.805z" fill="#665e66"/></g><g><path d="m239.981 355.382h-10.407c-4.31 0-7.805-3.494-7.805-7.805 0-4.31 3.494-7.805 7.805-7.805h10.407c4.31 0 7.805 3.494 7.805 7.805s-3.494 7.805-7.805 7.805z" fill="#665e66"/></g><g><path d="m239.981 401.171h-10.407c-4.31 0-7.805-3.494-7.805-7.805 0-4.31 3.494-7.805 7.805-7.805h10.407c4.31 0 7.805 3.494 7.805 7.805 0 4.31-3.494 7.805-7.805 7.805z" fill="#665e66"/></g><g><path d="m239.981 446.959h-10.407c-4.31 0-7.805-3.494-7.805-7.805 0-4.31 3.494-7.805 7.805-7.805h10.407c4.31 0 7.805 3.494 7.805 7.805s-3.494 7.805-7.805 7.805z" fill="#665e66"/></g></g></g></svg>