<svg id="Capa_1" enable-background="new 0 0 512 512" height="512" viewBox="0 0 512 512" width="512" xmlns="http://www.w3.org/2000/svg"><g><g><path d="m380.219 33.306h-124.219-124.219c-9.467 0-18.451 3.204-25.631 8.829v459.564c0 5.69 4.612 10.302 10.302 10.302h100.373c3.639 0 7.007-1.919 8.862-5.049l26.768-45.166c1.596-2.693 5.494-2.693 7.09 0l26.768 45.166c1.855 3.13 5.224 5.049 8.862 5.049h100.373c5.69 0 10.302-4.612 10.302-10.302v-459.565c-7.18-5.624-16.163-8.828-25.631-8.828z" fill="#bed8fb"/></g><g><path d="m158.576 451.424-35.615-135.044c-.904-3.43-1.362-6.961-1.362-10.508v-129.12c0-4.231-3.26-7.92-7.489-8.047-4.376-.131-7.964 3.377-7.964 7.723v310.246l37.561-9.804c11.143-2.909 17.806-14.312 14.869-25.446z" fill="#9dc6fb"/></g><g><path d="m106.146 228.2v-186.044c-4.746 3.711-8.726 8.453-11.538 14.032l-87.748 174.051c-4.43 8.786-5.603 18.858-3.313 28.427l50.209 209.802c1.34 5.601 7.013 9.016 12.59 7.578l64.947-16.74c5.45-1.405 8.764-6.924 7.443-12.395l-44.38-183.715c-1.124-4.652-.593-9.55 1.501-13.854z" fill="#bed8fb"/></g><g><path d="m353.424 451.424 35.615-135.044c.904-3.43 1.362-6.961 1.362-10.508v-129.12c0-4.231 3.26-7.92 7.489-8.047 4.376-.131 7.964 3.377 7.964 7.723v310.246l-37.561-9.804c-11.143-2.909-17.806-14.312-14.869-25.446z" fill="#9dc6fb"/></g><g><path d="m405.854 228.2v-186.044c4.746 3.711 8.726 8.453 11.538 14.032l87.748 174.051c4.43 8.786 5.604 18.858 3.313 28.427l-50.209 209.802c-1.34 5.601-7.013 9.016-12.59 7.578l-64.947-16.74c-5.45-1.405-8.764-6.924-7.443-12.395l44.379-183.715c1.124-4.652.593-9.55-1.501-13.854z" fill="#bed8fb"/></g><g><path d="m321.077.762-65.077 32.544-65.066-32.544c1.215-.504 2.524-.762 3.884-.762h122.365c1.359 0 2.678.268 3.894.762z" fill="#80b4fb"/></g><g><path d="m256 33.306-37.355 48.016c-3.253 4.181-9.548 4.252-12.894.145l-36.319-44.573c-1.733-2.127-1.858-5.141-.304-7.403 5.394-7.851 17.236-25.087 17.252-25.103 1.143-1.638 2.74-2.885 4.543-3.626h.01z" fill="#9dc6fb"/></g><g><path d="m342.567 36.895-36.319 44.573c-3.346 4.106-9.641 4.035-12.894-.145l-37.354-48.017 65.077-32.543c1.803.731 3.379 1.978 4.533 3.606.016.024 11.866 17.27 17.262 25.123 1.553 2.261 1.429 5.275-.305 7.403z" fill="#9dc6fb"/></g><g><path d="m505.14 230.239-87.748-174.051c-7.075-14.034-21.452-22.887-37.169-22.887h-24.32v.023c15.459.243 29.538 9.026 36.514 22.864l91.178 180.854c2.215 4.393 2.802 9.429 1.657 14.214l-52.972 221.343 13.374 3.447c5.577 1.438 11.25-1.977 12.59-7.578l50.209-209.802c2.29-9.57 1.117-19.641-3.313-28.427z" fill="#9dc6fb"/></g><g><path d="m366.77 240.899-25.059 7.831c-1.601.5-3.316.5-4.916 0l-25.059-7.831c-3.441-1.075-5.783-4.262-5.783-7.866v-55.423c0-4.552 3.69-8.241 8.241-8.241h50.119c4.552 0 8.241 3.69 8.241 8.241v55.423c-.001 3.605-2.344 6.791-5.784 7.866z" fill="#9dc6fb"/></g><g><path d="m270.782 138.696h-14.569c-4.142 0-7.5-3.358-7.5-7.5s3.358-7.5 7.5-7.5h14.569c4.142 0 7.5 3.358 7.5 7.5s-3.358 7.5-7.5 7.5z" fill="#8b818e"/></g><g><path d="m270.782 184.485h-14.569c-4.142 0-7.5-3.358-7.5-7.5s3.358-7.5 7.5-7.5h14.569c4.142 0 7.5 3.358 7.5 7.5s-3.358 7.5-7.5 7.5z" fill="#8b818e"/></g><g><path d="m270.782 230.273h-14.569c-4.142 0-7.5-3.358-7.5-7.5s3.358-7.5 7.5-7.5h14.569c4.142 0 7.5 3.358 7.5 7.5s-3.358 7.5-7.5 7.5z" fill="#8b818e"/></g><g><path d="m270.782 276.062h-14.569c-4.142 0-7.5-3.358-7.5-7.5s3.358-7.5 7.5-7.5h14.569c4.142 0 7.5 3.358 7.5 7.5s-3.358 7.5-7.5 7.5z" fill="#8b818e"/></g><g><path d="m270.782 321.851h-14.569c-4.142 0-7.5-3.358-7.5-7.5s3.358-7.5 7.5-7.5h14.569c4.142 0 7.5 3.358 7.5 7.5s-3.358 7.5-7.5 7.5z" fill="#8b818e"/></g><g><path d="m270.782 367.639h-14.569c-4.142 0-7.5-3.358-7.5-7.5s3.358-7.5 7.5-7.5h14.569c4.142 0 7.5 3.358 7.5 7.5s-3.358 7.5-7.5 7.5z" fill="#8b818e"/></g><g><path d="m270.782 413.428h-14.569c-4.142 0-7.5-3.358-7.5-7.5s3.358-7.5 7.5-7.5h14.569c4.142 0 7.5 3.358 7.5 7.5s-3.358 7.5-7.5 7.5z" fill="#8b818e"/></g><g><path d="m248.274 33.306v435.534l4.181-7.055c1.596-2.693 5.494-2.693 7.09 0l4.181 7.055v-435.534h-7.726z" fill="#9dc6fb"/></g></g></svg>