<svg id="Capa_1" enable-background="new 0 0 512 512" height="512" viewBox="0 0 512 512" width="512" xmlns="http://www.w3.org/2000/svg"><g><g><path d="m337.755 10.559v445.244h-163.51v-445.244h15.628v-8.766c2.864.865 5.635 2.05 8.262 3.513 12.074 6.768 34.975 17.585 57.865 17.585 22.891 0 45.792-10.817 57.865-17.585 2.627-1.463 5.398-2.648 8.262-3.513v8.767h15.628z" fill="#5490f9"/></g><g><path d="m239.352 213.68v288.018c0 5.69-4.612 10.302-10.302 10.302h-112.598c-5.69 0-10.302-4.612-10.302-10.302v-492.869c7.18-5.625 16.163-8.829 25.631-8.829h24.312l20.583 18.172 13.197-16.38 43.288 164.129c4.11 15.587 6.191 31.637 6.191 47.759z" fill="#80b4fb"/></g><g><path d="m272.648 213.68v288.018c0 5.69 4.612 10.302 10.302 10.302h112.599c5.69 0 10.302-4.612 10.302-10.302v-492.869c-7.181-5.625-16.164-8.829-25.632-8.829h-24.312l-20.583 18.172-13.197-16.38-43.288 164.129c-4.11 15.587-6.191 31.637-6.191 47.759z" fill="#80b4fb"/></g><g><path d="m158.576 418.123-36.977-140.209v-116.483c0-4.268-3.459-7.726-7.726-7.726s-7.726 3.459-7.726 7.726v291.942l37.561-9.804c11.142-2.909 17.805-14.311 14.868-25.446z" fill="#61a2f9"/></g><g><path d="m239.352 213.68v109.179l-65.107-252.467-18.152-70.392h21.86c4.059 0 8.066.608 11.919 1.793l43.288 164.129c4.111 15.586 6.192 31.636 6.192 47.758z" fill="#bed8fb"/></g><g><path d="m353.424 418.123 36.977-140.209v-116.483c0-4.268 3.459-7.726 7.726-7.726s7.726 3.459 7.726 7.726v291.942l-37.561-9.804c-11.142-2.909-17.805-14.311-14.868-25.446z" fill="#61a2f9"/></g><g><path d="m405.854 194.899v-186.044c4.746 3.711 8.726 8.453 11.538 14.032l87.748 174.051c4.43 8.786 5.604 18.858 3.313 28.427l-50.209 209.802c-1.34 5.601-7.013 9.016-12.59 7.578l-64.947-16.74c-5.45-1.405-8.764-6.924-7.443-12.395l46.117-190.911z" fill="#80b4fb"/></g><g><path d="m355.907 0-18.152 70.392-65.107 252.466v-109.178c0-16.122 2.081-32.173 6.191-47.759l43.288-164.128c3.853-1.185 7.861-1.793 11.92-1.793z" fill="#bed8fb"/></g><g><path d="m505.14 196.938-87.748-174.051c-7.075-14.034-21.452-22.887-37.169-22.887h-24.32v.023c15.459.243 29.538 9.026 36.514 22.864l91.178 180.854c2.215 4.393 2.802 9.429 1.657 14.214l-52.972 221.343 13.374 3.447c5.577 1.438 11.25-1.977 12.59-7.578l50.209-209.802c2.29-9.569 1.117-19.641-3.313-28.427z" fill="#61a2f9"/></g><g><circle cx="198.323" cy="339.252" fill="#bed8fb" r="10.407"/></g><g><circle cx="198.323" cy="301.789" fill="#bed8fb" r="10.407"/></g><g><path d="m350.035 473.713c-2.815 0-5.513-1.593-6.791-4.309l-44.079-93.658c-1.764-3.747-.155-8.216 3.592-9.979 3.747-1.764 8.216-.156 9.98 3.593l44.079 93.658c1.764 3.747.155 8.216-3.592 9.979-1.032.485-2.119.716-3.189.716z" fill="#5490f9"/></g><g><path d="m161.965 473.713c-1.07 0-2.157-.23-3.189-.716-3.748-1.764-5.356-6.232-3.592-9.979l44.079-93.658c1.764-3.749 6.233-5.355 9.98-3.593 3.748 1.764 5.356 6.232 3.592 9.979l-44.079 93.658c-1.278 2.716-3.977 4.309-6.791 4.309z" fill="#5490f9"/></g><g><path d="m106.146 194.899v-186.044c-4.746 3.711-8.726 8.453-11.538 14.032l-87.748 174.051c-4.43 8.786-5.604 18.858-3.313 28.427l50.209 209.802c1.34 5.601 7.013 9.016 12.59 7.578l64.947-16.74c5.45-1.405 8.764-6.924 7.443-12.395l-46.118-190.911z" fill="#80b4fb"/></g></g></svg>