<svg id="Capa_1" enable-background="new 0 0 512 512" height="512" viewBox="0 0 512 512" width="512" xmlns="http://www.w3.org/2000/svg"><g><path d="m495.35 439.154h-45.789c-5.747 0-10.406-4.659-10.406-10.407v-22.894h66.602v22.894c-.001 5.748-4.66 10.407-10.407 10.407z" fill="#eab14d"/><path d="m482.862 405.854v22.894c0 5.747-4.659 10.407-10.406 10.407h22.894c5.747 0 10.407-4.659 10.407-10.407v-22.894z" fill="#e7a52e"/><path d="m16.65 439.154h45.789c5.747 0 10.407-4.659 10.407-10.407v-22.894h-66.602v22.894c0 5.748 4.659 10.407 10.406 10.407z" fill="#eab14d"/><path d="m49.765 405.854v22.894c0 5.747-4.659 10.407-10.407 10.407h23.08c5.747 0 10.407-4.659 10.407-10.407v-22.894z" fill="#e7a52e"/><path d="m362.146 512h-212.292c-5.747 0-10.406-4.659-10.406-10.406v-31.22h233.106v31.22c-.001 5.747-4.66 10.406-10.408 10.406z" fill="#eab14d"/><path d="m344.45 470.374v31.22c0 5.747-4.659 10.406-10.406 10.406h28.103c5.747 0 10.407-4.659 10.407-10.406v-31.22z" fill="#e7a52e"/><path d="m367.53 56.195h-223.06c-13.583 0-26.312 6.627-34.101 17.755l-96.6 137.999c-4.898 6.997-7.525 15.33-7.525 23.871v170.033h66.602v-144.34c0-3.444 1.721-6.661 4.587-8.572l45.364-30.243v231.024c0 9.196 7.455 16.65 16.65 16.65h233.106c9.196 0 16.65-7.455 16.65-16.65v-231.023l45.364 30.243c2.866 1.911 4.587 5.127 4.587 8.572v144.34h66.602v-170.033c0-8.54-2.627-16.874-7.525-23.871l-96.6-137.999c-7.789-11.129-20.517-17.756-34.101-17.756z" fill="#ffe07d"/><g fill="#ffd064"><path d="m377.663 181.672c-6.373 0-11.54 5.167-11.54 11.54v260.511c0 9.196-7.455 16.65-16.65 16.65h23.08c9.196 0 16.65-7.455 16.65-16.65v-260.511c0-6.373-5.166-11.54-11.54-11.54z"/><path d="m498.231 211.95-96.6-137.999c-7.79-11.128-20.518-17.755-34.101-17.755h-23.08c13.583 0 26.312 6.627 34.101 17.755l96.6 137.999c4.898 6.997 7.525 15.33 7.525 23.871v170.033h23.08v-170.033c0-8.541-2.627-16.875-7.525-23.871z"/></g><path d="m256 432.911h89.366c5.747 0 10.407-4.659 10.407-10.407v-44.991c0-3.045-1.416-5.917-3.831-7.771l-3.099-2.379c-15.395-11.817-24.419-30.121-24.419-49.529v-.004c0-5.411-4.386-9.797-9.797-9.797h-58.627-58.626c-5.411 0-9.797 4.386-9.797 9.797v.004c0 19.407-9.024 37.711-24.419 49.529l-3.099 2.379c-2.416 1.854-3.831 4.726-3.831 7.771v44.991c0 5.747 4.659 10.407 10.406 10.407z" fill="#eab14d"/><path d="m114.833 181.676c-4.229.127-7.489 3.816-7.489 8.047v10.245l-48.516 33.183c-5.672 3.879-9.063 10.308-9.063 17.179v155.524h23.08v-144.34c0-3.444 1.721-6.661 4.587-8.572l45.364-30.243v-33.301c.001-4.346-3.588-7.854-7.963-7.722z" fill="#ffd064"/><g fill="#eab14d"><path d="m324.671 234.747c-.941-4.162-5.077-6.776-9.24-5.832l-3.871.875-22.67-115.037c-.825-4.188-4.892-6.916-9.074-6.087-4.187.825-6.911 4.888-6.087 9.074l22.753 115.458-4.722 1.068c-4.162.941-6.774 5.078-5.832 9.24.811 3.589 3.999 6.024 7.529 6.024.564 0 1.137-.062 1.711-.192l4.304-.973 1.799 9.128c.726 3.683 3.956 6.234 7.572 6.234.495 0 .998-.048 1.503-.147 4.187-.825 6.911-4.888 6.087-9.074l-1.882-9.549 4.289-.97c4.16-.941 6.772-5.078 5.831-9.24z"/><path d="m232.185 108.666c-4.187-.83-8.25 1.9-9.074 6.087l-22.671 115.037-3.871-.875c-4.16-.944-8.299 1.67-9.24 5.832s1.671 8.299 5.832 9.24l4.289.97-1.882 9.549c-.825 4.187 1.9 8.249 6.087 9.074.505.1 1.007.147 1.503.147 3.616 0 6.847-2.552 7.572-6.234l1.799-9.128 4.304.973c.573.13 1.146.192 1.711.192 3.531 0 6.718-2.436 7.529-6.024.941-4.162-1.671-8.299-5.832-9.24l-4.722-1.068 22.753-115.458c.825-4.186-1.9-8.249-6.087-9.074z"/></g><path d="m335.1 15.632 28.781 35.998c2.048 2.561 1.739 6.276-.704 8.464l-103.053 92.309c-2.347 2.103-5.901 2.103-8.248 0l-103.053-92.309c-2.443-2.188-2.751-5.903-.704-8.464l28.781-35.998c7.9-9.88 19.863-15.632 32.512-15.632h93.175c12.65 0 24.613 5.752 32.513 15.632z" fill="#eab14d"/><path d="m312.578 40.79c-3.784-4.733-9.515-7.489-15.575-7.489h-82.005c-6.06 0-11.791 2.756-15.575 7.489-5.552 6.945-6.08 16.649-1.313 24.155l56.419 88.835c.969.238 1.975.238 2.944 0l56.419-88.835c4.765-7.506 4.238-17.211-1.314-24.155z" fill="#665e66"/></g></svg>