<svg id="Capa_1" enable-background="new 0 0 512 512" height="512" viewBox="0 0 512 512" width="512" xmlns="http://www.w3.org/2000/svg"><g><path d="m479.213 193.355-73.36 29.344v278.999c0 5.69-4.612 10.302-10.302 10.302h-279.103c-5.69 0-10.302-4.612-10.302-10.302v-278.999l-73.36-29.344c-5.409-2.163-7.949-8.378-5.605-13.71l68.03-154.769c6.645-15.116 21.596-24.876 38.108-24.876h245.362c16.512 0 31.463 9.76 38.107 24.876l68.03 154.769c2.345 5.333-.196 11.547-5.605 13.71z" fill="#e7a2cb"/><path d="m106.146 222.699v-45.789c0-4.268-3.459-7.726-7.726-7.726-4.268 0-7.726 3.459-7.726 7.726v39.607z" fill="#e278b1"/><g><path d="m469.761 197.136 9.452-3.781c5.409-2.163 7.949-8.378 5.605-13.71l-68.03-154.769c-6.027-13.712-18.896-22.989-33.558-24.599z" fill="#e278b1"/><g><path d="m413.576 18.935v57.865c0 4.265-3.451 7.726-7.726 7.726-4.265 0-7.726-3.462-7.726-7.726v-71.979c6.212 3.276 11.558 8.108 15.452 14.114z" fill="#e278b1"/></g><g><path d="m113.876 4.821v71.979c0 4.265-3.462 7.726-7.726 7.726-4.275 0-7.726-3.462-7.726-7.726v-57.865c3.894-6.006 9.24-10.838 15.452-14.114z" fill="#e278b1"/></g><path d="m383.108 512h12.444c5.69 0 10.302-4.612 10.302-10.302v-313.415c0-6.281-5.092-11.373-11.373-11.373-6.281 0-11.373 5.092-11.373 11.373z" fill="#e278b1"/></g><path d="m372.553 0c0 64.271-52.282 116.553-116.553 116.553s-116.553-52.282-116.553-116.553z" fill="#bed8fb"/><path d="m339.252 0c0 45.976-37.276 83.252-83.252 83.252s-83.252-37.276-83.252-83.252z" fill="#8b818e"/><path d="m309.022 226.862h-112.158c-6.535 0-11.418-6.006-10.085-12.403l6.114-29.348c.995-4.777 5.206-8.201 10.085-8.201h112.157c6.535 0 11.418 6.006 10.085 12.403l-6.114 29.348c-.994 4.777-5.205 8.201-10.084 8.201z" fill="#ffe07d"/></g></svg>