<svg id="Capa_1" enable-background="new 0 0 512 512" height="512" viewBox="0 0 512 512" width="512" xmlns="http://www.w3.org/2000/svg"><g><g><path d="m495.349 239.35h-199.804v172.748c0 55.175 44.728 99.902 99.902 99.902 55.175 0 99.902-44.728 99.902-99.902z" fill="#eab14d"/><path d="m473.942 239.35v172.748c0 51.558-39.058 93.989-89.199 99.331 3.517.375 7.087.572 10.704.572 55.175 0 99.902-44.728 99.902-99.902v-172.749z" fill="#e7a52e"/><path d="m395.447 472.455c-33.281 0-60.358-27.076-60.358-60.358v-172.747h120.715v172.748c.001 33.281-27.075 60.357-60.357 60.357z" fill="#ffe07d"/><path d="m432.91 239.35v172.748c0 29.367-21.086 53.89-48.911 59.255 3.709.715 7.533 1.103 11.447 1.103 33.282 0 60.358-27.076 60.358-60.358v-172.748z" fill="#ffd064"/><path d="m395.447 0c-64.371 0-116.553 52.182-116.553 116.553v109.975h233.106v-109.975c0-64.371-52.183-116.553-116.553-116.553z" fill="#eab14d"/><path d="m395.447 0c-4.87 0-9.67.304-14.383.884 57.583 7.087 102.169 56.169 102.169 115.669v109.974h28.767v-109.974c0-64.371-52.183-116.553-116.553-116.553z" fill="#e7a52e"/><path d="m491.187 189.398h-191.48c-11.495 0-20.813 9.318-20.813 20.813v18.732c0 5.747 4.659 10.407 10.406 10.407h212.293c5.747 0 10.406-4.659 10.406-10.407v-18.732c.001-11.494-9.317-20.813-20.812-20.813z" fill="#756e78"/><path d="m282.058 89.496h226.778c-2.832-11.912-7.487-23.118-13.663-33.301h-199.452c-6.176 10.183-10.831 21.389-13.663 33.301z" fill="#ffe07d"/><path d="m480.069 89.496h28.767c-2.832-11.912-7.487-23.118-13.663-33.301h-28.767c6.176 10.183 10.831 21.389 13.663 33.301z" fill="#ffd064"/></g><g><path d="m216.455 239.35h-199.804v172.748c0 55.175 44.728 99.902 99.902 99.902 55.175 0 99.902-44.728 99.902-99.902z" fill="#eab14d"/><path d="m195.048 239.35v172.748c0 51.558-39.058 93.989-89.199 99.331 3.517.375 7.087.572 10.704.572 55.175 0 99.902-44.728 99.902-99.902v-172.749z" fill="#e7a52e"/><path d="m116.553 472.455c-33.282 0-60.358-27.076-60.358-60.358v-172.747h120.715v172.748c.001 33.281-27.076 60.357-60.357 60.357z" fill="#ffe07d"/><path d="m154.016 239.35v172.748c0 29.367-21.086 53.89-48.911 59.255 3.709.715 7.533 1.103 11.447 1.103 33.282 0 60.358-27.076 60.358-60.358v-172.748z" fill="#ffd064"/><path d="m116.553 0c-64.37 0-116.553 52.182-116.553 116.553v109.975h233.106v-109.975c0-64.371-52.183-116.553-116.553-116.553z" fill="#eab14d"/><path d="m116.553 0c-4.87 0-9.67.304-14.383.884 57.583 7.087 102.169 56.169 102.169 115.669v109.974h28.767v-109.974c0-64.371-52.183-116.553-116.553-116.553z" fill="#e7a52e"/><path d="m212.293 189.398h-191.48c-11.495 0-20.813 9.319-20.813 20.813v18.732c0 5.747 4.659 10.407 10.407 10.407h212.293c5.747 0 10.407-4.659 10.407-10.407v-18.732c-.001-11.494-9.319-20.813-20.814-20.813z" fill="#756e78"/><path d="m3.164 89.496h226.778c-2.832-11.912-7.487-23.118-13.663-33.301h-199.452c-6.176 10.183-10.831 21.389-13.663 33.301z" fill="#ffe07d"/><path d="m201.175 89.496h28.767c-2.832-11.912-7.487-23.118-13.663-33.301h-28.767c6.176 10.183 10.831 21.389 13.663 33.301z" fill="#ffd064"/></g><g fill="#bed8fb"><path d="m428.747 148.371c-6.583 0-12.96 1.978-18.583 4.659l9.264-27.79c1.349-4.048-.838-8.425-4.886-9.774-4.05-1.353-8.424.838-9.774 4.886l-9.321 27.961-9.32-27.961c-1.35-4.047-5.724-6.234-9.774-4.886-4.047 1.349-6.235 5.725-4.886 9.774l9.263 27.79c-5.624-2.681-12.001-4.659-18.584-4.659-13.441 0-24.376 10.936-24.376 24.376 0 13.442 10.936 24.377 24.376 24.377 13.587 0 26.292-8.414 33.301-14.071 7.01 5.657 19.715 14.071 33.301 14.071 13.442 0 24.377-10.936 24.377-24.377 0-13.44-10.936-24.376-24.378-24.376zm-66.601 33.301c-4.921 0-8.924-4.004-8.924-8.925s4.003-8.924 8.924-8.924c7.323 0 15.504 4.649 21.322 8.924-5.821 4.277-13.999 8.925-21.322 8.925zm66.601 0c-7.33 0-15.519-4.658-21.339-8.937 5.8-4.272 13.965-8.911 21.339-8.911 4.921 0 8.925 4.003 8.925 8.924 0 4.92-4.004 8.924-8.925 8.924z"/><path d="m149.854 148.371c-6.583 0-12.96 1.978-18.584 4.659l9.263-27.79c1.349-4.048-.839-8.425-4.886-9.774-4.05-1.348-8.424.839-9.774 4.886l-9.32 27.961-9.321-27.961c-1.35-4.047-5.724-6.234-9.774-4.886-4.048 1.349-6.235 5.725-4.886 9.774l9.264 27.79c-5.624-2.681-12.001-4.659-18.584-4.659-13.442 0-24.377 10.936-24.377 24.376 0 13.442 10.936 24.377 24.377 24.377 13.586 0 26.291-8.415 33.301-14.071 7.009 5.657 19.714 14.071 33.301 14.071 13.441 0 24.376-10.936 24.376-24.377 0-13.44-10.935-24.376-24.376-24.376zm-66.602 33.301c-4.921 0-8.925-4.004-8.925-8.925s4.004-8.924 8.925-8.924c7.323 0 15.503 4.649 21.322 8.924-5.821 4.277-14 8.925-21.322 8.925zm66.602 0c-7.323 0-15.504-4.65-21.322-8.924 5.821-4.278 13.999-8.925 21.322-8.925 4.921 0 8.924 4.003 8.924 8.924s-4.003 8.925-8.924 8.925z"/></g></g></svg>