<svg id="Capa_1" enable-background="new 0 0 512 512" height="512" viewBox="0 0 512 512" width="512" xmlns="http://www.w3.org/2000/svg"><g><g><path d="m97.5889969 56.1949997-20.5809937 10.2910004c-28.2040024 14.1019974-46.0209999 42.9290009-46.0209999 74.4630051v321.2049866c0 5.6900024 4.6119995 10.302002 10.3019981 10.302002h56.3000031c0-.0000001 0-416.2609941-.0000076-416.2609941z" fill="#ffe07d"/><path d="m397.29599 56.1949997 20.5809937 10.2910004c28.20401 14.1019974 46.0209961 42.9290009 46.0209961 74.4630051v321.2049866c0 5.6900024-4.6119995 10.302002-10.302002 10.302002h-56.2999878z" fill="#ffe07d"/><path d="m438.9219971 81.4950027v390.9599915h14.6740112c5.6900024 0 10.302002-4.6119995 10.302002-10.302002v-321.2039871c0-22.7230072-9.2530213-44.0390014-24.9760132-59.4540024z" fill="#ffd064"/><path d="m139.6840057 35.1479988-42.0950088 21.0470009v445.5029983c0 5.6900024 4.6119995 10.302002 10.302002 10.302002h206.1530151v-289.3009949z" fill="#ffe07d"/><path d="m314.0440063 512v-289.3009949l-82.7910004-82.7910004-48.3139954 48.3139954c-16.1170044 16.1179962-24.9929962 37.5469971-24.9929962 60.3399963v263.4380036z" fill="#ffd064"/><path d="m314.0440063 1.298v134.5829926h-133.2030029v-134.5829926c2.2769928-.855 4.6979981-1.298 7.1699982-1.298h118.8619843c2.4730224 0 4.8940124.443 7.1710204 1.298z" fill="#665e66"/><path d="m248.822998 132.7700043-2.1529999 3.1110077-11.5169983 16.5960083-20.9949951 30.2669983-58.371994-23.3509979c-4.7400055-1.8959961-7.3760071-6.9779968-6.1970062-11.9440002l13.5200043-56.9490051c.6889954-2.9039993.0850067-5.9639969-1.6560059-8.3889999l-24.8309937-34.5769997c-3.2089996-4.468998-2.345993-10.6669998 1.9680023-14.0820007 12.7259979-10.0750008 36.753006-29.0970001 36.7610016-29.1040001 1.6790009-1.3080001 3.5330048-2.3380001 5.4909973-3.049v17.9459991c0 13.1969986 4.1820068 26.0529976 11.9400024 36.7260017z" fill="#c1a098"/><path d="m214.1580048 182.7449951 34.6699981-49.9799957-14.2850036-19.5739975-42.1959992 60.8290024z" fill="#b48e84"/><path d="m355.2009888 35.1479988 42.0950012 21.0470009v445.5029983c0 5.6900024-4.6119995 10.302002-10.302002 10.302002h-206.1529846v-263.4380035c0-16.5599976 6.5780029-32.4409943 18.2879944-44.151001z" fill="#ffe07d"/><g fill="#c1a098"><path d="m331.7770081 90.4990005 13.381012 56.3610001c1.2390137 5.2169952-1.7319946 10.5119934-6.8309937 12.173996l-139.1999969 45.3739929 15.0299988-21.6650085 20.9949951-30.2669983 11.5169983-16.5960083 2.1529999-3.1109924 53.2810059-76.8000031c7.7569885-10.6730003 11.9400024-23.5289993 11.9400024-36.7260017v-17.9449772c1.9779968.7210001 3.8429871 1.762 5.5320129 3.0799999.0230103.0149999 24.0100098 19.0079994 36.7210083 29.073 4.3129883 3.4150009 5.1759949 9.6119995 1.9670105 14.0810013l-24.8320007 34.5779991c-1.7400514 2.4250034-2.3440553 5.4850009-1.6540528 8.3890002z"/><circle cx="230.792" cy="273.487" r="16.65"/><circle cx="297.394" cy="273.487" r="16.65"/><circle cx="230.792" cy="355.902" r="16.65"/><circle cx="297.394" cy="355.902" r="16.65"/><circle cx="230.792" cy="438.318" r="16.65"/><circle cx="297.394" cy="438.318" r="16.65"/></g><path d="m397.29599 501.697998v-280.7910003l17.9129944-28.6399994c2.0830078-3.3309937 1.5469971-7.7960052-1.4960022-10.2819977-3.6799927-3.0050049-9.0270081-2.0310059-11.4660034 1.8659973l-4.9509888 7.9149933v-18.6950073c0-4.2310028-3.2609863-7.9199982-7.4899902-8.0460052-4.3760071-.1309967-7.9630127 3.3769989-7.9630127 7.7230072v339.2520141h5.151001c5.6900024 0 10.3020019-4.6119995 10.3020019-10.302002z" fill="#ffd064"/><path d="m97.5889969 501.697998v-280.7910003l-17.913002-28.6399994c-2.0830002-3.3309937-1.5469971-7.7960052 1.4960022-10.2819977 3.6800003-3.0050049 9.0270004-2.0310059 11.4660034 1.8659973l4.951004 7.9149933v-18.6950073c0-4.2310028 3.2610016-7.9199982 7.4899979-8.0460052 4.3759995-.1309967 7.9629974 3.3769989 7.9629974 7.7230072v339.2520141h-5.151001c-5.6900024 0-10.3020019-4.6119995-10.3020019-10.302002z" fill="#ffd064"/></g></g></svg>