<svg id="Capa_1" enable-background="new 0 0 512 512" height="512" viewBox="0 0 512 512" width="512" xmlns="http://www.w3.org/2000/svg"><g><path d="m122.797 53.073-16.592 3.37c-29.099 5.911-50.01 31.496-50.01 61.189v361.066h66.602z" fill="#8b818e"/><path d="m122.797 478.699v22.999c0 5.69-4.612 10.302-10.302 10.302h-45.998c-5.69 0-10.302-4.612-10.302-10.302l.001-22.999z" fill="#665e66"/><path d="m389.203 53.073 16.592 3.37c29.099 5.911 50.01 31.496 50.01 61.189v361.066h-66.602z" fill="#8b818e"/><path d="m431.733 68.382c1.73 5.734 2.664 11.79 2.664 18.032v392.286h21.408v-361.067c0-19.775-9.282-37.718-24.072-49.251z" fill="#756e78"/><path d="m389.203 478.699v22.999c0 5.69 4.612 10.302 10.302 10.302h45.998c5.69 0 10.302-4.612 10.302-10.302v-22.999z" fill="#665e66"/><path d="m434.397 478.699v33.301h11.106c5.69 0 10.302-4.612 10.302-10.302v-22.999z" fill="#544f57"/><path d="m322.602 33.301h-133.204l-66.601 19.772v419.382h266.406v-419.382z" fill="#665e66"/><path d="m56.195 199.805h25.08c5.69 0 10.302-4.612 10.302-10.302v-12.697c0-5.69-4.612-10.302-10.302-10.302h-25.08z" fill="#c1a098"/><path d="m248.274 472.456v-225.324c0-4.268 3.459-7.726 7.726-7.726 4.268 0 7.726 3.459 7.726 7.726v225.324z" fill="#544f57"/><g><path d="m167.682 431.494h-11.584c-4.267 0-7.726-3.459-7.726-7.726s3.459-7.726 7.726-7.726h7.189l36.704-61.725-4.571-9.153c-1.906-3.818-.357-8.458 3.461-10.364 3.817-1.907 8.457-.357 10.364 3.461l6.456 12.928c1.175 2.352 1.072 5.141-.272 7.4l-41.106 69.129c-1.393 2.34-3.916 3.776-6.641 3.776z" fill="#756e78"/></g><g><path d="m355.902 431.494h-11.585c-2.725 0-5.249-1.436-6.641-3.778l-41.106-69.129c-1.344-2.26-1.447-5.048-.272-7.4l6.456-12.928c1.906-3.819 6.544-5.368 10.364-3.461 3.818 1.906 5.367 6.546 3.461 10.364l-4.571 9.153 36.703 61.725h7.19c4.268 0 7.726 3.459 7.726 7.726s-3.457 7.728-7.725 7.728z" fill="#756e78"/></g><path d="m455.805 199.805h-25.08c-5.69 0-10.302-4.612-10.302-10.302v-12.697c0-5.69 4.612-10.302 10.302-10.302h25.08z" fill="#c1a098"/><path d="m434.397 166.504h21.408v33.301h-21.408z" fill="#b48e84"/><path d="m322.395.845-65.262 269.207c-.752.082-1.514.082-2.266 0l-65.262-269.207c1.545-.557 3.183-.845 4.842-.845h40.74l20.813 7.943 20.813-7.943h40.74c1.659 0 3.297.288 4.842.845z" fill="#544f57"/><path d="m266.511 33.301h-21.022c-5.69 0-10.302-4.612-10.302-10.302v-22.999h41.626v22.999c0 5.69-4.612 10.302-10.302 10.302z" fill="#bed8fb"/><path d="m254.867 270.052c-2.318-.258-4.574-1.308-6.315-3.132l-76.058-79.674c-2.442-2.555-3.42-6.16-2.596-9.591l11.662-49.047c.773-3.235-.051-6.634-2.205-9.158l-49.583-58.195c-3.812-4.471-3.163-11.219 1.432-14.886l54.249-43.226c.021-.01.031-.031.051-.041 1.236-.979 2.627-1.741 4.1-2.256z" fill="#8b818e"/><path d="m332.646 119.449c-2.153 2.524-2.977 5.924-2.205 9.158l11.662 49.047c.824 3.431-.155 7.036-2.596 9.591l-76.058 79.674c-1.741 1.823-3.997 2.874-6.315 3.132l65.261-269.206c1.473.515 2.864 1.277 4.1 2.256.021.01.031.031.052.041l54.249 43.226c4.595 3.668 5.244 10.415 1.432 14.886z" fill="#8b818e"/><g fill="#bed8fb"><circle cx="312.195" cy="172.748" r="7.285"/><circle cx="339.252" cy="60.358" r="10.407"/><circle cx="172.748" cy="60.358" r="10.407"/><circle cx="199.805" cy="172.748" r="7.285"/></g></g></svg>