<svg id="Capa_1" enable-background="new 0 0 512 512" height="512" viewBox="0 0 512 512" width="512" xmlns="http://www.w3.org/2000/svg"><g><path d="m424.951 239.104c0-93.308-75.641-168.949-168.949-168.949s-168.95 75.641-168.95 168.949z" fill="#ffe07d"/><path d="m87.052 239.104h337.898v50.685h-337.898z" fill="#e7a2cb"/><path d="m256.001 70.155c-6.608 0-13.124.392-19.535 1.131 84.104 9.685 149.414 81.119 149.414 167.819h39.07c.001-93.309-75.641-168.95-168.949-168.95z" fill="#ffd064"/><path d="m385.881 239.104h39.07v50.685h-39.07z" fill="#e278b1"/><path d="m509.092 398.203c-.115.115-.23.23-.355.345-14.843 14.06-53.426 43.297-117.576 43.297-68.102 0-107.594-13.882-135.159-29.028 13.464-7.411 24.074-15.115 33.795-21.659 24.23-16.328 50.677-33.784 111.921-33.784 28.14 0 77.572 8.937 109.914 30.847.941 3.449.073 7.254-2.54 9.982z" fill="#eab14d"/><path d="m511.632 388.221c-32.342-21.91-81.775-30.847-109.914-30.847-61.245 0-87.691 17.457-111.921 33.784-29.603 19.944-67.59 50.687-168.954 50.687-64.151 0-102.723-29.227-117.576-43.297-4.108-3.899-4.38-10.349-.596-14.561l84.377-94.193h337.907l84.377 94.193c1.129 1.254 1.892 2.707 2.3 4.234z" fill="#ffe07d"/><path d="m511.632 388.221v.01c-16.913-11.467-38.499-19.37-59.269-24.314l-66.408-74.123h39l84.377 94.193c1.129 1.254 1.892 2.707 2.3 4.234z" fill="#ffd064"/><path d="m218.343 302.06-63.711-23.471v-28.284l63.711-23.471c13.787-5.079 28.419 5.123 28.419 19.817v35.593c0 14.692-14.632 24.895-28.419 19.816z" fill="#80b4fb"/><path d="m90.921 302.06 63.711-23.471v-28.284l-63.711-23.471c-13.787-5.079-28.419 5.123-28.419 19.817v35.593c0 14.692 14.632 24.895 28.419 19.816z" fill="#80b4fb"/><g><path d="m195.813 272.286h-21.119c-4.33 0-7.84-3.51-7.84-7.84s3.51-7.84 7.84-7.84h21.119c4.33 0 7.84 3.51 7.84 7.84 0 4.331-3.509 7.84-7.84 7.84z" fill="#61a2f9"/></g><g><path d="m134.569 272.286h-21.119c-4.33 0-7.84-3.51-7.84-7.84s3.51-7.84 7.84-7.84h21.119c4.33 0 7.84 3.51 7.84 7.84 0 4.331-3.51 7.84-7.84 7.84z" fill="#61a2f9"/></g><path d="m134.569 239.104v50.685c0 3.499 2.837 6.336 6.336 6.336h27.454c3.499 0 6.336-2.837 6.336-6.336v-50.685c0-3.499-2.837-6.336-6.336-6.336h-27.454c-3.499.001-6.336 2.837-6.336 6.336z" fill="#bed8fb"/><path d="m168.359 232.769h-16.895c3.499 0 6.336 2.837 6.336 6.336v50.685c0 3.499-2.837 6.336-6.336 6.336h16.895c3.499 0 6.336-2.837 6.336-6.336v-50.685c0-3.5-2.837-6.336-6.336-6.336z" fill="#9dc6fb"/></g></svg>