<svg id="Capa_1" enable-background="new 0 0 512 512" height="512" viewBox="0 0 512 512" width="512" xmlns="http://www.w3.org/2000/svg"><g><path d="m370.321 512h-41.951c-5.121 0-9.481-3.725-10.279-8.784l-4.857-30.761h67.493v29.138c.001 5.748-4.658 10.407-10.406 10.407z" fill="#9dc6fb"/><path d="m362.442 472.455v29.138c0 5.747-4.659 10.406-10.406 10.406h18.286c5.747 0 10.407-4.659 10.407-10.406v-29.138z" fill="#80b4fb"/><path d="m141.679 512h41.951c5.121 0 9.481-3.725 10.279-8.784l4.857-30.761h-67.493v29.138c-.001 5.748 4.658 10.407 10.406 10.407z" fill="#9dc6fb"/><path d="m389.202 118.636v345.574c0 4.553-3.688 8.241-8.241 8.241h-68.033c-4.028 0-7.458-2.905-8.128-6.882l-46.77-280.632c-.381-2.287-3.678-2.287-4.059 0l-46.771 280.633c-.67 3.976-4.1 6.882-8.128 6.882h-68.033c-4.553 0-8.241-3.688-8.241-8.241v-345.575l16.648-15.03v-64.057h233.109v64.057z" fill="#8b818e"/><path d="m389.202 118.636v345.574c0 4.553-3.688 8.241-8.241 8.241h-14.134l-.01-366.065c0-11.188-1.803-22.303-5.336-32.914l-11.311-33.924h22.386v64.057z" fill="#756e78"/><path d="m389.203 118.634v-12.251c0-11.185-1.803-22.297-5.34-32.908l-11.31-33.93h-49.951l7.564 30.257c5.593 22.371 23.06 39.838 45.431 45.431z" fill="#9dc6fb"/><path d="m383.863 73.475-11.31-33.93h-22.382l11.31 33.93c3.537 10.611 5.34 21.723 5.34 32.908v5.943c2.825 1.171 5.754 2.15 8.775 2.906l13.606 3.402v-12.251c.001-11.185-1.802-22.297-5.339-32.908z" fill="#80b4fb"/><path d="m122.797 118.634v-12.251c0-11.185 1.803-22.297 5.34-32.908l11.31-33.93h49.951l-7.564 30.257c-5.593 22.371-23.06 39.838-45.431 45.431z" fill="#9dc6fb"/><path d="m372.553 39.545h-233.106v-29.138c0-5.748 4.659-10.407 10.407-10.407h212.293c5.747 0 10.407 4.659 10.407 10.407v29.138z" fill="#665e66"/><path d="m362.146 0h-22.382c5.747 0 10.406 4.659 10.406 10.407v29.138h22.382v-29.138c.001-5.748-4.658-10.407-10.406-10.407z" fill="#544f57"/><g><path d="m248.274 0h15.453v39.545h-15.453z" fill="#8b818e"/></g><g><path d="m281.574 0h15.453v39.545h-15.453z" fill="#8b818e"/></g><g><path d="m314.875 0h15.453v39.545h-15.453z" fill="#8b818e"/></g><g><path d="m214.973 0h15.453v39.545h-15.453z" fill="#8b818e"/></g><g><path d="m181.672 0h15.453v39.545h-15.453z" fill="#8b818e"/></g><path d="m276.237 80.453c.865.07 1.745.119 2.658.119 13.441 0 24.376-10.936 24.376-24.377s-10.936-24.377-24.376-24.377c-10.728 0-18.116 5.054-22.895 10.282-4.779-5.228-12.166-10.282-22.894-10.282-13.442 0-24.377 10.936-24.377 24.377s10.935 24.377 24.377 24.377c.913 0 1.793-.049 2.658-.119-7.717 19.168-16.61 47.42-20.739 82.929-.493 4.238 2.544 8.074 6.782 8.567.303.035.604.052.902.052 3.868 0 7.207-2.899 7.665-6.835 5.044-43.378 17.78-75.709 25.637-92.33 7.85 16.575 20.556 48.821 25.615 92.33.458 3.936 3.797 6.835 7.665 6.835.298 0 .6-.017.902-.052 4.238-.493 7.276-4.328 6.783-8.567-4.129-35.509-13.022-63.761-20.739-82.929zm2.657-33.182c4.921 0 8.924 4.004 8.924 8.924s-4.003 8.924-8.924 8.924c-6.268 0-10.432-3.667-12.882-6.886-.449-.845-.867-1.619-1.24-2.293 2.134-3.448 6.601-8.669 14.122-8.669zm-45.788 17.848c-4.921 0-8.924-4.004-8.924-8.924s4.004-8.924 8.924-8.924c7.488 0 11.97 5.229 14.115 8.681-.384.695-.816 1.494-1.281 2.371-2.448 3.195-6.591 6.796-12.834 6.796z" fill="#9dc6fb"/></g></svg>