<svg id="Capa_1" enable-background="new 0 0 512 512" height="512" viewBox="0 0 512 512" width="512" xmlns="http://www.w3.org/2000/svg"><g><path d="m505.961 396.015-226.193 33.822-19.713-92.392c-.933-4.375-7.176-4.375-8.11 0l-19.713 92.392-226.193-33.822 25.685-155.056 39.958-82.291-16.719-58.015h402.073l-16.719 58.015 39.958 82.291z" fill="#9dc6fb"/><path d="m255.762 218.211c-4.255.127-7.536 3.839-7.536 8.096v128.569l3.719-17.431c.933-4.375 7.176-4.375 8.11 0l3.719 17.431v-128.894c0-4.373-3.609-7.902-8.012-7.771z" fill="#80b4fb"/><path d="m54.962 48.19v52.459h402.076v-52.459c0-5.725-4.641-10.365-10.365-10.365h-381.345c-5.725 0-10.366 4.641-10.366 10.365z" fill="#c1a098"/><path d="m431.123 37.825v62.824h25.915v-52.459c0-5.725-4.641-10.365-10.365-10.365z" fill="#b48e84"/><path d="m121.975 37.825h33.506v62.824h-33.506z" fill="#9dc6fb"/><path d="m356.519 37.825h33.506v62.824h-33.506z" fill="#9dc6fb"/><path d="m505.964 396.015-48.926-295.366h-25.915l49.552 299.147z" fill="#80b4fb"/><path d="m279.765 429.839 7.708 36.132c1.143 5.356 6.254 8.899 11.67 8.089l204.022-30.508c5.725-.856 9.639-6.235 8.693-11.945l-5.895-35.591z" fill="#bed8fb"/><path d="m480.675 399.796 7.616 45.979 14.875-2.224c5.725-.856 9.639-6.235 8.693-11.945l-5.895-35.591z" fill="#9dc6fb"/><path d="m232.235 429.839-7.708 36.132c-1.143 5.356-6.254 8.899-11.67 8.089l-204.023-30.509c-5.725-.856-9.639-6.235-8.693-11.945l5.895-35.591z" fill="#bed8fb"/><path d="m281.732 100.649h-33.506v139.755c0 3.338 3.744 5.308 6.495 3.417l8.856-6.089c11.365-7.814 18.155-20.721 18.155-34.513z" fill="#80b4fb"/><path d="m474.729 207.451h-35.819c-9.151 0-17.242-5.942-19.981-14.673l-28.903-92.128h-33.506l32.475 103.612c6.844 21.835 27.075 36.695 49.957 36.695h41.327z" fill="#80b4fb"/><path d="m448.814 207.451 5.55 33.506h25.915l-5.55-33.506z" fill="#61a2f9"/><path d="m390.025 100.649 28.903 92.128c2.739 8.731 10.83 14.673 19.981 14.673h35.819l-17.691-106.801z" fill="#bed8fb"/><path d="m474.729 207.451-17.691-106.802h-25.915l17.691 106.802z" fill="#9dc6fb"/><path d="m72.949 207.31c14.538 0 27.176-9.976 30.553-24.116l19.712-82.544h32.268l-21.988 92.076c-6.754 28.28-32.03 48.232-61.106 48.232h-40.667l5.574-33.647h35.654z" fill="#80b4fb"/><path d="m123.214 100.649-19.712 82.544c-3.377 14.14-16.015 24.116-30.553 24.116h-35.654l17.668-106.66z" fill="#bed8fb"/><g><path d="m271.706 77.011h-31.412c-4.294 0-7.774-3.481-7.774-7.774s3.48-7.774 7.774-7.774h31.412c4.294 0 7.774 3.481 7.774 7.774s-3.48 7.774-7.774 7.774z" fill="#756e78"/></g></g></svg>