<svg id="Capa_1" enable-background="new 0 0 512 512" height="512" viewBox="0 0 512 512" width="512" xmlns="http://www.w3.org/2000/svg"><g><path d="m389.201 20.905v72.411l-62.161 40.568c-23.54 15.381-37.746 41.598-37.746 69.722v27.418h-66.59v-27.418c0-28.124-14.206-54.342-37.746-69.722l-62.161-40.568v-72.411c1.916.649 3.75 1.607 5.419 2.823l89.007 64.901c3.554 2.596 7.85 3.997 12.259 3.997l26.518 18.522 26.517-18.523c4.409 0 8.705-1.401 12.259-3.997l88.997-64.891c1.668-1.215 3.502-2.173 5.428-2.832z" fill="#ac80dd"/><path d="m229.482 92.621v26.752c0 5.689 4.612 10.302 10.302 10.302h32.432c5.69 0 10.302-4.612 10.302-10.302v-26.752z" fill="#bed8fb"/><path d="m56.196 425.627v45.788c0 11.495 9.318 20.813 20.813 20.813h357.982c11.495 0 20.813-9.318 20.813-20.813v-45.788z" fill="#8b818e"/><path d="m422.503 425.627v45.788c0 11.495-9.318 20.813-20.813 20.813h33.301c11.495 0 20.813-9.318 20.813-20.813v-45.788z" fill="#756e78"/><path d="m438.619 438.311c-11.095 2.483-23.54 3.966-37.467 3.966h-290.304c-13.928 0-26.372-1.484-37.467-3.966-54.187-12.156-85.762-68.311-68.775-121.19 17.431-54.218 37.88-125.836 46.904-157.843 3.111-11.023 4.687-22.417 4.687-33.872v-95.333c0-5.689 4.612-10.302 10.302-10.302h49.582c2.297 0 4.574.381 6.717 1.133v126.866c0 45.983 37.276 83.259 83.259 83.259h99.896c45.977 0 83.248-37.272 83.248-83.248v-126.876c2.143-.742 4.419-1.123 6.717-1.123l49.581-.009c5.69-.001 10.303 4.612 10.303 10.302v95.331c0 11.456 1.576 22.849 4.687 33.872 9.024 32.007 29.473 103.625 46.904 157.843 16.988 52.879-14.587 109.034-68.774 121.19z" fill="#cbafea"/><path d="m507.39 317.126c-17.423-54.228-37.878-125.837-46.904-157.848-3.109-11.026-4.683-22.421-4.683-33.877v-95.325c0-5.689-4.612-10.302-10.302-10.302h-16.978v105.627c0 11.456 1.574 22.851 4.683 33.877 9.026 32.011 29.48 103.62 46.904 157.848 16.99 52.879-14.581 109.024-68.775 121.183-11.087 2.488-23.537 3.967-37.465 3.967h27.279c13.929 0 26.378-1.48 37.465-3.967 54.195-12.159 85.766-68.304 68.776-121.183z" fill="#bc95e2"/><path d="m183.155 309.074h145.69c5.747 0 10.406 4.659 10.406 10.406v41.626c0 5.747-4.659 10.406-10.406 10.406h-145.69c-5.747 0-10.406-4.659-10.406-10.406v-41.626c-.001-5.747 4.658-10.406 10.406-10.406z" fill="#bed8fb"/><g><path d="m266.406 171.389h-20.813c-4.267 0-7.726-3.459-7.726-7.726 0-4.268 3.459-7.726 7.726-7.726h20.813c4.267 0 7.726 3.459 7.726 7.726.001 4.267-3.459 7.726-7.726 7.726z" fill="#9d66d5"/></g></g></svg>