<svg id="Capa_1" enable-background="new 0 0 512 512" height="512" viewBox="0 0 512 512" width="512" xmlns="http://www.w3.org/2000/svg"><g><path d="m136 390c-8.291 0-15-6.709-15-15v-81.753c0-8.291 6.709-15 15-15s15 6.709 15 15v81.753c0 8.291-6.709 15-15 15z" fill="#f2f2fc"/><path d="m376 390c-8.291 0-15-6.709-15-15v-81.753c0-8.291 6.709-15 15-15s15 6.709 15 15v81.753c0 8.291-6.709 15-15 15z" fill="#e2d9fb"/><path d="m256 330c-8.401 0-15 6.599-15 15v60c0 8.399 6.599 15 15 15s15-6.601 15-15v-60c0-8.401-6.599-15-15-15z" fill="#f2f2fc"/><path d="m271 345v60c0 8.399-6.599 15-15 15v-90c8.401 0 15 6.599 15 15z" fill="#e2d9fb"/><path d="m428.002 166.729c-4.819-2.534-39.639-20.566-71.719-28.271 17.241-28.11 29.106-65.493 30.718-70.693 1.655-5.317.22-11.104-3.721-15.044-3.94-3.955-9.741-5.42-15.044-3.721-5.2 1.611-42.554 13.462-70.693 30.732-7.69-32.08-25.737-66.914-28.271-71.733-2.607-4.922-7.939-7.383-13.271-7.383s-10.664 2.461-13.271 7.383c-2.534 4.819-20.566 39.639-28.271 71.719-28.11-17.241-65.493-29.106-70.693-30.718-5.317-1.655-11.104-.22-15.044 3.721s-5.376 9.727-3.721 15.044c1.611 5.2 13.462 42.554 30.732 70.693-32.08 7.69-66.914 25.737-71.733 28.271-4.924 2.607-8 7.705-8 13.271s3.076 10.664 7.998 13.271c4.819 2.534 39.639 20.566 71.719 28.271-17.241 28.11-29.106 65.493-30.718 70.693-1.655 5.317-.22 11.104 3.721 15.044 3.926 3.926 9.668 5.332 15.044 3.721 5.2-1.611 42.554-13.462 70.693-30.732 7.69 32.08 25.737 66.914 28.271 71.733 2.608 4.923 7.706 7.999 13.272 7.999s10.664-3.076 13.271-7.998c2.534-4.819 20.566-39.639 28.271-71.719 28.11 17.241 65.493 29.106 70.693 30.718 5.361 1.655 11.118.234 15.044-3.721 3.94-3.94 5.376-9.727 3.721-15.044-1.611-5.2-13.462-42.554-30.732-70.693 32.08-7.69 66.914-25.737 71.733-28.271 4.923-2.608 7.999-7.706 7.999-13.272s-3.076-10.664-7.998-13.271zm-95.054 28.227-11.924 28.916c9.771 10.649 19.336 30.22 26.528 47.681-17.49-7.207-37.09-16.772-47.71-26.543l-28.887 11.968c-.615 14.443-7.69 35.054-14.956 52.485-7.266-17.446-14.355-38.071-14.956-52.515l-28.916-11.924c-10.649 9.771-30.22 19.336-47.681 26.528 7.207-17.49 16.772-37.09 26.543-47.71l-11.968-28.887c-14.443-.615-35.054-7.69-52.485-14.956 17.446-7.266 38.071-14.355 52.515-14.956l11.924-28.916c-9.771-10.649-19.336-30.22-26.528-47.681 17.49 7.207 37.09 16.772 47.71 26.543l28.887-11.968c.615-14.443 7.69-35.054 14.956-52.485 7.266 17.446 14.355 38.071 14.956 52.515l28.916 11.924c10.649-9.771 30.22-19.336 47.681-26.528-7.207 17.49-16.772 37.09-26.543 47.71l11.968 28.887c14.443.615 35.054 7.69 52.485 14.956-17.446 7.266-38.071 14.355-52.515 14.956z" fill="#f2f2fc"/><path d="m269.271 352.002c2.534-4.819 20.566-39.639 28.271-71.719 28.11 17.241 65.493 29.106 70.693 30.718 5.361 1.655 11.118.234 15.044-3.721 3.94-3.94 5.376-9.727 3.721-15.044-1.611-5.2-13.462-42.554-30.732-70.693 32.08-7.69 66.914-25.737 71.733-28.271 4.923-2.608 7.999-7.706 7.999-13.272s-3.076-10.664-7.998-13.271c-4.819-2.534-39.639-20.566-71.719-28.271 17.241-28.11 29.106-65.493 30.718-70.693 1.655-5.317.22-11.104-3.721-15.044-3.94-3.955-9.741-5.42-15.044-3.721-5.2 1.611-42.554 13.462-70.693 30.732-7.69-32.08-25.737-66.914-28.271-71.733-2.607-4.922-7.939-7.383-13.271-7.383v49.922c7.266 17.446 14.355 38.071 14.956 52.515l28.916 11.924c10.649-9.771 30.22-19.336 47.681-26.528-7.207 17.49-16.772 37.09-26.543 47.71l11.968 28.887c14.443.615 35.054 7.69 52.485 14.956-17.446 7.266-38.071 14.355-52.515 14.956l-11.924 28.916c9.771 10.649 19.336 30.22 26.528 47.681-17.49-7.207-37.09-16.772-47.71-26.543l-28.887 11.968c-.615 14.443-7.69 35.054-14.956 52.485v50.535c5.566 0 10.664-3.076 13.271-7.998z" fill="#e2d9fb"/><path d="m136 481c-3.838 0-7.676-1.465-10.605-4.395-3.516-3.515-34.395-36.405-34.395-71.605 0-24.814 20.186-45 45-45s45 20.186 45 45c0 35.2-30.879 68.09-34.395 71.605-2.929 2.93-6.767 4.395-10.605 4.395z" fill="#fed843"/><path d="m376 481c-3.838 0-7.676-1.465-10.605-4.395-3.516-3.515-34.395-36.405-34.395-71.605 0-24.814 20.186-45 45-45s45 20.186 45 45c0 35.2-30.879 68.09-34.395 71.605-2.929 2.93-6.767 4.395-10.605 4.395z" fill="#c567ea"/><path d="m256 90c-49.501 0-90 40.499-90 90 0 49.499 40.499 90 90 90s90-40.501 90-90c0-49.501-40.499-90-90-90zm0 150c-32.999 0-60-27.001-60-60 0-33.001 27.001-60 60-60s60 26.999 60 60c0 32.999-27.001 60-60 60z" fill="#ff8fb8"/><path d="m346 180c0 49.499-40.499 90-90 90v-30c32.999 0 60-27.001 60-60 0-33.001-27.001-60-60-60v-30c49.501 0 90 40.499 90 90z" fill="#ff5f96"/><circle cx="256" cy="180" fill="#fed843" r="15"/><path d="m256 195v-30c8.401 0 15 6.599 15 15 0 8.399-6.599 15-15 15z" fill="#fabe2c"/><path d="m256 0c-99.3 0-180 80.7-180 180s80.7 180 180 180 180-80.7 180-180-80.7-180-180-180zm0 330c-82.8 0-150-67.2-150-150s67.2-150 150-150 150 67.2 150 150-67.2 150-150 150z" fill="#873a62"/><path d="m436 180c0 99.3-80.7 180-180 180v-30c82.8 0 150-67.2 150-150s-67.2-150-150-150v-30c99.3 0 180 80.7 180 180z" fill="#6d1d40"/><path d="m256 390c-24.814 0-45 20.186-45 45 0 35.2 30.879 69.09 34.395 72.605 2.93 2.93 6.768 4.395 10.605 4.395s7.676-1.465 10.605-4.395c3.516-3.515 34.395-37.405 34.395-72.605 0-24.814-20.186-45-45-45z" fill="#ff8fb8"/><path d="m301 435c0-24.814-20.186-45-45-45v122c3.838 0 7.676-1.465 10.605-4.395 3.516-3.515 34.395-37.405 34.395-72.605z" fill="#ff5f96"/></g></svg>