<svg id="Capa_1" enable-background="new 0 0 512 512" height="512" viewBox="0 0 512 512" width="512" xmlns="http://www.w3.org/2000/svg"><g><path d="m406 256c-60.789-15.406-114.43-45.222-150-79.609-28.151-27.217-45-57.294-45-85.391 0-8.401-6.599-15-15-15h-45l-30 15c0 61.419 56.517 135.452 135 189.45 41.887 28.819 89.925 52.029 139.2 64.349l40.8-19.799v-49.2z" fill="#f2f2fc"/><path d="m436 325v-49.2l-30-19.8c-60.789-15.406-114.43-45.222-150-79.609v104.059c41.887 28.819 89.925 52.029 139.2 64.349z" fill="#e2d9fb"/><path d="m167.23 211.85c-5.142-6.489-4.043-15.923 2.461-21.064l70.854-56.074c6.519-5.142 15.938-4.014 21.064 2.461 5.142 6.489 4.043 15.923-2.461 21.064l-70.854 56.074c-6.499 5.151-15.944 4.026-21.064-2.461z" fill="#873a62"/><path d="m296.767 311.21c-7.456-3.589-10.605-12.554-7.017-20.024l39.097-81.343c3.574-7.471 12.539-10.62 20.024-7.017 7.456 3.589 10.605 12.554 7.017 20.024l-39.097 81.343c-3.622 7.533-12.661 10.57-20.024 7.017z" fill="#6d1d40"/><path d="m300.282 173.646c-6.665-4.966-16.069-3.501-20.977 3.135l-23.305 31.516-30.498 41.243c-4.937 6.665-3.53 16.055 3.135 20.977 6.605 4.909 16.038 3.556 20.977-3.135l6.387-8.637 47.417-64.122c4.936-6.665 3.529-16.055-3.136-20.977z" fill="#873a62"/><path d="m300.282 173.646c-6.665-4.966-16.069-3.501-20.977 3.135l-23.305 31.516v50.447l47.417-64.122c4.937-6.664 3.53-16.054-3.135-20.976z" fill="#6d1d40"/><path d="m395.2 314.799c-52.971-13.242-100.474-34.72-139.2-61.342-64.794-44.543-105-103.495-105-162.457v-15h-136c-8.401 0-15 6.599-15 15v135l151 180h105l150-20.101 30-27.599v-33.3z" fill="#e681fa"/><path d="m436 358.299v-33.299l-40.8-10.201c-52.971-13.242-100.474-34.72-139.2-61.342v152.543l150-20.101z" fill="#c567ea"/><path d="m15 226h-15v150l30 30h121v-45c0-74.443-61.557-135-136-135z" fill="#c567ea"/><path d="m512 341.8v-10.8c0-7.2-.901-14.101-2.401-19.801-12.299-53.699-78.698-55.199-103.599-55.199v129.882l84.736-11.232z" fill="#c7c1dc"/><path d="m256 376h-256v45c0 8.399 6.599 15 15 15h241c150.601 0 241.901-29.401 245.799-30.901 6-1.8 10.201-7.5 10.201-14.099v-49.2c-77.54 25.4-174.862 34.2-256 34.2z" fill="#f2f2fc"/><path d="m512 391v-49.2c-77.54 25.4-174.862 34.2-256 34.2v60c150.601 0 241.901-29.401 245.799-30.901 6.001-1.8 10.201-7.5 10.201-14.099z" fill="#e2d9fb"/></g></svg>