<svg id="Capa_1" enable-background="new 0 0 512 512" height="512" viewBox="0 0 512 512" width="512" xmlns="http://www.w3.org/2000/svg"><g><path d="m256 91c-124.265 0-225 100.735-225 225 0 15.412 1.566 30.458 4.517 45h46.406c-3.729-14.412-5.923-29.438-5.923-45 0-99.258 80.742-180 180-180s180 80.742 180 180c0 15.562-2.194 30.588-5.923 45h46.406c2.952-14.542 4.517-29.588 4.517-45 0-124.265-100.735-225-225-225z" fill="#ff8fb8"/><path d="m436 316c0 15.562-2.194 30.588-5.923 45h46.406c2.952-14.542 4.517-29.588 4.517-45 0-124.265-100.735-225-225-225v45c99.258 0 180 80.742 180 180z" fill="#ff5f96"/><path d="m256 121c-107.52 0-195 87.48-195 195 0 15.509 2.012 30.527 5.451 45h47.208c-4.539-14.297-7.659-29.22-7.659-45 0-82.705 67.295-150 150-150s150 67.295 150 150c0 15.78-3.12 30.703-7.659 45h47.208c3.439-14.473 5.451-29.491 5.451-45 0-107.52-87.48-195-195-195z" fill="#fed843"/><path d="m406 316c0 15.78-3.12 30.703-7.659 45h47.208c3.439-14.473 5.451-29.491 5.451-45 0-107.52-87.48-195-195-195v45c82.705 0 150 67.295 150 150z" fill="#fabe2c"/><path d="m256 151c-90.981 0-165 74.019-165 165 0 15.615 2.324 30.672 6.396 45h47.531c-5.662-13.922-8.926-29.07-8.926-45 0-66.167 53.833-120 120-120s120 53.833 120 120c0 15.93-3.265 31.078-8.926 45h47.531c4.072-14.328 6.396-29.385 6.396-45-.002-90.981-74.021-165-165.002-165z" fill="#c3ea21"/><path d="m376 316c0 15.93-3.265 31.078-8.926 45h47.531c4.072-14.328 6.396-29.385 6.396-45 0-90.981-74.019-165-165-165v45c66.166 0 119.999 53.833 119.999 120z" fill="#9cdd05"/><path d="m256 181c-74.443 0-135 60.557-135 135 0 15.855 3.25 30.855 8.293 45h49.224c-7.751-13.292-12.517-28.535-12.517-45 0-49.629 40.371-90 90-90s90 40.371 90 90c0 16.465-4.766 31.708-12.517 45h49.224c5.043-14.145 8.293-29.145 8.293-45 0-74.443-60.557-135-135-135z" fill="#7ed8f6"/><path d="m346 316c0 16.465-4.766 31.708-12.517 45h49.224c5.043-14.145 8.293-29.145 8.293-45 0-74.443-60.557-135-135-135v45c49.629 0 90 40.371 90 90z" fill="#6aa9ff"/><path d="m256 211c-57.891 0-105 47.109-105 105 0 16.165 3.977 31.307 10.532 45h34.85c-9.517-12.574-15.382-28.052-15.382-45 0-41.353 33.647-75 75-75s75 33.647 75 75c0 16.948-5.865 32.426-15.383 45h34.85c6.556-13.693 10.533-28.835 10.533-45 0-57.891-47.109-105-105-105z" fill="#e681fa"/><path d="m331 316c0 16.948-5.865 32.426-15.383 45h34.85c6.556-13.693 10.533-28.835 10.533-45 0-57.891-47.109-105-105-105v30c41.353 0 75 33.647 75 75z" fill="#c567ea"/><path d="m155.614 412.973h-104.809c-27.466 0-50.805-22.339-50.805-49.79 0-24.8 19.223-45.425 42.968-49.189 7.661-25.093 31.084-43.213 58.345-43.213 22.28 0 42.7 12.451 53.306 31.436 30.79-.924 56.381 24.491 56.381 55.37 0 30.542-24.844 55.386-55.386 55.386z" fill="#f2f2fc"/><path d="m455.614 421h-104.81c-27.465 0-49.804-22.339-49.804-49.805 0-24.785 18.223-45.41 41.968-49.175 7.661-25.093 31.084-43.213 58.345-43.213 22.28 0 42.7 12.451 53.306 31.436 30.19-.894 57.367 24.492 57.382 55.371-.001 30.542-25.845 55.386-56.387 55.386z" fill="#e2d9fb"/></g></svg>