<svg id="Capa_1" enable-background="new 0 0 512 512" height="512" viewBox="0 0 512 512" width="512" xmlns="http://www.w3.org/2000/svg"><g><path d="m481.376 422h-74.376-63.75l-41.25 30v15c0 24.814 20.186 45 45 45h60 60c24.814 0 45-20.186 45-45v-15z" fill="#fed843"/><path d="m512 467v-15l-30.624-30h-74.376v90h60c24.814 0 45-20.186 45-45z" fill="#fabe2c"/><path d="m452 191.181v-40.181l-45-30-45 30v40.298c-31.809 14.788-53.934 44.877-58.922 79.702l28.922 30v61l-30 30v60h105 105v-166c0-40.898-24.185-78.384-60-94.819z" fill="#9cdd05"/><path d="m512 286c0-40.898-24.185-78.384-60-94.819v-40.181l-45-30v331h105z" fill="#6b0"/><path d="m75 452c-41.353 0-75-33.647-75-75v-61c0-24.814 20.186-45 45-45h30c8.291 0 15 6.709 15 15s-6.709 15-15 15h-30c-8.276 0-15 6.724-15 15v61c0 24.814 20.186 45 45 45 8.291 0 15 6.709 15 15s-6.709 15-15 15z" fill="#873a62"/><path d="m242 196.337c0-.117 0-.22 0-.337 0-25.239-27.353-45-61-45-5.27 0-10.161.864-15 1.78-20.032 3.788-35.949 14.572-42.144 29.202-35.595 5.815-63.856 36.796-63.856 74.018v15l25.781 30h80.219 72.25l33.75-30v-15c0-23.613-11.265-45.615-30-59.663z" fill="#f2f2fc"/><path d="m272 271v-15c0-23.613-11.265-45.615-30-59.663 0-.117 0-.22 0-.337 0-25.239-27.353-45-61-45-5.27 0-10.161.864-15 1.78v148.22h72.25z" fill="#e2d9fb"/><path d="m166 271h-106v181l33.75 30h72.25 76.938l29.062-30v-181z" fill="#fed843"/><path d="m272 452v-181h-106v211h76.938z" fill="#fabe2c"/><path d="m196 392c-8.291 0-15-6.709-15-15v-61c0-8.291 6.709-15 15-15s15 6.709 15 15v61c0 8.291-6.709 15-15 15z" fill="#ff9100"/><path d="m136 392c-8.291 0-15-6.709-15-15v-61c0-8.291 6.709-15 15-15s15 6.709 15 15v61c0 8.291-6.709 15-15 15z" fill="#fabe2c"/><path d="m166 452h-106v15c0 24.814 20.186 45 45 45h61 60c24.814 0 46-20.186 46-45v-15z" fill="#fabe2c"/><path d="m272 467v-15h-106v60h60c24.814 0 46-20.186 46-45z" fill="#ff9100"/><path d="m406.599 331c0-33.647-24.135-60-74.599-60h-28.922c-.705 4.916-1.078 9.924-1.078 15v106h30c50.464 0 74.599-27.353 74.599-61z" fill="#fed843"/><path d="m407 30-45 30v91h45 45v-91z" fill="#fed843"/><path d="m452 60-45-30v121h45z" fill="#fabe2c"/><path d="m437 0h-30-30c-8.291 0-15 6.709-15 15v45h45 45v-45c0-8.291-6.709-15-15-15z" fill="#873a62"/><path d="m452 15c0-8.291-6.709-15-15-15h-30v60h45z" fill="#6d1d40"/></g></svg>