<svg id="Capa_1" enable-background="new 0 0 512 512" height="512" viewBox="0 0 512 512" width="512" xmlns="http://www.w3.org/2000/svg"><g><path d="m256 331c-8.291 0-15 6.709-15 15v151c0 8.291 6.709 15 15 15s15-6.709 15-15v-151c0-8.291-6.709-15-15-15z" fill="#9cdd05"/><path d="m271 497v-151c0-8.291-6.709-15-15-15v181c8.291 0 15-6.709 15-15z" fill="#6b0"/><path d="m504.31 359.096c4.746-2.651 7.69-7.661 7.69-13.096s-2.944-10.444-7.69-13.096c-2.33-1.303-58.936-31.904-128.31-31.904-56.252 0-102.916 19.909-120 28.215v31.785c17.084 8.306 63.748 30 120 30 69.374 0 125.98-30.601 128.31-31.904z" fill="#9cdd05"/><path d="m504.31 332.904c-6.352-3.555-69.248-36.182-143.95-31.399 86.715-68.571 121.064-160.393 121.783-162.283 2.124-5.522.791-11.777-3.398-15.967s-10.459-5.552-15.967-3.398c-1.85.703-96.864 36.032-166.558 127.285 18.348-129.7-25.562-236.788-26.318-238.661-2.3-5.654-8.101-8.481-13.902-8.481s-11.602 2.827-13.901 8.481c-.756 1.873-44.666 108.961-26.318 238.661-69.694-91.252-164.708-126.582-166.558-127.285-5.522-2.124-11.763-.791-15.967 3.398-4.189 4.189-5.522 10.444-3.398 15.967.667 1.755 35.073 93.716 121.783 162.283-74.694-4.782-137.632 27.862-143.95 31.399-4.747 2.652-7.691 7.661-7.691 13.096s2.944 10.444 7.69 13.096c6.368 3.564 68.954 35.786 141.522 31.497-28.549 36.245-35.044 78.52-35.331 80.52-.688 4.688.879 9.419 4.233 12.773 3.247 3.264 7.911 4.928 12.773 4.233 1.782-.256 86.7-10.353 125.112-93.129 38.411 82.773 123.324 92.872 125.112 93.129 4.891.699 9.541-1.001 12.773-4.233 3.354-3.354 4.922-8.086 4.233-12.773-.288-2-6.781-44.266-35.334-80.52 72.569 4.288 135.158-27.934 141.524-31.497 4.746-2.651 7.69-7.661 7.69-13.096s-2.941-10.444-7.687-13.096z" fill="#c3ea21"/><path d="m381.112 488.119c4.891.699 9.541-1.001 12.773-4.233 3.354-3.354 4.922-8.086 4.233-12.773-.288-2-6.781-44.266-35.334-80.52 72.569 4.288 135.158-27.934 141.524-31.497 4.746-2.651 7.69-7.661 7.69-13.096s-2.944-10.444-7.69-13.096c-6.352-3.555-69.248-36.182-143.95-31.399 86.715-68.571 121.064-160.393 121.783-162.283 2.124-5.522.791-11.777-3.398-15.967s-10.459-5.552-15.967-3.398c-1.85.703-96.864 36.032-166.558 127.285 18.348-129.7-25.562-236.788-26.318-238.661-2.298-5.654-8.099-8.481-13.9-8.481v394.99c38.411 82.773 123.324 92.872 125.112 93.129z" fill="#9cdd05"/></g></svg>