<svg id="Layer_1" enable-background="new 0 0 512.002 512.002" height="512" viewBox="0 0 512.002 512.002" width="512" xmlns="http://www.w3.org/2000/svg"><g><g><path clip-rule="evenodd" d="m256.001 10c-312.328 157.445-211.093 481.229-20.073 381.141v.009c5.323-3.82 12.544-5.966 20.072-5.968h.009c7.532 0 14.756 2.147 20.081 5.968 191.01 100.058 292.229-223.71-20.089-381.15z" fill="#cff2d2" fill-rule="evenodd"/><g><path d="m211.877 253.576c-2.559 0-5.119-.976-7.071-2.929l-17.072-17.072h-44.357c-5.523 0-10-4.477-10-10s4.477-10 10-10h24.357l-18.929-18.929c-3.905-3.905-3.905-10.237 0-14.143s10.237-3.905 14.143 0l56.001 56.001c3.905 3.905 3.905 10.237 0 14.143-1.953 1.953-4.513 2.929-7.072 2.929z" fill="#a0e5a5"/></g><g><path d="m300.125 253.576c-2.559 0-5.119-.976-7.071-2.929-3.905-3.905-3.905-10.237 0-14.143l56-56.001c3.905-3.905 10.237-3.905 14.143 0s3.905 10.237 0 14.143l-18.929 18.929h24.357c5.523 0 10 4.477 10 10s-4.477 10-10 10h-44.357l-17.072 17.072c-1.952 1.953-4.512 2.929-7.071 2.929z" fill="#a0e5a5"/></g></g><path d="m465.721 265.046c-2.418-46.943-20.235-94.784-51.524-138.351-35.968-50.079-87.678-92.346-153.695-125.625-2.831-1.427-6.172-1.427-9.003 0-66.019 33.28-117.73 75.548-153.696 125.629-31.29 43.568-49.105 91.41-51.522 138.354-1.505 29.228 3.198 57.315 13.599 81.227 10.487 24.109 26.57 43.605 46.512 56.381 18.047 11.563 38.461 17.334 60.264 17.334 23.326 0 48.241-6.608 73.537-19.799.543-.256 1.067-.563 1.566-.921 1.244-.893 2.683-1.644 4.243-2.259v104.985c0 5.523 4.477 10 10 10s10-4.477 10-10v-104.992c1.567.617 3.012 1.371 4.261 2.267.378.272.776.517 1.189.733 49.069 25.705 96.718 26.645 134.166 2.648 19.94-12.777 36.022-32.274 46.508-56.383 10.399-23.913 15.101-52.001 13.595-81.228zm-70.895 120.772c-31.002 19.866-71.304 18.712-113.531-3.231-4.429-3.04-9.661-5.204-15.294-6.379v-5.706l62.447-62.447c3.905-3.905 3.905-10.237 0-14.143s-10.237-3.905-14.143 0l-48.304 48.305v-164.126l22.944-22.943c3.905-3.905 3.905-10.237 0-14.142-3.906-3.906-10.237-3.905-14.143 0l-8.801 8.801v-21.232c0-5.523-4.477-10-10-10s-10 4.477-10 10v21.232l-8.801-8.801c-3.906-3.905-10.237-3.906-14.143 0-3.905 3.905-3.905 10.237 0 14.142l22.944 22.943v164.126l-48.305-48.305c-3.905-3.905-10.237-3.905-14.143 0s-3.905 10.237 0 14.143l62.447 62.447v5.709c-5.603 1.171-10.809 3.321-15.221 6.337-42.252 21.982-82.576 23.149-113.6 3.273-34.607-22.172-53.645-66.935-50.926-119.74 4.875-94.692 75.693-185.938 189.747-244.855 114.05 58.915 184.868 150.159 189.746 244.849 2.721 52.805-16.314 97.568-50.92 119.743z" fill="#89df8f"/></g></svg>