<svg id="Layer_1" enable-background="new 0 0 512.001 512.001" height="512" viewBox="0 0 512.001 512.001" width="512" xmlns="http://www.w3.org/2000/svg"><g><g><g clip-rule="evenodd" fill-rule="evenodd"><path d="m256 156.001c14.197 0 27.241-4.931 37.516-13.173 10.714-8.595 18.415-20.79 21.268-34.751.797-3.901 1.216-7.94 1.216-12.077 0-33.137-26.863-60-60-60s-60 26.863-60 60c0 4.137.419 8.176 1.216 12.077 2.853 13.961 10.555 26.156 21.268 34.751 10.275 8.242 23.32 13.173 37.516 13.173z" fill="#99ebfa"/><path d="m306.769 194.728c-3.57-19.113-8.057-36.816-13.253-51.9-10.275 8.242-23.319 13.173-37.516 13.173-14.196 0-27.242-4.931-37.516-13.173-5.196 15.084-9.683 32.787-13.252 51.9 15.977 2.741 33.039 4.229 50.768 4.229 17.729.001 34.791-1.488 50.769-4.229z" fill="#cecdf3"/><path d="m306.769 194.728c-15.978 2.741-33.04 4.23-50.769 4.23-17.728 0-34.791-1.488-50.769-4.23-5.847 31.307-9.231 66.4-9.231 99.974 0 29.894 2.682 55.003 7.398 75.367 16.502 2.946 34.194 4.546 52.602 4.546s36.1-1.6 52.603-4.546c4.715-20.364 7.397-45.474 7.397-75.368 0-33.573-3.384-68.666-9.231-99.973z" fill="#99ebfa"/><path d="m256 374.616c-18.408 0-36.1-1.6-52.603-4.546 4.948 21.375 12.136 37.521 20.812 48.485 9.217 11.649 20.115 17.446 31.791 17.446s22.574-5.797 31.791-17.446c8.676-10.964 15.864-27.11 20.812-48.485-16.503 2.945-34.195 4.546-52.603 4.546z" fill="#cecdf3"/><path d="m308.604 370.07c-4.948 21.375-12.136 37.521-20.812 48.485 16.294 33.979 51.008 57.446 91.209 57.446 55.838 0 101.104-45.266 101.104-101.104 0-25.127-9.169-48.109-24.34-65.793 28.18-22.54 46.236-57.209 46.236-96.101 0-67.931-55.069-123-123-123-23.535 0-45.525 6.611-64.216 18.076-2.853 13.961-10.555 26.156-21.268 34.751 5.196 15.084 9.683 32.787 13.253 51.9 5.847 31.307 9.231 66.4 9.231 99.974-.001 29.892-2.683 55.001-7.397 75.366z" fill="#ccf5fc"/><path d="m224.209 418.555c-8.676-10.964-15.864-27.11-20.812-48.485-4.715-20.364-7.397-45.474-7.397-75.368 0-33.574 3.384-68.667 9.231-99.974 3.57-19.113 8.057-36.816 13.253-51.9-10.714-8.595-18.415-20.79-21.268-34.751-18.691-11.464-40.681-18.075-64.216-18.075-67.931 0-123 55.069-123 123 0 38.892 18.056 73.562 46.236 96.101-15.171 17.684-24.34 40.666-24.34 65.793 0 55.838 45.266 101.104 101.104 101.104 40.201.001 74.915-23.466 91.209-57.445z" fill="#ccf5fc"/><circle cx="93.125" cy="180.726" fill="#99ebfa" r="20"/><ellipse cx="133.924" cy="257.525" fill="#99ebfa" rx="20" ry="20" transform="matrix(.707 -.707 .707 .707 -142.872 170.126)"/><ellipse cx="124.924" cy="393.726" fill="#99ebfa" rx="20" ry="20" transform="matrix(.987 -.16 .16 .987 -61.455 25.095)"/></g><g><path d="m68.524 250.725c-5.522 0-10.004-4.477-10.004-10s4.474-10 9.996-10h.008c5.522 0 10 4.477 10 10s-4.477 10-10 10z" fill="#cecdf3"/></g><g><path d="m157.324 196.725c-5.522 0-10.004-4.477-10.004-10s4.475-10 9.997-10h.007c5.522 0 10 4.477 10 10s-4.477 10-10 10z" fill="#cecdf3"/></g><g><path d="m136.925 337.125c-5.522 0-10.004-4.477-10.004-10s4.474-10 9.996-10h.008c5.522 0 10 4.477 10 10s-4.478 10-10 10z" fill="#cecdf3"/></g><ellipse clip-rule="evenodd" cx="418.876" cy="180.726" fill="#99ebfa" fill-rule="evenodd" rx="20" ry="20" transform="matrix(.973 -.23 .23 .973 -30.317 101.073)"/><ellipse clip-rule="evenodd" cx="378.076" cy="257.525" fill="#99ebfa" fill-rule="evenodd" rx="20" ry="20" transform="matrix(.707 -.707 .707 .707 -71.362 342.768)"/><ellipse clip-rule="evenodd" cx="387.076" cy="393.726" fill="#99ebfa" fill-rule="evenodd" rx="20" ry="20" transform="matrix(.987 -.16 .16 .987 -58.07 67.087)"/><g><path d="m443.483 250.725h-.008c-5.522 0-10-4.477-10-10s4.478-10 10-10 10.004 4.477 10.004 10-4.473 10-9.996 10z" fill="#cecdf3"/></g><g><path d="m354.684 196.725h-.008c-5.522 0-10-4.477-10-10s4.478-10 10-10 10.004 4.477 10.004 10-4.474 10-9.996 10z" fill="#cecdf3"/></g><g><path d="m375.083 337.125h-.007c-5.522 0-10-4.477-10-10s4.478-10 10-10 10.004 4.477 10.004 10-4.475 10-9.997 10z" fill="#cecdf3"/></g></g><path d="m512.001 213.002c0-73.336-59.663-133-133-133-18.404 0-36.504 3.802-53.193 11.083-.964-13.805-5.928-26.525-13.767-36.983l3.478-3.479c3.905-3.906 3.905-10.237-.001-14.142-3.904-3.905-10.237-3.905-14.142 0l-3.478 3.478c-11.689-8.762-26.198-13.959-41.898-13.959s-30.209 5.197-41.899 13.959l-3.478-3.478c-3.906-3.905-10.236-3.905-14.143 0-3.905 3.905-3.905 10.237 0 14.143l3.478 3.478c-7.837 10.456-12.801 23.173-13.766 36.974-16.686-7.28-34.782-11.074-53.193-11.074-73.337 0-133 59.664-133 133 0 37.313 15.373 72.308 42.493 97.454-13.343 18.735-20.598 41.267-20.598 64.441.002 61.263 49.842 111.103 111.106 111.103 21.286 0 41.973-6.041 59.823-17.47 13.545-8.673 24.978-20.125 33.612-33.534 8.853 7.213 18.855 11.005 29.565 11.005s20.712-3.792 29.565-11.005c8.643 13.422 20.089 24.884 33.651 33.559 17.842 11.413 38.515 17.445 59.785 17.445 61.263 0 111.104-49.841 111.104-111.104 0-23.175-7.255-45.707-20.598-64.441 27.121-25.145 42.494-60.139 42.494-97.453zm-206.001-117.001c0 27.57-22.43 50-50 50s-50-22.43-50-50 22.43-50 50-50 50 22.43 50 50zm-173 369.999c-50.235 0-91.104-40.869-91.104-91.104 0-21.744 7.788-42.797 21.93-59.282 1.766-2.059 2.62-4.746 2.366-7.445-.253-2.7-1.592-5.181-3.71-6.875-26.998-21.594-42.482-53.775-42.482-88.292 0-62.309 50.691-113 113-113 19.532 0 38.641 5.022 55.516 14.557 3.317 12.045 9.77 22.8 18.435 31.322-12.978 40.848-20.951 97.109-20.951 148.821 0 45.985 6.396 84.134 18.496 110.321 2.434 5.267 5.113 10.054 8.004 14.357-16.005 28.488-46.622 46.62-79.5 46.62zm123-39.999c-24.888 0-50-40.599-50-131.299 0-47.171 6.827-98.087 18.073-136.438 9.581 4.933 20.429 7.737 31.927 7.737s22.347-2.804 31.928-7.738c11.243 38.353 18.072 89.315 18.072 136.439 0 90.7-25.112 131.299-50 131.299zm214.104-51.105c0 50.235-40.869 91.104-91.104 91.104-33.4 0-63.381-17.729-79.505-46.612 2.893-4.305 5.574-9.095 8.009-14.365 12.1-26.187 18.496-64.335 18.496-110.321 0-51.665-7.978-107.981-20.951-148.822 8.663-8.52 15.115-19.272 18.432-31.314 16.875-9.535 35.993-14.565 55.52-14.565 62.309 0 113 50.691 113 113 0 34.517-15.484 66.698-42.482 88.292-2.118 1.694-3.457 4.175-3.71 6.875-.254 2.7.601 5.387 2.366 7.445 14.141 16.486 21.929 37.539 21.929 59.283z" fill="#33d6f5"/></g></svg>