<svg id="Layer_1" enable-background="new 0 0 512 512" height="512" viewBox="0 0 512 512" width="512" xmlns="http://www.w3.org/2000/svg"><g><g clip-rule="evenodd" fill-rule="evenodd"><g><path d="m256 93.943c29.229 0 57.023 6.146 82.158 17.217 1.186-5.662 1.784-11.432 1.784-17.217.001-46.36-37.582-83.943-83.942-83.943s-83.943 37.583-83.943 83.943c0 5.786.598 11.557 1.784 17.217 25.136-11.071 52.93-17.217 82.159-17.217z" fill="#b6bccf"/><path d="m338.158 111.16c-25.135-11.071-52.929-17.217-82.158-17.217v297.027c0 48.708 37.989 88.963 86.617 91.784 69.375-32.576 117.411-103.07 117.411-184.783 0-83.452-50.103-155.203-121.87-186.811z" fill="#ffbecb"/><path d="m256 390.97v-297.027c-29.229 0-57.023 6.146-82.159 17.217-71.767 31.608-121.87 103.359-121.87 186.811 0 81.713 48.037 152.207 117.412 184.781 48.628-2.818 86.617-43.073 86.617-91.782z" fill="#ffbecb"/><path d="m342.617 482.755c-48.628-2.821-86.617-43.076-86.617-91.785 0 48.708-37.989 88.963-86.617 91.784 26.292 12.346 55.648 19.246 86.617 19.246s60.325-6.9 86.617-19.245z" fill="#b6bccf"/></g><g fill="#9ea6bf"><ellipse cx="154.13" cy="297.971" rx="35" ry="35" transform="matrix(.987 -.159 .159 .987 -45.503 28.361)"/><path d="m182.13 217.515c11.729 0 21.295-9.566 21.295-21.295s-9.566-21.295-21.295-21.295-21.295 9.566-21.295 21.295c0 11.728 9.566 21.295 21.295 21.295z"/><path d="m182.13 415.515c11.729 0 21.295-9.566 21.295-21.295s-9.566-21.295-21.295-21.295-21.295 9.566-21.295 21.295c0 11.728 9.566 21.295 21.295 21.295z"/><ellipse cx="357.871" cy="297.971" rx="35" ry="35" transform="matrix(.987 -.159 .159 .987 -42.901 60.82)"/><path d="m329.871 217.515c11.729 0 21.295-9.566 21.295-21.295s-9.566-21.295-21.295-21.295-21.295 9.566-21.295 21.295c0 11.728 9.566 21.295 21.295 21.295z"/><path d="m329.871 415.515c11.729 0 21.295-9.566 21.295-21.295s-9.566-21.295-21.295-21.295-21.295 9.566-21.295 21.295c0 11.728 9.566 21.295 21.295 21.295z"/></g></g><path d="m502 287.972h-32.212c-2.38-51.488-23.031-98.285-55.612-134.034l22.844-22.843c3.906-3.905 3.906-10.237 0-14.143-3.906-3.904-10.237-3.904-14.142 0l-22.844 22.844c-15.119-13.779-32.214-25.423-50.804-34.456.462-3.783.714-7.597.714-11.397 0-22.305-7.819-42.816-20.854-58.946l12.982-12.982c3.905-3.905 3.905-10.237 0-14.143s-10.237-3.905-14.143 0l-12.982 12.982c-16.131-13.035-36.641-20.854-58.947-20.854s-42.816 7.819-58.947 20.854l-12.981-12.981c-3.905-3.905-10.237-3.905-14.143 0s-3.905 10.237 0 14.143l12.982 12.982c-13.034 16.13-20.854 36.641-20.854 58.946 0 3.8.252 7.614.714 11.397-18.59 9.033-35.685 20.677-50.804 34.456l-22.844-22.844c-3.905-3.905-10.237-3.905-14.142 0-3.905 3.906-3.905 10.237 0 14.143l22.844 22.844c-32.582 35.749-53.232 82.546-55.612 134.033h-32.213c-5.523 0-10 4.477-10 10s4.477 10 10 10h32.213c2.38 51.487 23.031 98.284 55.612 134.033l-22.845 22.843c-3.905 3.905-3.905 10.237 0 14.143 1.953 1.953 4.512 2.929 7.071 2.929s5.119-.976 7.071-2.929l22.844-22.844c38.052 34.678 88.616 55.852 144.034 55.852 32.209 0 62.772-7.165 90.198-19.964.34-.136.669-.292.99-.463 19.379-9.164 37.175-21.145 52.844-35.426l22.844 22.844c1.953 1.953 4.512 2.929 7.071 2.929s5.119-.976 7.071-2.929c3.905-3.905 3.905-10.237 0-14.143l-22.844-22.844c32.582-35.749 53.232-82.545 55.612-134.033h32.214c5.523 0 10-4.477 10-10s-4.477-9.999-10-9.999zm-319.943-194.029c0-40.772 33.171-73.943 73.943-73.943s73.943 33.171 73.943 73.943c0 1.047-.026 2.096-.071 3.144-23.036-8.498-47.921-13.144-73.872-13.144s-50.836 4.646-73.873 13.145c-.044-1.049-.07-2.098-.07-3.145zm-120.085 204.029c0-103.634 81.67-188.552 184.028-193.774v286.773c0 42.459-32.582 77.821-74.611 81.585-64.711-31.49-109.417-97.912-109.417-174.584zm141.798 186.879c22.944-9.732 41.524-27.609 52.228-49.893 10.702 22.288 29.283 40.163 52.229 49.894-16.624 4.652-34.138 7.148-52.227 7.148s-35.605-2.497-52.23-7.149zm136.842-12.296c-42.034-3.761-74.612-39.114-74.612-81.584v-286.773c102.359 5.222 184.029 90.14 184.029 193.774 0 76.672-44.706 143.094-109.417 174.583z" fill="#9ea6bf"/></g></svg>