<svg id="Layer_1" enable-background="new 0 0 512.002 512.002" height="512" viewBox="0 0 512.002 512.002" width="512" xmlns="http://www.w3.org/2000/svg"><g><g clip-rule="evenodd" fill-rule="evenodd"><path d="m206.001 136.001h100l70-56.719-120-69.282-120 69.282z" fill="#ffbecb"/><path d="m206.001 376.001v-240l-70-56.719v353.438z" fill="#ffe0e6"/><path d="m206.001 136.001h100v240h-100z" fill="#fff"/><path d="m306.001 136.001v240l70 56.719v-353.438z" fill="#ffe0e6"/><path d="m306.001 376.001h-100l-70 56.719 120 69.282 120-69.282z" fill="#ffbecb"/></g><g><path d="m381.001 70.622-119.999-69.282c-3.096-1.787-6.907-1.786-10 0l-120 69.282c-3.094 1.786-5 5.087-5 8.66v353.438c0 3.573 1.906 6.874 5 8.66l120 69.282c1.547.894 3.273 1.34 5 1.34 1.726 0 3.453-.446 5-1.34l119.999-69.282c3.094-1.786 5-5.087 5-8.66v-353.438c0-3.572-1.906-6.874-5-8.66zm-15 356.324-110 63.509-110-63.509v-341.89l110-63.509 110 63.509z" fill="#ff7d97"/></g></g></svg>