<svg id="Layer_1" enable-background="new 0 0 512.002 512.002" height="512" viewBox="0 0 512.002 512.002" width="512" xmlns="http://www.w3.org/2000/svg"><g><g clip-rule="evenodd" fill-rule="evenodd"><ellipse cx="313.995" cy="433.213" fill="#b8ecbb" rx="66.997" ry="38.674" transform="matrix(.707 -.707 .707 .707 -214.361 348.913)"/><ellipse cx="197.997" cy="433.212" fill="#b8ecbb" rx="38.674" ry="66.997" transform="matrix(.707 -.707 .707 .707 -248.335 266.89)"/><path d="m226.001 61.971c0 11.095 3.012 21.486 8.262 30.401 6.998-1.551 14.272-2.369 21.738-2.369 7.465 0 14.74.818 21.738 2.369 5.25-8.915 8.262-19.306 8.262-30.401 0-22.208-12.066-41.596-30-51.971-17.934 10.375-30 29.763-30 51.971z" fill="#fff2a0"/><path d="m166.004 94.124c5.548 9.609 13.351 17.102 22.356 22.197 5.285-4.842 11.176-9.188 17.641-12.921s13.174-6.661 20.01-8.817c.089-10.346-2.498-20.851-8.046-30.459-11.103-19.232-31.247-29.99-51.965-30.008-10.344 17.951-11.1 40.776.004 60.008z" fill="#fff7bf"/><path d="m130.122 151.968c9.609 5.547 20.113 8.135 30.459 8.045 2.156-6.836 5.085-13.545 8.817-20.01 3.733-6.465 8.078-12.356 12.921-17.641-5.096-9.004-12.589-16.808-22.197-22.356-19.233-11.104-42.057-10.349-60.008-.005.018 20.719 10.776 40.863 30.008 51.967z" fill="#fff2a0"/><path d="m127.969 220.003c11.095 0 21.486-3.012 30.401-8.262-1.551-6.998-2.369-14.272-2.369-21.738 0-7.465.818-14.74 2.369-21.738-8.915-5.25-19.306-8.262-30.401-8.262-22.208 0-41.596 12.066-51.971 30 10.375 17.933 29.763 30 51.971 30z" fill="#fff7bf"/><path d="m160.122 280c9.609-5.548 17.102-13.351 22.197-22.356-4.842-5.285-9.188-11.176-12.921-17.641s-6.661-13.174-8.817-20.01c-10.346-.089-20.851 2.498-30.459 8.046-19.233 11.104-29.991 31.248-30.008 51.966 17.951 10.343 40.776 11.098 60.008-.005z" fill="#fff2a0"/><path d="m217.966 315.882c5.547-9.609 8.135-20.113 8.045-30.459-6.836-2.156-13.545-5.085-20.01-8.817-6.465-3.733-12.356-8.078-17.641-12.921-9.004 5.095-16.808 12.589-22.356 22.197-11.104 19.233-10.349 42.057-.005 60.008 20.719-.018 40.863-10.776 51.967-30.008z" fill="#fff7bf"/><path d="m286.001 318.035c0-11.095-3.012-21.486-8.262-30.401-6.998 1.551-14.272 2.369-21.738 2.369-7.465 0-14.74-.818-21.738-2.37-5.25 8.915-8.262 19.306-8.262 30.401 0 22.208 12.066 41.596 30 51.971 17.933-10.374 30-29.762 30-51.97z" fill="#fff2a0"/><path d="m345.997 285.882c-5.548-9.609-13.351-17.102-22.356-22.197-5.285 4.842-11.176 9.188-17.641 12.921s-13.174 6.661-20.01 8.817c-.089 10.346 2.498 20.851 8.046 30.459 11.104 19.233 31.248 29.991 51.966 30.008 10.344-17.951 11.099-40.776-.005-60.008z" fill="#fff7bf"/><path d="m381.88 228.038c-9.609-5.547-20.113-8.135-30.459-8.045-2.156 6.836-5.085 13.545-8.817 20.01-3.733 6.465-8.078 12.356-12.921 17.641 5.095 9.004 12.589 16.808 22.197 22.356 19.233 11.104 42.057 10.349 60.008.005-.018-20.719-10.776-40.863-30.008-51.967z" fill="#fff2a0"/><path d="m384.032 160.003c-11.095 0-21.486 3.012-30.401 8.262 1.551 6.998 2.369 14.272 2.369 21.738 0 7.465-.818 14.74-2.369 21.738 8.915 5.25 19.306 8.262 30.401 8.262 22.208 0 41.596-12.066 51.971-30-10.374-17.933-29.763-30-51.971-30z" fill="#fff7bf"/><path d="m351.88 100.006c-9.609 5.548-17.102 13.352-22.197 22.356 4.842 5.285 9.188 11.176 12.921 17.641s6.661 13.174 8.817 20.01c10.346.089 20.851-2.498 30.459-8.046 19.233-11.104 29.991-31.248 30.008-51.966-17.952-10.343-40.776-11.098-60.008.005z" fill="#fff2a0"/><path d="m294.036 64.124c-5.547 9.609-8.135 20.114-8.045 30.459 6.836 2.156 13.545 5.085 20.01 8.817 6.465 3.733 12.356 8.078 17.641 12.921 9.004-5.096 16.808-12.589 22.356-22.197 11.104-19.233 10.349-42.057.005-60.008-20.719.018-40.863 10.776-51.967 30.008z" fill="#fff7bf"/><ellipse cx="255.998" cy="190.003" fill="#ddb9b6" rx="99.999" ry="99.999" transform="matrix(.707 -.707 .707 .707 -59.373 236.669)"/></g><path d="m256.001 200.003c-5.522 0-10.004-4.477-10.004-10s4.475-10 9.997-10h.007c5.522 0 10 4.477 10 10s-4.478 10-10 10z" fill="#fff"/><path d="m206 200.003c-5.522 0-10.004-4.477-10.004-10s4.474-10 9.996-10h.008c5.522 0 10 4.477 10 10s-4.478 10-10 10z" fill="#fff"/><path d="m230.986 243.31c-1.787 0-3.596-.479-5.229-1.484-4.703-2.895-6.172-9.051-3.277-13.755l.004-.006c2.894-4.703 9.052-6.172 13.758-3.275 4.703 2.895 6.17 9.054 3.275 13.758-1.89 3.069-5.172 4.762-8.531 4.762z" fill="#fff"/><path d="m281.01 243.311c-3.356 0-6.633-1.689-8.521-4.758l-.004-.006c-2.895-4.704-1.428-10.863 3.275-13.758 4.707-2.895 10.864-1.427 13.758 3.275 2.895 4.704 1.43 10.867-3.273 13.761-1.635 1.007-3.447 1.486-5.235 1.486z" fill="#fff"/><path d="m306.01 200.003h-.008c-5.522 0-10-4.477-10-10s4.478-10 10-10 10.004 4.477 10.004 10-4.473 10-9.996 10z" fill="#fff"/><path d="m280.992 156.701c-1.788 0-3.597-.479-5.231-1.485-4.703-2.895-6.17-9.054-3.275-13.758 2.895-4.703 9.055-6.173 13.76-3.279 4.703 2.895 6.172 9.051 3.277 13.755l-.004.006c-1.889 3.07-5.17 4.761-8.527 4.761z" fill="#fff"/><path d="m231.009 156.701c-3.358 0-6.638-1.691-8.526-4.76-2.895-4.704-1.43-10.867 3.273-13.761 4.701-2.892 10.861-1.432 13.756 3.272l.004.006c2.895 4.704 1.428 10.863-3.275 13.758-1.635 1.006-3.444 1.485-5.232 1.485z" fill="#fff"/><path d="m444.66 184.995c-9.923-17.151-26.632-29.131-45.573-33.332 14.304-13.109 22.784-31.839 22.801-51.653.003-3.579-1.906-6.886-5.008-8.673-17.167-9.892-37.628-11.913-56.132-6.081 5.833-18.505 3.812-38.965-6.081-56.133-1.785-3.098-5.089-5.007-8.664-5.007-.003 0-.006 0-.009 0-19.814.017-38.544 8.497-51.653 22.801-4.201-18.942-16.181-35.651-33.331-45.573-3.1-1.792-6.919-1.792-10.015 0-17.152 9.922-29.132 26.631-33.334 45.573-13.109-14.304-31.838-22.784-51.653-22.801-.003 0-.006 0-.009 0-3.575 0-6.88 1.909-8.665 5.007-9.892 17.169-11.913 37.629-6.08 56.133-18.505-5.833-38.966-3.811-56.133 6.081-3.102 1.787-5.011 5.094-5.008 8.673.017 19.814 8.497 38.544 22.801 51.653-18.942 4.201-35.65 16.181-45.572 33.332-1.792 3.098-1.792 6.917 0 10.015 9.922 17.152 26.63 29.131 45.573 33.333-14.304 13.109-22.784 31.839-22.801 51.653-.003 3.579 1.906 6.886 5.008 8.673 10.801 6.224 22.901 9.334 35.003 9.334 7.134 0 14.266-1.091 21.13-3.255-5.833 18.505-3.813 38.965 6.08 56.134 1.786 3.098 5.09 5.007 8.665 5.007h.009c19.814-.017 38.544-8.497 51.652-22.801 3.78 17.044 13.862 32.272 28.34 42.383v41.545c-3.715-6.365-8.253-12.305-13.581-17.632-21.98-21.979-54.309-30.646-84.373-22.618-3.457.923-6.158 3.624-7.081 7.082-8.028 30.063.639 62.393 22.618 84.373 16.561 16.56 38.994 25.562 61.908 25.562 6.842 0 13.725-.812 20.509-2.456v10.675c0 5.523 4.478 10 10 10s10-4.477 10-10v-10.676c6.785 1.644 13.666 2.456 20.51 2.456 22.912 0 45.35-9.004 61.908-25.563 21.979-21.979 30.646-54.31 22.617-84.373-.923-3.458-3.624-6.158-7.081-7.082-30.067-8.028-62.394.639-84.373 22.619-5.328 5.328-9.866 11.268-13.581 17.633v-41.547c14.477-10.11 24.56-25.339 28.34-42.382 13.109 14.304 31.838 22.784 51.653 22.801h.009c3.575 0 6.879-1.909 8.665-5.007 9.892-17.168 11.913-37.628 6.081-56.133 6.864 2.163 13.995 3.254 21.129 3.254 12.1 0 24.203-3.112 35.004-9.335 3.101-1.787 5.01-5.094 5.007-8.673-.017-19.814-8.497-38.543-22.801-51.653 18.942-4.201 35.65-16.181 45.573-33.332 1.791-3.096 1.791-6.915-.001-10.014zm-188.659 95.008c-49.626 0-90-40.374-90-90s40.374-90 90-90 90 40.374 90 90-40.374 90-90 90zm145.519-174.015c-1.892 15.484-10.975 29.43-24.641 37.32-5.736 3.312-12.063 5.438-18.569 6.285-4.018-10.137-9.504-19.537-16.19-27.943 3.991-5.229 9.006-9.661 14.759-12.983 13.668-7.89 30.284-8.783 44.641-2.679zm-98.824-36.864c7.891-13.667 21.836-22.749 37.321-24.641 6.104 14.355 5.21 30.974-2.68 44.641-3.322 5.753-7.753 10.768-12.982 14.759-8.406-6.686-17.806-12.172-27.944-16.191.847-6.504 2.973-12.83 6.285-18.568zm-46.694-47.153c12.464 9.38 19.999 24.219 19.999 40 0 6.624-1.322 13.165-3.84 19.221-5.276-.78-10.671-1.19-16.16-1.19s-10.883.41-16.159 1.19c-2.519-6.057-3.841-12.598-3.841-19.221 0-15.78 7.536-30.619 20.001-40zm-84.017 22.512c15.485 1.892 29.43 10.975 37.32 24.642 3.312 5.737 5.438 12.063 6.285 18.568-10.138 4.018-19.538 9.505-27.944 16.19-5.229-3.991-9.661-9.006-12.982-14.759-7.89-13.666-8.784-30.284-2.679-44.641zm-61.504 61.505c14.356-6.105 30.974-5.211 44.642 2.679 5.752 3.322 10.767 7.753 14.758 12.982-6.686 8.406-12.172 17.806-16.19 27.943-6.505-.847-12.832-2.973-18.568-6.284-13.667-7.891-22.75-21.836-24.642-37.32zm-22.512 84.015c9.381-12.464 24.219-20 40-20 6.624 0 13.165 1.322 19.221 3.84-.78 5.276-1.19 10.671-1.19 16.16s.41 10.884 1.19 16.159c-6.057 2.519-12.598 3.841-19.221 3.841-15.781 0-30.619-7.536-40-20zm22.512 84.015c1.892-15.484 10.975-29.43 24.642-37.32 5.737-3.312 12.063-5.438 18.568-6.285 4.018 10.138 9.505 19.538 16.191 27.944-3.991 5.229-9.006 9.661-14.759 12.982-13.666 7.889-30.284 8.785-44.642 2.679zm98.824 36.864c-7.891 13.667-21.835 22.749-37.32 24.641-6.104-14.356-5.211-30.975 2.68-44.641 3.321-5.753 7.753-10.768 12.981-14.759 8.406 6.686 17.806 12.173 27.944 16.191-.847 6.505-2.972 12.831-6.285 18.568zm-50.294 83.93c21.465-3.737 43.725 3.173 59.266 18.715 12.371 12.37 19.264 28.995 19.682 46.09l-10.532-10.533c-3.904-3.905-10.234-3.905-14.143 0-3.905 3.905-3.905 10.237 0 14.142l10.534 10.534c-17.096-.417-33.722-7.312-46.091-19.682-15.543-15.541-22.451-37.797-18.716-59.266zm134.713 18.715c15.541-15.542 37.8-22.45 59.267-18.715 3.734 21.468-3.174 43.725-18.715 59.266-12.369 12.37-28.997 19.262-46.09 19.681l10.532-10.532c3.905-3.905 3.905-10.237 0-14.142-3.904-3.905-10.234-3.905-14.143 0l-10.532 10.532c.418-17.095 7.312-33.72 19.681-46.09zm-37.723-55.493c-12.465-9.38-20-24.219-20-40 0-6.625 1.322-13.166 3.84-19.221 5.276.78 10.67 1.19 16.16 1.19 5.489 0 10.884-.41 16.16-1.19 2.518 6.056 3.84 12.597 3.84 19.221 0 15.781-7.536 30.62-20 40zm84.015-22.511c-15.485-1.892-29.43-10.975-37.32-24.642-3.312-5.736-5.438-12.063-6.284-18.568 10.137-4.018 19.537-9.505 27.943-16.191 5.229 3.991 9.661 9.006 12.983 14.759 7.889 13.667 8.783 30.286 2.678 44.642zm61.504-61.504c-14.354 6.103-30.975 5.211-44.641-2.679-5.753-3.322-10.769-7.754-14.759-12.982 6.686-8.406 12.172-17.806 16.19-27.943 6.506.847 12.832 2.972 18.569 6.284 13.667 7.89 22.75 21.835 24.641 37.32zm-17.487-64.016c-6.624 0-13.166-1.322-19.222-3.841.78-5.276 1.19-10.671 1.19-16.16s-.41-10.883-1.19-16.159c6.057-2.519 12.598-3.841 19.222-3.841 15.78 0 30.618 7.536 39.999 20-9.381 12.466-24.219 20.001-39.999 20.001z" fill="#d1a19e"/></g></svg>