<svg id="Layer_1" enable-background="new 0 0 512 512" height="512" viewBox="0 0 512 512" width="512" xmlns="http://www.w3.org/2000/svg"><g><g clip-rule="evenodd" fill-rule="evenodd"><path d="m302 376.003c0 54.998-45.002 100-100 100h200c54.997 0 100-45.003 100-100v-200c0-29.549-12.993-56.209-33.546-74.556l10.79-40.271c2.847-10.625-3.517-21.648-14.142-24.495s-21.648 3.517-24.495 14.142l-8.037 29.995c-9.647-3.121-19.919-4.815-30.57-4.815s-20.924 1.694-30.57 4.815l-8.037-29.995c-2.847-10.625-13.869-16.989-24.495-14.142s-16.99 13.87-14.142 24.495l10.79 40.27c-15.944 14.233-27.339 33.47-31.647 55.178-1.245 6.274-1.898 12.754-1.898 19.379v76.851 86.267 36.882z" fill="#fffbf8"/><circle cx="190" cy="296.003" fill="#ffc8b8" r="60"/><path d="m190 236.003c33.137 0 60 26.863 60 60s-26.863 60-60 60-60-26.863-60-60 26.863-60 60-60zm0 180c50.425 0 94.492-31.336 112-76.882v-86.267c-17.331-44.953-60.937-76.851-112-76.851-66.274 0-120 53.726-120 120s53.726 120 120 120z" fill="#ffad95"/><path d="m190 176.003c51.063 0 94.669 31.897 112 76.851v-76.851c0-6.625.653-13.105 1.898-19.379-31.028-25.385-70.682-40.621-113.898-40.621-99.411 0-180 80.589-180 180s80.589 180 180 180h12c54.998 0 100-45.002 100-100v-36.882c-17.508 45.545-61.575 76.882-112 76.882-66.274 0-120-53.726-120-120s53.726-120 120-120z" fill="#ffc8b8"/></g><g fill="#ff9171"><path d="m479.656 98.278 9.248-34.514c4.281-15.978-5.235-32.46-21.214-36.742-15.979-4.28-32.46 5.236-36.742 21.213l-5.444 20.318c-15.401-3.389-31.609-3.389-47.008 0l-5.444-20.318c-4.281-15.978-20.763-25.495-36.742-21.213-7.719 2.068-14.181 7.037-18.196 13.99-4.014 6.953-5.086 15.033-3.018 22.752l9.248 34.513c-11.823 11.816-20.716 26.05-26.157 41.535-31.618-21.887-69.525-33.809-108.187-33.809-104.766 0-190 85.234-190 190s85.234 190 190 190h212c60.654 0 110-49.346 110-110v-200c0-29.122-11.715-57.109-32.344-77.725zm-289.656 367.725c-93.738 0-170-76.262-170-170s76.262-170 170-170c37.19 0 73.596 12.327 103.067 34.806-.707 5.007-1.067 10.083-1.067 15.194v200c0 49.626-40.374 90-90 90zm302-90c0 49.626-40.374 90-90 90h-136.818c28.297-19.924 46.818-52.839 46.818-90v-200c0-25.505 11.009-49.961 30.206-67.097 2.816-2.514 3.977-6.401 3-10.048l-10.791-40.27c-.686-2.559-.323-5.249 1.02-7.576s3.493-3.986 6.051-4.671c5.325-1.424 10.82 1.745 12.248 7.071l8.037 29.995c.709 2.647 2.474 4.888 4.882 6.197 2.408 1.31 5.249 1.573 7.855.729 8.878-2.873 18.128-4.33 27.492-4.33 9.362 0 18.612 1.457 27.492 4.33 2.608.843 5.447.58 7.855-.729s4.173-3.549 4.882-6.197l8.037-29.995c1.428-5.326 6.924-8.495 12.247-7.071 5.326 1.427 8.499 6.921 7.072 12.247l-10.791 40.271c-.978 3.647.183 7.534 3 10.048 19.197 17.136 30.206 41.592 30.206 67.096z"/><path d="m372.003 191.205h-.008c-5.523 0-9.996 4.477-9.996 10s4.481 10 10.004 10 10-4.477 10-10-4.477-10-10-10z"/><path d="m432.005 191.205h-.007c-5.523 0-9.997 4.477-9.997 10s4.481 10 10.004 10 10-4.477 10-10-4.477-10-10-10z"/></g><g><path d="m402 254.777c-7.433 0-14.763-1.964-21.2-5.681-4.783-2.762-6.422-8.877-3.66-13.66 2.761-4.784 8.878-6.421 13.66-3.66 3.4 1.963 7.273 3.001 11.2 3.001s7.799-1.038 11.2-3.001c4.782-2.761 10.898-1.122 13.661 3.661 2.761 4.783 1.122 10.899-3.661 13.661-6.437 3.714-13.768 5.679-21.2 5.679z" fill="#ffc8b8"/></g></g></svg>