<svg id="Layer_1" enable-background="new 0 0 512 512" height="512" viewBox="0 0 512 512" width="512" xmlns="http://www.w3.org/2000/svg"><g><g clip-rule="evenodd" fill-rule="evenodd"><path d="m185.999 100c0 27.5 22.5 50 50 50h40v-40-100c-49.5 0-90 40.5-90 90z" fill="#fff"/><path d="m235.999 150c-27.5 0-50-22.5-50-50 0-49.5 40.5-90 90-90h-60c-66 0-120 54-120 120v105.619h40.002c0-22 18-40 40-40h20c22 0 40 18 40 40 0 55.229-44.771 100-100 100-14.223 0-27.752-2.969-40.001-8.321v114.702c0 33 27 60 60 60v-99.84c0-.054 0-.108 0-.161v-31.999c21.817 0 42.322-5.9 60-16.185 35.8-20.827 60-59.632 60-103.815v-100z" fill="#cecdf3"/><path d="m155.999 401.998v.003.003.003.002.003.003.003.003.003.003.003.002.003c.018 32.985 27.01 59.967 60 59.967v-99.84c0-.054 0-.107 0-.161v-8.182c-17.677 10.284-38.183 16.185-60 16.185z" fill="#e8e7f9"/><path d="m196 195.619h-20c-22 0-40 18-40 40h-40.001-59.998c0 41.006 24.681 76.247 59.998 91.678 12.25 5.352 25.779 8.321 40.001 8.321 55.229 0 100-44.771 100-100 0-21.999-17.999-39.999-40-39.999z" fill="#e8e7f9"/><path d="m443.876 36.728c-17.864-16.567-41.741-26.728-67.877-26.728h-100v100h119.997c0-31.76 18.787-60.513 47.873-73.268z" fill="#ffee80"/><path d="m443.869 36.732c-29.086 12.755-47.873 41.508-47.873 73.268h80.003c0-28.865-12.394-54.975-32.123-73.271z" fill="#b5b3ee"/><path d="m395.996 110h-119.997v40h79.998c21.999 0 39.999-18 39.999-40z" fill="#fff2a0"/></g><g fill="#c193dc"><path d="m375.999 0h-100-60c-71.682 0-130 58.317-130 130v95.619h-49.999c-5.523 0-10 4.477-10 10 0 42.661 24.411 79.727 59.999 97.965v108.416c0 38.598 31.402 70 70 70 5.523 0 10-4.477 10-10v-51.078c12.715 12.993 30.427 21.077 50 21.077 5.523 0 10-4.477 10-10v-102.498c36.058-23.131 60-63.573 60-109.501v-90h69.998c24.056 0 44.321-17.232 48.988-40h71.014c5.523 0 10-4.477 10-10 0-60.654-49.346-110-110-110zm-306.994 295.621h26.994c5.523 0 10-4.477 10-10s-4.477-10-10-10h-40.585c-4.597-9.222-7.676-19.328-8.861-30.002h89.447c5.523 0 10-4.477 10-10 0-16.542 13.458-30 30-30h20c7.969 0 15.491 3.133 21.179 8.821s8.82 13.209 8.82 21.179c0 49.626-40.374 90-90 90-26.587 0-50.504-11.605-66.994-29.998zm76.994 195.374c-22.794-4.646-40-24.85-40-48.995v-100.54c9.541 2.708 19.605 4.159 30.001 4.159 3.371 0 6.704-.161 9.999-.459zm60-40.001c-22.793-4.646-40-24.85-40-48.995v-22.379c14.074-1.076 27.525-4.41 40-9.628zm60-200.994c0 57.285-44.012 104.483-100 109.549v-18.089c46.12-13.09 80.001-55.583 80.001-105.841 0-27.57-22.43-50-50-50h-20c-24.146 0-44.349 17.206-48.996 40h-21.006v-95.619c0-60.654 49.346-110 110-110h50v230zm89.998-110h-69.998v-20h98.273c-4.143 11.629-15.289 20-28.275 20zm-69.998-40v-80h90c46.246 0 84.457 35.063 89.448 80z"/><path d="m235.998 99.999c5.523 0 10-4.477 10-10s-4.477-10-10-10h-.008c-5.523 0-9.996 4.477-9.996 10s4.481 10 10.004 10z"/></g></g></svg>