<svg id="Layer_1" enable-background="new 0 0 512.001 512.001" height="512" viewBox="0 0 512.001 512.001" width="512" xmlns="http://www.w3.org/2000/svg"><g><g><g clip-rule="evenodd" fill-rule="evenodd"><ellipse cx="297.35" cy="76.659" fill="#eaf5bc" rx="51.971" ry="30" transform="matrix(.707 -.707 .707 .707 32.886 232.712)"/><ellipse cx="214.651" cy="76.659" fill="#eaf5bc" rx="30" ry="51.971" transform="matrix(.707 -.707 .707 .707 8.664 174.234)"/><ellipse cx="204.901" cy="199.072" fill="#eaf5bc" rx="36.952" ry="64.014" transform="matrix(.707 -.707 .707 .707 -80.751 203.194)"/><ellipse cx="307.1" cy="199.072" fill="#eaf5bc" rx="64.014" ry="36.952" transform="matrix(.707 -.707 .707 .707 -50.817 275.46)"/><ellipse cx="308.9" cy="332.861" fill="#eaf5bc" rx="67.245" ry="38.817" transform="matrix(.707 -.707 .707 .707 -144.893 315.917)"/><ellipse cx="203.101" cy="332.861" fill="#eaf5bc" rx="38.817" ry="67.245" transform="matrix(.707 -.707 .707 .707 -175.881 241.106)"/><path d="m223.167 399.565c-9.795-8.241-22.998-11.625-35.986-7.921-12.988 3.703-22.833 13.658-27.443 26.007-11.465-5.263-25.042-4.895-36.687 2.26-11.645 7.154-18.733 19.482-20.183 32.68-12.355-1.926-25.379 2.169-34.887 12.287s-13.356 23.977-11.546 37.124h399.131c1.81-13.147-2.038-27.007-11.547-37.124-9.508-10.118-22.532-14.214-34.887-12.287-1.45-13.198-8.537-25.525-20.183-32.679-11.645-7.155-25.221-7.523-36.686-2.26-4.61-12.349-14.455-22.304-27.443-26.007-12.989-3.704-26.191-.321-35.986 7.921-7.457-10.659-19.387-17.563-32.834-17.563-13.446-.001-25.376 6.903-32.833 17.562z" fill="#e8d0c1"/></g><g><path d="m195.603 467.525c-5.523 0-10.004-4.477-10.004-10s4.474-10 9.997-10h.007c5.523 0 10 4.477 10 10s-4.477 10-10 10z" fill="#d1a19e"/></g><g><path d="m284.403 449.525c-5.522 0-10.004-4.477-10.004-10s4.474-10 9.996-10h.008c5.522 0 10 4.477 10 10s-4.478 10-10 10z" fill="#d1a19e"/></g><g><path d="m355.202 468.725c-5.522 0-10.004-4.477-10.004-10s4.475-10 9.997-10h.007c5.522 0 10 4.477 10 10s-4.477 10-10 10z" fill="#d1a19e"/></g></g><path d="m451.307 458.03c-9.071-9.655-21.321-15.251-34.042-15.843-3.65-12.908-11.758-23.841-23.08-30.796-11.143-6.846-24.342-8.91-36.763-6.02-6.753-11.341-17.423-19.798-29.859-23.344-.837-.239-1.678-.45-2.522-.642 6.644-3.798 12.843-8.471 18.378-14.005 22.051-22.051 30.746-54.486 22.691-84.648-.923-3.458-3.623-6.158-7.081-7.082-30.163-8.055-62.598.641-84.648 22.692-3.057 3.057-5.847 6.319-8.381 9.741v-52.591c4.929.887 9.891 1.334 14.833 1.334 22.009 0 43.562-8.649 59.467-24.554 21.112-21.112 29.438-52.167 21.727-81.045-.923-3.458-3.623-6.159-7.081-7.082-28.879-7.71-59.932.613-81.046 21.727-2.876 2.876-5.506 5.943-7.899 9.157v-50.331c3.336.484 6.685.731 10.022.731 18.361 0 36.342-7.216 49.611-20.485 17.614-17.614 24.561-43.522 18.126-67.614-.923-3.458-3.624-6.158-7.081-7.082-24.092-6.431-49.999.512-67.613 18.126-1.061 1.062-2.082 2.155-3.065 3.274v-41.648c0-5.523-4.478-10-10-10-5.523 0-10 4.477-10 10v41.647c-.983-1.119-2.003-2.212-3.064-3.273-17.614-17.614-43.522-24.561-67.613-18.126-3.458.923-6.158 3.624-7.082 7.082-6.433 24.092.512 50 18.126 67.614 13.271 13.271 31.249 20.485 49.611 20.485 3.337 0 6.686-.247 10.022-.731v50.329c-2.393-3.214-5.023-6.28-7.899-9.156-21.113-21.112-52.168-29.438-81.045-21.726-3.458.923-6.158 3.624-7.082 7.082-7.711 28.878.614 59.933 21.727 81.045 15.907 15.906 37.457 24.554 59.467 24.554 4.941 0 9.904-.447 14.832-1.334v52.589c-2.534-3.422-5.324-6.684-8.38-9.74-22.051-22.05-54.486-30.745-84.648-22.692-3.458.923-6.158 3.624-7.082 7.082-8.054 30.162.641 62.598 22.692 84.648 5.535 5.535 11.734 10.208 18.377 14.006-.843.192-1.684.403-2.521.642-12.436 3.546-23.106 12.004-29.859 23.344-12.421-2.89-25.62-.826-36.763 6.02-11.324 6.957-19.431 17.889-23.08 30.797-12.72.592-24.971 6.188-34.042 15.842-11.312 12.038-16.475 28.562-14.166 45.336.682 4.949 4.911 8.636 9.907 8.636h399.131c4.996 0 9.226-3.687 9.906-8.636 2.309-16.776-2.855-33.301-14.166-45.336zm-162.783-145.546c15.612-15.614 37.975-22.552 59.542-18.79 3.761 21.567-3.176 43.93-18.789 59.542-12.445 12.445-29.177 19.369-46.377 19.767l23.078-23.078c3.905-3.905 3.905-10.237 0-14.142s-10.235-3.905-14.143 0l-23.079 23.078c.398-17.199 7.323-33.932 19.768-46.377zm-.482-132.47c14.672-14.671 35.653-21.235 55.927-17.811 3.424 20.275-3.14 41.255-17.812 55.927-11.467 11.468-26.791 17.981-42.617 18.644l15.185-15.185c3.905-3.906 3.905-10.237 0-14.143-3.906-3.905-10.236-3.905-14.143 0l-15.186 15.186c.664-15.827 7.178-31.15 18.646-42.618zm37.592-131.639c2.182 15.446-2.983 31.268-14.143 42.427-7.735 7.735-17.711 12.582-28.249 14.107l3.839-3.839c3.905-3.905 3.905-10.237 0-14.142-3.906-3.905-10.236-3.905-14.143 0l-3.838 3.838c1.524-10.538 6.372-20.514 14.108-28.25 11.157-11.159 26.975-16.323 42.426-14.141zm-139.267 0c15.446-2.182 31.268 2.984 42.426 14.142 7.735 7.735 12.583 17.712 14.107 28.25l-3.839-3.839c-3.905-3.905-10.237-3.905-14.143 0s-3.905 10.237 0 14.143l3.838 3.838c-10.537-1.525-20.513-6.372-28.248-14.107-11.157-11.16-16.321-26.981-14.141-42.427zm-18.335 113.828c20.277-3.425 41.255 3.138 55.927 17.811 11.468 11.468 17.982 26.79 18.644 42.618l-15.185-15.186c-3.905-3.905-10.236-3.904-14.143 0-3.905 3.905-3.905 10.237 0 14.143l15.185 15.185c-15.827-.663-31.149-7.176-42.617-18.644-14.671-14.672-21.234-35.652-17.811-55.927zm-4.097 131.491c21.569-3.762 43.93 3.176 59.543 18.789 12.445 12.445 19.37 29.178 19.767 46.378l-23.079-23.078c-3.904-3.905-10.237-3.905-14.142 0s-3.905 10.237 0 14.142l23.079 23.079c-17.2-.396-33.934-7.322-46.379-19.768-15.613-15.612-22.55-37.974-18.789-59.542zm-97.74 198.307c.78-7.608 3.944-14.817 9.074-20.276 6.938-7.382 16.435-10.755 26.06-9.254 2.697.419 5.451-.281 7.619-1.94 2.168-1.66 3.563-4.134 3.862-6.849 1.161-10.57 6.946-20.01 15.478-25.25 8.416-5.17 18.358-5.787 27.279-1.692 2.525 1.159 5.42 1.215 7.988.155 2.569-1.061 4.58-3.142 5.552-5.746 3.704-9.923 11.292-17.172 20.816-19.888 9.364-2.668 19.134-.498 26.807 5.957 2.148 1.807 4.958 2.632 7.739 2.263 2.783-.365 5.284-1.883 6.893-4.183 5.911-8.449 14.892-13.295 24.64-13.295 9.749 0 18.729 4.846 24.639 13.295 1.609 2.3 4.11 3.817 6.894 4.183 2.779.367 5.592-.457 7.739-2.263 7.672-6.456 17.445-8.625 26.806-5.956 9.524 2.716 17.112 9.965 20.817 19.888.972 2.604 2.983 4.685 5.552 5.746 2.568 1.06 5.462 1.004 7.988-.155 8.921-4.096 18.865-3.478 27.28 1.692 8.529 5.24 14.315 14.68 15.477 25.251.299 2.714 1.693 5.188 3.862 6.848 2.168 1.66 4.917 2.358 7.619 1.94 9.621-1.499 19.122 1.872 26.059 9.255 5.13 5.458 8.294 12.667 9.074 20.275h-379.613z" fill="#5cd0b3"/></g></svg>