<svg id="Layer_1" enable-background="new 0 0 512.007 512.007" height="512" viewBox="0 0 512.007 512.007" width="512" xmlns="http://www.w3.org/2000/svg"><g><g><g fill="#99ebfa"><path d="m129.929 351.987c0-3.573-1.906-6.874-5-8.66l-31.619-18.256c-3.094-1.787-6.906-1.787-10 0-3.094 1.786-5 5.087-5 8.66v36.511c0 3.573 1.906 6.874 5 8.66 1.547.894 3.273 1.34 5 1.34s3.453-.446 5-1.34l31.619-18.255c3.094-1.786 5-5.087 5-8.66z"/><path d="m141.359 371.818c-3.094-1.787-6.906-1.786-10 0l-31.62 18.255c-3.094 1.786-5 5.087-5 8.66s1.906 6.874 5 8.66l31.62 18.255c1.547.894 3.273 1.34 5 1.34s3.453-.447 5-1.34c3.094-1.786 5-5.087 5-8.66v-36.511c0-3.572-1.907-6.873-5-8.659z"/><path d="m205.866 390.09-31.619-18.255c-3.094-1.787-6.906-1.786-10 0s-5 5.087-5 8.66v36.51c0 3.573 1.906 6.874 5 8.66 1.547.894 3.273 1.34 5 1.34s3.453-.446 5-1.34l31.619-18.255c3.094-1.786 5-5.087 5-8.66s-1.907-6.873-5-8.66z"/><path d="m222.326 325.107c-3.094-1.787-6.906-1.787-10 0l-31.619 18.255c-3.094 1.786-5 5.087-5 8.66s1.906 6.874 5 8.66l31.619 18.255c1.547.894 3.273 1.34 5 1.34s3.453-.446 5-1.34c3.094-1.786 5-5.087 5-8.66v-36.511c0-3.572-1.907-6.873-5-8.659z"/><path d="m164.277 332.192c1.547.894 3.273 1.34 5 1.34s3.453-.447 5-1.34l31.62-18.255c3.094-1.786 5-5.087 5-8.66s-1.906-6.874-5-8.66l-31.62-18.255c-3.094-1.787-6.906-1.786-10 0s-5 5.087-5 8.66v36.511c0 3.571 1.906 6.872 5 8.659z"/><path d="m141.389 278.343c-3.094-1.787-6.906-1.787-10 0l-31.619 18.255c-3.094 1.786-5 5.087-5 8.66s1.906 6.874 5 8.66l31.619 18.255c1.547.894 3.273 1.34 5 1.34s3.453-.447 5-1.34c3.094-1.786 5-5.087 5-8.66v-36.51c0-3.573-1.906-6.874-5-8.66z"/></g><path clip-rule="evenodd" d="m136.389 287.003v36.51l-31.62-18.254zm116.342 7.317-99.913-57.685-99.914 57.685v115.369l99.913 57.685 99.913-57.685v-115.369zm-83.454 29.211v-36.511l31.62 18.256zm-64.538 75.202 31.62-18.255v36.511zm64.507-18.237 31.62 18.255-31.62 18.256zm16.46-28.474 31.619-18.255v36.511zm-97.396-18.291 31.619 18.256-31.619 18.255z" fill="#ccf5fc" fill-rule="evenodd"/><g fill="#99ebfa"><g><path clip-rule="evenodd" d="m361.442 129.988-25.295-14.604v29.209z" fill-rule="evenodd"/><path d="m336.147 154.592c-1.727 0-3.453-.447-5-1.34-3.094-1.786-5-5.087-5-8.66v-29.209c0-3.573 1.906-6.874 5-8.66s6.906-1.787 10 0l25.295 14.604c3.094 1.786 5 5.087 5 8.66s-1.906 6.874-5 8.66l-25.295 14.604c-1.547.895-3.274 1.341-5 1.341z"/></g><g><path clip-rule="evenodd" d="m374.585 152.781-25.296 14.604 25.296 14.605z" fill-rule="evenodd"/><path d="m374.585 191.989c-1.727 0-3.453-.446-5-1.339l-25.296-14.604c-3.094-1.787-5-5.088-5-8.661s1.906-6.874 5-8.66l25.296-14.604c3.094-1.786 6.906-1.787 10 0 3.094 1.786 5 5.087 5 8.66v29.208c0 3.573-1.906 6.874-5 8.66-1.547.894-3.273 1.34-5 1.34z"/></g><g><path clip-rule="evenodd" d="m400.896 152.795-.001 29.209 25.296-14.605z" fill-rule="evenodd"/><path d="m400.896 192.004c-1.727 0-3.453-.447-5-1.34-3.094-1.786-5-5.087-5-8.66v-29.208c0-3.573 1.906-6.874 5-8.66s6.906-1.787 10 0l25.295 14.604c3.094 1.786 5 5.087 5 8.66s-1.906 6.874-5 8.66l-25.295 14.604c-1.547.893-3.274 1.34-5 1.34z"/></g><g><path clip-rule="evenodd" d="m414.063 130.017 25.295 14.604v-29.209z" fill-rule="evenodd"/><path d="m439.359 154.621c-1.727 0-3.453-.446-5-1.34l-25.296-14.604c-3.094-1.786-5-5.087-5-8.66s1.906-6.874 5-8.66l25.296-14.604c3.094-1.786 6.906-1.786 10 0s5 5.087 5 8.66v29.209c0 3.573-1.906 6.874-5 8.66-1.547.892-3.274 1.339-5 1.339z"/></g><g><path clip-rule="evenodd" d="m400.92 107.224 25.295-14.604-25.295-14.605z" fill-rule="evenodd"/><path d="m400.92 117.224c-1.727 0-3.453-.447-5-1.34-3.094-1.786-5-5.087-5-8.66v-29.209c0-3.573 1.906-6.874 5-8.66s6.906-1.787 10 0l25.295 14.604c3.094 1.786 5 5.087 5 8.66s-1.906 6.874-5 8.66l-25.295 14.604c-1.547.894-3.273 1.341-5 1.341z"/></g><g><path clip-rule="evenodd" d="m374.609 107.21v-29.209l-25.295 14.605z" fill-rule="evenodd"/><path d="m374.61 117.21c-1.727 0-3.453-.446-5-1.34l-25.296-14.604c-3.094-1.786-5-5.087-5-8.66s1.906-6.874 5-8.66l25.296-14.604c3.094-1.786 6.906-1.786 10 0s5 5.087 5 8.66v29.208c0 3.573-1.906 6.874-5 8.66-1.547.893-3.274 1.34-5 1.34z"/></g></g><path clip-rule="evenodd" d="m374.61 78.001v29.208l-25.296-14.603zm93.073 5.854-79.93-46.148-79.931 46.148v92.296l79.931 46.148 79.93-46.148zm-66.763 23.369v-29.208l25.296 14.605zm-51.631 60.161 25.296-14.604v29.209zm51.606-14.59 25.296 14.604-25.296 14.605zm13.168-22.778 25.295-14.604v29.209zm-77.916-14.633 25.295 14.604-25.295 14.604z" fill="#ccf5fc" fill-rule="evenodd"/></g><g fill="#33d6f5"><path d="m262.731 300.093 7.079-4.088 20.822 12.021c1.575.909 3.294 1.341 4.99 1.341 3.456 0 6.818-1.794 8.67-5.002 2.762-4.783 1.123-10.899-3.66-13.66l-20.822-12.021v-24.043c0-5.523-4.478-10-10-10s-10 4.477-10 10v24.043l-7.079 4.087-89.913-51.912v-8.175l20.821-12.021c4.783-2.761 6.422-8.877 3.66-13.66-2.761-4.781-8.874-6.421-13.66-3.66l-20.822 12.021-20.821-12.021c-4.784-2.761-10.898-1.123-13.66 3.66s-1.123 10.899 3.66 13.66l20.822 12.022v8.174l-89.914 51.912-7.079-4.088v-24.043c0-5.523-4.478-10-10-10s-10 4.477-10 10v24.043l-20.823 12.024c-4.783 2.761-6.422 8.877-3.66 13.66 1.853 3.208 5.213 5.002 8.67 5.002 1.696 0 3.416-.433 4.99-1.342l20.822-12.022 7.079 4.087v103.823l-7.079 4.087-20.821-12.021c-4.784-2.762-10.898-1.122-13.66 3.66-2.762 4.783-1.123 10.899 3.66 13.66l20.821 12.021v24.043c0 5.523 4.478 10 10 10s10-4.477 10-10v-24.043l7.079-4.088 89.914 51.911v8.175l-20.822 12.021c-4.783 2.761-6.422 8.877-3.66 13.66 2.763 4.783 8.879 6.422 13.66 3.66l20.822-12.021 20.821 12.021c1.575.909 3.294 1.342 4.99 1.342 3.456 0 6.817-1.794 8.67-5.002 2.762-4.783 1.123-10.899-3.66-13.66l-20.821-12.021v-8.175l89.913-51.911 7.079 4.088v24.043c0 5.523 4.478 10 10 10s10-4.477 10-10v-24.043l20.822-12.021c4.783-2.761 6.422-8.877 3.66-13.66-2.762-4.782-8.874-6.422-13.66-3.66l-20.823 12.022-7.079-4.087v-103.823zm-20 103.823-89.913 51.912-89.914-51.912v-103.823l89.914-51.912 89.913 51.912z"/><path d="m497.004 163.452-15.658 9.04-3.664-2.115v-80.749l3.664-2.115 15.657 9.04c1.575.909 3.294 1.342 4.99 1.342 3.456 0 6.817-1.794 8.67-5.002 2.762-4.783 1.123-10.899-3.66-13.66l-15.657-9.04v-18.08c0-5.523-4.478-10-10-10s-10 4.477-10 10v18.08l-3.664 2.115-69.931-40.375v-4.231l15.657-9.04c4.783-2.761 6.422-8.877 3.66-13.66-2.761-4.782-8.876-6.422-13.66-3.66l-15.657 9.04-15.658-9.04c-4.784-2.763-10.899-1.123-13.66 3.66-2.762 4.783-1.123 10.899 3.66 13.66l15.658 9.04v4.23l-69.931 40.375-3.664-2.115v-18.08c0-5.523-4.478-10-10-10s-10 4.477-10 10v18.08l-15.657 9.04c-4.783 2.761-6.422 8.877-3.66 13.66 1.853 3.208 5.213 5.002 8.67 5.002 1.696 0 3.415-.433 4.99-1.342l15.658-9.04 3.664 2.115v80.749l-3.664 2.115-15.657-9.04c-4.785-2.763-10.899-1.123-13.66 3.66-2.762 4.783-1.123 10.899 3.66 13.66l15.657 9.04v18.08c0 5.523 4.478 10 10 10s10-4.477 10-10v-18.08l3.664-2.115 69.931 40.375v4.231l-15.657 9.04c-4.783 2.761-6.422 8.877-3.66 13.66 2.763 4.783 8.879 6.423 13.66 3.66l15.657-9.04 15.657 9.04c1.575.91 3.294 1.342 4.99 1.342 3.456 0 6.818-1.794 8.67-5.002 2.762-4.783 1.123-10.899-3.66-13.66l-15.657-9.04v-4.231l69.931-40.375 3.664 2.115v18.08c0 5.523 4.478 10 10 10s10-4.477 10-10v-18.08l15.657-9.04c4.783-2.761 6.422-8.877 3.66-13.66-2.76-4.781-8.873-6.421-13.66-3.659zm-39.321 6.925-69.931 40.375-69.931-40.375v-80.75l69.931-40.375 69.931 40.375z"/></g></g></svg>