<svg id="Layer_1" enable-background="new 0 0 512.002 512.002" height="512" viewBox="0 0 512.002 512.002" width="512" xmlns="http://www.w3.org/2000/svg"><g><g clip-rule="evenodd" fill-rule="evenodd"><path d="m186.135 308.206-30.564 18.511c-3.135 1.898-7.214.896-9.113-2.239-.906-1.496-1.186-3.272-.781-4.973l8.258-34.459-27.069-23.365c-2.775-2.401-3.078-6.598-.677-9.373 1.191-1.376 2.822-2.16 4.504-2.291l35.327-2.794.44-1.047c-4.19-18.152-6.406-37.06-6.406-56.486 0-57.401 19.345-110.277 51.865-152.482 9.117-11.832-.588-31.311-18.288-26.445-105.861 29.106-183.631 126.036-183.631 241.145 0 138.121 111.97 250.091 250.091 250.091 48.178 0 93.168-13.631 131.337-37.239 11.663-7.214 9.807-24.674-5.37-26.124-83.613-7.989-155.205-57.154-194.288-126.98z" fill="#fff"/><path d="m155.571 326.717 30.564-18.511 5.635 3.45 24.324 14.893c1.483 1.006 3.365 1.414 5.248.975 3.58-.834 5.807-4.413 4.973-7.993l-8.165-34.81 26.6-22.737c1.47-1.104 2.479-2.806 2.641-4.781.302-3.667-2.426-6.884-6.092-7.186l-35.605-2.989-13.566-32.716c-.672-1.617-1.955-2.888-3.567-3.567-3.379-1.423-7.273.162-8.696 3.541l-13.404 31.889-.44 1.047-35.327 2.794c-1.682.132-3.313.915-4.504 2.291-2.401 2.775-2.098 6.972.677 9.373l27.069 23.365-8.258 34.459c-.405 1.701-.124 3.477.781 4.973 1.897 3.136 5.977 4.138 9.112 2.24z" fill="#fff2a0"/><path d="m332.59 185.599-14.967 62.45c-.734 3.083-.225 6.302 1.416 9.012 3.44 5.681 10.834 7.498 16.515 4.058l55.392-33.548 54.295 33.243c2.688 1.823 6.098 2.563 9.511 1.768 6.489-1.511 10.524-7.997 9.012-14.486l-14.798-63.086 48.207-41.206c2.663-2 4.492-5.085 4.787-8.665.547-6.645-4.396-12.476-11.041-13.023l-64.527-5.417-24.586-59.29c-1.217-2.931-3.543-5.234-6.464-6.464-6.124-2.58-13.18.293-15.76 6.417l-25.09 59.691-64.023 5.063c-3.048.239-6.005 1.658-8.163 4.153-4.352 5.029-3.802 12.635 1.227 16.986z" fill="#fff7bf"/></g><g fill="#ffcd69"><path d="m387.009 428.681c-65.872-6.294-125.703-39.595-165.976-91.054.864-.062 1.726-.165 2.579-.364 4.333-1.009 8.013-3.646 10.364-7.424 2.35-3.778 3.088-8.245 2.076-12.592l-6.775-28.881 21.784-18.621c3.629-2.859 5.917-7.109 6.297-11.722.753-9.156-6.082-17.218-15.222-17.972l-29.537-2.479-11.233-27.09c0-.001 0-.002-.001-.003-1.684-4.057-4.852-7.235-8.921-8.949-4.096-1.726-8.618-1.751-12.734-.076-3.933 1.602-7.03 4.585-8.807 8.426-.559-6.706-.847-13.444-.847-20.189 0-53.491 17.216-104.108 49.786-146.378 7.107-9.224 7.465-22 .89-31.793-6.495-9.673-17.894-13.657-29.75-10.397-53.855 14.805-102.428 47.423-136.775 91.845-35.463 45.864-54.207 100.824-54.207 158.94 0 69.472 27.054 134.787 76.179 183.912s114.439 76.179 183.912 76.179c48.394 0 95.629-13.394 136.597-38.735 9.386-5.805 14.083-16.594 11.689-26.846-2.311-9.902-10.499-16.699-21.368-17.737zm-201.039-203.112 10.487 25.29c1.433 3.455 4.674 5.822 8.401 6.134l27.628 2.319-20.833 17.808c-2.843 2.43-4.092 6.244-3.238 9.885l6.332 26.993-23.389-14.32c-1.602-.981-3.412-1.472-5.222-1.472-1.794 0-3.588.482-5.181 1.446l-23.672 14.337 6.378-26.612c.872-3.637-.359-7.457-3.19-9.901l-20.996-18.122 27.334-2.162c3.729-.294 6.981-2.645 8.431-6.094zm200.197 230.685c-37.806 23.384-81.402 35.744-126.077 35.744-132.386.001-240.09-107.704-240.09-240.09 0-107.768 72.49-202.966 176.282-231.502 3.545-.975 6.183-.213 7.844 2.262 1.429 2.128 1.999 5.677-.128 8.438-35.29 45.8-53.943 100.638-53.943 158.585 0 16.275 1.523 32.52 4.511 48.408l-24.657 1.95c-4.383.345-8.389 2.375-11.281 5.717-6.006 6.94-5.246 17.473 1.704 23.487l22.459 19.386-6.843 28.553c-1.018 4.277-.323 8.705 1.956 12.467 2.301 3.801 5.945 6.479 10.261 7.539s8.785.376 12.586-1.926l24.514-14.847c42.169 72.411 116.546 120.208 199.842 128.167 3.314.317 3.675 1.866 3.794 2.375.366 1.563-.338 3.806-2.734 5.287z"/><path d="m491.755 112.151-58.459-4.908-22.253-53.665c0-.001-.001-.002-.001-.003-2.229-5.368-6.425-9.575-11.818-11.846-5.423-2.285-11.412-2.32-16.862-.102-5.451 2.22-9.711 6.429-11.999 11.859l-22.73 54.077-57.947 4.583c-5.802.456-11.108 3.147-14.943 7.579-7.952 9.191-6.945 23.138 2.255 31.1l44.448 38.365-13.551 56.543c-1.348 5.661-.428 11.523 2.589 16.508 3.047 5.032 7.872 8.577 13.585 9.981 5.714 1.403 11.631.499 16.664-2.549l50.183-30.394 48.932 29.959c3.633 2.4 7.89 3.654 12.188 3.654 1.666 0 3.338-.188 4.982-.572 5.74-1.337 10.615-4.829 13.729-9.833s4.092-10.921 2.751-16.676l-13.407-57.157 43.374-37.075c4.875-3.788 7.953-9.461 8.46-15.621 1-12.128-8.055-22.809-20.17-23.807zm-.587 23.657c-.168.126-.333.258-.493.395l-48.208 41.207c-2.843 2.43-4.092 6.244-3.238 9.885l14.794 63.071c.16.688-.052 1.227-.258 1.558s-.596.759-1.284.919c-.727.17-1.286-.072-1.628-.305-.129-.087-.259-.171-.392-.252l-54.295-33.243c-1.602-.981-3.412-1.472-5.222-1.472-1.794 0-3.588.482-5.18 1.446l-55.392 33.548c-.592.358-1.159.326-1.532.234-.372-.091-.89-.324-1.249-.917-.283-.468-.367-.992-.245-1.502l14.967-62.45c.872-3.637-.359-7.457-3.19-9.901l-49.049-42.336c-.852-.737-.945-2.029-.208-2.881.499-.577 1.081-.703 1.389-.727l64.023-5.063c3.729-.295 6.981-2.646 8.43-6.094l25.087-59.684c.27-.641.75-.948 1.106-1.092.356-.145.916-.261 1.557.009.515.217.909.6 1.108 1.079l24.586 59.29c1.433 3.455 4.674 5.821 8.401 6.134l64.543 5.418c1.139.094 1.989 1.097 1.896 2.236-.065.807-.544 1.28-.824 1.49z"/></g></g></svg>