<svg id="Layer_1" enable-background="new 0 0 512.002 512.002" height="512" viewBox="0 0 512.002 512.002" width="512" xmlns="http://www.w3.org/2000/svg"><g><g clip-rule="evenodd" fill-rule="evenodd"><g><path d="m145.639 88.6c-9.741-5.598-.639-12.016-9.683-18.547-18.806 25.061-29.948 56.203-29.948 89.947 0 22.296 4.864 43.455 13.59 62.475 4.398-1.915 15.368-10.866 18.845-14.183 18.393-17.544 27.292 13.175 48.052-12.993 5.838-7.359 17.51-8.163 23.049-3.105 12.019 10.978 26.769-15.482 26.707-17.289-.779-22.872-25.059-24.239-22.62-37.652 2.844-15.648 4.311-6.173-7.777-21.063-4.275-5.265-38.018 4.534-38.018-17.624 0-17.171-12.456-4.368-22.197-9.966z" fill="#e0ef9b"/><path d="m145.639 88.6c9.741 5.598 22.197-7.205 22.197 9.967 0 22.158 33.743 12.358 38.018 17.624 12.088 14.89 10.621 5.414 7.777 21.063-2.438 13.413 21.842 14.78 22.62 37.652.061 1.807-14.688 28.267-26.707 17.289-5.539-5.059-17.211-4.255-23.049 3.105-20.76 26.168-29.66-4.551-48.052 12.993-3.477 3.317-14.447 12.269-18.845 14.183 22.389 48.805 70.201 83.523 126.482 87.201 11.603-22.832-10.337-30.771-7.801-46.783 1.414-8.93 9.809-14.902 13.706-19.145 8.048-8.764-11.019-36.179 15.157-35.822 13.992.191 22.032-15.006 24.481-27.199 2.256-11.232 15.026-11.931 21.951-4.871 12.736 12.984 15.158-.435 20.665-3.178 12.982-6.465-24.415-40.692-31.735-42.951-10.349-3.194 4.042-18.947 7.84-19.484 10.414-1.473 14.567-4.084 23.655-7.317 27.653-9.837 18.243-25.693 38.286-37.697-27.508-33.707-69.379-55.23-116.278-55.23-49.098 0-92.687 23.589-120.051 60.053 9.044 6.531-.057 12.949 9.683 18.547z" fill="#ccf5fc"/><path d="m291.621 180.728c-2.449 12.193-10.489 27.39-24.481 27.199-26.176-.357-7.109 27.058-15.157 35.822-3.896 4.243-12.292 10.214-13.706 19.145-2.536 16.012 19.405 23.95 7.801 46.783 3.282.214 6.592.323 9.929.323 82.842 0 150-67.157 150-150 0-35.944-12.643-68.935-33.724-94.77-20.043 12.004-10.633 27.86-38.286 37.697-9.088 3.233-13.241 5.844-23.655 7.317-3.798.537-18.189 16.29-7.84 19.484 7.32 2.259 44.717 36.486 31.735 42.951-5.507 2.743-7.929 16.161-20.665 3.178-6.925-7.06-19.695-6.361-21.951 4.871z" fill="#e0ef9b"/></g><path d="m245.237 371.128c-55.922 6.946-176.146-44.986-208.793 110.853-2.287 10.917 4.759 20.021 13.108 20.021h90.003c10.833 0 15.689-4.902 17.911-13.196l8.403-16.353 61.223.678c40.274.446 51.756-1.799 89.457-16.916 52.413-21.017 128.409-55.413 145.346-61.781 24.629-9.547 15.402-44.755-15.127-37.096l-99.993 26.955c.96-2.342 1.35-4.951.985-7.865-1.309-10.455-10.967-17.942-21.463-16.639-10.058 1.249-71.003 10.09-81.06 11.339z" fill="#f4e9e2"/></g><g fill="#cdc0c4"><path d="m484.646 366.711c-4.139-13.019-18.516-24.542-40.312-19.072-.057.015-.113.029-.169.044l-87.264 23.523c-3.724-13.811-17.212-23.158-31.837-21.342-5.114.635-22.39 3.09-40.68 5.689-17.422 2.476-35.437 5.036-40.381 5.65-10.808 1.343-25.278.199-40.599-1.012-30.144-2.383-67.657-5.348-100.726 8.808-39.018 16.702-63.886 52.988-76.024 110.931-1.785 8.529.148 17.062 5.306 23.412 4.471 5.503 10.883 8.66 17.592 8.66h90.002c14.025 0 23.427-6.738 27.258-19.505l5.125-9.976 55.044.61c41.241.459 54.336-2.015 93.289-17.634 30.106-12.072 67.676-28.416 97.864-41.549 21.605-9.399 40.265-17.516 47.279-20.153.031-.012.063-.024.095-.036 18.07-7.005 23.305-23.939 19.138-37.048zm-26.321 18.382c-7.52 2.832-25.464 10.638-48.168 20.515-30.069 13.081-67.492 29.361-97.329 41.325-36.558 14.659-46.952 16.625-85.625 16.199l-61.224-.678c-3.799-.061-7.274 2.06-9.005 5.429l-8.402 16.353c-.324.632-.581 1.296-.765 1.982-1.102 4.11-2.156 5.785-8.252 5.785h-90.002c-.648 0-1.422-.475-2.067-1.27-1.323-1.628-1.792-4.134-1.255-6.701 10.703-51.086 31.742-82.699 64.32-96.645 16.763-7.176 35.182-9.227 53.489-9.227 12.855 0 25.657 1.012 37.79 1.971 16.362 1.293 31.817 2.514 44.639.922 5.118-.636 22.416-3.094 40.73-5.696 17.399-2.472 35.392-5.029 40.33-5.643 5.038-.629 9.68 2.941 10.308 7.958.195 1.559.714 5.7-10.949 11.047-25.381 11.637-52.426 21.596-74.2 27.325-5.342 1.405-8.532 6.874-7.127 12.215 1.404 5.341 6.873 8.533 12.215 7.127 22.839-6.008 51.067-16.391 77.448-28.486 9.16-4.2 14.841-9.095 18.225-14.047l95.832-25.833c9.891-2.453 14.907 1.357 16.305 5.752 1.336 4.203-.393 9.638-7.261 12.321z"/><path d="m256.007 320c88.225 0 160-71.776 160-160s-71.775-160-160-160-160 71.776-160 160 71.776 160 160 160zm0-300c77.196 0 140 62.804 140 140s-62.804 140-140 140-140-62.804-140-140 62.804-140 140-140z"/></g></g></svg>